<svg width="156" height="20" viewBox="0 0 156 20" fill="none" xmlns="http://www.w3.org/2000/svg">
<g id="Logo">
<g id="Layer">
<g id="g">
<g id="Layer_2">
<g id="Blue">
<g id="path">
<mask id="path-1-inside-1_801_3171" fill="white">
<path d="M85.5741 8.28877C85.5741 10.5779 86.6415 12.415 90.8135 13.2191C93.3029 13.7399 93.8237 14.1433 93.8237 14.9731C93.8237 15.803 93.3029 16.3009 91.5346 16.3009C89.4149 16.2626 87.3378 15.7003 85.4883 14.6641V18.4126C86.7445 19.0278 88.4041 19.7175 91.4974 19.7175C95.8611 19.7175 97.5923 17.7745 97.5923 14.8816M97.5923 14.8816C97.5923 12.1546 96.1472 10.8755 92.0668 9.99706C89.8148 9.49917 89.2683 9.00128 89.2683 8.28019C89.2683 7.37883 90.0752 7.00111 91.5574 7.00111C93.3602 7.00111 95.1371 7.54765 96.8225 8.30594V4.73197C95.2068 3.99639 93.4469 3.6317 91.6719 3.66465C87.6401 3.66465 85.5541 5.41872 85.5541 8.28877"/>
</mask>
<path d="M85.5741 8.28877C85.5741 10.5779 86.6415 12.415 90.8135 13.2191C93.3029 13.7399 93.8237 14.1433 93.8237 14.9731C93.8237 15.803 93.3029 16.3009 91.5346 16.3009C89.4149 16.2626 87.3378 15.7003 85.4883 14.6641V18.4126C86.7445 19.0278 88.4041 19.7175 91.4974 19.7175C95.8611 19.7175 97.5923 17.7745 97.5923 14.8816M97.5923 14.8816C97.5923 12.1546 96.1472 10.8755 92.0668 9.99706C89.8148 9.49917 89.2683 9.00128 89.2683 8.28019C89.2683 7.37883 90.0752 7.00111 91.5574 7.00111C93.3602 7.00111 95.1371 7.54765 96.8225 8.30594V4.73197C95.2068 3.99639 93.4469 3.6317 91.6719 3.66465C87.6401 3.66465 85.5541 5.41872 85.5541 8.28877" fill="white" fill-opacity="0.2"/>
<path d="M90.8135 13.2191L90.9622 12.508L90.9509 12.5058L90.8135 13.2191ZM91.5346 16.3009L91.5214 17.0272H91.5346V16.3009ZM85.4883 14.6641L85.8433 14.0304L84.7619 13.4246V14.6641H85.4883ZM85.4883 18.4126H84.7619V18.8657L85.1688 19.065L85.4883 18.4126ZM92.0668 9.99706L91.91 10.7063L91.9139 10.7072L92.0668 9.99706ZM96.8225 8.30594L96.5245 8.96835L97.5489 9.42925V8.30594H96.8225ZM96.8225 4.73197H97.5489V4.26456L97.1235 4.07089L96.8225 4.73197ZM91.6719 3.66465V4.39114L91.6854 4.39089L91.6719 3.66465ZM84.8478 8.28877C84.8478 9.55018 85.145 10.7836 86.0979 11.8061C87.0335 12.81 88.5142 13.5157 90.676 13.9323L90.9509 12.5058C88.9407 12.1184 87.8017 11.5035 87.1607 10.8156C86.5369 10.1462 86.3005 9.31654 86.3005 8.28877H84.8478ZM90.6647 13.9301C91.9171 14.1921 92.5526 14.404 92.8734 14.6C93.0149 14.6865 93.0524 14.7452 93.0641 14.767C93.0767 14.7903 93.0974 14.8413 93.0974 14.9731H94.5501C94.5501 14.6901 94.5057 14.3794 94.3428 14.0774C94.1791 13.774 93.9308 13.5437 93.6309 13.3604C93.069 13.0171 92.1993 12.7669 90.9622 12.5081L90.6647 13.9301ZM93.0974 14.9731C93.0974 15.2114 93.0395 15.2787 92.9465 15.3391C92.7778 15.4487 92.3831 15.5745 91.5346 15.5745V17.0272C92.4543 17.0272 93.2043 16.9041 93.738 16.5573C94.3475 16.1613 94.5501 15.5647 94.5501 14.9731H93.0974ZM91.5477 15.5746C89.5479 15.5385 87.5882 15.008 85.8433 14.0304L85.1333 15.2978C87.0873 16.3926 89.282 16.9867 91.5214 17.0271L91.5477 15.5746ZM84.7619 14.6641V18.4126H86.2147V14.6641H84.7619ZM85.1688 19.065C86.4992 19.7165 88.2683 20.4438 91.4974 20.4438V18.9911C88.5399 18.9911 86.9897 18.3392 85.8078 17.7603L85.1688 19.065ZM91.4974 20.4438C93.7725 20.4438 95.4958 19.9391 96.6568 18.9334C97.8362 17.9118 98.3186 16.4761 98.3186 14.8816H96.8659C96.8659 16.18 96.4827 17.1623 95.7056 17.8353C94.9101 18.5244 93.5859 18.9911 91.4974 18.9911V20.4438ZM98.3186 14.8816C98.3186 13.3727 97.9096 12.147 96.8408 11.202C95.823 10.3019 94.2855 9.73172 92.2197 9.28696L91.9139 10.7072C93.9285 11.1409 95.1538 11.6494 95.8785 12.2903C96.5524 12.8861 96.8659 13.6635 96.8659 14.8816H98.3186ZM92.2236 9.28782C91.1093 9.04146 90.523 8.81463 90.224 8.61667C90.087 8.52593 90.0409 8.46062 90.0241 8.4304C90.0093 8.40374 89.9946 8.36427 89.9946 8.28019H88.5419C88.5419 8.55665 88.5955 8.84983 88.7536 9.13489C88.9097 9.41638 89.1409 9.64187 89.422 9.82797C89.9593 10.1837 90.7723 10.4548 91.91 10.7063L92.2236 9.28782ZM89.9946 8.28019C89.9946 8.16654 90.0188 8.10917 90.0378 8.07803C90.0574 8.04589 90.0987 7.99712 90.1997 7.94308C90.4263 7.82181 90.8522 7.72748 91.5574 7.72748V6.27474C90.7804 6.27474 90.0617 6.36927 89.5143 6.6622C89.2283 6.81526 88.9753 7.02992 88.7972 7.32211C88.6186 7.6153 88.5419 7.94315 88.5419 8.28019H89.9946ZM91.5574 7.72748C93.217 7.72748 94.8872 8.23168 96.5245 8.96835L97.1206 7.64353C95.3871 6.86362 93.5033 6.27474 91.5574 6.27474V7.72748ZM97.5489 8.30594V4.73197H96.0962V8.30594H97.5489ZM97.1235 4.07089C95.4091 3.29039 93.5418 2.90344 91.6584 2.9384L91.6854 4.39089C93.352 4.35996 95.0045 4.70238 96.5216 5.39306L97.1235 4.07089ZM91.6719 2.93828C89.5644 2.93828 87.8541 3.3949 86.6552 4.32699C85.4298 5.27977 84.8277 6.6604 84.8277 8.28877H86.2805C86.2805 7.0471 86.7214 6.11567 87.5469 5.47389C88.399 4.81143 89.7476 4.39102 91.6719 4.39102V2.93828Z" fill="white" fill-opacity="0.2" mask="url(#path-1-inside-1_801_3171)"/>
</g>
<g id="polygon">
<path d="M144.946 19.4801V7.60221L146.346 10.7555L151.041 19.4801H155.213V3.90234H151.894V13.9575L150.638 11.0388L146.866 3.90234H141.627V19.4801H144.946Z" fill="white" fill-opacity="0.2"/>
<path d="M152.257 13.9575V4.26553H154.85V19.117H151.258L146.672 10.5956L145.278 7.45491L144.583 7.60221V19.117H141.99V4.26553H146.647L150.31 11.1957L151.56 14.1011L152.257 13.9575Z" stroke="white" stroke-opacity="0.2" stroke-width="0.726371"/>
</g>
<g id="rect">
<path d="M116.885 3.90234H120.513V19.4801H116.885V3.90234Z" fill="white" fill-opacity="0.2"/>
<path d="M117.248 4.26553H120.15V19.117H117.248V4.26553Z" stroke="white" stroke-opacity="0.2" stroke-width="0.726371"/>
</g>
<g id="path_2">
<mask id="path-7-inside-2_801_3171" fill="white">
<path d="M112.698 14.8816C112.698 12.1546 111.253 10.8755 107.173 9.99706C104.921 9.49917 104.374 9.00128 104.374 8.28019C104.374 7.37883 105.181 7.00111 106.663 7.00111C108.466 7.00111 110.243 7.54765 111.929 8.30594V4.73197C110.313 3.99639 108.553 3.6317 106.778 3.66465C102.746 3.66465 100.66 5.41872 100.66 8.28877C100.66 10.5779 101.727 12.415 105.899 13.2191C108.389 13.7399 108.91 14.1433 108.91 14.9731C108.91 15.803 108.389 16.3009 106.62 16.3009C104.501 16.2626 102.424 15.7003 100.574 14.6641V18.4126C101.83 19.0278 103.49 19.7175 106.583 19.7175C110.947 19.7175 112.678 17.7745 112.678 14.8816"/>
</mask>
<path d="M112.698 14.8816C112.698 12.1546 111.253 10.8755 107.173 9.99706C104.921 9.49917 104.374 9.00128 104.374 8.28019C104.374 7.37883 105.181 7.00111 106.663 7.00111C108.466 7.00111 110.243 7.54765 111.929 8.30594V4.73197C110.313 3.99639 108.553 3.6317 106.778 3.66465C102.746 3.66465 100.66 5.41872 100.66 8.28877C100.66 10.5779 101.727 12.415 105.899 13.2191C108.389 13.7399 108.91 14.1433 108.91 14.9731C108.91 15.803 108.389 16.3009 106.62 16.3009C104.501 16.2626 102.424 15.7003 100.574 14.6641V18.4126C101.83 19.0278 103.49 19.7175 106.583 19.7175C110.947 19.7175 112.678 17.7745 112.678 14.8816" fill="white" fill-opacity="0.2"/>
<path d="M107.173 9.99706L107.016 10.7063L107.02 10.7072L107.173 9.99706ZM111.929 8.30594L111.63 8.96835L112.655 9.42925V8.30594H111.929ZM111.929 4.73197H112.655V4.26456L112.229 4.07089L111.929 4.73197ZM106.778 3.66465V4.39114L106.791 4.39089L106.778 3.66465ZM105.899 13.2191L106.048 12.508L106.037 12.5058L105.899 13.2191ZM106.62 16.3009L106.607 17.0272H106.62V16.3009ZM100.574 14.6641L100.929 14.0304L99.8478 13.4246V14.6641H100.574ZM100.574 18.4126H99.8478V18.8657L100.255 19.065L100.574 18.4126ZM113.425 14.8816C113.425 13.3727 113.016 12.147 111.947 11.202C110.929 10.3019 109.392 9.73172 107.326 9.28696L107.02 10.7072C109.034 11.1409 110.26 11.6494 110.985 12.2903C111.658 12.8861 111.972 13.6635 111.972 14.8816H113.425ZM107.33 9.28782C106.215 9.04146 105.629 8.81463 105.33 8.61667C105.193 8.52593 105.147 8.46062 105.13 8.4304C105.115 8.40374 105.101 8.36427 105.101 8.28019H103.648C103.648 8.55665 103.702 8.84983 103.86 9.13489C104.016 9.41638 104.247 9.64187 104.528 9.82797C105.065 10.1837 105.878 10.4548 107.016 10.7063L107.33 9.28782ZM105.101 8.28019C105.101 8.16654 105.125 8.10917 105.144 8.07803C105.163 8.04589 105.205 7.99712 105.306 7.94308C105.532 7.82181 105.958 7.72748 106.663 7.72748V6.27474C105.886 6.27474 105.168 6.36927 104.62 6.6622C104.334 6.81526 104.081 7.02992 103.903 7.32211C103.725 7.6153 103.648 7.94315 103.648 8.28019H105.101ZM106.663 7.72748C108.323 7.72748 109.993 8.23168 111.63 8.96835L112.227 7.64353C110.493 6.86362 108.609 6.27474 106.663 6.27474V7.72748ZM112.655 8.30594V4.73197H111.202V8.30594H112.655ZM112.229 4.07089C110.515 3.29039 108.648 2.90344 106.764 2.9384L106.791 4.39089C108.458 4.35996 110.11 4.70238 111.628 5.39306L112.229 4.07089ZM106.778 2.93828C104.67 2.93828 102.96 3.3949 101.761 4.32699C100.536 5.27977 99.9337 6.66039 99.9337 8.28877H101.386C101.386 7.0471 101.827 6.11567 102.653 5.47389C103.505 4.81143 104.854 4.39102 106.778 4.39102V2.93828ZM99.9337 8.28877C99.9337 9.55018 100.231 10.7836 101.184 11.8061C102.119 12.81 103.6 13.5157 105.762 13.9323L106.037 12.5058C104.027 12.1184 102.888 11.5035 102.247 10.8156C101.623 10.1462 101.386 9.31654 101.386 8.28877H99.9337ZM105.751 13.9301C107.003 14.1921 107.638 14.404 107.959 14.6C108.101 14.6865 108.138 14.7452 108.15 14.767C108.163 14.7903 108.183 14.8413 108.183 14.9731H109.636C109.636 14.6901 109.592 14.3794 109.429 14.0774C109.265 13.774 109.017 13.5437 108.717 13.3604C108.155 13.0171 107.285 12.7669 106.048 12.5081L105.751 13.9301ZM108.183 14.9731C108.183 15.2114 108.125 15.2787 108.032 15.3391C107.864 15.4487 107.469 15.5745 106.62 15.5745V17.0272C107.54 17.0272 108.29 16.9041 108.824 16.5573C109.433 16.1613 109.636 15.5647 109.636 14.9731H108.183ZM106.634 15.5746C104.634 15.5385 102.674 15.008 100.929 14.0304L100.219 15.2978C102.173 16.3926 104.368 16.9867 106.607 17.0271L106.634 15.5746ZM99.8478 14.6641V18.4126H101.301V14.6641H99.8478ZM100.255 19.065C101.585 19.7165 103.354 20.4438 106.583 20.4438V18.9911C103.626 18.9911 102.076 18.3392 100.894 17.7603L100.255 19.065ZM106.583 20.4438C108.858 20.4438 110.582 19.9391 111.743 18.9334C112.922 17.9118 113.405 16.4762 113.405 14.8816H111.952C111.952 16.18 111.569 17.1623 110.792 17.8353C109.996 18.5244 108.672 18.9911 106.583 18.9911V20.4438Z" fill="white" fill-opacity="0.2" mask="url(#path-7-inside-2_801_3171)"/>
</g>
<g id="polygon_2">
<path d="M64.8544 19.4801L66.0276 16.1151H61.0487V3.90234H57.3975V19.4801H64.8544Z" fill="white" fill-opacity="0.2"/>
<path d="M60.6855 16.1151V16.4783H61.0487H65.5164L64.5964 19.117H57.7606V4.26553H60.6855V16.1151Z" stroke="white" stroke-opacity="0.2" stroke-width="0.726371"/>
</g>
<g id="polygon_3">
<path d="M46.6929 7.27028V19.4801H50.3442V7.27028H54.6592V3.90234H42.6611V7.27028H46.6929Z" fill="white" fill-opacity="0.2"/>
<path d="M47.0561 7.27028V6.9071H46.6929H43.0243V4.26553H54.2961V6.9071H50.3442H49.981V7.27028V19.117H47.0561V7.27028Z" stroke="white" stroke-opacity="0.2" stroke-width="0.726371"/>
</g>
<g id="path_3">
<path d="M37.3686 3.90234H32.5842L27.1475 19.4801H31.3109L32.072 16.8562C33.9718 17.4156 35.9925 17.4156 37.8923 16.8562L38.662 19.4801H42.8111L37.3686 3.90234ZM34.9764 14.0491C34.2985 14.05 33.6239 13.9537 32.9734 13.7629L34.9764 6.96125L36.9794 13.7629C36.3289 13.9537 35.6543 14.05 34.9764 14.0491V14.0491Z" fill="white" fill-opacity="0.2"/>
<path d="M34.9764 14.4123C35.6889 14.4132 36.3979 14.3119 37.0816 14.1115L37.4306 14.0092L37.3278 13.6603L35.3248 6.85865L34.9764 5.67561L34.628 6.85865L32.625 13.6603L32.5223 14.0092L32.8712 14.1115C33.555 14.3119 34.2639 14.4132 34.9764 14.4123ZM34.9764 14.4123C34.9763 14.4123 34.9761 14.4123 34.9759 14.4123L34.9764 14.0491L34.9769 14.4123C34.9768 14.4123 34.9766 14.4123 34.9764 14.4123ZM34.9764 6.96125L35.3248 7.06384L35.1657 7.60407L34.9764 6.96125ZM34.9764 6.96125L34.628 7.06384L34.7871 7.60407L34.9764 6.96125ZM32.9734 13.7629L33.0756 13.4144C33.0757 13.4145 33.0759 13.4145 33.076 13.4145L32.9734 13.7629ZM32.9734 13.7629L33.3218 13.8655L33.3245 13.8562C33.2068 13.8281 33.0897 13.797 32.9734 13.7629ZM42.2995 19.117H38.9339L38.2408 16.754L38.1384 16.4051L37.7897 16.5078C35.9569 17.0475 34.0074 17.0475 32.1746 16.5078L31.8248 16.4048L31.7232 16.755L31.0381 19.117H27.6589L32.8422 4.26553H37.1108L42.2995 19.117ZM36.6283 13.8562L36.6311 13.8655L36.9794 13.7629C36.8631 13.797 36.746 13.8281 36.6283 13.8562ZM36.9793 13.7626L36.8773 13.4144C36.8771 13.4145 36.877 13.4145 36.8768 13.4145L36.9793 13.7626Z" stroke="white" stroke-opacity="0.2" stroke-width="0.726371"/>
</g>
<g id="path_4">
<path d="M77.7075 3.90234H72.9231L67.4863 19.4801H71.6354L72.4109 16.8562C74.3071 17.4134 76.3235 17.4134 78.2197 16.8562L78.9894 19.4801H83.1385L77.7075 3.90234ZM75.3153 14.0491C74.6374 14.05 73.9628 13.9537 73.3123 13.7629L75.3153 6.96125L77.3183 13.7629C76.6678 13.9537 75.9932 14.05 75.3153 14.0491V14.0491Z" fill="white" fill-opacity="0.2"/>
<path d="M75.3153 14.4123C76.0278 14.4132 76.7368 14.3119 77.4205 14.1115L77.7694 14.0092L77.6667 13.6603L75.6637 6.85865L75.3153 5.67561L74.9669 6.85865L72.9639 13.6603L72.8612 14.0092L73.2101 14.1115C73.8938 14.3119 74.6028 14.4132 75.3153 14.4123ZM75.3153 14.4123C75.3151 14.4123 75.315 14.4123 75.3148 14.4123L75.3153 14.0491L75.3158 14.4123C75.3156 14.4123 75.3155 14.4123 75.3153 14.4123ZM77.3183 13.7629L76.9699 13.8655L76.9672 13.8562C77.0849 13.8281 77.202 13.797 77.3183 13.7629ZM77.3183 13.7629L77.2161 13.4144C77.216 13.4145 77.2159 13.4145 77.2157 13.4145L77.3183 13.7629ZM75.3153 6.96125L75.6637 7.06384L75.5046 7.60407L75.3153 6.96125ZM75.3153 6.96125L74.9669 7.06384L75.126 7.60407L75.3153 6.96125ZM82.6273 19.117H79.2614L78.5682 16.754L78.4659 16.4053L78.1173 16.5077C76.288 17.0453 74.3426 17.0453 72.5133 16.5077L72.1654 16.4055L72.0626 16.7533L71.3641 19.117H67.9978L73.181 4.26553H77.4495L82.6273 19.117ZM73.4149 13.4145C73.4147 13.4145 73.4146 13.4145 73.4144 13.4144L73.3123 13.7628L73.4149 13.4145ZM73.3123 13.7629L73.6607 13.8655L73.6634 13.8562C73.5457 13.8281 73.4286 13.797 73.3123 13.7629Z" stroke="white" stroke-opacity="0.2" stroke-width="0.726371"/>
</g>
<g id="path_5">
<path d="M133.586 3.90234H128.802L123.365 19.4801H127.514L128.29 16.8562C130.186 17.4134 132.202 17.4134 134.099 16.8562L134.868 19.4801H139.017L133.586 3.90234ZM131.194 14.0491C130.516 14.05 129.842 13.9537 129.191 13.7629L131.194 6.96125L133.197 13.7629C132.547 13.9537 131.872 14.05 131.194 14.0491V14.0491Z" fill="white" fill-opacity="0.2"/>
<path d="M131.194 14.4123C131.907 14.4132 132.616 14.3119 133.299 14.1115L133.648 14.0092L133.546 13.6603L131.543 6.85865L131.194 5.67561L130.846 6.85865L128.843 13.6603L128.74 14.0092L129.089 14.1115C129.773 14.3119 130.482 14.4132 131.194 14.4123ZM131.194 14.4123C131.194 14.4123 131.194 14.4123 131.194 14.4123L131.194 14.0491L131.195 14.4123C131.195 14.4123 131.194 14.4123 131.194 14.4123ZM133.197 13.7629L132.849 13.8655L132.846 13.8562C132.964 13.8281 133.081 13.797 133.197 13.7629ZM133.197 13.7629L133.095 13.4144C133.095 13.4145 133.095 13.4145 133.095 13.4145L133.197 13.7629ZM131.194 6.96125L131.543 7.06384L131.383 7.60407L131.194 6.96125ZM131.194 6.96125L130.846 7.06384L131.005 7.60407L131.194 6.96125ZM129.191 13.7629L129.293 13.4144C129.293 13.4145 129.294 13.4145 129.294 13.4145L129.191 13.7629ZM129.191 13.7629L129.54 13.8655L129.542 13.8562C129.425 13.8281 129.307 13.797 129.191 13.7629ZM138.506 19.117H135.14L134.447 16.754L134.345 16.4053L133.996 16.5077C132.167 17.0453 130.222 17.0453 128.392 16.5077L128.044 16.4055L127.942 16.7533L127.243 19.117H123.877L129.06 4.26553H133.328L138.506 19.117Z" stroke="white" stroke-opacity="0.2" stroke-width="0.726371"/>
</g>
</g>
</g>
<g id="g_2">
<g id="path_6">
<path d="M6.23627 9.3802V9.38011C6.18742 9.32316 6.1256 9.27879 6.05602 9.25074C5.98643 9.22269 5.91112 9.21178 5.83644 9.21893C5.7734 9.23043 5.71423 9.25746 5.66427 9.29757C5.6143 9.33769 5.57512 9.38962 5.55026 9.44867L0.832853 18.8782C0.80128 18.9412 0.786345 19.0112 0.789469 19.0816C0.792592 19.152 0.813669 19.2205 0.850696 19.2805C0.887724 19.3404 0.939472 19.3899 1.00102 19.4242C1.06257 19.4586 1.13188 19.4766 1.20235 19.4766H7.77084C7.84777 19.4781 7.92349 19.4573 7.98881 19.4166C8.05414 19.376 8.10625 19.3172 8.13883 19.2475C9.51885 16.3998 8.66482 11.9745 6.23627 9.3802V9.3802Z" fill="white" fill-opacity="0.2"/>
<path d="M5.87507 9.61117L5.88039 9.60053L5.885 9.58957C5.88645 9.58614 5.88873 9.58312 5.89163 9.58078C5.89173 9.5807 5.89183 9.58063 5.89193 9.58055C5.90161 9.58156 5.91113 9.58392 5.92022 9.58759C5.93122 9.59202 5.94135 9.59827 5.9502 9.60605L5.97113 9.6284C7.13208 10.8686 7.92561 12.5582 8.25915 14.2876C8.59317 16.0195 8.45913 17.7538 7.812 19.0891L7.81196 19.0891L7.8098 19.0937C7.807 19.0997 7.80251 19.1048 7.79689 19.1083C7.79127 19.1118 7.78475 19.1136 7.77812 19.1135L7.77812 19.1134H7.77084H1.20235H1.20232C1.19378 19.1134 1.18538 19.1112 1.17793 19.1071C1.17047 19.1029 1.1642 19.0969 1.15972 19.0896C1.15523 19.0824 1.15268 19.0741 1.1523 19.0655C1.15192 19.057 1.15373 19.0485 1.15755 19.0409L1.15766 19.0407L5.87507 9.61117Z" stroke="white" stroke-opacity="0.2" stroke-width="0.726371"/>
</g>
<g id="path_7">
<path d="M19.6888 18.8814C19.6003 18.7044 10.8504 1.19668 10.6352 0.761365C10.6071 0.700376 10.563 0.648132 10.5075 0.610166C10.4521 0.5722 10.3875 0.549924 10.3204 0.545696L10.3056 0.54541C10.2289 0.54936 10.1546 0.572767 10.0895 0.613424C10.0244 0.654081 9.97072 0.710648 9.93355 0.777789L9.93315 0.77819C7.56131 4.53552 7.29256 9.07211 9.21446 12.9136L12.3808 19.2461C12.4144 19.316 12.4669 19.375 12.5325 19.4163C12.5981 19.4577 12.674 19.4796 12.7515 19.4797H19.3191C19.3896 19.4798 19.4589 19.4618 19.5205 19.4275C19.582 19.3932 19.6338 19.3437 19.6709 19.2837C19.7079 19.2238 19.729 19.1553 19.7322 19.0849C19.7353 19.0145 19.7204 18.9444 19.6888 18.8814V18.8814Z" fill="white" fill-opacity="0.2"/>
<path d="M10.3054 0.913542L10.3053 0.913596L10.3096 0.922304C10.4965 1.3003 17.0927 14.4992 18.9068 18.1292C19.1862 18.6882 19.3521 19.0202 19.3638 19.0437L19.3641 19.0442C19.3679 19.0518 19.3697 19.0603 19.3693 19.0688C19.369 19.0773 19.3664 19.0856 19.3619 19.0928C19.3574 19.1001 19.3512 19.1061 19.3437 19.1102C19.3363 19.1144 19.3279 19.1165 19.3194 19.1165H19.3191H12.7519C12.7428 19.1165 12.7339 19.1139 12.7262 19.1091C12.7185 19.1042 12.7123 19.0973 12.7083 19.0891L12.7084 19.089L12.7057 19.0836L9.5393 12.7512L9.53927 12.7512C7.68239 9.03959 7.93185 4.65375 10.2188 1.00614L10.2265 0.998436L10.2513 0.953691C10.2586 0.940522 10.2691 0.929428 10.2819 0.921454C10.2888 0.917107 10.2963 0.913765 10.3042 0.911499C10.3047 0.912118 10.3051 0.912804 10.3054 0.913542Z" stroke="white" stroke-opacity="0.2" stroke-width="0.726371"/>
</g>
</g>
</g>
</g>
</g>
</svg>
