<svg width="129" height="39" viewBox="0 0 129 39" fill="none" xmlns="http://www.w3.org/2000/svg">
<g id="Logo">
<g id="Vector">
<path d="M19.9687 0.0908203C9.19303 0.0908203 0.455078 8.82724 0.455078 19.6045C0.455078 28.2263 6.04633 35.5408 13.7998 38.1211C14.7749 38.3017 15.1331 37.6978 15.1331 37.1823C15.1331 36.7171 15.1148 35.1797 15.1066 33.5492C9.67771 34.7297 8.53219 31.2469 8.53219 31.2469C7.64455 28.9913 6.36557 28.3917 6.36557 28.3917C4.59518 27.1805 6.49903 27.2053 6.49903 27.2053C8.45858 27.3431 9.49039 29.2163 9.49039 29.2163C11.2308 32.1996 14.0553 31.337 15.1689 30.8386C15.344 29.5772 15.8498 28.7165 16.4078 28.2292C12.0736 27.7356 7.51722 26.0624 7.51722 18.5854C7.51722 16.455 8.27952 14.7142 9.52789 13.3477C9.32526 12.8561 8.65738 10.8714 9.71689 8.18355C9.71689 8.18355 11.3555 7.65907 15.0845 10.1838C16.641 9.75131 18.3104 9.5346 19.9687 9.52726C21.6271 9.5346 23.2977 9.75131 24.8572 10.1838C28.5818 7.65907 30.2181 8.18355 30.2181 8.18355C31.2802 10.8714 30.6121 12.8561 30.4094 13.3477C31.6606 14.7142 32.4177 16.4549 32.4177 18.5854C32.4177 26.0802 27.8527 27.7306 23.5075 28.2136C24.2074 28.8192 24.831 30.0068 24.831 31.8272C24.831 34.4381 24.8084 36.5395 24.8084 37.1823C24.8084 37.7016 25.1596 38.3101 26.1489 38.1185C33.898 35.5353 39.4822 28.2234 39.4822 19.6045C39.4822 8.82724 30.7455 0.0908203 19.9687 0.0908203Z" fill="white" fill-opacity="0.2"/>
<path d="M9.7182 32.9279C10.6965 33.661 12.3358 34.2329 14.9983 33.6836C15.0029 34.5288 15.0099 35.3406 15.0155 35.9824C15.0203 36.5415 15.0241 36.9716 15.0241 37.1823C15.0241 37.4172 14.9422 37.6647 14.7587 37.8322C14.5793 37.9958 14.2855 38.0985 13.8269 38.0153C6.12046 35.4472 0.564067 28.1753 0.564067 19.6045C0.564067 8.88744 9.25322 0.199809 19.9687 0.199809C30.6853 0.199809 39.3733 8.88743 39.3733 19.6045C39.3733 28.1726 33.8237 35.442 26.1213 38.0128C25.6551 38.1015 25.36 37.9998 25.1812 37.8365C24.998 37.6693 24.9174 37.42 24.9174 37.1823C24.9174 36.9695 24.9199 36.5965 24.9232 36.0974C24.9249 35.8438 24.9268 35.5577 24.9287 35.2435C24.9344 34.3113 24.94 33.133 24.94 31.8272C24.94 30.1308 24.4053 28.9623 23.7526 28.2949C25.8582 28.0404 28.0133 27.4924 29.662 26.1125C31.3769 24.6771 32.5266 22.3566 32.5266 18.5854C32.5266 16.4529 31.7772 14.703 30.5359 13.3248C30.7685 12.7268 31.3543 10.7623 30.3195 8.14349L30.3005 8.09551L30.2514 8.07976L30.2181 8.18355C30.2514 8.07976 30.2513 8.07972 30.2512 8.07968L30.2509 8.0796L30.2503 8.0794L30.2485 8.07886L30.2432 8.07731C30.2389 8.07607 30.2329 8.07444 30.2253 8.07254C30.2101 8.06874 30.1883 8.06383 30.16 8.05869C30.1032 8.04842 30.0199 8.03725 29.9093 8.03217C29.6879 8.022 29.3578 8.03622 28.9119 8.13026C28.027 8.31689 26.6873 8.81773 24.8378 10.0654C23.2822 9.63903 21.6193 9.42558 19.9692 9.41827L19.9683 9.41827C18.3182 9.42558 16.6566 9.63903 15.1039 10.0654C13.2522 8.81771 11.9108 8.31688 11.0248 8.13025C10.5784 8.03622 10.2478 8.022 10.0262 8.03217C9.91544 8.03725 9.83206 8.04842 9.77521 8.05869C9.74679 8.06382 9.72502 8.06873 9.7098 8.07253C9.70648 8.07336 9.70347 8.07414 9.70077 8.07485C9.69728 8.07578 9.69431 8.0766 9.69186 8.0773L9.68655 8.07885L9.68481 8.07939L9.68416 8.07959L9.6839 8.07967C9.68378 8.07971 9.68367 8.07974 9.71689 8.18355L9.68367 8.07974L9.63445 8.0955L9.6155 8.14358C8.58317 10.7625 9.16888 12.727 9.40141 13.3249C8.16285 14.7029 7.40823 16.4529 7.40823 18.5854C7.40823 22.3478 8.55582 24.6693 10.267 26.1095C11.9126 27.4944 14.0636 28.0503 16.1646 28.3101C15.6644 28.8259 15.2364 29.6396 15.0696 30.7633C14.5123 31.0061 13.5769 31.3141 12.5744 31.2245C11.5458 31.1326 10.4365 30.6218 9.58453 29.1614L9.58218 29.1572L9.57243 29.1403C9.56391 29.1257 9.55134 29.1046 9.53476 29.078C9.50161 29.0247 9.45234 28.949 9.38715 28.858C9.25687 28.6761 9.06244 28.4324 8.80524 28.1841C8.29159 27.6882 7.52092 27.1679 6.50667 27.0966L6.50668 27.0964L6.50044 27.0963L6.49903 27.2053L6.50036 27.0963L6.50022 27.0963L6.49983 27.0963L6.49853 27.0963L6.49392 27.0963L6.47716 27.0964C6.46279 27.0965 6.44225 27.0968 6.41689 27.0977C6.36629 27.0995 6.29603 27.1034 6.21729 27.112C6.06414 27.1289 5.86236 27.1653 5.71442 27.2496C5.63927 27.2925 5.56778 27.3535 5.52986 27.4406C5.49048 27.5311 5.49485 27.6322 5.53904 27.7375C5.62288 27.9374 5.86051 28.1782 6.30403 28.4817L6.31132 28.4866L6.31909 28.4903L6.31914 28.4903L6.31921 28.4903L6.31931 28.4904L6.31933 28.4904L6.32117 28.4913L6.3302 28.4959C6.33854 28.5002 6.35145 28.507 6.36853 28.5167C6.40268 28.5361 6.45351 28.5667 6.51777 28.6106C6.64628 28.6985 6.82859 28.8396 7.03885 29.0504C7.45877 29.4715 7.99166 30.1719 8.4298 31.2843L8.42992 31.2847L8.43297 31.2934C8.4356 31.3008 8.43948 31.3114 8.44468 31.3249C8.45508 31.3519 8.47082 31.3906 8.49267 31.439C8.53636 31.5359 8.60456 31.6717 8.70354 31.8303C8.90147 32.1475 9.22297 32.5568 9.7182 32.9279Z" stroke="white" stroke-opacity="0.2" stroke-width="0.217977"/>
</g>
<g id="Vector_2">
<path d="M64.6978 22.8561C64.6978 24.2784 64.6619 25.7033 64.7163 27.1231C64.7386 27.7247 64.5047 28.0107 64.0045 28.2459C61.9534 29.2077 59.7957 29.5135 57.5588 29.3377C56.0449 29.2139 54.5817 28.9243 53.2485 28.1506C51.2678 27.0055 50.2317 25.1994 49.7824 23.0455C49.1783 20.1785 49.2253 17.3054 50.0856 14.4879C51.0005 11.4873 53.0108 9.68118 56.1328 9.19592C58.3598 8.8423 60.637 8.97575 62.8075 9.58709C63.0439 9.6527 63.268 9.76164 63.5007 9.84706C63.83 9.97085 63.9228 10.1862 63.835 10.5267C63.6171 11.3635 63.4079 12.2028 63.216 13.047C63.1219 13.4704 62.9325 13.5607 62.5166 13.4332C60.9742 12.9591 59.3473 12.8256 57.7482 13.0421C56.0672 13.2624 54.8528 14.124 54.3106 15.7469C53.528 18.0514 53.5346 20.5508 54.3292 22.8511C54.9023 24.5582 56.186 25.4037 58.0032 25.4322C58.6623 25.4621 59.3228 25.4318 59.9764 25.3418C60.2735 25.2935 60.4047 25.2044 60.3986 24.8813C60.3812 23.8712 60.3763 22.8598 60.3986 21.8509C60.4085 21.4647 60.2426 21.4102 59.922 21.4201C59.3241 21.4387 58.7249 21.4115 58.1283 21.4288C57.7173 21.4412 57.5204 21.305 57.5316 20.8631C57.5539 19.9966 57.5489 19.13 57.5316 18.2635C57.5242 17.855 57.7024 17.7263 58.0911 17.7287C60.0916 17.7399 62.092 17.7436 64.0912 17.7287C64.5467 17.7287 64.7101 17.8822 64.7015 18.3403C64.6854 19.8455 64.6978 21.3508 64.6978 22.8561Z" fill="white" fill-opacity="0.2"/>
<path d="M53.3271 28.0146L53.3273 28.0147C54.6315 28.7715 56.068 29.0582 57.5713 29.1811C59.7851 29.3551 61.9148 29.0522 63.9377 28.1037C64.1759 27.9917 64.3304 27.8766 64.4259 27.7343C64.5199 27.5942 64.5697 27.4085 64.5593 27.1291C64.5593 27.1291 64.5593 27.129 64.5593 27.1289L64.7163 27.1231L53.3271 28.0146ZM53.3271 28.0146C51.3943 26.8972 50.3788 25.1351 49.9362 23.0134L49.9361 23.0131M53.3271 28.0146L49.9361 23.0131M49.9361 23.0131C49.3369 20.1691 49.3842 17.3231 50.2359 14.5338L50.2359 14.5337M49.9361 23.0131L50.2359 14.5337M50.2359 14.5337C50.6864 13.0561 51.4038 11.8813 52.3854 11.0165C53.3668 10.152 54.6208 9.58993 56.1569 9.35118L56.1574 9.3511M50.2359 14.5337L56.1574 9.3511M56.1574 9.3511C58.362 9.00103 60.6163 9.13314 62.7649 9.73833L62.7655 9.73849L56.1574 9.3511ZM63.6829 10.4872C63.4648 11.325 63.2551 12.1659 63.0628 13.0122L63.0626 13.0129C63.018 13.2139 62.9606 13.2826 62.9127 13.3082C62.861 13.336 62.7642 13.3448 62.5626 13.283M63.6829 10.4872C63.6829 10.4871 63.6829 10.4871 63.6829 10.4871L63.835 10.5267M63.6829 10.4872C63.6829 10.4872 63.6828 10.4873 63.6828 10.4874L63.835 10.5267M63.6829 10.4872C63.7221 10.335 63.7135 10.2383 63.6825 10.1733C63.6527 10.1108 63.5877 10.0477 63.446 9.99434C63.4462 9.99441 63.4464 9.99448 63.4466 9.99455L63.5007 9.84706C63.83 9.97085 63.9228 10.1862 63.835 10.5267M63.835 10.5267C63.6171 11.3635 63.4079 12.2028 63.216 13.047C63.1219 13.4704 62.9325 13.5607 62.5166 13.4332M62.5166 13.4332L62.5628 13.2831C62.5627 13.283 62.5627 13.283 62.5626 13.283M62.5166 13.4332L62.5626 13.283M62.5166 13.4332C60.9742 12.9591 59.3473 12.8256 57.7482 13.0421L62.5626 13.283M62.5626 13.283C60.9987 12.8022 59.3489 12.6669 57.7275 12.8863C56.8658 12.9993 56.1145 13.2779 55.5067 13.7438C54.8981 14.2104 54.4417 14.8587 54.1617 15.6967C53.3681 18.0339 53.3747 20.5687 54.1804 22.9018M62.5626 13.283L54.1804 22.9018M54.1804 22.9018C54.4762 23.7822 54.9589 24.4501 55.6103 24.9004C56.2605 25.3498 57.0671 25.5743 57.9985 25.5892C57.9992 25.5892 58 25.5892 58.0008 25.5893L58.0032 25.4322L54.1804 22.9018ZM60.5556 21.8549C60.5609 21.6474 60.5218 21.4695 60.3789 21.3616C60.2493 21.2638 60.0736 21.2583 59.9171 21.2631L59.9171 21.2631C59.6217 21.2723 59.3254 21.2702 59.0259 21.2678L59.0122 21.2677C58.7181 21.2654 58.4208 21.2631 58.1237 21.2718L58.1235 21.2718C57.9282 21.2776 57.8283 21.2452 57.7757 21.1986C57.7278 21.1563 57.6836 21.0695 57.6887 20.8671C57.711 19.9974 57.706 19.1283 57.6887 18.2604M57.6887 18.2604C57.6887 18.2605 57.6887 18.2606 57.6887 18.2607L57.5316 18.2635L57.6887 18.2604Z" stroke="white" stroke-opacity="0.2" stroke-width="0.314235"/>
</g>
<g id="Vector_3">
<path d="M98.8497 19.4294C98.8497 22.3768 98.836 25.3255 98.862 28.2729C98.862 28.851 98.6813 29.0355 98.1193 29.0157C97.1513 28.9798 96.1808 28.9835 95.2127 29.0157C94.7002 29.033 94.5294 28.8597 94.5344 28.3435C94.5579 26.0138 94.5344 23.6841 94.5616 21.3543C94.569 20.8295 94.4044 20.7069 93.9018 20.7168C92.2108 20.7478 90.5199 20.7391 88.8264 20.7168C88.4253 20.7168 88.2991 20.8245 88.3028 21.2392C88.3226 23.5912 88.3028 25.9432 88.3226 28.289C88.3226 28.8213 88.1765 29.0318 87.6257 29.0132C86.6155 28.981 85.6054 28.9934 84.5953 29.0132C84.1806 29.0194 84.0085 28.8894 84.0098 28.445C84.0197 22.4041 84.0197 16.3636 84.0098 10.3235C84.0098 9.88277 84.1856 9.74165 84.5953 9.7466C85.6265 9.75774 86.6576 9.76764 87.69 9.7466C88.1852 9.73422 88.3263 9.94837 88.3226 10.4138C88.3065 12.3945 88.33 14.3751 88.3053 16.3557C88.3053 16.8063 88.3993 16.9549 88.8759 16.9462C90.5867 16.9152 92.2987 16.9202 94.0095 16.9462C94.4415 16.9462 94.5653 16.836 94.5604 16.4003C94.5368 14.4197 94.5604 12.439 94.5393 10.4584C94.5319 9.91248 94.7188 9.7305 95.2548 9.74783C96.2228 9.77878 97.1934 9.78126 98.1614 9.74783C98.7147 9.72803 98.8658 9.94342 98.862 10.472C98.8385 13.4504 98.8484 16.4399 98.8497 19.4294Z" fill="white" fill-opacity="0.2"/>
<path d="M95.2127 29.0157C96.1808 28.9835 97.1513 28.9798 98.1193 29.0157C98.6813 29.0355 98.862 28.851 98.862 28.2729C98.8427 26.0795 98.8453 23.8853 98.8479 21.6914C98.8488 20.9374 98.8497 20.1834 98.8497 19.4294C98.8494 18.8138 98.8488 18.1981 98.8482 17.5826C98.8458 15.2091 98.8434 12.837 98.862 10.472L95.2127 29.0157ZM95.2127 29.0157C94.7002 29.033 94.5294 28.8597 94.5344 28.3435L95.2127 29.0157ZM98.7049 10.4708C98.6862 12.8365 98.6886 15.2094 98.691 17.5829C98.6917 18.1984 98.6923 18.8139 98.6925 19.4294L98.7049 10.4708ZM98.7049 10.4708C98.7067 10.2112 98.6676 10.0798 98.6042 10.0098C98.5458 9.94537 98.4306 9.89541 98.167 9.90485L98.1668 9.90486C97.1949 9.93841 96.2209 9.93591 95.2498 9.90487L95.2497 9.90487C94.991 9.8965 94.8681 9.93992 94.8038 10.0036C94.739 10.0677 94.6928 10.1923 94.6964 10.4563L94.6964 10.4567C94.7067 11.421 94.7064 12.3853 94.706 13.3485L94.706 13.4294C94.7057 14.4198 94.7057 15.4092 94.7175 16.3984L94.7175 16.3985C94.72 16.6187 94.6939 16.8174 94.5583 16.9493C94.4246 17.0793 94.2255 17.1033 94.0095 17.1033H94.0071V17.1033C92.2976 17.0773 90.5874 17.0724 88.8788 17.1033C88.8788 17.1033 88.8788 17.1033 88.8788 17.1033L98.7049 10.4708ZM94.7187 21.3565C94.7051 22.5202 94.7042 23.6841 94.7037 24.849L94.7036 24.982C94.7032 26.1024 94.7028 27.2236 94.6915 28.345C94.6891 28.5953 94.732 28.7102 94.7904 28.7683C94.8478 28.8255 94.9602 28.867 95.2074 28.8586L95.2075 28.8586C96.1785 28.8264 97.1526 28.8226 98.1248 28.8587C98.3978 28.8683 98.5239 28.8241 98.5901 28.7576C98.6581 28.6894 98.7049 28.5563 98.7049 28.2736C98.6856 26.0795 98.6882 23.8844 98.6908 21.6906C98.6917 20.9367 98.6925 20.183 98.6925 19.4295L93.8987 20.5597C93.8988 20.5597 93.8988 20.5597 93.8989 20.5597C94.1497 20.5548 94.3762 20.5782 94.5294 20.7195C94.6863 20.8642 94.7225 21.0896 94.7187 21.3565ZM94.7187 21.3565C94.7187 21.3565 94.7187 21.3565 94.7187 21.3566L94.5616 21.3543L94.7187 21.3562C94.7187 21.3563 94.7187 21.3564 94.7187 21.3565ZM88.3226 10.4138C88.3263 9.94837 88.1852 9.73422 87.69 9.7466C86.6576 9.76764 85.6265 9.75774 84.5953 9.7466C84.1856 9.74165 84.0098 9.88277 84.0098 10.3235L84.1669 10.3232C84.1768 16.3635 84.1768 22.4042 84.1669 28.4453L84.1669 28.4454C84.1663 28.6546 84.2081 28.7411 84.253 28.7825C84.3008 28.8265 84.3935 28.8591 84.5927 28.8561L88.1655 10.4125L88.3226 10.4138ZM88.3226 10.4138C88.3153 11.3065 88.3161 12.1992 88.3169 13.0919C88.3179 14.1798 88.3189 15.2678 88.3053 16.3557L84.1669 10.3235C84.1669 10.1177 84.2091 10.0271 84.2567 9.98222C84.3059 9.93575 84.3994 9.90136 84.5934 9.90371L84.5936 9.90371C85.6245 9.91485 86.658 9.92479 87.6932 9.90369L87.694 9.90367C87.9241 9.89792 88.0244 9.94672 88.0753 10.0047C88.1316 10.0687 88.1673 10.187 88.1655 10.4126L88.3226 10.4138ZM87.6257 29.0132C88.1765 29.0318 88.3226 28.8213 88.3226 28.289L87.6257 29.0132ZM87.6257 29.0132C86.6155 28.981 85.6054 28.9934 84.5953 29.0132H87.6257Z" stroke="white" stroke-opacity="0.2" stroke-width="0.314235"/>
</g>
<g id="Vector_4">
<path d="M118.875 28.065C118.57 29.0033 118.57 29.0033 117.562 29.0033C117.108 29.0033 116.651 28.9674 116.201 29.0108C115.631 29.0652 115.495 28.8115 115.504 28.2928C115.528 26.9125 115.512 25.531 115.512 24.1508C115.512 19.5953 115.52 15.0399 115.5 10.4844C115.5 9.91994 115.667 9.71568 116.243 9.74168C117.233 9.77882 118.223 9.76272 119.214 9.74168C119.663 9.73302 119.833 9.90137 119.833 10.3606C119.813 12.1321 119.833 13.906 119.818 15.6774C119.818 16.1552 119.834 16.3632 120.405 16.0896C121.663 15.4868 123.018 15.363 124.391 15.5487C126.359 15.8148 127.683 17.101 128.179 19.3478C128.648 21.5139 128.584 23.7617 127.992 25.8975C127.295 28.497 125.542 29.5369 122.563 29.3413C121.239 29.2654 119.962 28.8236 118.875 28.065ZM119.741 22.4214C119.741 23.288 119.752 24.1545 119.735 25.021C119.729 25.3132 119.84 25.4605 120.106 25.5731C120.79 25.868 121.532 26.0006 122.275 25.9606C123.295 25.9111 123.76 25.5409 123.999 24.5296C124.206 23.5608 124.27 22.5669 124.189 21.5797C124.014 18.7598 122.373 18.4243 120.184 19.2648C120.166 19.2743 120.147 19.2826 120.127 19.2896C119.817 19.3725 119.732 19.578 119.74 19.8899C119.758 20.7317 119.745 21.576 119.745 22.4214H119.741Z" fill="white" fill-opacity="0.2"/>
<path d="M118.79 27.8149L118.964 27.9361C120.028 28.6781 121.277 29.1102 122.572 29.1844L122.574 29.1845C124.045 29.2811 125.191 29.0708 126.05 28.5343C126.905 28.0001 127.499 27.1287 127.84 25.8568L127.84 25.8555C128.426 23.7443 128.489 21.5224 128.025 19.3813C127.782 18.2804 127.339 17.4267 126.726 16.8169C126.114 16.208 125.324 15.8334 124.37 15.7044L124.391 15.5487L124.37 15.7044C123.02 15.5218 121.698 15.6446 120.472 16.2313C120.326 16.3016 120.2 16.3484 120.094 16.3634C119.984 16.3789 119.87 16.3625 119.784 16.2748C119.709 16.1976 119.685 16.0912 119.673 16.0016C119.661 15.9076 119.661 15.7949 119.661 15.6774V15.6761H119.661C119.668 14.8549 119.667 14.0273 119.666 13.1989C119.666 12.2509 119.665 11.3018 119.676 10.3597C119.675 10.1428 119.634 10.0399 119.581 9.98687C119.528 9.93451 119.428 9.89471 119.217 9.89877C118.227 9.91981 117.232 9.93601 116.237 9.89869L116.236 9.89864C115.958 9.88609 115.833 9.93354 115.769 10.0005C115.701 10.0712 115.657 10.2067 115.657 10.4841C115.673 14.0637 115.671 17.6434 115.67 21.2227C115.67 22.1988 115.669 23.1748 115.669 24.1508C115.669 24.5397 115.671 24.9291 115.672 25.3189C115.675 26.3101 115.679 27.3035 115.661 28.2955M118.79 27.8149L115.504 28.2928M118.79 27.8149L118.725 28.0165C118.648 28.2543 118.594 28.421 118.539 28.5437C118.485 28.6647 118.44 28.7232 118.391 28.7582C118.341 28.7936 118.269 28.8188 118.134 28.8323C117.997 28.846 117.818 28.8462 117.562 28.8462C117.429 28.8462 117.292 28.8429 117.152 28.8394C116.834 28.8317 116.505 28.8236 116.186 28.8544M118.79 27.8149L116.201 29.0108M115.661 28.2955C115.661 28.2955 115.661 28.2956 115.661 28.2956L115.504 28.2928M115.661 28.2955C115.661 28.2955 115.661 28.2954 115.661 28.2954L115.504 28.2928M115.661 28.2955C115.657 28.5522 115.692 28.6911 115.755 28.7644C115.808 28.8271 115.918 28.8799 116.186 28.8544M115.504 28.2928C115.495 28.8115 115.631 29.0652 116.201 29.0108M116.186 28.8544C116.186 28.8544 116.186 28.8544 116.186 28.8544L116.201 29.0108M116.186 28.8544L116.201 29.0108M118.875 28.065C118.919 28.0962 118.964 28.1269 119.01 28.1571C119.014 28.1455 119.017 28.1338 119.021 28.122L119.024 28.1135L118.875 28.065ZM118.875 28.065L118.785 28.1939C118.798 28.2029 118.811 28.212 118.824 28.2209C118.84 28.1721 118.857 28.1202 118.875 28.065ZM119.584 22.2643H119.588C119.588 22.0639 119.589 21.8639 119.59 21.6642C119.593 21.0718 119.596 20.4826 119.583 19.8934C119.579 19.7263 119.598 19.5623 119.679 19.4245C119.762 19.2819 119.898 19.1897 120.08 19.1397C120.091 19.1355 120.102 19.1307 120.112 19.1252L120.12 19.1212L120.128 19.1181C121.231 18.6945 122.242 18.5474 123.009 18.9073C123.79 19.2743 124.256 20.135 124.346 21.5683C124.428 22.5704 124.363 23.5792 124.153 24.5624L124.152 24.5657L124.152 24.5657C124.029 25.0871 123.841 25.4709 123.53 25.7271C123.219 25.9831 122.808 26.092 122.283 26.1175C122.283 26.1175 122.283 26.1175 122.283 26.1175L122.275 25.9606C121.532 26.0006 120.79 25.868 120.106 25.5731L119.584 22.2643ZM119.584 22.2643V22.4214C119.584 22.6664 119.585 22.9109 119.586 23.155C119.588 23.7771 119.59 24.3971 119.578 25.0179L119.735 25.021L119.578 25.0177C119.574 25.184 119.604 25.3301 119.689 25.4536C119.773 25.5754 119.898 25.6555 120.044 25.7176L119.584 22.2643Z" stroke="white" stroke-opacity="0.2" stroke-width="0.314235"/>
</g>
<g id="Vector_5">
<path d="M110.388 28.1106C109.219 28.7296 108.08 29.1863 106.835 29.3275C105.767 29.457 104.684 29.3729 103.649 29.0799C102.046 28.6219 101.049 27.4384 101 25.6014C100.91 22.5067 100.961 19.4119 100.948 16.3172C100.948 15.9941 101.101 15.8777 101.402 15.8777C102.536 15.8777 103.67 15.8777 104.805 15.8777C105.319 15.8777 105.267 16.2404 105.267 16.5709C105.267 19.0046 105.267 21.4392 105.267 23.8745C105.267 25.7314 106.002 26.3095 107.835 25.87C107.959 25.8415 108.074 25.8069 108.192 25.7698C109.15 25.4615 109.151 25.4603 109.151 24.4415C109.151 21.8233 109.164 19.2027 109.143 16.5846C109.143 16.056 109.28 15.8418 109.839 15.8678C110.83 15.9074 111.82 15.8963 112.81 15.8678C113.255 15.8579 113.443 15.9916 113.442 16.4632C113.432 20.4443 113.432 24.425 113.442 28.4052C113.442 28.8744 113.252 29.0242 112.809 28.9994C112.336 28.9654 111.86 28.9678 111.387 29.0068C110.743 29.0861 110.326 28.9326 110.388 28.1106Z" fill="white" fill-opacity="0.2"/>
<path d="M110.566 27.8385L110.545 28.1224C110.515 28.5125 110.604 28.687 110.716 28.7705C110.841 28.8628 111.051 28.8899 111.368 28.8509L111.374 28.8501L111.374 28.8503C111.855 28.8106 112.338 28.8081 112.819 28.8426M110.566 27.8385L113.285 28.4052H113.442L113.285 28.4056C113.285 28.4056 113.285 28.4055 113.285 28.4054C113.285 28.6258 113.239 28.7234 113.186 28.7711C113.132 28.8202 113.029 28.8542 112.819 28.8426M110.566 27.8385L110.314 27.9718C109.154 28.5863 108.035 29.0333 106.817 29.1713L106.816 29.1715C105.769 29.2985 104.707 29.216 103.692 28.9288C102.917 28.7074 102.297 28.3135 101.865 27.761C101.433 27.2087 101.181 26.4875 101.157 25.5972L101.157 25.5969C101.096 23.4799 101.1 21.3646 101.105 19.2465C101.107 18.2707 101.109 17.2943 101.105 16.3168M110.566 27.8385L101.105 16.3168M112.819 28.8426C112.82 28.8426 112.82 28.8427 112.82 28.8427L112.809 28.9994L112.818 28.8425C112.818 28.8426 112.819 28.8426 112.819 28.8426ZM101.105 16.3168C101.105 16.1774 101.138 16.1197 101.168 16.0922C101.201 16.062 101.267 16.0348 101.402 16.0348H101.409H101.415H101.422H101.429H101.435H101.442H101.448H101.455H101.462H101.468H101.475H101.482H101.488H101.495H101.502H101.508H101.515H101.522H101.528H101.535H101.541H101.548H101.555H101.561H101.568H101.575H101.581H101.588H101.595H101.601H101.608H101.615H101.621H101.628H101.634H101.641H101.648H101.654H101.661H101.668H101.674H101.681H101.688H101.694H101.701H101.708H101.714H101.721H101.728H101.734H101.741H101.747H101.754H101.761H101.767H101.774H101.781H101.787H101.794H101.801H101.807H101.814H101.821H101.827H101.834H101.84H101.847H101.854H101.86H101.867H101.874H101.88H101.887H101.894H101.9H101.907H101.914H101.92H101.927H101.933H101.94H101.947H101.953H101.96H101.967H101.973H101.98H101.987H101.993H102H102.007H102.013H102.02H102.027H102.033H102.04H102.046H102.053H102.06H102.066H102.073H102.08H102.086H102.093H102.1H102.106H102.113H102.12H102.126H102.133H102.139H102.146H102.153H102.159H102.166H102.173H102.179H102.186H102.193H102.199H102.206H102.213H102.219H102.226H102.233H102.239H102.246H102.252H102.259H102.266H102.272H102.279H102.286H102.292H102.299H102.306H102.312H102.319H102.326H102.332H102.339H102.345H102.352H102.359H102.365H102.372H102.379H102.385H102.392H102.399H102.405H102.412H102.419H102.425H102.432H102.439H102.445H102.452H102.458H102.465H102.472H102.478H102.485H102.492H102.498H102.505H102.512H102.518H102.525H102.532H102.538H102.545H102.551H102.558H102.565H102.571H102.578H102.585H102.591H102.598H102.605H102.611H102.618H102.625H102.631H102.638H102.645H102.651H102.658H102.664H102.671H102.678H102.684H102.691H102.698H102.704H102.711H102.718H102.724H102.731H102.738H102.744H102.751H102.758H102.764H102.771H102.777H102.784H102.791H102.797H102.804H102.811H102.817H102.824H102.831H102.837H102.844H102.851H102.857H102.864H102.871H102.877H102.884H102.89H102.897H102.904H102.91H102.917H102.924H102.93H102.937H102.944H102.95H102.957H102.964H102.97H102.977H102.983H102.99H102.997H103.003H103.01H103.017H103.023H103.03H103.037H103.043H103.05H103.057H103.063H103.07H103.077H103.083H103.09H103.096H103.103H103.11H103.116H103.123H103.13H103.136H103.143H103.15H103.156H103.163H103.17H103.176H103.183H103.19H103.196H103.203H103.209H103.216H103.223H103.229H103.236H103.243H103.249H103.256H103.263H103.269H103.276H103.283H103.289H103.296H103.303H103.309H103.316H103.322H103.329H103.336H103.342H103.349H103.356H103.362H103.369H103.376H103.382H103.389H103.396H103.402H103.409H103.416H103.422H103.429H103.435H103.442H103.449H103.455H103.462H103.469H103.475H103.482H103.489H103.495H103.502H103.509H103.515H103.522H103.529H103.535H103.542H103.548H103.555H103.562H103.568H103.575H103.582H103.588H103.595H103.602H103.608H103.615H103.622H103.628H103.635H103.642H103.648H103.655H103.661H103.668H103.675H103.681H103.688H103.695H103.701H103.708H103.715H103.721H103.728H103.735H103.741H103.748H103.755H103.761H103.768H103.774H103.781H103.788H103.794H103.801H103.808H103.814H103.821H103.828H103.834H103.841H103.848H103.854H103.861H103.868H103.874H103.881H103.887H103.894H103.901H103.907H103.914H103.921H103.927H103.934H103.941H103.947H103.954H103.961H103.967H103.974H103.981H103.987H103.994H104H104.007H104.014H104.02H104.027H104.034H104.04H104.047H104.054H104.06H104.067H104.074H104.08H104.087H104.094H104.1H104.107H104.113H104.12H104.127H104.133H104.14H104.147H104.153H104.16H104.167H104.173H104.18H104.187H104.193H104.2H104.207H104.213H104.22H104.227H104.233H104.24H104.246H104.253H104.26H104.266H104.273H104.28H104.286H104.293H104.3H104.306H104.313H104.32H104.326H104.333H104.34H104.346H104.353H104.359H104.366H104.373H104.379H104.386H104.393H104.399H104.406H104.413H104.419H104.426H104.433H104.439H104.446H104.453H104.459H104.466H104.472H104.479H104.486H104.492H104.499H104.506H104.512H104.519H104.526H104.532H104.539H104.546H104.552H104.559H104.566H104.572H104.579H104.586H104.592H104.599H104.605H104.612H104.619H104.625H104.632H104.639H104.645H104.652H104.659H104.665H104.672H104.679H104.685H104.692H104.699H104.705H104.712H104.718H104.725H104.732H104.738H104.745H104.752H104.758H104.765H104.772H104.778H104.785H104.792H104.798H104.805C104.916 16.0348 104.979 16.0547 105.015 16.0754C105.047 16.0941 105.067 16.1194 105.082 16.1572C105.098 16.1992 105.107 16.2551 105.11 16.3293C105.112 16.3789 105.111 16.4269 105.11 16.4792C105.11 16.5081 105.11 16.5384 105.11 16.5709V16.5852V16.5995V16.6137V16.628V16.6422V16.6565V16.6708V16.685V16.6993V16.7135V16.7278V16.7421V16.7563V16.7706V16.7848V16.7991V16.8134V16.8276V16.8419V16.8561V16.8704V16.8847V16.8989V16.9132V16.9275V16.9417V16.956V16.9702V16.9845V16.9988V17.013V17.0273V17.0415V17.0558V17.0701V17.0843V17.0986V17.1128V17.1271V17.1414V17.1556V17.1699V17.1841V17.1984V17.2127V17.2269V17.2412V17.2554V17.2697V17.284V17.2982V17.3125V17.3268V17.341V17.3553V17.3695V17.3838V17.3981V17.4123V17.4266V17.4408V17.4551V17.4694V17.4836V17.4979V17.5121V17.5264V17.5407V17.5549V17.5692V17.5835V17.5977V17.612V17.6262V17.6405V17.6548V17.669V17.6833V17.6975V17.7118V17.7261V17.7403V17.7546V17.7689V17.7831V17.7974V17.8116V17.8259V17.8402V17.8544V17.8687V17.8829V17.8972V17.9115V17.9257V17.94V17.9543V17.9685V17.9828V17.997V18.0113V18.0256V18.0398V18.0541V18.0683V18.0826V18.0969V18.1111V18.1254V18.1397V18.1539V18.1682V18.1824V18.1967V18.211V18.2252V18.2395V18.2538V18.268V18.2823V18.2965V18.3108V18.3251V18.3393V18.3536V18.3679V18.3821V18.3964V18.4106V18.4249V18.4392V18.4534V18.4677V18.482V18.4962V18.5105V18.5247V18.539V18.5533V18.5675V18.5818V18.5961V18.6103V18.6246V18.6388V18.6531V18.6674V18.6816V18.6959V18.7102V18.7244V18.7387V18.7529V18.7672V18.7815V18.7957V18.81V18.8243V18.8385V18.8528V18.867V18.8813V18.8956V18.9098V18.9241V18.9384V18.9526V18.9669V18.9812V18.9954V19.0097V19.0239V19.0382V19.0525V19.0667V19.081V19.0953V19.1095V19.1238V19.138V19.1523V19.1666V19.1808V19.1951V19.2094V19.2236V19.2379V19.2522V19.2664V19.2807V19.2949V19.3092V19.3235V19.3377V19.352V19.3663V19.3805V19.3948V19.4091V19.4233V19.4376V19.4518V19.4661V19.4804V19.4946V19.5089V19.5232V19.5374V19.5517V19.566V19.5802V19.5945V19.6087V19.623V19.6373V19.6515V19.6658V19.6801V19.6943V19.7086V19.7229V19.7371V19.7514V19.7657V19.7799V19.7942V19.8084V19.8227V19.837V19.8512V19.8655V19.8798V19.894V19.9083V19.9226V19.9368V19.9511V19.9654V19.9796V19.9939V20.0081V20.0224V20.0367V20.0509V20.0652V20.0795V20.0937V20.108V20.1223V20.1365V20.1508V20.1651V20.1793V20.1936V20.2079V20.2221V20.2364V20.2506V20.2649V20.2792V20.2934V20.3077V20.322V20.3362V20.3505V20.3648V20.379V20.3933V20.4076V20.4218V20.4361V20.4504V20.4646V20.4789V20.4932V20.5074V20.5217V20.5359V20.5502V20.5645V20.5787V20.593V20.6073V20.6215V20.6358V20.6501V20.6643V20.6786V20.6929V20.7071V20.7214V20.7357V20.7499V20.7642V20.7785V20.7927V20.807V20.8213V20.8355V20.8498V20.8641V20.8783V20.8926V20.9069V20.9211V20.9354V20.9496V20.9639V20.9782V20.9924V21.0067V21.021V21.0352V21.0495V21.0638V21.078V21.0923V21.1066V21.1208V21.1351V21.1494V21.1636V21.1779V21.1922V21.2064V21.2207V21.235V21.2492V21.2635V21.2778V21.292V21.3063V21.3206V21.3348V21.3491V21.3634V21.3776V21.3919V21.4062V21.4204V21.4347V21.449V21.4632V21.4775V21.4918V21.506V21.5203V21.5346V21.5488V21.5631V21.5774V21.5916V21.6059V21.6202V21.6344V21.6487V21.663V21.6772V21.6915V21.7058V21.72V21.7343V21.7486V21.7628V21.7771V21.7914V21.8056V21.8199V21.8342V21.8484V21.8627V21.877V21.8912V21.9055V21.9198V21.934V21.9483V21.9626V21.9768V21.9911V22.0054V22.0196V22.0339V22.0482V22.0624V22.0767V22.091V22.1052V22.1195V22.1338V22.148V22.1623V22.1766V22.1908V22.2051V22.2194V22.2336V22.2479V22.2622V22.2764V22.2907V22.305V22.3192V22.3335V22.3478V22.3621V22.3763V22.3906V22.4049V22.4191V22.4334V22.4477V22.4619V22.4762V22.4905V22.5047V22.519V22.5333V22.5475V22.5618V22.5761V22.5903V22.6046V22.6189V22.6331V22.6474V22.6617V22.6759V22.6902V22.7045V22.7187V22.733V22.7473V22.7616V22.7758V22.7901V22.8044V22.8186V22.8329V22.8472V22.8614V22.8757V22.89V22.9042V22.9185V22.9328V22.947V22.9613V22.9756V22.9898V23.0041V23.0184V23.0327V23.0469V23.0612V23.0755V23.0897V23.104V23.1183V23.1325V23.1468V23.1611V23.1753V23.1896V23.2039V23.2181V23.2324V23.2467V23.261V23.2752V23.2895V23.3038V23.318V23.3323V23.3466V23.3608V23.3751V23.3894V23.4036V23.4179V23.4322V23.4464V23.4607V23.475V23.4893V23.5035V23.5178V23.5321V23.5463V23.5606V23.5749V23.5891V23.6034V23.6177V23.6319V23.6462V23.6605V23.6748V23.689V23.7033V23.7176V23.7318V23.7461V23.7604V23.7746V23.7889V23.8032V23.8175V23.8317V23.846V23.8603V23.8745C105.11 24.8118 105.293 25.4879 105.767 25.8573C106.24 26.2261 106.947 26.2445 107.871 26.023M101.105 16.3168L112.814 16.0249C111.823 16.0534 110.828 16.0646 109.833 16.0248L109.832 16.0248C109.564 16.0123 109.453 16.0616 109.398 16.1231C109.337 16.1916 109.3 16.322 109.3 16.584C109.315 18.4952 109.313 20.408 109.31 22.3194C109.309 23.027 109.308 23.7344 109.308 24.4415V24.4467C109.308 24.6957 109.308 24.8945 109.292 25.0514C109.276 25.211 109.242 25.3484 109.158 25.4641C109.074 25.58 108.955 25.6551 108.809 25.7192C108.666 25.7821 108.48 25.8422 108.246 25.9173L108.24 25.9193L108.239 25.9196C108.121 25.957 108.001 25.9931 107.871 26.023M107.871 26.023C107.871 26.023 107.871 26.0231 107.871 26.0231L107.835 25.87L107.872 26.0228C107.872 26.0229 107.871 26.0229 107.871 26.023Z" stroke="white" stroke-opacity="0.2" stroke-width="0.314235"/>
</g>
<g id="Vector_6">
<path d="M74.7261 22.5761C74.7261 21.7727 74.7261 20.9668 74.7261 20.1647C74.7187 19.2177 74.8499 19.3427 73.9227 19.3303C73.6132 19.3303 73.3038 19.3192 72.9955 19.3303C72.6241 19.344 72.4818 19.1731 72.4917 18.8067C72.509 18.1886 72.509 17.5696 72.4917 16.9499C72.483 16.6268 72.5907 16.4361 72.9225 16.3965C73.004 16.3849 73.0843 16.3662 73.1626 16.3408C73.6677 16.1824 74.377 16.2814 74.6481 15.8816C74.8883 15.5189 74.7273 14.8912 74.7323 14.3738C74.7323 13.7969 74.7521 13.2188 74.7323 12.6407C74.7162 12.278 74.809 12.1146 75.2064 12.1221C76.2982 12.1402 77.3909 12.1402 78.4843 12.1221C78.8817 12.1146 78.9696 12.2818 78.9609 12.6407C78.9399 13.4033 78.9609 14.1658 78.9609 14.9296C78.9609 15.858 78.9609 15.858 79.924 15.858C80.4402 15.858 80.9552 15.8717 81.4701 15.858C81.8972 15.8432 82.0569 16.0153 82.0433 16.4448C82.0185 17.2061 82.0161 17.9699 82.0433 18.7324C82.0606 19.2041 81.8588 19.3514 81.4243 19.3378C80.7447 19.3192 80.0627 19.3452 79.3843 19.3266C79.0649 19.318 78.9547 19.4207 78.9585 19.7475C78.9733 21.3568 78.9585 22.966 78.9708 24.5753C78.9783 25.3552 79.419 25.8355 80.2174 25.9197C80.6706 25.9545 81.1259 25.9545 81.5791 25.9197C81.9096 25.9036 82.0854 25.9989 82.0742 26.3603C82.061 27.1031 82.061 27.8458 82.0742 28.5886C82.0742 28.8671 81.9579 28.9896 81.7029 29.0577C80.1902 29.4489 78.6775 29.4959 77.1969 28.9698C75.4936 28.3633 74.8548 26.9892 74.7694 25.3032C74.7224 24.3983 74.7608 23.4897 74.7608 22.5798L74.7261 22.5761Z" fill="white" fill-opacity="0.2"/>
<path d="M72.9955 19.3303C73.201 19.3229 73.407 19.3254 73.6131 19.3279C73.7163 19.3291 73.8195 19.3303 73.9227 19.3303H72.9955ZM72.9955 19.3303C72.6241 19.344 72.4818 19.1731 72.4917 18.8067M72.9955 19.3303L72.4917 18.8067M81.5791 25.9197C81.9096 25.9036 82.0854 25.9989 82.0742 26.3603M81.5791 25.9197C81.1259 25.9545 80.6706 25.9545 80.2174 25.9197C79.419 25.8355 78.9783 25.3552 78.9708 24.5753C78.9649 23.8057 78.9652 23.036 78.9655 22.2664C78.9659 21.4268 78.9662 20.5871 78.9585 19.7475M81.5791 25.9197L81.5867 26.0766C81.5874 26.0766 81.5881 26.0765 81.5889 26.0765C81.7452 26.0691 81.8204 26.0922 81.8567 26.1212C81.8844 26.1433 81.9221 26.1964 81.9172 26.3555L81.9171 26.3576C81.9039 27.1022 81.9039 27.8468 81.9171 28.5913L82.0742 28.5886M81.5791 25.9197L78.8039 12.6366M82.0742 26.3603L74.7323 14.3738C74.7323 14.1816 74.7345 13.9893 74.7367 13.7968C74.7411 13.4117 74.7455 13.0262 74.7323 12.6407C74.7162 12.278 74.809 12.1146 75.2064 12.1221C76.2982 12.1402 77.3909 12.1402 78.4843 12.1221C78.8817 12.1146 78.9696 12.2818 78.9609 12.6407M82.0742 26.3603C82.061 27.1031 82.061 27.8458 82.0742 28.5886M82.0742 26.3603L81.7029 29.0577M78.9585 19.7475C78.9547 19.4207 79.0649 19.318 79.3843 19.3266C79.7235 19.3359 80.0635 19.3341 80.4038 19.3322C80.7441 19.3303 81.0845 19.3285 81.4243 19.3378C81.8588 19.3514 82.0606 19.2041 82.0433 18.7324C82.0161 17.9699 82.0185 17.2061 82.0433 16.4448M78.9585 19.7475L78.8013 19.7493C78.8013 19.7492 78.8013 19.7491 78.8013 19.749M78.9585 19.7475L78.8013 19.749M82.0433 16.4448C82.0569 16.0153 81.8972 15.8432 81.4701 15.858C81.1269 15.8671 80.7837 15.8641 80.4401 15.8611C80.2682 15.8596 80.0962 15.858 79.924 15.858C79.4366 15.858 79.1959 15.858 79.077 15.7377C78.9609 15.6202 78.9609 15.3882 78.9609 14.9296C78.9609 14.6749 78.9586 14.4204 78.9563 14.1659C78.9516 13.6573 78.9469 13.149 78.9609 12.6407M82.0433 16.4448L81.8863 16.4397M82.0433 16.4448L81.8863 16.4398C81.8863 16.4398 81.8863 16.4397 81.8863 16.4397M78.9609 12.6407L78.8039 12.6364C78.8039 12.6365 78.8039 12.6366 78.8039 12.6366M78.9609 12.6407L78.8039 12.637C78.8039 12.6368 78.8039 12.6367 78.8039 12.6366M78.8039 12.6366C78.8081 12.4597 78.7845 12.3815 78.7536 12.3439C78.7296 12.3147 78.6709 12.2757 78.4873 12.2792L78.487 12.2792C77.3917 12.2973 76.2974 12.2973 75.2038 12.2792L75.2035 12.2792C75.0187 12.2757 74.959 12.3144 74.9351 12.343C74.9053 12.379 74.8813 12.4558 74.8892 12.6338L74.8893 12.6354L74.8893 12.6354C74.9026 13.0243 74.8982 13.4163 74.8938 13.8036C74.8916 13.9951 74.8894 14.1855 74.8894 14.3738V14.3753H74.8894C74.8882 14.4972 74.8968 14.6274 74.9075 14.7645C74.9092 14.7873 74.911 14.8102 74.9129 14.8333C74.9219 14.9474 74.9313 15.0656 74.9354 15.1801C74.9451 15.4495 74.9288 15.7422 74.7791 15.9683L74.7782 15.9697L74.7781 15.9697C74.6022 16.2292 74.2945 16.3115 74.0185 16.3568C73.9271 16.3718 73.8294 16.3839 73.7351 16.3957C73.6856 16.4018 73.637 16.4079 73.5908 16.4141C73.4514 16.4331 73.3233 16.4551 73.2104 16.4905C73.1238 16.5186 73.0349 16.5392 72.9447 16.5521L72.9411 16.5526L72.9411 16.5525C72.8028 16.569 72.7402 16.6127 72.7067 16.659C72.6691 16.711 72.6448 16.7979 72.6488 16.9456L72.4917 16.9499M72.4917 16.9499L72.6487 16.9455C72.6662 17.5681 72.6662 18.19 72.6487 18.811M72.4917 16.9499C72.509 17.5696 72.509 18.1886 72.4917 18.8067M72.4917 16.9499C72.483 16.6268 72.5907 16.4361 72.9225 16.3965C73.004 16.3849 73.0843 16.3662 73.1626 16.3408C73.3335 16.2872 73.5277 16.2631 73.7204 16.2391C74.0974 16.1923 74.4687 16.1461 74.6481 15.8816L72.4917 18.8067M72.6487 18.811C72.6487 18.8111 72.6487 18.8111 72.6487 18.8111L72.4917 18.8067M72.6487 18.811C72.6488 18.811 72.6488 18.811 72.6488 18.8109L72.4917 18.8067M72.6487 18.811C72.6442 18.9793 72.6768 19.0623 72.7157 19.104C72.7516 19.1427 72.8247 19.1794 72.9898 19.1733L72.9898 19.1733C73.1989 19.1658 73.4117 19.1683 73.6202 19.1708C73.7224 19.172 73.8236 19.1732 73.9227 19.1732H73.9248L73.9248 19.1732C74.0252 19.1746 74.1179 19.1742 74.2002 19.1739C74.2975 19.1735 74.3805 19.1732 74.4447 19.1758C74.5578 19.1804 74.6925 19.1931 74.7833 19.289C74.8298 19.338 74.8534 19.3965 74.8662 19.4527C74.8788 19.5073 74.8832 19.5686 74.8849 19.6324C74.8865 19.6928 74.8856 19.7714 74.8845 19.8632C74.8835 19.9524 74.8823 20.0541 74.8832 20.1634L74.8832 20.1647L74.8832 20.1694V20.1741V20.1788V20.1835V20.1882V20.1929V20.1976V20.2023V20.207V20.2117V20.2164V20.2211V20.2258V20.2305V20.2352V20.2399V20.2446V20.2493V20.254V20.2587V20.2634V20.2681V20.2728V20.2775V20.2822V20.2869V20.2916V20.2963V20.301V20.3057V20.3104V20.3151V20.3198V20.3245V20.3292V20.3339V20.3386V20.3433V20.348V20.3527V20.3575V20.3622V20.3669V20.3716V20.3763V20.381V20.3857V20.3904V20.3951V20.3998V20.4045V20.4092V20.4139V20.4186V20.4233V20.428V20.4327V20.4374V20.4421V20.4468V20.4515V20.4562V20.4609V20.4656V20.4704V20.4751V20.4798V20.4845V20.4892V20.4939V20.4986V20.5033V20.508V20.5127V20.5174V20.5221V20.5268V20.5315V20.5362V20.5409V20.5456V20.5504V20.5551V20.5598V20.5645V20.5692V20.5739V20.5786V20.5833V20.588V20.5927V20.5974V20.6021V20.6068V20.6115V20.6162V20.6209V20.6257V20.6304V20.6351V20.6398V20.6445V20.6492V20.6539V20.6586V20.6633V20.668V20.6727V20.6774V20.6821V20.6869V20.6916V20.6963V20.701V20.7057V20.7104V20.7151V20.7198V20.7245V20.7292V20.7339V20.7386V20.7434V20.7481V20.7528V20.7575V20.7622V20.7669V20.7716V20.7763V20.781V20.7857V20.7904V20.7951V20.7999V20.8046V20.8093V20.814V20.8187V20.8234V20.8281V20.8328V20.8375V20.8422V20.847V20.8517V20.8564V20.8611V20.8658V20.8705V20.8752V20.8799V20.8846V20.8893V20.894V20.8988V20.9035V20.9082V20.9129V20.9176V20.9223V20.927V20.9317V20.9364V20.9412V20.9459V20.9506V20.9553V20.96V20.9647V20.9694V20.9741V20.9788V20.9835V20.9883V20.993V20.9977V21.0024V21.0071V21.0118V21.0165V21.0212V21.0259V21.0307V21.0354V21.0401V21.0448V21.0495V21.0542V21.0589V21.0636V21.0683V21.0731V21.0778V21.0825V21.0872V21.0919V21.0966V21.1013V21.106V21.1107V21.1155V21.1202V21.1249V21.1296V21.1343V21.139V21.1437V21.1484V21.1532V21.1579V21.1626V21.1673V21.172V21.1767V21.1814V21.1861V21.1909V21.1956V21.2003V21.205V21.2097V21.2144V21.2191V21.2238V21.2285V21.2333V21.238V21.2427V21.2474V21.2521V21.2568V21.2615V21.2662V21.271V21.2757V21.2804V21.2851V21.2898V21.2945V21.2992V21.3039V21.3087V21.3134V21.3181V21.3228V21.3275V21.3322V21.3369V21.3416V21.3464V21.3511V21.3558V21.3605V21.3652V21.3699V21.3746V21.3793V21.3841V21.3888V21.3935V21.3982V21.4029V21.4076V21.4123V21.4171V21.4218V21.4265V21.4312V21.4359V21.4406V21.4453V21.45V21.4548V21.4595V21.4642V21.4689V21.4736V21.4783V21.483V21.4877V21.4925V21.4972V21.5019V21.5066V21.5113V21.516V21.5207V21.5255V21.5302V21.5349V21.5396V21.5443V21.549V21.5537V21.5584V21.5632V21.5679V21.5726V21.5773V21.582V21.5867V21.5914V21.5962V21.6009V21.6056V21.6103V21.615V21.6197V21.6244V21.6291V21.6339V21.6386V21.6433V21.648V21.6527V21.6574V21.6621V21.6668V21.6716V21.6763V21.681V21.6857V21.6904V21.6951V21.6998V21.7046V21.7093V21.714V21.7187V21.7234V21.7281V21.7328V21.7375V21.7423V21.747V21.7517V21.7564V21.7611V21.7658V21.7705V21.7752V21.78V21.7847V21.7894V21.7941V21.7988V21.8035V21.8082V21.813V21.8177V21.8224V21.8271V21.8318V21.8365V21.8412V21.8459V21.8507V21.8554V21.8601V21.8648V21.8695V21.8742V21.8789V21.8836V21.8884V21.8931V21.8978V21.9025V21.9072V21.9119V21.9166V21.9213V21.9261V21.9308V21.9355V21.9402V21.9449V21.9496V21.9543V21.959V21.9638V21.9685V21.9732V21.9779V21.9826V21.9873V21.992V21.9967V22.0015V22.0062V22.0109V22.0156V22.0203V22.025V22.0297V22.0344V22.0392V22.0439V22.0486V22.0533V22.058V22.0627V22.0674V22.0721V22.0769V22.0816V22.0863V22.091V22.0957V22.1004V22.1051V22.1098V22.1145V22.1193V22.124V22.1287V22.1334V22.1381V22.1428V22.1475V22.1522V22.1569V22.1617V22.1664V22.1711V22.1758V22.1805V22.1852V22.1899V22.1946V22.1993V22.2041V22.2088V22.2135V22.2182V22.2229V22.2276V22.2323V22.237V22.2417V22.2465V22.2512V22.2559V22.2606V22.2653V22.27V22.2747V22.2794V22.2841V22.2889V22.2936V22.2983V22.303V22.3077V22.3124V22.3171V22.3218V22.3265V22.3312V22.336V22.3407V22.3454V22.3501V22.3548V22.3595V22.3642V22.3689V22.3736V22.3783V22.383V22.3878V22.3925V22.3972V22.4019V22.4066V22.4113V22.416V22.4207V22.4254V22.4301V22.4349V22.4349L74.9179 22.4386V22.5798C74.9179 22.8666 74.9141 23.1511 74.9104 23.4343C74.9022 24.0586 74.8941 24.676 74.9263 25.295L74.9263 25.2952C74.9682 26.122 75.1453 26.859 75.5107 27.4596C75.8742 28.0572 76.4301 28.5299 77.2495 28.8218C78.693 29.3347 80.1723 29.2911 81.6628 28.9058C81.7757 28.8756 81.8319 28.8397 81.8629 28.8021C81.8924 28.7663 81.9171 28.7069 81.9171 28.5886H82.0742M82.0742 28.5886C82.0742 28.8671 81.9579 28.9896 81.7029 29.0577M78.8013 19.749C78.7994 19.5774 78.8246 19.412 78.9404 19.2989C79.056 19.1859 79.2213 19.165 79.3886 19.1696L79.3886 19.1696C79.7248 19.1788 80.0623 19.1769 80.403 19.1751L80.4042 19.1751C80.7436 19.1732 81.0862 19.1714 81.4286 19.1807L81.4293 19.1807C81.6361 19.1872 81.7415 19.1522 81.7971 19.1013C81.8489 19.0537 81.8943 18.9571 81.8863 18.7382L81.8863 18.738C81.8589 17.9714 81.8614 17.2041 81.8863 16.4397M78.8013 19.749L81.8863 16.4397M81.7029 29.0577C80.1902 29.4489 78.6775 29.4959 77.1969 28.9698C75.4936 28.3633 74.8548 26.9892 74.7694 25.3032L81.7029 29.0577Z" stroke="white" stroke-opacity="0.2" stroke-width="0.314235"/>
</g>
<g id="Vector_7">
<path d="M71.2808 22.4091C71.2808 24.3687 71.2684 26.3283 71.2895 28.2866C71.2895 28.8214 71.11 29.0293 70.5715 29.012C69.6233 28.9835 68.6738 28.991 67.7243 29.012C67.2131 29.0219 66.9704 28.8449 66.9717 28.2965C66.9841 24.3575 66.9841 20.4181 66.9717 16.4783C66.9717 16.029 67.1277 15.8482 67.5906 15.8594C68.6222 15.88 69.6538 15.88 70.6854 15.8594C71.1483 15.8482 71.2944 16.0277 71.2895 16.4783C71.2709 18.4491 71.2808 20.4297 71.2808 22.4091Z" fill="white" fill-opacity="0.2"/>
<path d="M70.6854 15.8594C71.1483 15.8482 71.2944 16.0277 71.2895 16.4783C71.2757 17.9404 71.2776 19.4079 71.2795 20.8763C71.2801 21.3872 71.2808 21.8982 71.2808 22.4091C71.2808 22.9387 71.2799 23.4684 71.279 23.998C71.2765 25.4279 71.2741 26.8576 71.2895 28.2866L70.6854 15.8594ZM70.6854 15.8594C69.6538 15.88 68.6222 15.88 67.5906 15.8594H70.6854ZM67.7212 28.8549C67.4773 28.8596 67.3397 28.8175 67.2607 28.7467C67.1852 28.6789 67.1282 28.5527 67.1288 28.297C67.1288 28.297 67.1288 28.2969 67.1288 28.2969L66.9717 28.2965C66.9841 24.3575 66.9841 20.4181 66.9717 16.4783L67.7212 28.8549ZM67.1288 16.4781C67.1288 16.2639 67.1678 16.1598 67.2204 16.1055C67.2709 16.0533 67.3696 16.0112 67.5869 16.0164L67.5875 16.0165C68.6212 16.0371 69.6548 16.0371 70.6885 16.0165L70.6891 16.0164C70.9072 16.0112 71.0015 16.0534 71.0484 16.1033C71.0982 16.1563 71.1347 16.2596 71.1324 16.4766L71.1323 16.4768C71.1186 17.9398 71.1205 19.4085 71.1224 20.8772C71.123 21.3879 71.1237 21.8986 71.1237 22.4091C71.1237 22.9381 71.1228 23.4674 71.1219 23.9968C71.1194 25.4268 71.117 26.8576 71.1323 28.2874C71.1322 28.5452 71.087 28.6769 71.0191 28.7474C70.9541 28.8151 70.832 28.8632 70.5765 28.855L70.5762 28.855L67.1288 16.4781Z" stroke="white" stroke-opacity="0.2" stroke-width="0.314235"/>
</g>
<g id="Vector_8">
<path d="M71.4525 12.4836C71.4534 12.7929 71.3925 13.0992 71.2734 13.3846C71.1542 13.67 70.9793 13.9288 70.7588 14.1457C70.5384 14.3626 70.2768 14.5333 69.9895 14.6477C69.7021 14.7621 69.3949 14.818 69.0856 14.8121C67.7759 14.8121 66.694 13.7549 66.7052 12.4861C66.7163 11.2172 67.792 10.1799 69.1141 10.1898C69.7279 10.1855 70.3184 10.4243 70.7566 10.8542C71.1948 11.284 71.445 11.8698 71.4525 12.4836Z" fill="white" fill-opacity="0.2"/>
<path d="M69.0887 14.655L69.0887 14.655H69.0856C67.8585 14.655 66.8519 13.6643 66.8623 12.4874C66.8726 11.3094 67.8734 10.3376 69.1129 10.3469L69.1152 10.3469C69.6875 10.3429 70.238 10.5656 70.6466 10.9663C71.0549 11.3669 71.2882 11.9128 71.2954 12.4848C71.2961 12.7729 71.2393 13.0582 71.1284 13.3241C71.0173 13.5902 70.8542 13.8315 70.6487 14.0337C70.4431 14.2359 70.1992 14.395 69.9313 14.5017C69.6634 14.6084 69.3769 14.6605 69.0887 14.655Z" stroke="white" stroke-opacity="0.2" stroke-width="0.314235"/>
</g>
</g>
</svg>
