<svg width="124" height="38" viewBox="0 0 124 38" fill="none" xmlns="http://www.w3.org/2000/svg">
<g id="Logo">
<g id="Group">
<g id="Vector">
<path d="M20.4136 37.1987L27.752 14.613H13.0752L20.4136 37.1987Z" fill="white" fill-opacity="0.2"/>
<path d="M13.8332 15.1637H26.994L20.4136 35.4166L13.8332 15.1637Z" stroke="white" stroke-opacity="0.2" stroke-width="1.10141"/>
</g>
<g id="Vector_2">
<path d="M20.4124 37.1987L13.074 14.613H2.78906L20.4124 37.1987Z" fill="white" fill-opacity="0.2"/>
<path d="M3.91729 15.1637H12.6739L18.9218 34.3932L3.91729 15.1637Z" stroke="white" stroke-opacity="0.2" stroke-width="1.10141"/>
</g>
<g id="Vector_3">
<path d="M2.7888 14.613L0.558604 21.4772C0.459574 21.7823 0.459634 22.1109 0.558773 22.4159C0.657912 22.721 0.851044 22.9868 1.11051 23.1754L20.4121 37.1987L2.7888 14.613Z" fill="white" fill-opacity="0.2"/>
<path d="M1.08238 21.6473C1.08239 21.6473 1.0824 21.6472 1.08241 21.6472L2.99226 15.769L17.5728 34.4552L1.43429 22.7299C1.43426 22.7299 1.43423 22.7299 1.43421 22.7299C1.26882 22.6097 1.14571 22.4402 1.08252 22.2457C1.01932 22.0513 1.01927 21.8418 1.08236 21.6473C1.08237 21.6473 1.08237 21.6473 1.08238 21.6473Z" stroke="white" stroke-opacity="0.2" stroke-width="1.10141"/>
</g>
<g id="Vector_4">
<path d="M2.78906 14.6131H13.074L8.65395 1.00976C8.42659 0.309897 7.43646 0.309897 7.2091 1.00976L2.78906 14.6131Z" fill="white" fill-opacity="0.2"/>
<path d="M12.316 14.0624H3.54705L7.73285 1.17994L7.73286 1.17991C7.79538 0.987456 8.06767 0.987456 8.13019 1.17991L8.1302 1.17994L12.316 14.0624Z" stroke="white" stroke-opacity="0.2" stroke-width="1.10141"/>
</g>
<g id="Vector_5">
<path d="M20.4131 37.1987L27.7515 14.613H38.0364L20.4131 37.1987Z" fill="white" fill-opacity="0.2"/>
<path d="M28.1516 15.1637H36.9082L21.9037 34.3932L28.1516 15.1637Z" stroke="white" stroke-opacity="0.2" stroke-width="1.10141"/>
</g>
<g id="Vector_6">
<path d="M38.0364 14.613L40.2666 21.4772C40.3656 21.7823 40.3656 22.1109 40.2664 22.4159C40.1673 22.721 39.9741 22.9868 39.7147 23.1754L20.4131 37.1987L38.0364 14.613V14.613Z" fill="white" fill-opacity="0.2"/>
<path d="M23.2523 34.4552L37.8329 15.769L39.7428 21.6472C39.7428 21.6472 39.7428 21.6473 39.7428 21.6473C39.8059 21.8418 39.8059 22.0513 39.7427 22.2457C39.6795 22.4402 39.5564 22.6097 39.391 22.7299C39.391 22.7299 39.3909 22.7299 39.3909 22.7299L23.2523 34.4552Z" stroke="white" stroke-opacity="0.2" stroke-width="1.10141"/>
</g>
<g id="Vector_7">
<path d="M38.0359 14.6131H27.751L32.171 1.00976C32.3984 0.309897 33.3885 0.309897 33.6159 1.00976L38.0359 14.6131V14.6131Z" fill="white" fill-opacity="0.2"/>
<path d="M37.2779 14.0624H28.509L32.6948 1.17994L32.6948 1.17991C32.7573 0.987456 33.0296 0.987456 33.0921 1.17991L33.0921 1.17994L37.2779 14.0624Z" stroke="white" stroke-opacity="0.2" stroke-width="1.10141"/>
</g>
</g>
<g id="Group_2">
<g id="Vector_8">
<mask id="path-15-inside-1_801_7432" fill="white">
<path d="M87.2001 9.15831H84.5519L84.5608 28.8599H95.2712V26.4241H87.2077L87.1989 9.15831H87.2001ZM105.469 25.4009C105.045 25.8418 104.535 26.1919 103.972 26.4298C103.408 26.6676 102.802 26.7883 102.19 26.7845C100.174 26.7845 99.3619 25.7913 99.3619 24.4979C99.3619 22.5428 100.715 21.6103 103.604 21.6103C104.145 21.6103 105.017 21.6705 105.469 21.7607V25.3997L105.469 25.4009ZM102.731 13.4596C100.594 13.4596 98.6324 14.2174 97.1031 15.4784L98.0391 17.0985C99.1219 16.4675 100.445 15.8352 102.341 15.8352C104.507 15.8352 105.47 16.9481 105.47 18.8136V19.7749C105.049 19.6853 104.176 19.6251 103.635 19.6251C99.0016 19.6251 96.6554 21.25 96.6554 24.6489C96.6554 27.6863 98.5203 29.2209 101.348 29.2209C103.253 29.2209 105.079 28.348 105.71 26.9349L106.192 28.8599H108.058V18.7835C108.058 15.5952 106.673 13.4596 102.732 13.4596H102.731ZM116.599 26.8747C115.606 26.8747 114.733 26.7544 114.072 26.4536V17.3403C114.974 16.5884 116.087 16.0469 117.501 16.0469C120.058 16.0469 121.051 17.8517 121.051 20.7693C121.051 24.9196 119.456 26.8747 116.598 26.8747M117.711 13.4596C115.344 13.4596 114.072 15.0697 114.072 15.0697V12.5277L114.063 9.15831H111.476L111.484 28.3793C112.778 28.9201 114.553 29.2209 116.478 29.2209C121.411 29.2209 123.788 26.0626 123.788 20.6183C123.788 16.3171 121.592 13.4596 117.711 13.4596ZM58.4217 11.2939C60.769 11.2939 62.273 12.0759 63.265 12.858L64.4033 10.8881C62.8521 9.5281 60.7661 8.79736 58.5409 8.79736C52.9155 8.79736 48.9746 12.2269 48.9746 19.1451C48.9746 26.3929 53.2269 29.2209 58.0903 29.2209C60.5272 29.2209 62.6033 28.6488 63.9568 28.0779L63.9014 20.3329V17.8971H56.6807V20.3329H61.2839L61.3394 26.213C60.7378 26.5138 59.6844 26.7544 58.2701 26.7544C54.3599 26.7544 51.7413 24.295 51.7413 19.1144C51.7424 13.8506 54.4501 11.2939 58.4211 11.2939M77.0399 9.15831H74.4525L74.4608 12.467V23.8963C74.4608 27.0853 75.845 29.2209 79.7865 29.2209C80.3303 29.2209 80.8629 29.1713 81.3801 29.0776V26.7538C80.9819 26.8146 80.5797 26.8449 80.177 26.8446C78.0101 26.8446 77.0476 25.7323 77.0476 23.8674V15.9862H81.3795V13.8205H77.047L77.0387 9.15831H77.0399ZM67.8877 28.8599H70.4751V13.8205H67.8865V28.8599H67.8877ZM67.8877 11.7457H70.4751V9.15831H67.8865V11.7451L67.8877 11.7457Z"/>
</mask>
<path d="M87.2001 9.15831H84.5519L84.5608 28.8599H95.2712V26.4241H87.2077L87.1989 9.15831H87.2001ZM105.469 25.4009C105.045 25.8418 104.535 26.1919 103.972 26.4298C103.408 26.6676 102.802 26.7883 102.19 26.7845C100.174 26.7845 99.3619 25.7913 99.3619 24.4979C99.3619 22.5428 100.715 21.6103 103.604 21.6103C104.145 21.6103 105.017 21.6705 105.469 21.7607V25.3997L105.469 25.4009ZM102.731 13.4596C100.594 13.4596 98.6324 14.2174 97.1031 15.4784L98.0391 17.0985C99.1219 16.4675 100.445 15.8352 102.341 15.8352C104.507 15.8352 105.47 16.9481 105.47 18.8136V19.7749C105.049 19.6853 104.176 19.6251 103.635 19.6251C99.0016 19.6251 96.6554 21.25 96.6554 24.6489C96.6554 27.6863 98.5203 29.2209 101.348 29.2209C103.253 29.2209 105.079 28.348 105.71 26.9349L106.192 28.8599H108.058V18.7835C108.058 15.5952 106.673 13.4596 102.732 13.4596H102.731ZM116.599 26.8747C115.606 26.8747 114.733 26.7544 114.072 26.4536V17.3403C114.974 16.5884 116.087 16.0469 117.501 16.0469C120.058 16.0469 121.051 17.8517 121.051 20.7693C121.051 24.9196 119.456 26.8747 116.598 26.8747M117.711 13.4596C115.344 13.4596 114.072 15.0697 114.072 15.0697V12.5277L114.063 9.15831H111.476L111.484 28.3793C112.778 28.9201 114.553 29.2209 116.478 29.2209C121.411 29.2209 123.788 26.0626 123.788 20.6183C123.788 16.3171 121.592 13.4596 117.711 13.4596ZM58.4217 11.2939C60.769 11.2939 62.273 12.0759 63.265 12.858L64.4033 10.8881C62.8521 9.5281 60.7661 8.79736 58.5409 8.79736C52.9155 8.79736 48.9746 12.2269 48.9746 19.1451C48.9746 26.3929 53.2269 29.2209 58.0903 29.2209C60.5272 29.2209 62.6033 28.6488 63.9568 28.0779L63.9014 20.3329V17.8971H56.6807V20.3329H61.2839L61.3394 26.213C60.7378 26.5138 59.6844 26.7544 58.2701 26.7544C54.3599 26.7544 51.7413 24.295 51.7413 19.1144C51.7424 13.8506 54.4501 11.2939 58.4211 11.2939M77.0399 9.15831H74.4525L74.4608 12.467V23.8963C74.4608 27.0853 75.845 29.2209 79.7865 29.2209C80.3303 29.2209 80.8629 29.1713 81.3801 29.0776V26.7538C80.9819 26.8146 80.5797 26.8449 80.177 26.8446C78.0101 26.8446 77.0476 25.7323 77.0476 23.8674V15.9862H81.3795V13.8205H77.047L77.0387 9.15831H77.0399ZM67.8877 28.8599H70.4751V13.8205H67.8865V28.8599H67.8877ZM67.8877 11.7457H70.4751V9.15831H67.8865V11.7451L67.8877 11.7457Z" fill="white" fill-opacity="0.2"/>
<path d="M84.5519 9.15831V7.66117H83.0541L83.0548 9.15898L84.5519 9.15831ZM84.5608 28.8599L83.0637 28.8606L83.0643 30.3571H84.5608V28.8599ZM95.2712 28.8599V30.3571H96.7683V28.8599H95.2712ZM95.2712 26.4241H96.7683V24.927H95.2712V26.4241ZM87.2077 26.4241L85.7106 26.4249L85.7114 27.9213H87.2077V26.4241ZM87.1989 9.15831V7.66117H85.701L85.7017 9.15908L87.1989 9.15831ZM105.469 25.4009L106.548 26.4387L107.281 25.6768L106.808 24.7313L105.469 25.4009ZM102.19 26.7845L102.199 25.2874H102.19L102.19 26.7845ZM105.469 21.7607H106.966V20.5334L105.762 20.2927L105.469 21.7607ZM105.469 25.3997H103.971V25.7531L104.129 26.0692L105.469 25.3997ZM97.1031 15.4784L96.1506 14.3233L95.1726 15.1297L95.8067 16.2273L97.1031 15.4784ZM98.0391 17.0985L96.7427 17.8474L97.4945 19.1487L98.7929 18.392L98.0391 17.0985ZM105.47 19.7749L105.158 21.2393L106.967 21.6243V19.7749H105.47ZM105.71 26.9349L107.163 26.5714L106.111 22.3698L104.344 26.3239L105.71 26.9349ZM106.192 28.8599L104.74 29.2235L105.024 30.3571H106.192V28.8599ZM108.058 28.8599V30.3571H109.555V28.8599H108.058ZM114.072 26.4536H112.575V27.4176L113.452 27.8166L114.072 26.4536ZM114.072 17.3403L113.113 16.1902L112.575 16.6391V17.3403H114.072ZM114.072 15.0697H112.575V19.3779L115.246 15.9981L114.072 15.0697ZM114.072 12.5277L115.569 12.5277L115.569 12.5238L114.072 12.5277ZM114.063 9.15831L115.56 9.15438L115.556 7.66117H114.063V9.15831ZM111.476 9.15831V7.66117H109.978L109.979 9.15895L111.476 9.15831ZM111.484 28.3793L109.987 28.3799L109.988 29.3762L110.907 29.7605L111.484 28.3793ZM63.265 12.858L62.3381 14.0337L63.6961 15.1043L64.5613 13.607L63.265 12.858ZM64.4033 10.8881L65.6996 11.6372L66.3146 10.5728L65.3903 9.76243L64.4033 10.8881ZM63.9568 28.0779L64.5386 29.4573L65.4611 29.0683L65.4539 28.0672L63.9568 28.0779ZM63.9014 20.3329L62.4042 20.3329L62.4043 20.3436L63.9014 20.3329ZM63.9014 17.8971H65.3985V16.4H63.9014V17.8971ZM56.6807 17.8971V16.4H55.1835V17.8971H56.6807ZM56.6807 20.3329H55.1835V21.83H56.6807V20.3329ZM61.2839 20.3329L62.781 20.3188L62.767 18.8357H61.2839V20.3329ZM61.3394 26.213L62.0089 27.5521L62.8452 27.1339L62.8364 26.1989L61.3394 26.213ZM51.7413 19.1144L50.2441 19.1141V19.1144H51.7413ZM74.4525 9.15831V7.66117H72.9517L72.9554 9.16204L74.4525 9.15831ZM74.4608 12.467L75.9579 12.467L75.9579 12.4632L74.4608 12.467ZM81.3801 29.0776L81.6472 30.5507L82.8772 30.3277V29.0776H81.3801ZM81.3801 26.7538H82.8772V25.011L81.1544 25.2738L81.3801 26.7538ZM80.177 26.8446L80.1779 25.3475H80.177V26.8446ZM77.0476 15.9862V14.4891H75.5504V15.9862H77.0476ZM81.3795 15.9862V17.4833H82.8767V15.9862H81.3795ZM81.3795 13.8205H82.8767V12.3234H81.3795V13.8205ZM77.047 13.8205L75.5499 13.8232L75.5525 15.3177H77.047V13.8205ZM77.0387 9.15831V7.66117H75.5389L75.5416 9.16096L77.0387 9.15831ZM70.4751 28.8599V30.3571H71.9722V28.8599H70.4751ZM70.4751 13.8205H71.9722V12.3234H70.4751V13.8205ZM67.8865 13.8205V12.3234H66.3894V13.8205H67.8865ZM67.8865 28.8599H66.3894V30.3571H67.8865V28.8599ZM67.8877 11.7457L67.2182 13.0848L67.5343 13.2428H67.8877V11.7457ZM70.4751 11.7457V13.2428H71.9722V11.7457H70.4751ZM70.4751 9.15831H71.9722V7.66117H70.4751V9.15831ZM67.8865 9.15831V7.66117H66.3894V9.15831H67.8865ZM67.8865 11.7451H66.3894V12.6704L67.217 13.0842L67.8865 11.7451ZM87.2001 7.66117H84.5519V10.6554H87.2001V7.66117ZM83.0548 9.15898L83.0637 28.8606L86.0579 28.8593L86.0491 9.15764L83.0548 9.15898ZM84.5608 30.3571H95.2712V27.3628H84.5608V30.3571ZM96.7683 28.8599V26.4241H93.7741V28.8599H96.7683ZM95.2712 24.927H87.2077V27.9213H95.2712V24.927ZM88.7049 26.4234L88.696 9.15754L85.7017 9.15908L85.7106 26.4249L88.7049 26.4234ZM87.1989 10.6554H87.2001V7.66117H87.1989V10.6554ZM104.39 24.363C104.107 24.6576 103.766 24.8915 103.39 25.0504L104.554 27.8092C105.305 27.4923 105.983 27.0261 106.548 26.4387L104.39 24.363ZM103.39 25.0504C103.013 25.2093 102.608 25.2899 102.199 25.2874L102.181 28.2816C102.995 28.2867 103.803 28.126 104.554 27.8092L103.39 25.0504ZM102.19 25.2874C101.41 25.2874 101.112 25.0953 101.022 25.014C100.952 24.9512 100.859 24.8253 100.859 24.4979H97.8648C97.8648 25.4639 98.1775 26.4813 99.0178 27.2385C99.8375 27.977 100.954 28.2816 102.19 28.2816V25.2874ZM100.859 24.4979C100.859 23.9149 101.029 23.7039 101.244 23.5574C101.572 23.3332 102.268 23.1075 103.604 23.1075V20.1132C102.051 20.1132 100.626 20.3537 99.5556 21.0845C98.3713 21.893 97.8648 23.1258 97.8648 24.4979H100.859ZM103.604 23.1075C104.095 23.1075 104.859 23.1656 105.175 23.2288L105.762 20.2927C105.176 20.1754 104.195 20.1132 103.604 20.1132V23.1075ZM103.971 21.7607V25.3997H106.966V21.7607H103.971ZM104.129 26.0692L104.13 26.0704L106.808 24.7313L106.808 24.7301L104.129 26.0692ZM102.731 11.9624C100.234 11.9624 97.9383 12.8493 96.1506 14.3233L98.0555 16.6335C99.3265 15.5856 100.954 14.9567 102.731 14.9567V11.9624ZM95.8067 16.2273L96.7427 17.8474L99.3354 16.3496L98.3994 14.7295L95.8067 16.2273ZM98.7929 18.392C99.7685 17.8235 100.822 17.3323 102.341 17.3323V14.3381C100.068 14.3381 98.4753 15.1115 97.2852 15.805L98.7929 18.392ZM102.341 17.3323C103.183 17.3323 103.522 17.5465 103.659 17.6835C103.796 17.8209 103.973 18.1231 103.973 18.8136H106.967C106.967 17.6386 106.662 16.4516 105.776 15.5662C104.89 14.6804 103.665 14.3381 102.341 14.3381V17.3323ZM103.973 18.8136V19.7749H106.967V18.8136H103.973ZM105.781 18.3106C105.211 18.1892 104.219 18.128 103.635 18.128V21.1223C104.134 21.1223 104.886 21.1814 105.158 21.2393L105.781 18.3106ZM103.635 18.128C101.191 18.128 99.0751 18.548 97.5387 19.6434C95.9061 20.8072 95.1583 22.5622 95.1583 24.6489H98.1526C98.1526 23.3367 98.5778 22.5798 99.2768 22.0815C100.072 21.5147 101.446 21.1223 103.635 21.1223V18.128ZM95.1583 24.6489C95.1583 26.482 95.7304 28.0607 96.9211 29.1696C98.0946 30.2623 99.6755 30.718 101.348 30.718V27.7237C100.193 27.7237 99.4276 27.4121 98.9616 26.9782C98.5129 26.5604 98.1526 25.8532 98.1526 24.6489H95.1583ZM101.348 30.718C103.579 30.718 106.112 29.7039 107.077 27.5458L104.344 26.3239C104.045 26.9921 102.927 27.7237 101.348 27.7237V30.718ZM104.258 27.2984L104.74 29.2235L107.645 28.4964L107.163 26.5714L104.258 27.2984ZM106.192 30.3571H108.058V27.3628H106.192V30.3571ZM109.555 28.8599V18.7835H106.561V28.8599H109.555ZM109.555 18.7835C109.555 17.0067 109.174 15.245 107.986 13.9247C106.771 12.5737 104.966 11.9624 102.732 11.9624V14.9567C104.44 14.9567 105.298 15.4133 105.76 15.9271C106.25 16.4717 106.561 17.372 106.561 18.7835H109.555ZM102.732 11.9624H102.731V14.9567H102.732V11.9624ZM116.599 25.3776C115.692 25.3776 115.069 25.2622 114.691 25.0907L113.452 27.8166C114.398 28.2466 115.52 28.3719 116.599 28.3719V25.3776ZM115.569 26.4536V17.3403H112.575V26.4536H115.569ZM115.03 18.4905C115.726 17.9105 116.511 17.5441 117.501 17.5441V14.5498C115.663 14.5498 114.222 15.2662 113.113 16.1902L115.03 18.4905ZM117.501 17.5441C118.379 17.5441 118.766 17.8239 119.006 18.1694C119.317 18.6166 119.554 19.4322 119.554 20.7693H122.548C122.548 19.1888 122.288 17.6432 121.464 16.4587C120.568 15.1724 119.18 14.5498 117.501 14.5498V17.5441ZM119.554 20.7693C119.554 22.693 119.178 23.842 118.699 24.4799C118.278 25.0409 117.651 25.3776 116.598 25.3776V28.3719C118.404 28.3719 120.003 27.731 121.094 26.2769C122.127 24.8997 122.548 22.996 122.548 20.7693H119.554ZM117.711 11.9624C116.173 11.9624 114.982 12.4888 114.183 13.0126C113.785 13.2736 113.479 13.5366 113.267 13.7412C113.161 13.8439 113.077 13.9331 113.016 14.0018C112.985 14.0361 112.96 14.0655 112.94 14.089C112.93 14.1008 112.921 14.1111 112.914 14.1198C112.911 14.1242 112.908 14.1281 112.905 14.1317C112.903 14.1335 112.902 14.1352 112.901 14.1368C112.9 14.1376 112.899 14.1384 112.899 14.1391C112.899 14.1395 112.898 14.14 112.898 14.1402C112.898 14.1407 112.897 14.1413 114.072 15.0697C115.246 15.9981 115.246 15.9986 115.245 15.9991C115.245 15.9993 115.245 15.9998 115.245 16.0001C115.244 16.0007 115.244 16.0014 115.243 16.002C115.242 16.0032 115.241 16.0043 115.24 16.0053C115.239 16.0073 115.237 16.009 115.236 16.0103C115.234 16.013 115.233 16.0142 115.233 16.0142C115.233 16.0141 115.238 16.0089 115.246 15.9992C115.264 15.9798 115.298 15.9432 115.348 15.895C115.448 15.7977 115.609 15.6582 115.825 15.5167C116.254 15.2354 116.882 14.9567 117.711 14.9567V11.9624ZM115.569 15.0697V12.5277H112.575V15.0697H115.569ZM115.569 12.5238L115.56 9.15438L112.566 9.16224L112.575 12.5317L115.569 12.5238ZM114.063 7.66117H111.476V10.6554H114.063V7.66117ZM109.979 9.15895L109.987 28.3799L112.981 28.3786L112.973 9.15767L109.979 9.15895ZM110.907 29.7605C112.437 30.4002 114.422 30.718 116.478 30.718V27.7237C114.684 27.7237 113.119 27.44 112.062 26.998L110.907 29.7605ZM116.478 30.718C119.283 30.718 121.581 29.8041 123.138 27.913C124.654 26.0726 125.285 23.527 125.285 20.6183H122.291C122.291 23.1539 121.733 24.9096 120.827 26.0094C119.963 27.0585 118.605 27.7237 116.478 27.7237V30.718ZM125.285 20.6183C125.285 18.2303 124.676 16.0673 123.359 14.4726C122.012 12.8415 120.051 11.9624 117.711 11.9624V14.9567C119.252 14.9567 120.329 15.5064 121.05 16.3794C121.801 17.2887 122.291 18.7051 122.291 20.6183H125.285ZM58.4217 12.791C60.3912 12.791 61.5756 13.4326 62.3381 14.0337L64.1919 11.6823C62.9704 10.7193 61.1469 9.79677 58.4217 9.79677V12.791ZM64.5613 13.607L65.6996 11.6372L63.107 10.1391L61.9687 12.109L64.5613 13.607ZM65.3903 9.76243C63.5367 8.13716 61.0881 7.30023 58.5409 7.30023V10.2945C60.4441 10.2945 62.1676 10.919 63.4162 12.0138L65.3903 9.76243ZM58.5409 7.30023C55.4241 7.30023 52.6111 8.25626 50.5792 10.3288C48.5481 12.4005 47.4775 15.4039 47.4775 19.1451H50.4717C50.4717 15.9681 51.3716 13.7976 52.7173 12.425C54.0622 11.0533 56.0323 10.2945 58.5409 10.2945V7.30023ZM47.4775 19.1451C47.4775 23.0664 48.6356 26.0154 50.6689 27.9781C52.6884 29.9274 55.3792 30.718 58.0903 30.718V27.7237C55.938 27.7237 54.071 27.1003 52.7485 25.8237C51.4397 24.5605 50.4717 22.4716 50.4717 19.1451H47.4775ZM58.0903 30.718C60.7529 30.718 63.0263 30.0952 64.5386 29.4573L63.375 26.6984C62.1802 27.2024 60.3016 27.7237 58.0903 27.7237V30.718ZM65.4539 28.0672L65.3985 20.3222L62.4043 20.3436L62.4597 28.0886L65.4539 28.0672ZM65.3985 20.3329V17.8971H62.4042V20.3329H65.3985ZM63.9014 16.4H56.6807V19.3942H63.9014V16.4ZM55.1835 17.8971V20.3329H58.1778V17.8971H55.1835ZM56.6807 21.83H61.2839V18.8357H56.6807V21.83ZM59.7869 20.347L59.8423 26.2271L62.8364 26.1989L62.781 20.3188L59.7869 20.347ZM60.6698 24.8739C60.3498 25.0339 59.5515 25.2573 58.2701 25.2573V28.2515C59.8174 28.2515 61.1257 27.9936 62.0089 27.5521L60.6698 24.8739ZM58.2701 25.2573C56.6367 25.2573 55.4472 24.7533 54.649 23.8721C53.8327 22.9708 53.2384 21.468 53.2384 19.1144H50.2441C50.2441 21.9414 50.9592 24.2586 52.4297 25.8822C53.9184 27.5258 55.9933 28.2515 58.2701 28.2515V25.2573ZM53.2384 19.1147C53.2389 16.726 53.8525 15.1745 54.7028 14.2346C55.5359 13.3136 56.7666 12.791 58.4211 12.791V9.79677C56.1047 9.79677 53.996 10.5526 52.4823 12.2259C50.9857 13.8802 50.2448 16.239 50.2441 19.1141L53.2384 19.1147ZM77.0399 7.66117H74.4525V10.6554H77.0399V7.66117ZM72.9554 9.16204L72.9637 12.4707L75.9579 12.4632L75.9497 9.15457L72.9554 9.16204ZM72.9637 12.467V23.8963H75.9579V12.467H72.9637ZM72.9637 23.8963C72.9637 25.6734 73.3449 27.4352 74.5325 28.7556C75.7477 30.1068 77.5528 30.718 79.7865 30.718V27.7237C78.0788 27.7237 77.2209 27.2672 76.7587 26.7533C76.2688 26.2086 75.9579 25.3082 75.9579 23.8963H72.9637ZM79.7865 30.718C80.4214 30.718 81.0434 30.6601 81.6472 30.5507L81.113 27.6044C80.6824 27.6825 80.2392 27.7237 79.7865 27.7237V30.718ZM82.8772 29.0776V26.7538H79.883V29.0776H82.8772ZM81.1544 25.2738C80.8312 25.3231 80.5048 25.3477 80.1779 25.3475L80.176 28.3418C80.6546 28.3421 81.1326 28.306 81.6058 28.2338L81.1544 25.2738ZM80.177 25.3475C79.3346 25.3475 78.995 25.1334 78.858 24.9964C78.7208 24.8592 78.5447 24.5575 78.5447 23.8674H75.5504C75.5504 25.0422 75.8557 26.2291 76.7414 27.1143C77.6273 27.9998 78.8524 28.3418 80.177 28.3418V25.3475ZM78.5447 23.8674V15.9862H75.5504V23.8674H78.5447ZM77.0476 17.4833H81.3795V14.4891H77.0476V17.4833ZM82.8767 15.9862V13.8205H79.8824V15.9862H82.8767ZM81.3795 12.3234H77.047V15.3177H81.3795V12.3234ZM78.5441 13.8179L78.5359 9.15566L75.5416 9.16096L75.5499 13.8232L78.5441 13.8179ZM77.0387 10.6554H77.0399V7.66117H77.0387V10.6554ZM67.8877 30.3571H70.4751V27.3628H67.8877V30.3571ZM71.9722 28.8599V13.8205H68.9779V28.8599H71.9722ZM70.4751 12.3234H67.8865V15.3177H70.4751V12.3234ZM66.3894 13.8205V28.8599H69.3836V13.8205H66.3894ZM67.8865 30.3571H67.8877V27.3628H67.8865V30.3571ZM67.8877 13.2428H70.4751V10.2485H67.8877V13.2428ZM71.9722 11.7457V9.15831H68.9779V11.7457H71.9722ZM70.4751 7.66117H67.8865V10.6554H70.4751V7.66117ZM66.3894 9.15831V11.7451H69.3836V9.15831H66.3894ZM67.217 13.0842L67.2182 13.0848L68.5572 10.4066L68.5561 10.406L67.217 13.0842Z" fill="white" fill-opacity="0.2" mask="url(#path-15-inside-1_801_7432)"/>
</g>
</g>
</g>
</svg>
