<svg width="191" height="52" viewBox="0 0 191 52" fill="none" xmlns="http://www.w3.org/2000/svg">
<g id="Misc Icons / Tech Full">
<g id="Logo">
<mask id="path-1-inside-1_461_25857" fill="white">
<path d="M161.964 19.1682C162.102 19.1682 162.24 19.1682 162.319 19.0301C162.339 18.9709 162.359 18.9117 162.359 18.8525C162.359 18.7342 162.3 18.6355 162.201 18.5763C162.102 18.5368 162.004 18.5368 161.787 18.5368H161.688V19.1485H161.964V19.1682ZM161.787 18.2014C162.083 18.2014 162.221 18.2014 162.339 18.2606C162.734 18.379 162.773 18.7342 162.773 18.8525C162.773 18.8723 162.773 18.9512 162.753 19.0301C162.734 19.109 162.694 19.2669 162.477 19.405C162.438 19.4247 162.438 19.4247 162.378 19.4445L162.872 20.3521H162.398L161.964 19.5234H161.688V20.3521H161.254V18.2014H161.787ZM161.964 21.24C163.03 21.24 163.878 20.3718 163.878 19.3261C163.878 18.2606 163.03 17.4122 161.964 17.4122C160.918 17.4122 160.07 18.2606 160.07 19.3261C160.07 20.3718 160.918 21.24 161.964 21.24ZM160.465 19.3261C160.465 18.4974 161.135 17.8068 161.964 17.8068C162.813 17.8068 163.483 18.4974 163.483 19.3261C163.483 20.1351 162.793 20.8256 161.964 20.8256C161.155 20.8256 160.465 20.1351 160.465 19.3261ZM147.166 31.5001C144.64 31.5001 142.529 29.8032 141.878 27.4947H155.848L157.781 24.4956H141.858C142.49 22.1871 144.64 20.4705 147.146 20.4705H156.775L158.689 17.4714H146.929C142.213 17.4714 138.405 21.2794 138.405 25.9754C138.405 30.6714 142.213 34.4795 146.929 34.4795H157.031L158.945 31.4804H147.146L147.166 31.5001ZM107.132 34.4992C102.436 34.4992 98.6276 30.6911 98.6276 25.9952C98.6276 21.2992 102.436 17.4911 107.132 17.4911H118.891L116.958 20.4902H107.329C104.29 20.4902 101.824 22.9566 101.824 25.9952C101.824 29.0337 104.29 31.5001 107.329 31.5001H119.128L117.195 34.4992H107.092H107.132ZM44.9791 31.5001C48.0177 31.5001 50.5038 29.0337 50.5038 25.9952C50.5038 22.9566 48.0374 20.4902 44.9791 20.4902H35.5279C32.4894 20.4902 30.023 22.9566 30.023 25.9952C30.023 29.0337 32.4894 31.5001 35.5279 31.5001H44.9791ZM35.3109 34.4992C30.5952 34.4992 26.7871 30.6911 26.7871 25.9952C26.7871 21.2992 30.5952 17.4911 35.3109 17.4911H45.1961C49.8921 17.4911 53.7002 21.2992 53.7002 25.9952C53.7002 30.6911 49.8921 34.4992 45.1961 34.4992H35.3109ZM69.7612 28.9943C72.9576 28.9943 75.5227 26.4095 75.5227 23.2328C75.5227 20.0561 72.9576 17.4714 69.7612 17.4714H55.4365V34.4992H58.7119V20.4705H69.5442C71.0437 20.4705 72.2868 21.7135 72.2868 23.2328C72.2868 24.7521 71.0437 25.9754 69.5442 25.9754H60.3101L70.0572 34.4992H74.8123L68.2419 28.9943H69.7217H69.7612ZM123.903 31.5001V17.4911H120.647V32.8813C120.647 33.3154 120.805 33.71 121.121 34.0257C121.437 34.3216 121.871 34.5189 122.325 34.5189H137.261L139.195 31.5198H123.923L123.903 31.5001ZM83.8491 28.501H92.59L87.9729 21.0624L79.4886 34.5189H75.641L85.9406 18.379C86.3944 17.7279 87.1442 17.3333 87.9729 17.3333C88.7621 17.3333 89.5119 17.7081 89.9657 18.3395L100.305 34.5189H96.4375L94.6223 31.5198H85.7828L83.8491 28.5207V28.501Z"/>
</mask>
<path d="M161.964 19.1682C162.102 19.1682 162.24 19.1682 162.319 19.0301C162.339 18.9709 162.359 18.9117 162.359 18.8525C162.359 18.7342 162.3 18.6355 162.201 18.5763C162.102 18.5368 162.004 18.5368 161.787 18.5368H161.688V19.1485H161.964V19.1682ZM161.787 18.2014C162.083 18.2014 162.221 18.2014 162.339 18.2606C162.734 18.379 162.773 18.7342 162.773 18.8525C162.773 18.8723 162.773 18.9512 162.753 19.0301C162.734 19.109 162.694 19.2669 162.477 19.405C162.438 19.4247 162.438 19.4247 162.378 19.4445L162.872 20.3521H162.398L161.964 19.5234H161.688V20.3521H161.254V18.2014H161.787ZM161.964 21.24C163.03 21.24 163.878 20.3718 163.878 19.3261C163.878 18.2606 163.03 17.4122 161.964 17.4122C160.918 17.4122 160.07 18.2606 160.07 19.3261C160.07 20.3718 160.918 21.24 161.964 21.24ZM160.465 19.3261C160.465 18.4974 161.135 17.8068 161.964 17.8068C162.813 17.8068 163.483 18.4974 163.483 19.3261C163.483 20.1351 162.793 20.8256 161.964 20.8256C161.155 20.8256 160.465 20.1351 160.465 19.3261ZM147.166 31.5001C144.64 31.5001 142.529 29.8032 141.878 27.4947H155.848L157.781 24.4956H141.858C142.49 22.1871 144.64 20.4705 147.146 20.4705H156.775L158.689 17.4714H146.929C142.213 17.4714 138.405 21.2794 138.405 25.9754C138.405 30.6714 142.213 34.4795 146.929 34.4795H157.031L158.945 31.4804H147.146L147.166 31.5001ZM107.132 34.4992C102.436 34.4992 98.6276 30.6911 98.6276 25.9952C98.6276 21.2992 102.436 17.4911 107.132 17.4911H118.891L116.958 20.4902H107.329C104.29 20.4902 101.824 22.9566 101.824 25.9952C101.824 29.0337 104.29 31.5001 107.329 31.5001H119.128L117.195 34.4992H107.092H107.132ZM44.9791 31.5001C48.0177 31.5001 50.5038 29.0337 50.5038 25.9952C50.5038 22.9566 48.0374 20.4902 44.9791 20.4902H35.5279C32.4894 20.4902 30.023 22.9566 30.023 25.9952C30.023 29.0337 32.4894 31.5001 35.5279 31.5001H44.9791ZM35.3109 34.4992C30.5952 34.4992 26.7871 30.6911 26.7871 25.9952C26.7871 21.2992 30.5952 17.4911 35.3109 17.4911H45.1961C49.8921 17.4911 53.7002 21.2992 53.7002 25.9952C53.7002 30.6911 49.8921 34.4992 45.1961 34.4992H35.3109ZM69.7612 28.9943C72.9576 28.9943 75.5227 26.4095 75.5227 23.2328C75.5227 20.0561 72.9576 17.4714 69.7612 17.4714H55.4365V34.4992H58.7119V20.4705H69.5442C71.0437 20.4705 72.2868 21.7135 72.2868 23.2328C72.2868 24.7521 71.0437 25.9754 69.5442 25.9754H60.3101L70.0572 34.4992H74.8123L68.2419 28.9943H69.7217H69.7612ZM123.903 31.5001V17.4911H120.647V32.8813C120.647 33.3154 120.805 33.71 121.121 34.0257C121.437 34.3216 121.871 34.5189 122.325 34.5189H137.261L139.195 31.5198H123.923L123.903 31.5001ZM83.8491 28.501H92.59L87.9729 21.0624L79.4886 34.5189H75.641L85.9406 18.379C86.3944 17.7279 87.1442 17.3333 87.9729 17.3333C88.7621 17.3333 89.5119 17.7081 89.9657 18.3395L100.305 34.5189H96.4375L94.6223 31.5198H85.7828L83.8491 28.5207V28.501Z" fill="white" fill-opacity="0.2" stroke="white" stroke-opacity="0.2" stroke-width="10.0173" mask="url(#path-1-inside-1_461_25857)"/>
</g>
</g>
</svg>
