<svg width="116" height="38" viewBox="0 0 116 38" fill="none" xmlns="http://www.w3.org/2000/svg">
<g id="Logo">
<g id="Vector">
<path d="M14.6303 0.0908203H15.6516C19.1973 0.167901 22.6852 1.5939 25.1904 4.1183C24.2654 5.06254 23.3211 5.96824 22.4154 6.91249C21.0087 5.64065 19.3129 4.65787 17.463 4.311C14.7266 3.7329 11.7783 4.25319 9.48512 5.81408C6.97998 7.45205 5.2842 10.227 4.91807 13.1946C4.51339 16.1237 5.34201 19.2069 7.24977 21.4808C9.08044 23.6969 11.8746 25.0843 14.7652 25.1807C17.463 25.3348 20.2765 24.5062 22.242 22.6177C23.7836 21.2881 24.4966 19.2647 24.7279 17.2991C21.529 17.2991 18.3302 17.3184 15.1313 17.2991V13.3295H28.6012C29.2949 17.5882 28.2929 22.3865 25.0555 25.4312C22.8972 27.5895 19.9103 28.8613 16.8656 29.1118C13.9173 29.4009 10.8726 28.842 8.25182 27.416C5.11077 25.7395 2.60564 22.9068 1.37234 19.573C0.216129 16.5091 0.196859 13.0404 1.27599 9.95718C2.25877 7.14373 4.14726 4.65787 6.57531 2.92355C8.90701 1.20849 11.7397 0.264252 14.6303 0.0908203Z" fill="white" fill-opacity="0.2"/>
<path d="M21.5272 17.0588C19.4763 17.063 17.4264 17.0671 15.3759 17.056V13.5741H28.3918C29.0116 17.7246 27.9984 22.3277 24.8879 25.253L24.8878 25.2529L24.8825 25.2582C22.7692 27.3715 19.8384 28.6218 16.8456 28.868L16.8456 28.868L16.8418 28.8684C13.9389 29.153 10.9437 28.6023 8.36872 27.2012L8.36699 27.2003C5.27761 25.5513 2.81381 22.7646 1.60174 19.4882L1.60118 19.4867C0.465641 16.4775 0.446316 13.0681 1.50684 10.038L1.50689 10.0378C2.47264 7.27316 4.32955 4.82823 6.71747 3.12257L6.71748 3.12259L6.72023 3.12057C9.00848 1.43748 11.7921 0.507435 14.6376 0.335404H15.6489C19.0531 0.410065 22.4008 1.74995 24.845 4.12074C24.509 4.46127 24.1679 4.80043 23.8265 5.13983C23.3477 5.61582 22.8685 6.09229 22.4023 6.57369C21.0068 5.35632 19.3368 4.41412 17.5108 4.07112C14.7149 3.48119 11.6999 4.01148 9.34937 5.61062C6.78414 7.28872 5.05064 10.1269 4.67554 13.1629C4.26249 16.1563 5.10833 19.3085 7.0618 21.6373C8.93615 23.9058 11.7943 25.3255 14.7541 25.425C17.5036 25.5814 20.3843 24.7388 22.4067 22.7986C24.0096 21.4131 24.7361 19.3225 24.9708 17.3277L25.0029 17.0546H24.7279C23.6605 17.0546 22.5937 17.0567 21.5272 17.0588Z" stroke="white" stroke-opacity="0.2" stroke-width="0.489168"/>
</g>
<g id="Vector_2">
<path d="M91.9043 1.09277H96.0281V28.6107C94.6599 28.6107 93.2725 28.6299 91.9043 28.5914C91.9236 19.438 91.9043 10.2654 91.9043 1.09277Z" fill="white" fill-opacity="0.2"/>
<path d="M92.1489 1.33736H95.7836V28.3663C95.5215 28.3667 95.2593 28.3676 94.9969 28.3685C94.0458 28.3718 93.0939 28.3752 92.1494 28.3531C92.1616 22.3306 92.1574 16.2996 92.1532 10.2662C92.1511 7.29025 92.149 4.31373 92.1489 1.33736Z" stroke="white" stroke-opacity="0.2" stroke-width="0.489168"/>
</g>
<g id="Vector_3">
<mask id="path-5-inside-1_801_7456" fill="white">
<path d="M37.7749 10.6316C40.3186 10.1499 43.0742 10.6894 45.1747 12.2118C47.0824 13.5607 48.4121 15.6804 48.8168 17.9929C49.3371 20.6714 48.6819 23.6005 46.9476 25.7202C45.0783 28.0905 42.0144 29.3623 39.0275 29.1696C36.2911 29.0154 33.6318 27.6473 32.0131 25.4119C30.1824 22.9453 29.7392 19.5538 30.7413 16.6632C31.7433 13.5607 34.5761 11.1905 37.7749 10.6316ZM38.353 14.293C37.3124 14.5628 36.3489 15.1601 35.6552 16.008C33.786 18.2434 33.9016 21.8855 35.9635 23.9666C37.139 25.1614 38.9119 25.7202 40.5498 25.3926C42.0722 25.1229 43.4018 24.1015 44.1341 22.7526C45.4059 20.4595 45.0398 17.2991 43.0935 15.507C41.8409 14.3508 40.0103 13.869 38.353 14.293Z"/>
</mask>
<path d="M37.7749 10.6316C40.3186 10.1499 43.0742 10.6894 45.1747 12.2118C47.0824 13.5607 48.4121 15.6804 48.8168 17.9929C49.3371 20.6714 48.6819 23.6005 46.9476 25.7202C45.0783 28.0905 42.0144 29.3623 39.0275 29.1696C36.2911 29.0154 33.6318 27.6473 32.0131 25.4119C30.1824 22.9453 29.7392 19.5538 30.7413 16.6632C31.7433 13.5607 34.5761 11.1905 37.7749 10.6316ZM38.353 14.293C37.3124 14.5628 36.3489 15.1601 35.6552 16.008C33.786 18.2434 33.9016 21.8855 35.9635 23.9666C37.139 25.1614 38.9119 25.7202 40.5498 25.3926C42.0722 25.1229 43.4018 24.1015 44.1341 22.7526C45.4059 20.4595 45.0398 17.2991 43.0935 15.507C41.8409 14.3508 40.0103 13.869 38.353 14.293Z" fill="white" fill-opacity="0.2"/>
<path d="M45.1747 12.2118L44.8876 12.6079L44.8923 12.6112L45.1747 12.2118ZM48.8168 17.9929L48.3348 18.0772L48.3366 18.0861L48.8168 17.9929ZM46.9476 25.7202L46.5689 25.4104L46.5635 25.4173L46.9476 25.7202ZM39.0275 29.1696L39.059 28.6814L39.055 28.6812L39.0275 29.1696ZM32.0131 25.4119L32.4093 25.125L32.4059 25.1204L32.0131 25.4119ZM30.7413 16.6632L31.2036 16.8235L31.2068 16.8136L30.7413 16.6632ZM38.353 14.293L38.2318 13.8191L38.2303 13.8195L38.353 14.293ZM35.6552 16.008L36.0305 16.3218L36.0338 16.3178L35.6552 16.008ZM35.9635 23.9666L36.3122 23.6236L36.311 23.6224L35.9635 23.9666ZM40.5498 25.3926L40.4644 24.9109L40.4539 24.913L40.5498 25.3926ZM44.1341 22.7526L43.7063 22.5154L43.7042 22.5192L44.1341 22.7526ZM43.0935 15.507L42.7617 15.8664L42.7622 15.8669L43.0935 15.507ZM37.8659 11.1123C40.2874 10.6536 42.9042 11.1704 44.8876 12.6079L45.4618 11.8157C43.2442 10.2085 40.3498 9.64611 37.6839 10.151L37.8659 11.1123ZM44.8923 12.6112C46.693 13.8845 47.9522 15.8902 48.3349 18.0772L49.2986 17.9085C48.872 15.4707 47.4718 13.2369 45.4571 11.8124L44.8923 12.6112ZM48.3366 18.0861C48.8311 20.6322 48.2047 23.4112 46.569 25.4105L47.3261 26.03C49.159 23.7898 49.843 20.7106 49.297 17.8996L48.3366 18.0861ZM46.5635 25.4173C44.7999 27.6536 41.8952 28.8644 39.059 28.6815L38.996 29.6578C42.1335 29.8602 45.3568 28.5274 47.3317 26.0231L46.5635 25.4173ZM39.055 28.6812C36.4561 28.5348 33.9363 27.2337 32.4093 25.125L31.6169 25.6988C33.3273 28.0608 36.1261 29.4961 39 29.658L39.055 28.6812ZM32.4059 25.1204C30.6769 22.7907 30.2514 19.5697 31.2035 16.8234L30.2791 16.503C29.227 19.5378 29.688 23.0999 31.6203 25.7034L32.4059 25.1204ZM31.2068 16.8136C32.1507 13.8911 34.8312 11.6425 37.8591 11.1135L37.6907 10.1498C34.3209 10.7385 31.336 13.2303 30.2758 16.5129L31.2068 16.8136ZM38.2303 13.8195C37.0932 14.1143 36.0387 14.7668 35.2766 15.6983L36.0338 16.3178C36.6592 15.5534 37.5316 15.0113 38.4758 14.7665L38.2303 13.8195ZM35.2799 15.6942C33.252 18.1194 33.3729 22.0469 35.616 24.3109L36.311 23.6224C34.4303 21.724 34.32 18.3673 36.0304 16.3218L35.2799 15.6942ZM35.6148 24.3097C36.9037 25.6197 38.8428 26.2329 40.6458 25.8723L40.4539 24.913C38.9809 25.2076 37.3743 24.7031 36.3122 23.6236L35.6148 24.3097ZM40.6352 25.8743C42.3154 25.5766 43.7663 24.4555 44.564 22.986L43.7042 22.5192C43.0374 23.7476 41.829 24.6692 40.4645 24.911L40.6352 25.8743ZM44.5619 22.9899C45.9327 20.5183 45.5527 17.1065 43.4249 15.1472L42.7622 15.8669C44.5269 17.4918 44.8792 20.4007 43.7063 22.5154L44.5619 22.9899ZM43.4253 15.1476C42.0537 13.8814 40.0533 13.3531 38.2318 13.8191L38.4743 14.7669C39.9672 14.385 41.6282 14.8201 42.7617 15.8664L43.4253 15.1476Z" fill="white" fill-opacity="0.2" mask="url(#path-5-inside-1_801_7456)"/>
</g>
<g id="Vector_4">
<mask id="path-7-inside-2_801_7456" fill="white">
<path d="M58.1985 10.6316C61.1084 10.0728 64.2879 10.8821 66.4655 12.9247C70.0112 16.1043 70.3966 22.0588 67.3712 25.7202C65.5405 28.0326 62.5729 29.3045 59.6438 29.1696C56.8496 29.0925 54.094 27.705 52.4367 25.4119C50.5675 22.8875 50.1629 19.4188 51.2227 16.4705C52.2826 13.4643 55.0575 11.1712 58.1985 10.6316ZM58.7767 14.2929C57.7361 14.5627 56.7725 15.1601 56.0788 15.9887C54.2289 18.1855 54.306 21.7698 56.2908 23.8702C57.4663 25.1228 59.2969 25.7395 60.9927 25.3926C62.4958 25.1035 63.8447 24.1015 64.577 22.7526C65.8296 20.4401 65.4634 17.2798 63.4979 15.4877C62.2453 14.3315 60.4146 13.869 58.7767 14.2929Z"/>
</mask>
<path d="M58.1985 10.6316C61.1084 10.0728 64.2879 10.8821 66.4655 12.9247C70.0112 16.1043 70.3966 22.0588 67.3712 25.7202C65.5405 28.0326 62.5729 29.3045 59.6438 29.1696C56.8496 29.0925 54.094 27.705 52.4367 25.4119C50.5675 22.8875 50.1629 19.4188 51.2227 16.4705C52.2826 13.4643 55.0575 11.1712 58.1985 10.6316ZM58.7767 14.2929C57.7361 14.5627 56.7725 15.1601 56.0788 15.9887C54.2289 18.1855 54.306 21.7698 56.2908 23.8702C57.4663 25.1228 59.2969 25.7395 60.9927 25.3926C62.4958 25.1035 63.8447 24.1015 64.577 22.7526C65.8296 20.4401 65.4634 17.2798 63.4979 15.4877C62.2453 14.3315 60.4146 13.869 58.7767 14.2929Z" fill="white" fill-opacity="0.2"/>
<path d="M66.4655 12.9247L66.1307 13.2816L66.1389 13.2889L66.4655 12.9247ZM67.3712 25.7202L66.994 25.4085L66.9877 25.4166L67.3712 25.7202ZM59.6438 29.1696L59.6663 28.6808L59.6573 28.6806L59.6438 29.1696ZM52.4367 25.4119L52.8332 25.1253L52.8299 25.1208L52.4367 25.4119ZM51.2227 16.4705L51.6831 16.636L51.684 16.6331L51.2227 16.4705ZM58.7767 14.2929L58.6541 13.8194L58.6539 13.8194L58.7767 14.2929ZM56.0788 15.9887L56.453 16.3038L56.4539 16.3027L56.0788 15.9887ZM56.2908 23.8702L56.6475 23.5355L56.6463 23.5343L56.2908 23.8702ZM60.9927 25.3926L60.9003 24.9122L60.8947 24.9134L60.9927 25.3926ZM64.577 22.7526L65.0069 22.9859L65.0071 22.9856L64.577 22.7526ZM63.4979 15.4877L63.1661 15.8471L63.1683 15.8492L63.4979 15.4877ZM58.2908 11.112C61.0593 10.5803 64.0766 11.3545 66.1308 13.2815L66.8001 12.568C64.4993 10.4097 61.1574 9.56522 58.1063 10.1512L58.2908 11.112ZM66.1389 13.2889C69.4853 16.2898 69.8557 21.9455 66.9941 25.4086L67.7483 26.0318C70.9375 22.1722 70.5371 15.9189 66.7921 12.5606L66.1389 13.2889ZM66.9877 25.4166C65.26 27.5989 62.4469 28.809 59.6663 28.6809L59.6213 29.6582C62.6988 29.7999 65.821 28.4664 67.7547 26.0238L66.9877 25.4166ZM59.6573 28.6806C57.0083 28.6075 54.3972 27.2895 52.8332 25.1253L52.0403 25.6984C53.7907 28.1206 56.691 29.5775 59.6303 29.6585L59.6573 28.6806ZM52.8299 25.1208C51.0651 22.7374 50.6743 19.4421 51.683 16.6359L50.7624 16.305C49.6514 19.3956 50.07 23.0375 52.0436 25.703L52.8299 25.1208ZM51.684 16.6331C52.6835 13.7983 55.3107 11.624 58.2814 11.1137L58.1157 10.1495C54.8043 10.7183 51.8817 13.1303 50.7614 16.3078L51.684 16.6331ZM58.6539 13.8194C57.5174 14.1141 56.4647 14.7657 55.7037 15.6747L56.4539 16.3027C57.0804 15.5544 57.9547 15.0114 58.8994 14.7664L58.6539 13.8194ZM55.7046 15.6736C53.6964 18.0584 53.7776 21.9229 55.9353 24.2062L56.6463 23.5343C54.8343 21.6167 54.7613 18.3127 56.453 16.3038L55.7046 15.6736ZM55.9341 24.205C57.2213 25.5766 59.2222 26.254 61.0908 25.8718L60.8947 24.9134C59.3717 25.2249 57.7113 24.669 56.6475 23.5355L55.9341 24.205ZM61.0851 25.873C62.735 25.5557 64.2062 24.4609 65.0069 22.9859L64.1471 22.5192C63.4832 23.7421 62.2566 24.6514 60.9004 24.9122L61.0851 25.873ZM65.0071 22.9856C66.3548 20.4975 65.977 17.0861 63.8274 15.1262L63.1683 15.8492C64.9498 17.4735 65.3043 20.3828 64.1469 22.5196L65.0071 22.9856ZM63.8297 15.1282C62.4558 13.8601 60.4543 13.3534 58.6541 13.8194L58.8992 14.7665C60.375 14.3845 62.0348 14.8029 63.1661 15.8471L63.8297 15.1282Z" fill="white" fill-opacity="0.2" mask="url(#path-7-inside-2_801_7456)"/>
</g>
<g id="Vector_5">
<mask id="path-9-inside-3_801_7456" fill="white">
<path d="M75.5245 11.7494C77.7406 10.3619 80.689 9.97651 83.0785 11.1713C83.83 11.4989 84.4466 12.0577 85.044 12.6165C85.0633 12.0962 85.044 11.5567 85.0633 11.0171C86.3544 11.0364 87.6455 11.0171 88.9559 11.0364V28.0327C88.9366 30.5957 88.2814 33.3128 86.4315 35.182C84.4081 37.2439 81.3056 37.8798 78.5114 37.4559C75.5245 37.0127 72.923 34.8351 71.7668 32.0795C72.923 31.5206 74.1371 31.0774 75.3318 30.5571C76.0063 32.1373 77.3745 33.4862 79.0895 33.7945C80.8046 34.1029 82.7894 33.6789 83.9071 32.2529C85.1018 30.7884 85.1018 28.7843 85.044 26.9921C84.1576 27.8593 83.1363 28.6301 81.903 28.9192C79.2244 29.6707 76.2761 28.7457 74.2141 26.9343C72.133 25.1229 70.8997 22.3287 71.0153 19.5538C71.0731 16.4128 72.846 13.3873 75.5245 11.7494ZM79.5135 14.216C78.338 14.4087 77.2396 15.0639 76.488 15.9696C74.6766 18.1278 74.6766 21.5772 76.5073 23.6969C77.5479 24.9495 79.2244 25.6432 80.8431 25.4698C82.3655 25.3156 83.7722 24.3521 84.5237 23.0225C85.7956 20.7678 85.5836 17.7039 83.8685 15.7383C82.8087 14.5243 81.1129 13.9269 79.5135 14.216Z"/>
</mask>
<path d="M75.5245 11.7494C77.7406 10.3619 80.689 9.97651 83.0785 11.1713C83.83 11.4989 84.4466 12.0577 85.044 12.6165C85.0633 12.0962 85.044 11.5567 85.0633 11.0171C86.3544 11.0364 87.6455 11.0171 88.9559 11.0364V28.0327C88.9366 30.5957 88.2814 33.3128 86.4315 35.182C84.4081 37.2439 81.3056 37.8798 78.5114 37.4559C75.5245 37.0127 72.923 34.8351 71.7668 32.0795C72.923 31.5206 74.1371 31.0774 75.3318 30.5571C76.0063 32.1373 77.3745 33.4862 79.0895 33.7945C80.8046 34.1029 82.7894 33.6789 83.9071 32.2529C85.1018 30.7884 85.1018 28.7843 85.044 26.9921C84.1576 27.8593 83.1363 28.6301 81.903 28.9192C79.2244 29.6707 76.2761 28.7457 74.2141 26.9343C72.133 25.1229 70.8997 22.3287 71.0153 19.5538C71.0731 16.4128 72.846 13.3873 75.5245 11.7494ZM79.5135 14.216C78.338 14.4087 77.2396 15.0639 76.488 15.9696C74.6766 18.1278 74.6766 21.5772 76.5073 23.6969C77.5479 24.9495 79.2244 25.6432 80.8431 25.4698C82.3655 25.3156 83.7722 24.3521 84.5237 23.0225C85.7956 20.7678 85.5836 17.7039 83.8685 15.7383C82.8087 14.5243 81.1129 13.9269 79.5135 14.216Z" fill="white" fill-opacity="0.2"/>
<path d="M83.0785 11.1713L82.8597 11.6088L82.8712 11.6145L82.883 11.6197L83.0785 11.1713ZM85.044 12.6165L84.7098 12.9738L85.4932 13.7065L85.5329 12.6346L85.044 12.6165ZM85.0633 11.0171L85.0706 10.528L84.5915 10.5208L84.5744 10.9996L85.0633 11.0171ZM88.9559 11.0364H89.4451V10.5543L88.9631 10.5473L88.9559 11.0364ZM88.9559 28.0327L89.4451 28.0364V28.0327H88.9559ZM86.4315 35.182L86.0838 34.8379L86.0823 34.8394L86.4315 35.182ZM78.5114 37.4559L78.5848 36.9722L78.5832 36.972L78.5114 37.4559ZM71.7668 32.0795L71.554 31.6391L71.1363 31.8409L71.3158 32.2687L71.7668 32.0795ZM75.3318 30.5571L75.7817 30.3651L75.5883 29.9119L75.1365 30.1086L75.3318 30.5571ZM83.9071 32.2529L83.528 31.9436L83.5221 31.9512L83.9071 32.2529ZM85.044 26.9921L85.5329 26.9764L85.4971 25.8646L84.702 26.6425L85.044 26.9921ZM81.903 28.9192L81.7914 28.4429L81.781 28.4453L81.7708 28.4482L81.903 28.9192ZM74.2141 26.9343L74.537 26.5668L74.5353 26.5653L74.2141 26.9343ZM71.0153 19.5538L71.5042 19.5742L71.5044 19.5628L71.0153 19.5538ZM76.488 15.9696L76.8627 16.284L76.8645 16.2819L76.488 15.9696ZM76.5073 23.6969L76.8836 23.3843L76.8775 23.3772L76.5073 23.6969ZM80.8431 25.4698L80.7938 24.9831L80.791 24.9834L80.8431 25.4698ZM84.5237 23.0225L84.9496 23.2632L84.9498 23.2628L84.5237 23.0225ZM83.8685 15.7383L84.2371 15.4167L84.237 15.4166L83.8685 15.7383ZM75.7841 12.164C77.8843 10.849 80.6508 10.5043 82.8597 11.6088L83.2972 10.7337C80.7271 9.4487 77.5969 9.87478 75.2649 11.3348L75.7841 12.164ZM82.883 11.6197C83.5467 11.909 84.1067 12.4095 84.7098 12.9738L85.3782 12.2593C84.7866 11.7059 84.1133 11.0887 83.2739 10.7228L82.883 11.6197ZM85.5329 12.6346C85.5429 12.3639 85.5428 12.0898 85.5428 11.824C85.5428 11.5552 85.5429 11.2942 85.5522 11.0346L84.5744 10.9996C84.5644 11.2796 84.5645 11.5581 84.5645 11.824C84.5645 12.0931 84.5644 12.3489 84.5552 12.5984L85.5329 12.6346ZM85.056 11.5062C85.7058 11.5159 86.355 11.5159 87.0024 11.5159C87.6509 11.5159 88.2977 11.5159 88.9487 11.5255L88.9631 10.5473C88.3037 10.5376 87.6498 10.5376 87.0024 10.5376C86.3538 10.5376 85.7119 10.5376 85.0706 10.528L85.056 11.5062ZM88.4667 11.0364V28.0327H89.4451V11.0364H88.4667ZM88.4667 28.0291C88.4479 30.528 87.8075 33.0963 86.0838 34.8379L86.7792 35.5261C88.7554 33.5293 89.4253 30.6633 89.445 28.0364L88.4667 28.0291ZM86.0823 34.8394C84.1998 36.7578 81.2729 37.3801 78.5848 36.9722L78.438 37.9395C81.3383 38.3795 84.6164 37.73 86.7806 35.5246L86.0823 34.8394ZM78.5832 36.972C75.7796 36.556 73.3136 34.5017 72.2179 31.8902L71.3158 32.2687C72.5325 35.1686 75.2694 37.4693 78.4396 37.9397L78.5832 36.972ZM71.9797 32.5199C73.1306 31.9636 74.2897 31.5445 75.5271 31.0056L75.1365 30.1086C73.9845 30.6103 72.7155 31.0776 71.554 31.6391L71.9797 32.5199ZM74.8819 30.7492C75.6035 32.4397 77.0863 33.9314 79.003 34.276L79.1761 33.3131C77.6627 33.041 76.4091 31.8349 75.7817 30.3651L74.8819 30.7492ZM79.003 34.276C80.8301 34.6045 83.0265 34.1694 84.2921 32.5547L83.5221 31.9512C82.5523 33.1884 80.779 33.6012 79.1761 33.3131L79.003 34.276ZM84.2861 32.5621C85.6132 30.9353 85.5899 28.7412 85.5329 26.9764L84.5551 27.0079C84.6138 28.8273 84.5904 30.6414 83.528 31.9437L84.2861 32.5621ZM84.702 26.6425C83.8396 27.4861 82.896 28.184 81.7914 28.4429L82.0146 29.3954C83.3765 29.0762 84.4756 28.2325 85.3861 27.3418L84.702 26.6425ZM81.7708 28.4482C79.2814 29.1466 76.4997 28.2911 74.537 26.5668L73.8913 27.3018C76.0525 29.2004 79.1674 30.1948 82.0351 29.3901L81.7708 28.4482ZM74.5353 26.5653C72.5638 24.8494 71.3947 22.1975 71.504 19.5742L70.5265 19.5335C70.4046 22.46 71.7021 25.3964 73.893 27.3033L74.5353 26.5653ZM71.5044 19.5628C71.559 16.5929 73.2403 13.7196 75.7797 12.1667L75.2693 11.332C72.4516 13.0551 70.5872 16.2326 70.5262 19.5448L71.5044 19.5628ZM79.4343 13.7332C78.1368 13.946 76.9347 14.6652 76.1116 15.6572L76.8645 16.2819C77.5444 15.4625 78.5392 14.8714 79.5926 14.6987L79.4343 13.7332ZM76.1133 15.6551C74.1506 17.9937 74.1465 21.7118 76.1371 24.0167L76.8775 23.3772C75.2067 21.4426 75.2027 18.2619 76.8627 16.284L76.1133 15.6551ZM76.131 24.0095C77.2745 25.3859 79.1108 26.1474 80.8952 25.9562L80.791 24.9834C79.338 25.1391 77.8213 24.5131 76.8836 23.3843L76.131 24.0095ZM80.8924 25.9565C82.5814 25.7854 84.1243 24.7233 84.9496 23.2632L84.0979 22.7818C83.4201 23.9809 82.1495 24.8458 80.7938 24.9831L80.8924 25.9565ZM84.9498 23.2628C86.3162 20.8405 86.098 17.5494 84.2371 15.4167L83.5 16.0599C85.0692 17.8584 85.2749 20.6952 84.0977 22.7821L84.9498 23.2628ZM84.237 15.4166C83.0639 14.0728 81.1951 13.415 79.4265 13.7346L79.6005 14.6973C81.0307 14.4389 82.5535 14.9757 83.5 16.06L84.237 15.4166Z" fill="white" fill-opacity="0.2" mask="url(#path-9-inside-3_801_7456)"/>
</g>
<g id="Vector_6">
<mask id="path-11-inside-4_801_7456" fill="white">
<path d="M100.98 12.732C103.293 10.5737 106.858 9.84144 109.825 10.9784C112.639 12.0382 114.431 14.7168 115.337 17.4725C111.155 19.2068 106.993 20.9218 102.811 22.6562C103.389 23.7546 104.276 24.7566 105.47 25.1613C107.147 25.7587 109.151 25.5467 110.558 24.429C111.117 24.0051 111.56 23.4462 111.984 22.9067C113.044 23.6197 114.103 24.3134 115.163 25.0264C113.66 27.281 111.136 28.8612 108.419 29.1117C105.413 29.4778 102.214 28.3216 100.267 25.9706C97.0685 22.2707 97.3768 16.0657 100.98 12.732ZM103.042 16.297C102.387 17.2412 102.117 18.3974 102.137 19.5344C104.931 18.3782 107.725 17.2219 110.519 16.0465C110.057 14.9673 108.939 14.3121 107.802 14.1387C105.971 13.8111 104.064 14.7939 103.042 16.297Z"/>
</mask>
<path d="M100.98 12.732C103.293 10.5737 106.858 9.84144 109.825 10.9784C112.639 12.0382 114.431 14.7168 115.337 17.4725C111.155 19.2068 106.993 20.9218 102.811 22.6562C103.389 23.7546 104.276 24.7566 105.47 25.1613C107.147 25.7587 109.151 25.5467 110.558 24.429C111.117 24.0051 111.56 23.4462 111.984 22.9067C113.044 23.6197 114.103 24.3134 115.163 25.0264C113.66 27.281 111.136 28.8612 108.419 29.1117C105.413 29.4778 102.214 28.3216 100.267 25.9706C97.0685 22.2707 97.3768 16.0657 100.98 12.732ZM103.042 16.297C102.387 17.2412 102.117 18.3974 102.137 19.5344C104.931 18.3782 107.725 17.2219 110.519 16.0465C110.057 14.9673 108.939 14.3121 107.802 14.1387C105.971 13.8111 104.064 14.7939 103.042 16.297Z" fill="white" fill-opacity="0.2"/>
<path d="M109.825 10.9784L109.65 11.4352L109.653 11.4361L109.825 10.9784ZM115.337 17.4725L115.524 17.9243L115.943 17.7506L115.801 17.3197L115.337 17.4725ZM102.811 22.6562L102.624 22.2043L102.129 22.4097L102.378 22.884L102.811 22.6562ZM105.47 25.1613L105.635 24.7004L105.627 24.698L105.47 25.1613ZM110.558 24.429L110.262 24.0392L110.253 24.046L110.558 24.429ZM111.984 22.9067L112.257 22.5008L111.88 22.2472L111.599 22.6044L111.984 22.9067ZM115.163 25.0264L115.57 25.2977L115.84 24.8924L115.436 24.6205L115.163 25.0264ZM108.419 29.1117L108.374 28.6246L108.367 28.6252L108.36 28.6261L108.419 29.1117ZM100.267 25.9706L100.644 25.6586L100.637 25.6507L100.267 25.9706ZM102.137 19.5344L101.647 19.5427L101.66 20.2611L102.324 19.9864L102.137 19.5344ZM110.519 16.0465L110.709 16.4974L111.163 16.3064L110.969 15.8538L110.519 16.0465ZM107.802 14.1387L107.716 14.6204L107.728 14.6223L107.802 14.1387ZM101.314 13.0896C103.493 11.0562 106.861 10.3665 109.65 11.4352L110 10.5216C106.854 9.31634 103.093 10.0912 100.647 12.3744L101.314 13.0896ZM109.653 11.4361C112.272 12.4227 113.99 14.9414 114.872 17.6252L115.801 17.3197C114.872 14.4923 113.006 11.6538 109.998 10.5206L109.653 11.4361ZM115.149 17.0206C113.059 17.8876 110.973 18.7499 108.887 19.6122C106.801 20.4746 104.715 21.337 102.624 22.2043L102.998 23.108C105.089 22.241 107.175 21.3787 109.261 20.5164C111.347 19.654 113.433 18.7916 115.524 17.9243L115.149 17.0206ZM102.378 22.884C102.988 24.0435 103.956 25.1647 105.313 25.6246L105.627 24.698C104.596 24.3485 103.79 23.4656 103.244 22.4283L102.378 22.884ZM105.306 25.6221C107.119 26.2679 109.305 26.0493 110.862 24.812L110.253 24.046C108.997 25.0441 107.175 25.2495 105.635 24.7005L105.306 25.6221ZM110.853 24.8187C111.47 24.3508 111.95 23.7415 112.368 23.2089L111.599 22.6044C111.17 23.151 110.763 23.6593 110.262 24.0393L110.853 24.8187ZM111.711 23.3125C112.242 23.67 112.773 24.0226 113.303 24.3741C113.833 24.7259 114.362 25.0768 114.89 25.4323L115.436 24.6205C114.905 24.263 114.374 23.9105 113.844 23.5589C113.314 23.2071 112.785 22.8563 112.257 22.5008L111.711 23.3125ZM114.756 24.755C113.331 26.8936 110.936 28.3884 108.374 28.6246L108.464 29.5988C111.336 29.334 113.99 27.6684 115.57 25.2977L114.756 24.755ZM108.36 28.6261C105.506 28.9737 102.476 27.8717 100.644 25.6587L99.8906 26.2826C101.951 28.7715 105.319 29.982 108.478 29.5973L108.36 28.6261ZM100.637 25.6507C97.6091 22.1481 97.9048 16.2437 101.313 13.0911L100.648 12.3729C96.8489 15.8877 96.5279 22.3934 99.8973 26.2906L100.637 25.6507ZM102.64 16.0181C101.914 17.0644 101.627 18.3273 101.647 19.5427L102.626 19.5261C102.608 18.4676 102.86 17.418 103.444 16.5758L102.64 16.0181ZM102.324 19.9864C105.118 18.8302 107.913 17.6735 110.709 16.4974L110.329 15.5956C107.537 16.7704 104.744 17.9261 101.95 19.0824L102.324 19.9864ZM110.969 15.8538C110.421 14.5746 109.125 13.8458 107.876 13.6551L107.728 14.6223C108.752 14.7785 109.693 15.3601 110.07 16.2392L110.969 15.8538ZM107.888 13.6572C105.837 13.29 103.749 14.387 102.638 16.022L103.447 16.5719C104.379 15.2007 106.106 14.3322 107.716 14.6202L107.888 13.6572Z" fill="white" fill-opacity="0.2" mask="url(#path-11-inside-4_801_7456)"/>
</g>
</g>
</svg>
