<svg width="142" height="31" viewBox="0 0 142 31" fill="none" xmlns="http://www.w3.org/2000/svg">
<g id="Logo">
<g id="Vector">
<mask id="path-1-inside-1_801_5766" fill="white">
<path d="M141.184 13.6508V11.1706H138.104V7.3148L138 7.34673L135.107 8.23186L135.05 8.24919V11.1708H130.484V9.54319C130.484 8.78534 130.654 8.20539 130.988 7.81863C131.319 7.4365 131.794 7.24222 132.399 7.24222C132.834 7.24222 133.284 7.34468 133.737 7.54673L133.851 7.59748V4.98546L133.797 4.96582C133.375 4.81384 132.799 4.7373 132.087 4.7373C131.188 4.7373 130.372 4.9328 129.66 5.32025C128.948 5.70825 128.388 6.26214 127.995 6.96637C127.604 7.66978 127.405 8.4822 127.405 9.38125V11.1706H125.261V13.6508H127.405V24.0996H130.484V13.6508H135.05V20.2908C135.05 23.0255 136.34 24.4113 138.884 24.4113C139.302 24.4113 139.742 24.3623 140.191 24.2664C140.649 24.1679 140.96 24.0696 141.143 23.9645L141.184 23.9405V21.4374L141.059 21.5202C140.892 21.6315 140.684 21.7225 140.44 21.7902C140.195 21.8591 139.99 21.8936 139.831 21.8936C139.236 21.8936 138.795 21.733 138.521 21.4161C138.244 21.0963 138.104 20.5371 138.104 19.7548V13.6508H141.184ZM118.386 21.894C117.268 21.894 116.387 21.5234 115.766 20.7936C115.141 20.06 114.825 19.0142 114.825 17.6854C114.825 16.3144 115.141 15.2414 115.766 14.4949C116.388 13.7533 117.26 13.3769 118.36 13.3769C119.428 13.3769 120.278 13.7364 120.886 14.4459C121.498 15.1592 121.809 16.2236 121.809 17.6105C121.809 19.0144 121.517 20.0929 120.941 20.8143C120.369 21.5303 119.51 21.894 118.386 21.894M118.522 10.8592C116.39 10.8592 114.697 11.4839 113.49 12.7159C112.283 13.9481 111.671 15.6533 111.671 17.7846C111.671 19.8088 112.269 21.4371 113.446 22.6233C114.624 23.81 116.227 24.411 118.211 24.411C120.277 24.411 121.937 23.7776 123.144 22.5285C124.35 21.2807 124.962 19.5917 124.962 17.5102C124.962 15.4543 124.388 13.8139 123.256 12.6356C122.124 11.4567 120.531 10.8592 118.522 10.8592M106.708 10.8592C105.257 10.8592 104.058 11.2301 103.141 11.9615C102.219 12.6972 101.752 13.6622 101.752 14.8298C101.752 15.4368 101.853 15.976 102.051 16.4333C102.251 16.8921 102.56 17.296 102.971 17.635C103.379 17.9713 104.009 18.3236 104.843 18.682C105.544 18.9705 106.067 19.2146 106.399 19.4069C106.724 19.5955 106.954 19.785 107.084 19.9696C107.211 20.1502 107.275 20.3974 107.275 20.7024C107.275 21.5711 106.624 21.9937 105.286 21.9937C104.79 21.9937 104.223 21.89 103.603 21.6857C102.987 21.4844 102.406 21.1896 101.879 20.8117L101.751 20.72V23.6842L101.798 23.706C102.234 23.9071 102.783 24.0767 103.431 24.2101C104.077 24.3437 104.664 24.4116 105.174 24.4116C106.747 24.4116 108.015 24.0389 108.939 23.3031C109.87 22.5623 110.342 21.5746 110.342 20.3666C110.342 19.4951 110.088 18.7477 109.587 18.145C109.09 17.5472 108.228 16.9983 107.024 16.5132C106.066 16.1285 105.452 15.8091 105.199 15.5639C104.954 15.3271 104.83 14.9922 104.83 14.568C104.83 14.192 104.983 13.8908 105.298 13.6469C105.614 13.4017 106.055 13.277 106.608 13.277C107.121 13.277 107.646 13.3581 108.168 13.5169C108.689 13.6757 109.147 13.8884 109.53 14.1485L109.655 14.2345V11.4227L109.607 11.402C109.254 11.2507 108.789 11.1212 108.224 11.0162C107.662 10.9118 107.151 10.8592 106.708 10.8592M93.7257 21.894C92.6085 21.894 91.7272 21.5234 91.1064 20.7936C90.4816 20.06 90.1656 19.0144 90.1656 17.6854C90.1656 16.3144 90.482 15.2414 91.1071 14.4949C91.7278 13.7533 92.6003 13.3769 93.701 13.3769C94.7681 13.3769 95.6179 13.7364 96.2268 14.4459C96.8386 15.1592 97.149 16.2236 97.149 17.6105C97.149 19.0144 96.8569 20.0929 96.2812 20.8143C95.7095 21.5303 94.8501 21.894 93.7257 21.894M93.8629 10.8592C91.7304 10.8592 90.037 11.4839 88.8303 12.7159C87.6237 13.9481 87.0116 15.6533 87.0116 17.7846C87.0116 19.8097 87.6091 21.4371 88.7871 22.6233C89.965 23.81 91.5678 24.411 93.551 24.411C95.6174 24.411 97.2774 23.7776 98.4842 22.5285C99.6906 21.2807 100.302 19.5917 100.302 17.5102C100.302 15.4543 99.7284 13.8139 98.5962 12.6356C97.4635 11.4567 95.8708 10.8592 93.8629 10.8592M82.3382 13.4096V11.1706H79.297V24.0993H82.3382V17.4858C82.3382 16.3612 82.5932 15.4373 83.0963 14.7395C83.593 14.05 84.255 13.7006 85.0632 13.7006C85.3371 13.7006 85.6446 13.7458 85.9776 13.8352C86.3072 13.924 86.546 14.0204 86.6868 14.1219L86.8146 14.2146V11.1485L86.7653 11.1274C86.4821 11.007 86.0814 10.9463 85.5745 10.9463C84.8102 10.9463 84.1263 11.1919 83.5405 11.6754C83.0263 12.1004 82.6547 12.683 82.3705 13.4096H82.3382ZM73.8507 10.8592C72.4555 10.8592 71.211 11.1583 70.1525 11.7481C69.0918 12.3392 68.2714 13.1832 67.7133 14.2563C67.1576 15.3268 66.8755 16.5773 66.8755 17.9719C66.8755 19.1934 67.149 20.3144 67.6897 21.3024C68.2306 22.2921 68.9963 23.0663 69.9654 23.6033C70.9332 24.1396 72.0518 24.4115 73.2903 24.4115C74.7356 24.4115 75.9695 24.1225 76.9589 23.5527L76.9989 23.5297V20.7435L76.871 20.8368C76.4229 21.1633 75.9221 21.4239 75.3832 21.6116C74.8457 21.7992 74.3556 21.894 73.9259 21.894C72.7326 21.894 71.7746 21.5206 71.0792 20.7844C70.3823 20.0473 70.029 19.0123 70.029 17.7098C70.029 16.3991 70.3975 15.3375 71.1237 14.5541C71.8477 13.7731 72.8075 13.3769 73.9761 13.3769C74.9757 13.3769 75.9498 13.7154 76.8713 14.3839L76.9989 14.4765V11.5407L76.9577 11.5175C76.6109 11.3234 76.1379 11.1631 75.5507 11.0416C74.966 10.9203 74.3941 10.8592 73.8507 10.8592M64.781 11.1708H61.7397V24.0993H64.781V11.1708V11.1708ZM63.2915 5.66309C62.7909 5.66309 62.3543 5.83349 61.9957 6.17114C61.6355 6.50975 61.4528 6.93608 61.4528 7.43922C61.4528 7.93445 61.6333 8.35301 61.9901 8.68261C62.3445 9.01126 62.7825 9.17784 63.2916 9.17784C63.8006 9.17784 64.2402 9.01126 64.5988 8.68316C64.9598 8.35301 65.1429 7.93459 65.1429 7.43922C65.1429 6.95368 64.9647 6.53172 64.6137 6.18479C64.2629 5.83854 63.8179 5.66309 63.2915 5.66309ZM55.7034 10.2169V24.0993H58.8071V6.05886H54.5115L49.0514 19.4588L43.7528 6.05886H39.2822V24.0992H42.1989V10.2155H42.299L47.8943 24.0993H50.0954L55.6033 10.2169H55.7034V10.2169Z"/>
</mask>
<path d="M141.184 13.6508V11.1706H138.104V7.3148L138 7.34673L135.107 8.23186L135.05 8.24919V11.1708H130.484V9.54319C130.484 8.78534 130.654 8.20539 130.988 7.81863C131.319 7.4365 131.794 7.24222 132.399 7.24222C132.834 7.24222 133.284 7.34468 133.737 7.54673L133.851 7.59748V4.98546L133.797 4.96582C133.375 4.81384 132.799 4.7373 132.087 4.7373C131.188 4.7373 130.372 4.9328 129.66 5.32025C128.948 5.70825 128.388 6.26214 127.995 6.96637C127.604 7.66978 127.405 8.4822 127.405 9.38125V11.1706H125.261V13.6508H127.405V24.0996H130.484V13.6508H135.05V20.2908C135.05 23.0255 136.34 24.4113 138.884 24.4113C139.302 24.4113 139.742 24.3623 140.191 24.2664C140.649 24.1679 140.96 24.0696 141.143 23.9645L141.184 23.9405V21.4374L141.059 21.5202C140.892 21.6315 140.684 21.7225 140.44 21.7902C140.195 21.8591 139.99 21.8936 139.831 21.8936C139.236 21.8936 138.795 21.733 138.521 21.4161C138.244 21.0963 138.104 20.5371 138.104 19.7548V13.6508H141.184ZM118.386 21.894C117.268 21.894 116.387 21.5234 115.766 20.7936C115.141 20.06 114.825 19.0142 114.825 17.6854C114.825 16.3144 115.141 15.2414 115.766 14.4949C116.388 13.7533 117.26 13.3769 118.36 13.3769C119.428 13.3769 120.278 13.7364 120.886 14.4459C121.498 15.1592 121.809 16.2236 121.809 17.6105C121.809 19.0144 121.517 20.0929 120.941 20.8143C120.369 21.5303 119.51 21.894 118.386 21.894M118.522 10.8592C116.39 10.8592 114.697 11.4839 113.49 12.7159C112.283 13.9481 111.671 15.6533 111.671 17.7846C111.671 19.8088 112.269 21.4371 113.446 22.6233C114.624 23.81 116.227 24.411 118.211 24.411C120.277 24.411 121.937 23.7776 123.144 22.5285C124.35 21.2807 124.962 19.5917 124.962 17.5102C124.962 15.4543 124.388 13.8139 123.256 12.6356C122.124 11.4567 120.531 10.8592 118.522 10.8592M106.708 10.8592C105.257 10.8592 104.058 11.2301 103.141 11.9615C102.219 12.6972 101.752 13.6622 101.752 14.8298C101.752 15.4368 101.853 15.976 102.051 16.4333C102.251 16.8921 102.56 17.296 102.971 17.635C103.379 17.9713 104.009 18.3236 104.843 18.682C105.544 18.9705 106.067 19.2146 106.399 19.4069C106.724 19.5955 106.954 19.785 107.084 19.9696C107.211 20.1502 107.275 20.3974 107.275 20.7024C107.275 21.5711 106.624 21.9937 105.286 21.9937C104.79 21.9937 104.223 21.89 103.603 21.6857C102.987 21.4844 102.406 21.1896 101.879 20.8117L101.751 20.72V23.6842L101.798 23.706C102.234 23.9071 102.783 24.0767 103.431 24.2101C104.077 24.3437 104.664 24.4116 105.174 24.4116C106.747 24.4116 108.015 24.0389 108.939 23.3031C109.87 22.5623 110.342 21.5746 110.342 20.3666C110.342 19.4951 110.088 18.7477 109.587 18.145C109.09 17.5472 108.228 16.9983 107.024 16.5132C106.066 16.1285 105.452 15.8091 105.199 15.5639C104.954 15.3271 104.83 14.9922 104.83 14.568C104.83 14.192 104.983 13.8908 105.298 13.6469C105.614 13.4017 106.055 13.277 106.608 13.277C107.121 13.277 107.646 13.3581 108.168 13.5169C108.689 13.6757 109.147 13.8884 109.53 14.1485L109.655 14.2345V11.4227L109.607 11.402C109.254 11.2507 108.789 11.1212 108.224 11.0162C107.662 10.9118 107.151 10.8592 106.708 10.8592M93.7257 21.894C92.6085 21.894 91.7272 21.5234 91.1064 20.7936C90.4816 20.06 90.1656 19.0144 90.1656 17.6854C90.1656 16.3144 90.482 15.2414 91.1071 14.4949C91.7278 13.7533 92.6003 13.3769 93.701 13.3769C94.7681 13.3769 95.6179 13.7364 96.2268 14.4459C96.8386 15.1592 97.149 16.2236 97.149 17.6105C97.149 19.0144 96.8569 20.0929 96.2812 20.8143C95.7095 21.5303 94.8501 21.894 93.7257 21.894M93.8629 10.8592C91.7304 10.8592 90.037 11.4839 88.8303 12.7159C87.6237 13.9481 87.0116 15.6533 87.0116 17.7846C87.0116 19.8097 87.6091 21.4371 88.7871 22.6233C89.965 23.81 91.5678 24.411 93.551 24.411C95.6174 24.411 97.2774 23.7776 98.4842 22.5285C99.6906 21.2807 100.302 19.5917 100.302 17.5102C100.302 15.4543 99.7284 13.8139 98.5962 12.6356C97.4635 11.4567 95.8708 10.8592 93.8629 10.8592M82.3382 13.4096V11.1706H79.297V24.0993H82.3382V17.4858C82.3382 16.3612 82.5932 15.4373 83.0963 14.7395C83.593 14.05 84.255 13.7006 85.0632 13.7006C85.3371 13.7006 85.6446 13.7458 85.9776 13.8352C86.3072 13.924 86.546 14.0204 86.6868 14.1219L86.8146 14.2146V11.1485L86.7653 11.1274C86.4821 11.007 86.0814 10.9463 85.5745 10.9463C84.8102 10.9463 84.1263 11.1919 83.5405 11.6754C83.0263 12.1004 82.6547 12.683 82.3705 13.4096H82.3382ZM73.8507 10.8592C72.4555 10.8592 71.211 11.1583 70.1525 11.7481C69.0918 12.3392 68.2714 13.1832 67.7133 14.2563C67.1576 15.3268 66.8755 16.5773 66.8755 17.9719C66.8755 19.1934 67.149 20.3144 67.6897 21.3024C68.2306 22.2921 68.9963 23.0663 69.9654 23.6033C70.9332 24.1396 72.0518 24.4115 73.2903 24.4115C74.7356 24.4115 75.9695 24.1225 76.9589 23.5527L76.9989 23.5297V20.7435L76.871 20.8368C76.4229 21.1633 75.9221 21.4239 75.3832 21.6116C74.8457 21.7992 74.3556 21.894 73.9259 21.894C72.7326 21.894 71.7746 21.5206 71.0792 20.7844C70.3823 20.0473 70.029 19.0123 70.029 17.7098C70.029 16.3991 70.3975 15.3375 71.1237 14.5541C71.8477 13.7731 72.8075 13.3769 73.9761 13.3769C74.9757 13.3769 75.9498 13.7154 76.8713 14.3839L76.9989 14.4765V11.5407L76.9577 11.5175C76.6109 11.3234 76.1379 11.1631 75.5507 11.0416C74.966 10.9203 74.3941 10.8592 73.8507 10.8592M64.781 11.1708H61.7397V24.0993H64.781V11.1708V11.1708ZM63.2915 5.66309C62.7909 5.66309 62.3543 5.83349 61.9957 6.17114C61.6355 6.50975 61.4528 6.93608 61.4528 7.43922C61.4528 7.93445 61.6333 8.35301 61.9901 8.68261C62.3445 9.01126 62.7825 9.17784 63.2916 9.17784C63.8006 9.17784 64.2402 9.01126 64.5988 8.68316C64.9598 8.35301 65.1429 7.93459 65.1429 7.43922C65.1429 6.95368 64.9647 6.53172 64.6137 6.18479C64.2629 5.83854 63.8179 5.66309 63.2915 5.66309ZM55.7034 10.2169V24.0993H58.8071V6.05886H54.5115L49.0514 19.4588L43.7528 6.05886H39.2822V24.0992H42.1989V10.2155H42.299L47.8943 24.0993H50.0954L55.6033 10.2169H55.7034V10.2169Z" fill="white" fill-opacity="0.2"/>
<path d="M141.184 13.6508V13.9972H141.53V13.6508H141.184ZM141.184 11.1706H141.53V10.8243H141.184V11.1706ZM138.104 11.1706H137.758V11.5169H138.104V11.1706ZM138.104 7.3148H138.45V6.84582L138.002 6.98382L138.104 7.3148ZM138 7.34673L138.102 7.67789L138.102 7.67771L138 7.34673ZM135.107 8.23186L135.208 8.56322L135.209 8.56302L135.107 8.23186ZM135.05 8.24919L134.95 7.91783L134.704 7.99246V8.24919H135.05ZM135.05 11.1708V11.5171H135.397V11.1708H135.05ZM130.484 11.1708H130.138V11.5171H130.484V11.1708ZM130.988 7.81863L130.726 7.59163L130.725 7.59229L130.988 7.81863ZM133.737 7.54673L133.878 7.23051L133.878 7.23043L133.737 7.54673ZM133.851 7.59748L133.71 7.91369L134.197 8.13141V7.59748H133.851ZM133.851 4.98546H134.197V4.74375L133.97 4.66039L133.851 4.98546ZM133.797 4.96582L133.917 4.64074L133.914 4.63992L133.797 4.96582ZM129.66 5.32025L129.495 5.01608L129.495 5.01613L129.66 5.32025ZM127.995 6.96637L127.693 6.79777L127.692 6.79807L127.995 6.96637ZM127.405 11.1706V11.5169H127.752V11.1706H127.405ZM125.261 11.1706V10.8243H124.915V11.1706H125.261ZM125.261 13.6508H124.915V13.9972H125.261V13.6508ZM127.405 13.6508H127.752V13.3045H127.405V13.6508ZM127.405 24.0996H127.059V24.4459H127.405V24.0996ZM130.484 24.0996V24.4459H130.831V24.0996H130.484ZM130.484 13.6508V13.3045H130.138V13.6508H130.484ZM135.05 13.6508H135.397V13.3045H135.05V13.6508ZM140.191 24.2664L140.264 24.6051L140.264 24.605L140.191 24.2664ZM141.143 23.9645L141.316 24.265L141.32 24.2625L141.143 23.9645ZM141.184 23.9405L141.361 24.2384L141.53 24.1378V23.9405H141.184ZM141.184 21.4374H141.53V20.7932L140.993 21.1485L141.184 21.4374ZM141.059 21.5202L140.868 21.2313L140.867 21.232L141.059 21.5202ZM140.44 21.7902L140.347 21.4564L140.346 21.4568L140.44 21.7902ZM138.521 21.4161L138.783 21.1898L138.783 21.1895L138.521 21.4161ZM138.104 13.6508V13.3045H137.758V13.6508H138.104ZM115.766 20.7936L116.03 20.5692L116.03 20.569L115.766 20.7936ZM115.766 14.4949L115.501 14.2725L115.501 14.2726L115.766 14.4949ZM120.886 14.4459L121.149 14.2205L121.149 14.2204L120.886 14.4459ZM120.941 20.8143L121.212 21.0304L121.212 21.0303L120.941 20.8143ZM113.49 12.7159L113.242 12.4735L113.242 12.4736L113.49 12.7159ZM113.446 22.6233L113.692 22.3793L113.692 22.3793L113.446 22.6233ZM123.144 22.5285L122.895 22.2878L122.895 22.2879L123.144 22.5285ZM123.256 12.6356L123.506 12.3956L123.506 12.3956L123.256 12.6356ZM103.141 11.9615L103.357 12.2322L103.357 12.2322L103.141 11.9615ZM102.051 16.4333L101.734 16.5712L101.734 16.5716L102.051 16.4333ZM102.971 17.635L102.751 17.9022L102.751 17.9022L102.971 17.635ZM104.843 18.682L104.706 19.0002L104.711 19.0022L104.843 18.682ZM106.399 19.4069L106.573 19.1075L106.573 19.1072L106.399 19.4069ZM107.084 19.9696L107.368 19.7709L107.367 19.77L107.084 19.9696ZM103.603 21.6857L103.711 21.3567L103.71 21.3565L103.603 21.6857ZM101.879 20.8117L102.081 20.5304L102.081 20.5303L101.879 20.8117ZM101.751 20.72L101.953 20.4386L101.405 20.0455V20.72H101.751ZM101.751 23.6842H101.405V23.905L101.605 23.9982L101.751 23.6842ZM101.798 23.706L101.652 24.02L101.653 24.0204L101.798 23.706ZM103.431 24.2101L103.501 23.8709L103.501 23.8709L103.431 24.2101ZM108.939 23.3031L109.155 23.5741L109.155 23.5741L108.939 23.3031ZM109.587 18.145L109.854 17.9238L109.854 17.9236L109.587 18.145ZM107.024 16.5132L107.154 16.192L107.153 16.1918L107.024 16.5132ZM105.199 15.5639L104.957 15.8125L104.958 15.8128L105.199 15.5639ZM105.298 13.6469L105.086 13.3731L105.085 13.3733L105.298 13.6469ZM108.168 13.5169L108.268 13.1856L108.268 13.1856L108.168 13.5169ZM109.53 14.1485L109.725 13.8626L109.724 13.8622L109.53 14.1485ZM109.655 14.2345L109.46 14.5204L110.002 14.8905V14.2345H109.655ZM109.655 11.4227H110.002V11.1945L109.792 11.1045L109.655 11.4227ZM109.607 11.402L109.744 11.0838L109.744 11.0837L109.607 11.402ZM108.224 11.0162L108.287 10.6757L108.287 10.6757L108.224 11.0162ZM91.1064 20.7936L91.3702 20.5692L91.3701 20.569L91.1064 20.7936ZM91.1071 14.4949L91.3726 14.7172L91.3727 14.7172L91.1071 14.4949ZM96.2268 14.4459L96.4896 14.2204L96.4896 14.2204L96.2268 14.4459ZM96.2812 20.8143L96.5518 21.0304L96.5519 21.0303L96.2812 20.8143ZM88.8303 12.7159L88.5829 12.4736L88.5828 12.4736L88.8303 12.7159ZM88.7871 22.6233L89.0328 22.3793L89.0328 22.3793L88.7871 22.6233ZM98.4842 22.5285L98.2352 22.2878L98.2352 22.2879L98.4842 22.5285ZM98.5962 12.6356L98.8459 12.3956L98.8459 12.3956L98.5962 12.6356ZM82.3382 13.4096H81.9919V13.756H82.3382V13.4096ZM82.3382 11.1706H82.6845V10.8243H82.3382V11.1706ZM79.297 11.1706V10.8243H78.9507V11.1706H79.297ZM79.297 24.0993H78.9507V24.4456H79.297V24.0993ZM82.3382 24.0993V24.4456H82.6845V24.0993H82.3382ZM83.0963 14.7395L83.3772 14.9421L83.3773 14.942L83.0963 14.7395ZM85.9776 13.8352L86.0677 13.5008L86.0674 13.5007L85.9776 13.8352ZM86.6868 14.1219L86.89 13.8415L86.8893 13.841L86.6868 14.1219ZM86.8146 14.2146L86.6114 14.495L87.1609 14.8932V14.2146H86.8146ZM86.8146 11.1485H87.1609V10.9203L86.9512 10.8303L86.8146 11.1485ZM86.7653 11.1274L86.902 10.8091L86.9008 10.8086L86.7653 11.1274ZM83.5405 11.6754L83.3201 11.4083L83.3199 11.4085L83.5405 11.6754ZM82.3705 13.4096V13.756H82.6069L82.693 13.5358L82.3705 13.4096ZM70.1525 11.7481L69.9839 11.4456L69.9839 11.4456L70.1525 11.7481ZM67.7133 14.2563L67.4061 14.0965L67.4059 14.0968L67.7133 14.2563ZM67.6897 21.3024L67.9936 21.1363L67.9935 21.1362L67.6897 21.3024ZM69.9654 23.6033L70.1333 23.3004L70.1333 23.3003L69.9654 23.6033ZM76.9589 23.5527L76.7866 23.2522L76.7861 23.2526L76.9589 23.5527ZM76.9989 23.5297L77.1711 23.8302L77.3452 23.7304V23.5297H76.9989ZM76.9989 20.7435H77.3452V20.0619L76.7947 20.4638L76.9989 20.7435ZM76.871 20.8368L77.075 21.1167L77.0752 21.1165L76.871 20.8368ZM75.3832 21.6116L75.2693 21.2845L75.2691 21.2846L75.3832 21.6116ZM71.0792 20.7844L71.331 20.5466L71.3309 20.5465L71.0792 20.7844ZM71.1237 14.5541L71.3776 14.7896L71.3777 14.7896L71.1237 14.5541ZM76.8713 14.3839L77.0748 14.1036L77.0747 14.1035L76.8713 14.3839ZM76.9989 14.4765L76.7954 14.7567L77.3452 15.156V14.4765H76.9989ZM76.9989 11.5407H77.3452V11.3383L77.1688 11.239L76.9989 11.5407ZM76.9577 11.5175L77.1276 11.2158L77.1268 11.2154L76.9577 11.5175ZM75.5507 11.0416L75.4804 11.3807L75.4805 11.3807L75.5507 11.0416ZM61.7397 11.1708V10.8244H61.3934V11.1708H61.7397ZM61.7397 24.0993H61.3934V24.4456H61.7397V24.0993ZM64.781 24.0993V24.4456H65.1273V24.0993H64.781ZM61.9957 6.17114L62.2329 6.42346L62.2331 6.4233L61.9957 6.17114ZM61.9901 8.68261L62.2256 8.42867L62.2251 8.42825L61.9901 8.68261ZM64.5988 8.68316L64.3651 8.42761L64.3651 8.42763L64.5988 8.68316ZM64.6137 6.18479L64.8571 5.93847L64.857 5.93833L64.6137 6.18479ZM55.7034 24.0993H55.3571V24.4456H55.7034V24.0993ZM58.8071 24.0993V24.4456H59.1534V24.0993H58.8071ZM58.8071 6.05886H59.1534V5.71255H58.8071V6.05886ZM54.5115 6.05886V5.71255H54.2786L54.1908 5.92819L54.5115 6.05886ZM49.0514 19.4588L48.7294 19.5861L49.0466 20.3884L49.3721 19.5895L49.0514 19.4588ZM43.7528 6.05886L44.0748 5.93152L43.9882 5.71255H43.7528V6.05886ZM39.2822 6.05886V5.71255H38.9359V6.05886H39.2822ZM39.2822 24.0992H38.9359V24.4455H39.2822V24.0992ZM42.1989 24.0992V24.4455H42.5452V24.0992H42.1989ZM42.1989 10.2155V9.86918H41.8526V10.2155H42.1989ZM42.299 10.2155L42.6202 10.086L42.5328 9.86918H42.299V10.2155ZM47.8943 24.0993L47.5731 24.2288L47.6605 24.4456H47.8943V24.0993ZM50.0954 24.0993V24.4456H50.3305L50.4173 24.227L50.0954 24.0993ZM55.6033 10.2169V9.87055H55.3681L55.2814 10.0891L55.6033 10.2169ZM141.53 13.6508V11.1706H140.838V13.6508H141.53ZM141.184 10.8243H138.104V11.5169H141.184V10.8243ZM138.45 11.1706V7.3148H137.758V11.1706H138.45ZM138.002 6.98382L137.898 7.01575L138.102 7.67771L138.206 7.64578L138.002 6.98382ZM137.899 7.01557L135.006 7.9007L135.209 8.56302L138.102 7.67789L137.899 7.01557ZM135.007 7.9005L134.95 7.91783L135.151 8.58054L135.208 8.56322L135.007 7.9005ZM134.704 8.24919V11.1708H135.397V8.24919H134.704ZM135.05 10.8244H130.484V11.5171H135.05V10.8244ZM130.831 11.1708V9.54319H130.138V11.1708H130.831ZM130.831 9.54319C130.831 8.82954 130.991 8.34458 131.25 8.04496L130.725 7.59229C130.316 8.0662 130.138 8.74115 130.138 9.54319H130.831ZM131.249 8.04562C131.502 7.75392 131.873 7.58854 132.399 7.58854V6.89591C131.714 6.89591 131.136 7.11907 130.726 7.59163L131.249 8.04562ZM132.399 7.58854C132.779 7.58854 133.181 7.67799 133.596 7.86303L133.878 7.23043C133.387 7.01138 132.889 6.89591 132.399 6.89591V7.58854ZM133.596 7.86294L133.71 7.91369L133.992 7.28126L133.878 7.23051L133.596 7.86294ZM134.197 7.59748V4.98546H133.504V7.59748H134.197ZM133.97 4.66039L133.917 4.64075L133.678 5.29089L133.731 5.31053L133.97 4.66039ZM133.914 4.63992C133.439 4.46884 132.819 4.39099 132.087 4.39099V5.08362C132.78 5.08362 133.311 5.15884 133.68 5.29171L133.914 4.63992ZM132.087 4.39099C131.137 4.39099 130.263 4.59796 129.495 5.01608L129.826 5.62443C130.481 5.26765 131.239 5.08362 132.087 5.08362V4.39099ZM129.495 5.01613C128.725 5.43525 128.117 6.03596 127.693 6.79777L128.298 7.13497C128.658 6.48832 129.171 5.98125 129.826 5.62437L129.495 5.01613ZM127.692 6.79807C127.269 7.55873 127.059 8.43027 127.059 9.38125H127.752C127.752 8.53413 127.938 7.78084 128.298 7.13467L127.692 6.79807ZM127.059 9.38125V11.1706H127.752V9.38125H127.059ZM127.405 10.8243H125.261V11.5169H127.405V10.8243ZM124.915 11.1706V13.6508H125.607V11.1706H124.915ZM125.261 13.9972H127.405V13.3045H125.261V13.9972ZM127.059 13.6508V24.0996H127.752V13.6508H127.059ZM127.405 24.4459H130.484V23.7533H127.405V24.4459ZM130.831 24.0996V13.6508H130.138V24.0996H130.831ZM130.484 13.9972H135.05V13.3045H130.484V13.9972ZM134.704 13.6508V20.2908H135.397V13.6508H134.704ZM134.704 20.2908C134.704 21.7067 135.037 22.8364 135.76 23.6125C136.486 24.3932 137.551 24.7576 138.884 24.7576V24.065C137.673 24.065 136.821 23.7365 136.267 23.1407C135.708 22.5402 135.397 21.6096 135.397 20.2908H134.704ZM138.884 24.7576C139.329 24.7576 139.793 24.7056 140.264 24.6051L140.119 23.9278C139.691 24.0191 139.275 24.065 138.884 24.065V24.7576ZM140.264 24.605C140.724 24.5059 141.082 24.3989 141.316 24.265L140.971 23.664C140.838 23.7402 140.573 23.8299 140.118 23.9279L140.264 24.605ZM141.32 24.2625L141.361 24.2384L141.007 23.6426L140.967 23.6666L141.32 24.2625ZM141.53 23.9405V21.4374H140.838V23.9405H141.53ZM140.993 21.1485L140.868 21.2313L141.25 21.809L141.375 21.7262L140.993 21.1485ZM140.867 21.232C140.737 21.3186 140.564 21.3963 140.347 21.4565L140.532 22.1239C140.803 22.0487 141.047 21.9444 141.251 21.8084L140.867 21.232ZM140.346 21.4568C140.116 21.5215 139.945 21.5473 139.831 21.5473V22.2399C140.034 22.2399 140.273 22.1967 140.533 22.1235L140.346 21.4568ZM139.831 21.5473C139.292 21.5473 138.967 21.4025 138.783 21.1898L138.259 21.6424C138.622 22.0635 139.179 22.2399 139.831 22.2399V21.5473ZM138.783 21.1895C138.591 20.9677 138.45 20.5164 138.45 19.7548H137.758C137.758 20.5578 137.898 21.2249 138.259 21.6427L138.783 21.1895ZM138.45 19.7548V13.6508H137.758V19.7548H138.45ZM138.104 13.9972H141.184V13.3045H138.104V13.9972ZM118.386 21.5477C117.351 21.5477 116.574 21.2086 116.03 20.5692L115.502 21.018C116.2 21.8383 117.185 22.2403 118.386 22.2403V21.5477ZM116.03 20.569C115.476 19.9184 115.171 18.9631 115.171 17.6854H114.479C114.479 19.0653 114.807 20.2017 115.502 21.0181L116.03 20.569ZM115.171 17.6854C115.171 16.3629 115.477 15.3802 116.032 14.7172L115.501 14.2726C114.806 15.1027 114.479 16.2659 114.479 17.6854H115.171ZM116.032 14.7173C116.578 14.0655 117.347 13.7232 118.36 13.7232V13.0306C117.173 13.0306 116.197 13.4411 115.501 14.2725L116.032 14.7173ZM118.36 13.7232C119.343 13.7232 120.09 14.05 120.624 14.6714L121.149 14.2204C120.465 13.4228 119.513 13.0306 118.36 13.0306V13.7232ZM120.624 14.6714C121.161 15.2979 121.462 16.2681 121.462 17.6105H122.155C122.155 16.179 121.835 15.0204 121.149 14.2205L120.624 14.6714ZM121.462 17.6105C121.462 18.9749 121.177 19.963 120.67 20.5983L121.212 21.0303C121.856 20.2228 122.155 19.0539 122.155 17.6105H121.462ZM120.67 20.5982C120.179 21.2134 119.43 21.5477 118.386 21.5477V22.2403C119.589 22.2403 120.559 21.8471 121.212 21.0304L120.67 20.5982ZM118.522 10.5128C116.321 10.5128 114.53 11.16 113.242 12.4735L113.737 12.9583C114.865 11.8077 116.46 11.2055 118.522 11.2055V10.5128ZM113.242 12.4736C111.958 13.7851 111.325 15.5853 111.325 17.7846H112.018C112.018 15.7213 112.608 14.1112 113.737 12.9582L113.242 12.4736ZM111.325 17.7846C111.325 19.8797 111.945 21.603 113.201 22.8673L113.692 22.3793C112.592 21.2712 112.018 19.738 112.018 17.7846H111.325ZM113.201 22.8673C114.456 24.1315 116.154 24.7574 118.211 24.7574V24.0647C116.301 24.0647 114.793 23.4884 113.692 22.3793L113.201 22.8673ZM118.211 24.7574C120.352 24.7574 122.108 24.0985 123.393 22.7691L122.895 22.2879C121.765 23.4568 120.203 24.0647 118.211 24.0647V24.7574ZM123.393 22.7692C124.674 21.4443 125.308 19.6623 125.308 17.5102H124.615C124.615 19.521 124.027 21.1172 122.895 22.2878L123.393 22.7692ZM125.308 17.5102C125.308 15.3891 124.715 13.6541 123.506 12.3956L123.006 12.8755C124.061 13.9737 124.615 15.5194 124.615 17.5102H125.308ZM123.506 12.3956C122.294 11.1338 120.602 10.5128 118.522 10.5128V11.2055C120.46 11.2055 121.954 11.7796 123.006 12.8755L123.506 12.3956ZM106.708 10.5128C105.198 10.5128 103.916 10.8998 102.925 11.6908L103.357 12.2322C104.199 11.5604 105.317 11.2055 106.708 11.2055V10.5128ZM102.925 11.6908C101.922 12.4914 101.405 13.5555 101.405 14.8298H102.098C102.098 13.7688 102.517 12.903 103.357 12.2322L102.925 11.6908ZM101.405 14.8298C101.405 15.4743 101.513 16.0621 101.734 16.5712L102.369 16.2953C102.193 15.8898 102.098 15.3993 102.098 14.8298H101.405ZM101.734 16.5716C101.957 17.0836 102.301 17.5307 102.751 17.9022L103.192 17.3679C102.82 17.0613 102.546 16.7005 102.369 16.2949L101.734 16.5716ZM102.751 17.9022C103.196 18.2691 103.86 18.6366 104.706 19.0002L104.979 18.3638C104.157 18.0105 103.562 17.6736 103.192 17.3679L102.751 17.9022ZM104.711 19.0022C105.409 19.2892 105.914 19.5262 106.226 19.7066L106.573 19.1072C106.22 18.9029 105.679 18.6518 104.975 18.3617L104.711 19.0022ZM106.225 19.7064C106.531 19.8842 106.713 20.0435 106.801 20.1691L107.367 19.77C107.196 19.5264 106.916 19.3067 106.573 19.1075L106.225 19.7064ZM106.801 20.1682C106.873 20.272 106.929 20.4417 106.929 20.7024H107.621C107.621 20.3531 107.548 20.0284 107.368 19.7709L106.801 20.1682ZM106.929 20.7024C106.929 21.035 106.813 21.241 106.594 21.3834C106.347 21.5435 105.931 21.6474 105.286 21.6474V22.34C105.98 22.34 106.558 22.2326 106.971 21.9643C107.412 21.6781 107.621 21.2385 107.621 20.7024H106.929ZM105.286 21.6474C104.836 21.6474 104.307 21.553 103.711 21.3567L103.495 22.0146C104.139 22.227 104.743 22.34 105.286 22.34V21.6474ZM103.71 21.3565C103.128 21.1662 102.579 20.8876 102.081 20.5304L101.677 21.093C102.233 21.4916 102.846 21.8025 103.495 22.0148L103.71 21.3565ZM102.081 20.5303L101.953 20.4386L101.55 21.0015L101.677 21.0931L102.081 20.5303ZM101.405 20.72V23.6842H102.098V20.72H101.405ZM101.605 23.9982L101.652 24.02L101.944 23.392L101.898 23.3702L101.605 23.9982ZM101.653 24.0204C102.12 24.2359 102.696 24.4124 103.361 24.5493L103.501 23.8709C102.87 23.741 102.348 23.5783 101.944 23.3916L101.653 24.0204ZM103.361 24.5492C104.023 24.6862 104.634 24.7579 105.174 24.7579V24.0653C104.693 24.0653 104.13 24.0011 103.501 23.8709L103.361 24.5492ZM105.174 24.7579C106.8 24.7579 108.151 24.3727 109.155 23.5741L108.724 23.0321C107.878 23.705 106.695 24.0653 105.174 24.0653V24.7579ZM109.155 23.5741C110.17 22.7664 110.688 21.6782 110.688 20.3666H109.995C109.995 21.471 109.57 22.3583 108.724 23.0322L109.155 23.5741ZM110.688 20.3666C110.688 19.4239 110.412 18.5957 109.854 17.9238L109.321 18.3662C109.764 18.8998 109.995 19.5662 109.995 20.3666H110.688ZM109.854 17.9236C109.303 17.2614 108.379 16.6859 107.154 16.192L106.895 16.8344C108.076 17.3108 108.877 17.8329 109.321 18.3664L109.854 17.9236ZM107.153 16.1918C106.68 16.0018 106.298 15.8305 106.007 15.679C105.709 15.5241 105.529 15.4016 105.439 15.3151L104.958 15.8128C105.122 15.9715 105.375 16.1312 105.687 16.2935C106.006 16.4592 106.41 16.6399 106.896 16.8346L107.153 16.1918ZM105.44 15.3153C105.278 15.1589 105.177 14.9229 105.177 14.568H104.484C104.484 15.0615 104.63 15.4953 104.957 15.8125L105.44 15.3153ZM105.177 14.568C105.177 14.3063 105.274 14.1033 105.51 13.9204L105.085 13.3733C104.692 13.6783 104.484 14.0778 104.484 14.568H105.177ZM105.51 13.9207C105.746 13.7374 106.103 13.6233 106.608 13.6233V12.9307C106.007 12.9307 105.482 13.066 105.086 13.3731L105.51 13.9207ZM106.608 13.6233C107.084 13.6233 107.575 13.6986 108.067 13.8482L108.268 13.1856C107.716 13.0175 107.157 12.9307 106.608 12.9307V13.6233ZM108.067 13.8482C108.561 13.9985 108.986 14.1974 109.335 14.4349L109.724 13.8622C109.309 13.5793 108.818 13.3528 108.268 13.1856L108.067 13.8482ZM109.334 14.4345L109.46 14.5204L109.851 13.9485L109.725 13.8626L109.334 14.4345ZM110.002 14.2345V11.4227H109.309V14.2345H110.002ZM109.792 11.1045L109.744 11.0838L109.471 11.7202L109.519 11.7409L109.792 11.1045ZM109.744 11.0837C109.359 10.9186 108.866 10.7833 108.287 10.6757L108.161 11.3567C108.712 11.4591 109.15 11.5828 109.471 11.7203L109.744 11.0837ZM108.287 10.6757C107.709 10.5685 107.178 10.5128 106.708 10.5128V11.2055C107.125 11.2055 107.614 11.2552 108.161 11.3567L108.287 10.6757ZM93.7257 21.5477C92.6915 21.5477 91.914 21.2086 91.3702 20.5692L90.8426 21.0179C91.5403 21.8383 92.5255 22.2403 93.7257 22.2403V21.5477ZM91.3701 20.569C90.8159 19.9184 90.5119 18.9635 90.5119 17.6854H89.8193C89.8193 19.0654 90.1473 20.2016 90.8428 21.0181L91.3701 20.569ZM90.5119 17.6854C90.5119 16.3629 90.8175 15.3802 91.3726 14.7172L90.8416 14.2726C90.1465 15.1027 89.8193 16.266 89.8193 17.6854H90.5119ZM91.3727 14.7172C91.9181 14.0655 92.6871 13.7232 93.701 13.7232V13.0306C92.5135 13.0306 91.5376 13.4411 90.8415 14.2726L91.3727 14.7172ZM93.701 13.7232C94.6831 13.7232 95.4306 14.0499 95.964 14.6715L96.4896 14.2204C95.8052 13.4228 94.8531 13.0306 93.701 13.0306V13.7232ZM95.9639 14.6714C96.5014 15.2979 96.8027 16.2681 96.8027 17.6105H97.4953C97.4953 16.1791 97.1759 15.0204 96.4896 14.2204L95.9639 14.6714ZM96.8027 17.6105C96.8027 18.9749 96.5175 19.963 96.0105 20.5983L96.5519 21.0303C97.1963 20.2228 97.4953 19.054 97.4953 17.6105H96.8027ZM96.0106 20.5982C95.5193 21.2134 94.7709 21.5477 93.7257 21.5477V22.2403C94.9293 22.2403 95.8996 21.8471 96.5518 21.0304L96.0106 20.5982ZM93.8629 10.5128C91.6608 10.5128 89.8695 11.16 88.5829 12.4736L89.0777 12.9582C90.2045 11.8077 91.8001 11.2055 93.8629 11.2055V10.5128ZM88.5828 12.4736C87.2987 13.785 86.6653 15.5852 86.6653 17.7846H87.3579C87.3579 15.7214 87.9487 14.1112 89.0777 12.9582L88.5828 12.4736ZM86.6653 17.7846C86.6653 19.8806 87.2858 21.603 88.5413 22.8673L89.0328 22.3793C87.9324 21.2712 87.3579 19.7387 87.3579 17.7846H86.6653ZM88.5413 22.8673C89.7962 24.1315 91.4941 24.7574 93.551 24.7574V24.0647C91.6415 24.0647 90.1337 23.4884 89.0328 22.3793L88.5413 22.8673ZM93.551 24.7574C95.692 24.7574 97.4489 24.0985 98.7333 22.7691L98.2352 22.2879C97.1058 23.4568 95.5427 24.0647 93.551 24.0647V24.7574ZM98.7332 22.7692C100.014 21.4443 100.649 19.6624 100.649 17.5102H99.9559C99.9559 19.521 99.3671 21.1172 98.2352 22.2878L98.7332 22.7692ZM100.649 17.5102C100.649 15.3891 100.055 13.654 98.8459 12.3956L98.3465 12.8755C99.4017 13.9737 99.9559 15.5195 99.9559 17.5102H100.649ZM98.8459 12.3956C97.6335 11.1338 95.9421 10.5128 93.8629 10.5128V11.2055C95.7996 11.2055 97.2935 11.7796 98.3465 12.8755L98.8459 12.3956ZM82.6845 13.4096V11.1706H81.9919V13.4096H82.6845ZM82.3382 10.8243H79.297V11.5169H82.3382V10.8243ZM78.9507 11.1706V24.0993H79.6433V11.1706H78.9507ZM79.297 24.4456H82.3382V23.753H79.297V24.4456ZM82.6845 24.0993V17.4858H81.9919V24.0993H82.6845ZM82.6845 17.4858C82.6845 16.4117 82.928 15.5651 83.3772 14.9421L82.8154 14.537C82.2583 15.3096 81.9919 16.3108 81.9919 17.4858H82.6845ZM83.3773 14.942C83.8128 14.3374 84.3728 14.047 85.0632 14.047V13.3543C84.1372 13.3543 83.3733 13.7626 82.8153 14.5371L83.3773 14.942ZM85.0632 14.047C85.3002 14.047 85.577 14.0862 85.8879 14.1696L86.0674 13.5007C85.7122 13.4054 85.374 13.3543 85.0632 13.3543V14.047ZM85.8875 14.1695C86.2082 14.256 86.3964 14.3395 86.4842 14.4028L86.8893 13.841C86.6956 13.7013 86.4063 13.592 86.0677 13.5008L85.8875 14.1695ZM86.4836 14.4023L86.6114 14.495L87.0178 13.9341L86.89 13.8415L86.4836 14.4023ZM87.1609 14.2146V11.1485H86.4683V14.2146H87.1609ZM86.9512 10.8303L86.902 10.8091L86.6287 11.4456L86.678 11.4667L86.9512 10.8303ZM86.9008 10.8086C86.5557 10.662 86.1015 10.6 85.5745 10.6V11.2926C86.0614 11.2926 86.4086 11.3521 86.6299 11.4461L86.9008 10.8086ZM85.5745 10.6C84.7301 10.6 83.9682 10.8734 83.3201 11.4083L83.7609 11.9425C84.2845 11.5104 84.8903 11.2926 85.5745 11.2926V10.6ZM83.3199 11.4085C82.7469 11.882 82.3463 12.5209 82.048 13.2835L82.693 13.5358C82.9631 12.8452 83.3057 12.3187 83.7611 11.9423L83.3199 11.4085ZM82.3705 13.0633H82.3382V13.756H82.3705V13.0633ZM73.8507 10.5128C72.4055 10.5128 71.1013 10.823 69.9839 11.4456L70.321 12.0506C71.3207 11.4937 72.5055 11.2055 73.8507 11.2055V10.5128ZM69.9839 11.4456C68.8642 12.0696 67.9955 12.9631 67.4061 14.0965L68.0205 14.4161C68.5473 13.4033 69.3193 12.6089 70.3211 12.0506L69.9839 11.4456ZM67.4059 14.0968C66.821 15.2237 66.5292 16.5304 66.5292 17.9719H67.2218C67.2218 16.6242 67.4943 15.4299 68.0207 14.4158L67.4059 14.0968ZM66.5292 17.9719C66.5292 19.2463 66.815 20.4253 67.3859 21.4687L67.9935 21.1362C67.4831 20.2035 67.2218 19.1405 67.2218 17.9719H66.5292ZM67.3858 21.4685C67.9576 22.5146 68.7699 23.3368 69.7976 23.9062L70.1333 23.3003C69.2226 22.7958 68.5037 22.0695 67.9936 21.1363L67.3858 21.4685ZM69.7976 23.9062C70.8226 24.4742 72.0002 24.7578 73.2903 24.7578V24.0651C72.1034 24.0651 71.0438 23.8049 70.1333 23.3004L69.7976 23.9062ZM73.2903 24.7578C74.7804 24.7578 76.0776 24.4599 77.1317 23.8527L76.7861 23.2526C75.8615 23.7851 74.6907 24.0651 73.2903 24.0651V24.7578ZM77.1312 23.8531L77.1711 23.8302L76.8266 23.2293L76.7866 23.2522L77.1312 23.8531ZM77.3452 23.5297V20.7435H76.6526V23.5297H77.3452ZM76.7947 20.4638L76.6668 20.5571L77.0752 21.1165L77.2031 21.0232L76.7947 20.4638ZM76.6671 20.5569C76.2474 20.8627 75.7771 21.1077 75.2693 21.2845L75.4971 21.9386C76.0671 21.7401 76.5984 21.4639 77.075 21.1167L76.6671 20.5569ZM75.2691 21.2846C74.7571 21.4633 74.3065 21.5477 73.9259 21.5477V22.2403C74.4047 22.2403 74.9342 22.1351 75.4973 21.9386L75.2691 21.2846ZM73.9259 21.5477C72.8094 21.5477 71.9492 21.2012 71.331 20.5466L70.8274 21.0222C71.5999 21.84 72.6557 22.2403 73.9259 22.2403V21.5477ZM71.3309 20.5465C70.7106 19.8905 70.3753 18.9499 70.3753 17.7098H69.6827C69.6827 19.0746 70.054 20.2042 70.8276 21.0223L71.3309 20.5465ZM70.3753 17.7098C70.3753 16.4657 70.7236 15.4951 71.3776 14.7896L70.8697 14.3187C70.0714 15.1798 69.6827 16.3326 69.6827 17.7098H70.3753ZM71.3777 14.7896C72.0294 14.0865 72.8934 13.7232 73.9761 13.7232V13.0306C72.7215 13.0306 71.666 13.4597 70.8697 14.3187L71.3777 14.7896ZM73.9761 13.7232C74.8928 13.7232 75.7971 14.0325 76.668 14.6642L77.0747 14.1035C76.1024 13.3983 75.0585 13.0306 73.9761 13.0306V13.7232ZM76.6678 14.6641L76.7954 14.7567L77.2024 14.1963L77.0748 14.1036L76.6678 14.6641ZM77.3452 14.4765V11.5407H76.6526V14.4765H77.3452ZM77.1688 11.239L77.1276 11.2158L76.7878 11.8193L76.829 11.8425L77.1688 11.239ZM77.1268 11.2154C76.7378 10.9976 76.2272 10.828 75.6209 10.7024L75.4805 11.3807C76.0485 11.4983 76.4839 11.6492 76.7885 11.8197L77.1268 11.2154ZM75.621 10.7025C75.0153 10.5768 74.4198 10.5128 73.8507 10.5128V11.2055C74.3684 11.2055 74.9167 11.2637 75.4804 11.3807L75.621 10.7025ZM64.781 10.8244H61.7397V11.5171H64.781V10.8244ZM61.3934 11.1708V24.0993H62.0861V11.1708H61.3934ZM61.7397 24.4456H64.781V23.753H61.7397V24.4456ZM65.1273 24.0993V11.1708H64.4346V24.0993H65.1273ZM63.2915 5.31678C62.7048 5.31678 62.1828 5.51938 61.7583 5.91899L62.2331 6.4233C62.5259 6.14759 62.877 6.0094 63.2915 6.0094V5.31678ZM61.7585 5.91883C61.3274 6.32411 61.1065 6.84233 61.1065 7.43922H61.7992C61.7992 7.02984 61.9436 6.6954 62.2329 6.42346L61.7585 5.91883ZM61.1065 7.43922C61.1065 8.02862 61.3256 8.54019 61.7551 8.93698L62.2251 8.42825C61.9411 8.16583 61.7992 7.84028 61.7992 7.43922H61.1065ZM61.7546 8.93656C62.1768 9.328 62.7003 9.52415 63.2916 9.52415V8.83153C62.8646 8.83153 62.5123 8.69452 62.2256 8.42867L61.7546 8.93656ZM63.2916 9.52415C63.8828 9.52415 64.407 9.32802 64.8326 8.93868L64.3651 8.42763C64.0734 8.6945 63.7184 8.83153 63.2916 8.83153V9.52415ZM64.8326 8.93871C65.2662 8.54205 65.4892 8.03046 65.4892 7.43922H64.7966C64.7966 7.83872 64.6534 8.16396 64.3651 8.42761L64.8326 8.93871ZM65.4892 7.43922C65.4892 6.85931 65.2727 6.34917 64.8571 5.93847L64.3703 6.4311C64.6568 6.71426 64.7966 7.04806 64.7966 7.43922H65.4892ZM64.857 5.93833C64.4366 5.52336 63.902 5.31678 63.2915 5.31678V6.0094C63.7338 6.0094 64.0893 6.15371 64.3704 6.43124L64.857 5.93833ZM55.3571 10.2169V24.0993H56.0497V10.2169H55.3571ZM55.7034 24.4456H58.8071V23.753H55.7034V24.4456ZM59.1534 24.0993V6.05886H58.4608V24.0993H59.1534ZM58.8071 5.71255H54.5115V6.40518H58.8071V5.71255ZM54.1908 5.92819L48.7307 19.3281L49.3721 19.5895L54.8322 6.18954L54.1908 5.92819ZM49.3735 19.3314L44.0748 5.93152L43.4307 6.18621L48.7294 19.5861L49.3735 19.3314ZM43.7528 5.71255H39.2822V6.40518H43.7528V5.71255ZM38.9359 6.05886V24.0992H39.6285V6.05886H38.9359ZM39.2822 24.4455H42.1989V23.7529H39.2822V24.4455ZM42.5452 24.0992V10.2155H41.8526V24.0992H42.5452ZM42.1989 10.5618H42.299V9.86918H42.1989V10.5618ZM41.9778 10.3449L47.5731 24.2288L48.2155 23.9699L42.6202 10.086L41.9778 10.3449ZM47.8943 24.4456H50.0954V23.753H47.8943V24.4456ZM50.4173 24.227L55.9252 10.3446L55.2814 10.0891L49.7735 23.9716L50.4173 24.227ZM55.6033 10.5632H55.7034V9.87055H55.6033V10.5632Z" fill="white" fill-opacity="0.2" mask="url(#path-1-inside-1_801_5766)"/>
</g>
<g id="Vector_2">
<path d="M14.4591 14.337H0.152344V0.0302734H14.4591V14.337Z" fill="white" fill-opacity="0.2"/>
<path d="M14.2859 14.1639H0.3255V0.20343H14.2859V14.1639Z" stroke="white" stroke-opacity="0.2" stroke-width="0.346313"/>
</g>
<g id="Vector_3">
<path d="M30.2547 14.337H15.9482V0.0302734H30.2547V14.337Z" fill="white" fill-opacity="0.2"/>
<path d="M30.0816 14.1639H16.1214V0.20343H30.0816V14.1639Z" stroke="white" stroke-opacity="0.2" stroke-width="0.346313"/>
</g>
<g id="Vector_4">
<path d="M14.4587 30.1391H0.152344V15.8325H14.4587V30.1391Z" fill="white" fill-opacity="0.2"/>
<path d="M14.2855 29.966H0.3255V16.0057H14.2855V29.966Z" stroke="white" stroke-opacity="0.2" stroke-width="0.346313"/>
</g>
<g id="Vector_5">
<path d="M30.2547 30.1391H15.9482V15.8325H30.2547V30.1391Z" fill="white" fill-opacity="0.2"/>
<path d="M30.0816 29.966H16.1214V16.0057H30.0816V29.966Z" stroke="white" stroke-opacity="0.2" stroke-width="0.346313"/>
</g>
</g>
</svg>
