<svg width="60" height="60" viewBox="0 0 60 60" fill="none" xmlns="http://www.w3.org/2000/svg">
<g id="cyborg 4" clip-path="url(#clip0_652_9562)">
<path id="accent" d="M37.6278 30.0008C39.7889 30.0008 41.5408 28.2489 41.5408 26.0878C41.5408 23.9267 39.7889 22.1748 37.6278 22.1748C35.4667 22.1748 33.7148 23.9267 33.7148 26.0878C33.7148 28.2489 35.4667 30.0008 37.6278 30.0008Z" fill="url(#paint0_linear_652_9562)"/>
<path id="accent_2" d="M29.3291 34.3877C29.4537 34.5081 29.5531 34.652 29.6214 34.8111C29.6898 34.9702 29.7258 35.1414 29.7273 35.3146C29.7288 35.4878 29.6958 35.6595 29.6302 35.8198C29.5646 35.9801 29.4678 36.1258 29.3453 36.2482C29.2228 36.3707 29.0772 36.4675 28.9169 36.5331C28.7566 36.5987 28.5849 36.6317 28.4117 36.6302C28.2385 36.6287 28.0673 36.5927 27.9082 36.5244C27.7491 36.456 27.6051 36.3566 27.4848 36.2321C24.7942 33.5414 23.2827 29.8921 23.2827 26.087C23.2827 22.2819 24.7942 18.6326 27.4848 15.9419C27.6051 15.8173 27.7491 15.718 27.9082 15.6496C28.0673 15.5812 28.2385 15.5453 28.4117 15.5438C28.5849 15.5422 28.7566 15.5752 28.9169 15.6408C29.0772 15.7064 29.2228 15.8033 29.3453 15.9257C29.4678 16.0482 29.5646 16.1938 29.6302 16.3541C29.6958 16.5144 29.7288 16.6862 29.7273 16.8594C29.7258 17.0326 29.6898 17.2037 29.6214 17.3628C29.5531 17.522 29.4537 17.6659 29.3291 17.7862C28.2391 18.8763 27.3744 20.1704 26.7844 21.5946C26.1945 23.0189 25.8908 24.5454 25.8908 26.087C25.8908 27.6286 26.1945 29.1551 26.7844 30.5793C27.3744 32.0036 28.2391 33.2977 29.3291 34.3877ZM47.775 36.2321C47.529 36.4697 47.1995 36.6011 46.8575 36.5982C46.5155 36.5952 46.1884 36.458 45.9465 36.2162C45.7047 35.9743 45.5675 35.6472 45.5646 35.3052C45.5616 34.9632 45.6931 34.6337 45.9306 34.3877C47.0207 33.2977 47.8854 32.0036 48.4754 30.5793C49.0653 29.1551 49.369 27.6286 49.369 26.087C49.369 24.5454 49.0653 23.0189 48.4754 21.5946C47.8854 20.1704 47.0207 18.8763 45.9306 17.7862C45.8061 17.6659 45.7067 17.522 45.6384 17.3628C45.57 17.2037 45.534 17.0326 45.5325 16.8594C45.531 16.6862 45.564 16.5144 45.6296 16.3541C45.6952 16.1938 45.792 16.0482 45.9145 15.9257C46.037 15.8033 46.1826 15.7064 46.3429 15.6408C46.5032 15.5752 46.6749 15.5422 46.8481 15.5438C47.0213 15.5453 47.1925 15.5812 47.3516 15.6496C47.5107 15.718 47.6547 15.8173 47.775 15.9419C50.4655 18.6326 51.9771 22.2819 51.9771 26.087C51.9771 29.8921 50.4655 33.5414 47.775 36.2321Z" fill="url(#paint1_linear_652_9562)"/>
<path id="accent_3" d="M21.9758 60.0003H39.2569L38.9321 32.4789C40.5156 32.1557 41.9227 31.256 42.8806 29.9543C43.8385 28.6525 44.2789 27.0415 44.1164 25.4335C43.954 23.8256 43.2003 22.3352 42.0014 21.2513C40.8026 20.1675 39.244 19.5674 37.6278 19.5674C36.0116 19.5674 34.453 20.1675 33.2542 21.2513C32.0553 22.3352 31.3016 23.8256 31.1392 25.4335C30.9767 27.0415 31.4171 28.6525 32.375 29.9543C33.3329 31.256 34.74 32.1557 36.3235 32.4789V45.6527C36.319 49.4565 34.8059 53.1033 32.1162 55.793C29.4265 58.4827 25.7797 59.9958 21.9758 60.0003Z" fill="url(#paint2_linear_652_9562)"/>
<g id="glass" filter="url(#filter0_bi_652_9562)">
<path d="M45.4548 60C46.1466 60 46.8102 59.7252 47.2994 59.2359C47.7886 58.7467 48.0634 58.0832 48.0634 57.3913V46.9215C52.5126 43.5881 55.7793 38.9194 57.3864 33.5974C58.9935 28.2754 58.8567 22.579 56.9961 17.3403C55.1355 12.1015 51.6485 7.59497 47.0446 4.47893C42.4406 1.36289 36.9608 -0.199367 31.4058 0.0203767C17.2891 0.552543 6.32488 12.6006 6.32488 26.7278V28.4235L1.72581 38.7668C1.45358 39.3801 1.42813 40.0747 1.65477 40.7063C1.8814 41.3378 2.34269 41.8578 2.94275 42.1581L6.32488 43.8498V53.4784C6.32488 55.208 7.01198 56.8668 8.23503 58.0899C9.45807 59.3129 11.1169 60 12.8465 60H45.4548Z" fill="#1D1D1D" fill-opacity="0.05"/>
<path d="M45.4548 60C46.1466 60 46.8102 59.7252 47.2994 59.2359C47.7886 58.7467 48.0634 58.0832 48.0634 57.3913V46.9215C52.5126 43.5881 55.7793 38.9194 57.3864 33.5974C58.9935 28.2754 58.8567 22.579 56.9961 17.3403C55.1355 12.1015 51.6485 7.59497 47.0446 4.47893C42.4406 1.36289 36.9608 -0.199367 31.4058 0.0203767C17.2891 0.552543 6.32488 12.6006 6.32488 26.7278V28.4235L1.72581 38.7668C1.45358 39.3801 1.42813 40.0747 1.65477 40.7063C1.8814 41.3378 2.34269 41.8578 2.94275 42.1581L6.32488 43.8498V53.4784C6.32488 55.208 7.01198 56.8668 8.23503 58.0899C9.45807 59.3129 11.1169 60 12.8465 60H45.4548Z" fill="url(#paint3_linear_652_9562)" fill-opacity="0.2"/>
<path d="M47.9134 46.8464L47.9735 46.8014C52.3971 43.4872 55.645 38.8454 57.2428 33.5541C58.8407 28.2627 58.7047 22.5991 56.8548 17.3905C55.0049 12.1819 51.538 7.70126 46.9605 4.60315C42.383 1.50505 36.9348 -0.0482192 31.4118 0.170259L31.4115 0.17027C17.3801 0.699219 6.47488 12.6764 6.47488 26.7278V28.4235V28.4553L6.46194 28.4844L1.86291 38.8277L47.9134 46.8464ZM47.9134 46.8464V46.9215M47.9134 46.8464V46.9215M47.9134 46.9215V57.3913C47.9134 58.0434 47.6544 58.6688 47.1933 59.1299C46.7322 59.591 46.1069 59.85 45.4548 59.85H12.8465C11.1567 59.85 9.53601 59.1787 8.34109 57.9838C7.14618 56.7889 6.47488 55.1682 6.47488 53.4784V43.8498V43.7571M47.9134 46.9215L6.47488 43.7571M6.47488 43.7571L6.39198 43.7156M6.47488 43.7571L6.39198 43.7156M6.39198 43.7156L3.00988 42.0239C2.44432 41.7409 2.00956 41.2509 1.79595 40.6556C1.58236 40.0604 1.60633 39.4058 1.86287 38.8278L6.39198 43.7156Z" stroke="url(#paint4_linear_652_9562)" stroke-opacity="0.1" stroke-width="0.3"/>
</g>
<g id="detail" filter="url(#filter1_i_652_9562)">
<path d="M29.3301 34.3872C29.4547 34.5076 29.5541 34.6515 29.6224 34.8106C29.6908 34.9698 29.7268 35.1409 29.7283 35.3141C29.7298 35.4873 29.6968 35.659 29.6312 35.8193C29.5656 35.9796 29.4687 36.1253 29.3463 36.2477C29.2238 36.3702 29.0782 36.4671 28.9179 36.5326C28.7576 36.5982 28.5858 36.6312 28.4126 36.6297C28.2395 36.6282 28.0683 36.5922 27.9092 36.5239C27.75 36.4555 27.6061 36.3561 27.4858 36.2316C24.7952 33.5409 23.2837 29.8916 23.2837 26.0865C23.2837 22.2814 24.7952 18.6321 27.4858 15.9414C27.6061 15.8168 27.75 15.7175 27.9092 15.6491C28.0683 15.5807 28.2395 15.5448 28.4126 15.5433C28.5858 15.5418 28.7576 15.5748 28.9179 15.6403C29.0782 15.7059 29.2238 15.8028 29.3463 15.9252C29.4687 16.0477 29.5656 16.1933 29.6312 16.3536C29.6968 16.5139 29.7298 16.6857 29.7283 16.8589C29.7268 17.0321 29.6908 17.2032 29.6224 17.3624C29.5541 17.5215 29.4547 17.6654 29.3301 17.7857C28.24 18.8758 27.3753 20.1699 26.7854 21.5941C26.1954 23.0184 25.8918 24.5449 25.8918 26.0865C25.8918 27.6281 26.1954 29.1546 26.7854 30.5788C27.3753 32.0031 28.24 33.2972 29.3301 34.3872ZM47.7759 36.2316C47.5299 36.4692 47.2005 36.6006 46.8585 36.5977C46.5165 36.5947 46.1894 36.4575 45.9475 36.2157C45.7057 35.9738 45.5685 35.6467 45.5655 35.3047C45.5626 34.9627 45.694 34.6332 45.9316 34.3872C47.0217 33.2972 47.8864 32.0031 48.4764 30.5788C49.0663 29.1546 49.3699 27.6281 49.3699 26.0865C49.3699 24.5449 49.0663 23.0184 48.4764 21.5941C47.8864 20.1699 47.0217 18.8758 45.9316 17.7857C45.807 17.6654 45.7077 17.5215 45.6393 17.3624C45.571 17.2032 45.535 17.0321 45.5335 16.8589C45.532 16.6857 45.565 16.5139 45.6306 16.3536C45.6961 16.1933 45.793 16.0477 45.9155 15.9252C46.0379 15.8028 46.1836 15.7059 46.3439 15.6403C46.5042 15.5748 46.6759 15.5418 46.8491 15.5433C47.0223 15.5448 47.1934 15.5807 47.3526 15.6491C47.5117 15.7175 47.6556 15.8168 47.7759 15.9414C50.4665 18.6321 51.978 22.2814 51.978 26.0865C51.978 29.8916 50.4665 33.5409 47.7759 36.2316Z" fill="white" fill-opacity="0.1"/>
</g>
<g id="detail_2" filter="url(#filter2_i_652_9562)">
<path d="M21.9751 60.0008H39.2562L38.9314 32.4794C40.5149 32.1562 41.922 31.2565 42.8799 29.9548C43.8377 28.653 44.2781 27.042 44.1157 25.434C43.9532 23.8261 43.1995 22.3357 42.0007 21.2518C40.8018 20.168 39.2432 19.5679 37.6271 19.5679C36.0109 19.5679 34.4523 20.168 33.2534 21.2518C32.0546 22.3357 31.3009 23.8261 31.1384 25.434C30.976 27.042 31.4164 28.653 32.3743 29.9548C33.3321 31.2565 34.7392 32.1562 36.3227 32.4794V45.6531C36.3182 49.457 34.8052 53.1038 32.1154 55.7935C29.4257 58.4832 25.7789 59.9963 21.9751 60.0008Z" fill="white" fill-opacity="0.1"/>
</g>
</g>
<defs>
<filter id="filter0_bi_652_9562" x="-4.49854" y="-6" width="68.9977" height="72" filterUnits="userSpaceOnUse" color-interpolation-filters="sRGB">
<feFlood flood-opacity="0" result="BackgroundImageFix"/>
<feGaussianBlur in="BackgroundImageFix" stdDeviation="3"/>
<feComposite in2="SourceAlpha" operator="in" result="effect1_backgroundBlur_652_9562"/>
<feBlend mode="normal" in="SourceGraphic" in2="effect1_backgroundBlur_652_9562" result="shape"/>
<feColorMatrix in="SourceAlpha" type="matrix" values="0 0 0 0 0 0 0 0 0 0 0 0 0 0 0 0 0 0 127 0" result="hardAlpha"/>
<feOffset dy="1"/>
<feGaussianBlur stdDeviation="1.5"/>
<feComposite in2="hardAlpha" operator="arithmetic" k2="-1" k3="1"/>
<feColorMatrix type="matrix" values="0 0 0 0 1 0 0 0 0 1 0 0 0 0 1 0 0 0 0.15 0"/>
<feBlend mode="normal" in2="shape" result="effect2_innerShadow_652_9562"/>
</filter>
<filter id="filter1_i_652_9562" x="23.2837" y="15.5432" width="28.6943" height="23.0867" filterUnits="userSpaceOnUse" color-interpolation-filters="sRGB">
<feFlood flood-opacity="0" result="BackgroundImageFix"/>
<feBlend mode="normal" in="SourceGraphic" in2="BackgroundImageFix" result="shape"/>
<feColorMatrix in="SourceAlpha" type="matrix" values="0 0 0 0 0 0 0 0 0 0 0 0 0 0 0 0 0 0 127 0" result="hardAlpha"/>
<feOffset dy="2"/>
<feGaussianBlur stdDeviation="1"/>
<feComposite in2="hardAlpha" operator="arithmetic" k2="-1" k3="1"/>
<feColorMatrix type="matrix" values="0 0 0 0 1 0 0 0 0 1 0 0 0 0 1 0 0 0 0.1 0"/>
<feBlend mode="normal" in2="shape" result="effect1_innerShadow_652_9562"/>
</filter>
<filter id="filter2_i_652_9562" x="21.9751" y="19.5679" width="22.1736" height="42.4329" filterUnits="userSpaceOnUse" color-interpolation-filters="sRGB">
<feFlood flood-opacity="0" result="BackgroundImageFix"/>
<feBlend mode="normal" in="SourceGraphic" in2="BackgroundImageFix" result="shape"/>
<feColorMatrix in="SourceAlpha" type="matrix" values="0 0 0 0 0 0 0 0 0 0 0 0 0 0 0 0 0 0 127 0" result="hardAlpha"/>
<feOffset dy="2"/>
<feGaussianBlur stdDeviation="1"/>
<feComposite in2="hardAlpha" operator="arithmetic" k2="-1" k3="1"/>
<feColorMatrix type="matrix" values="0 0 0 0 1 0 0 0 0 1 0 0 0 0 1 0 0 0 0.1 0"/>
<feBlend mode="normal" in2="shape" result="effect1_innerShadow_652_9562"/>
</filter>
<linearGradient id="paint0_linear_652_9562" x1="33.7148" y1="22.1748" x2="43.155" y2="25.8178" gradientUnits="userSpaceOnUse">
<stop stop-color="#3FD0FF"/>
<stop offset="1" stop-color="#2366F2"/>
</linearGradient>
<linearGradient id="paint1_linear_652_9562" x1="23.2827" y1="15.5437" x2="54.4543" y2="31.913" gradientUnits="userSpaceOnUse">
<stop stop-color="#3FD0FF"/>
<stop offset="1" stop-color="#2366F2"/>
</linearGradient>
<linearGradient id="paint2_linear_652_9562" x1="21.9758" y1="19.5674" x2="51.389" y2="25.7922" gradientUnits="userSpaceOnUse">
<stop stop-color="#3FD0FF"/>
<stop offset="1" stop-color="#2366F2"/>
</linearGradient>
<linearGradient id="paint3_linear_652_9562" x1="1.50146" y1="0" x2="69.0422" y2="16.2917" gradientUnits="userSpaceOnUse">
<stop stop-color="#87FFE1"/>
<stop offset="0.776042" stop-color="#5C6DFF"/>
</linearGradient>
<linearGradient id="paint4_linear_652_9562" x1="3.28264" y1="2.72727" x2="58.4992" y2="2.72727" gradientUnits="userSpaceOnUse">
<stop stop-color="#3CDEB6"/>
<stop offset="0.65625" stop-color="#364AFF"/>
</linearGradient>
<clipPath id="clip0_652_9562">
<rect width="60" height="60" fill="white"/>
</clipPath>
</defs>
</svg>
