<svg width="344" height="72" viewBox="0 0 344 72" fill="none" xmlns="http://www.w3.org/2000/svg">
<path d="M4.41583 7.44489H23.302C29.8238 7.44489 35.2587 9.73207 39.6066 14.3064C43.9998 18.8355 46.1964 24.4742 46.1964 31.2224C46.1964 37.9707 43.9998 43.6094 39.6066 48.1385C35.2587 52.7128 29.8238 55 23.302 55H4.41583V7.44489ZM13.791 46.0325H23.302C27.4234 46.0325 30.7749 44.6737 33.3565 41.9563C35.9381 39.1483 37.2289 35.5703 37.2289 31.2224C37.2289 26.8293 35.9381 23.274 33.3565 20.5565C30.7749 17.7938 27.4234 16.4124 23.302 16.4124H13.791V46.0325ZM91.8833 55H81.6929L78.8396 46.4401H59.8855L57.0322 55H46.9097L63.554 7.44489H75.171L91.8833 55ZM69.3965 18.2467L62.8746 37.6764H75.9183L69.3965 18.2467ZM89.5182 7.44489H124.505V16.4124H111.665V55H102.29V16.4124H89.5182V7.44489ZM167.051 55H156.86L154.007 46.4401H135.053L132.199 55H122.077L138.721 7.44489H150.338L167.051 55ZM144.564 18.2467L138.042 37.6764H151.086L144.564 18.2467Z" fill="white"/>
<path d="M263.252 55H253.061L250.208 46.4401H231.254L228.4 55H218.278L234.922 7.44489H246.539L263.252 55ZM240.765 18.2467L234.243 37.6764H247.287L240.765 18.2467ZM288.519 55H276.902L260.937 7.44489H271.127L282.744 43.9944L294.293 7.44489H304.552L288.519 55ZM318.51 35.3665V46.0325H338.551V55H309.135V7.44489H338.211V16.4124H318.51V26.5349H336.513V35.3665H318.51Z" fill="white"/>
<path d="M190.153 55H178.536L162.571 7.44489H172.761L184.378 43.9944L195.928 7.44489H206.186L190.153 55Z" fill="#1E5775"/>
<path d="M208.497 55H196.88L180.915 7.44489H191.105L202.722 43.9944L214.271 7.44489H224.53L208.497 55Z" fill="#3FD0FF"/>
</svg>
