<svg width="744" height="404" viewBox="0 0 744 404" fill="none" xmlns="http://www.w3.org/2000/svg">
<g opacity="0.05">
<path d="M451.547 404H352.855L217.227 0H303.798L402.489 310.503L500.604 0H587.752L451.547 404Z" fill="#1E5775"/>
<path d="M607.392 404H508.701L373.072 0H459.644L558.335 310.503L656.449 0H743.598L607.392 404Z" fill="#3FD0FF"/>
<path d="M0 0H160.446C215.851 0 262.023 19.4305 298.96 58.2914C336.282 96.7676 354.943 144.67 354.943 202C354.943 259.33 336.282 307.232 298.96 345.709C262.023 384.569 215.851 404 160.446 404H0V0ZM79.6457 327.817H160.446C195.459 327.817 223.931 316.274 245.863 293.189C267.794 269.333 278.76 238.937 278.76 202C278.76 164.678 267.794 134.474 245.863 111.389C223.931 87.9181 195.459 76.1829 160.446 76.1829H79.6457V327.817Z" fill="white"/>
</g>
</svg>
