<svg width="22" height="26" viewBox="0 0 22 26" fill="none" xmlns="http://www.w3.org/2000/svg">
<g id="vuesax/linear/setting">
<rect id="Rectangle 4979" opacity="0.6" x="3" width="16" height="8" rx="2" fill="url(#paint0_linear_601_12832)"/>
<g id="vuesax/linear/setting_2">
<g id="setting">
<g id="Vector" filter="url(#filter0_bii_601_12832)">
<path d="M0.199219 10.4934V17.4944C0.199219 20.0667 0.199219 20.0667 2.59922 21.7048L9.19922 25.5632C10.1952 26.1456 11.8152 26.1456 12.7992 25.5632L19.3992 21.7048C21.7992 20.0667 21.7992 20.0667 21.7992 17.5066V10.4934C21.7992 7.93327 21.7992 7.93327 19.3992 6.29525L12.7992 2.4368C11.8152 1.8544 10.1952 1.8544 9.19922 2.4368L2.59922 6.29525C0.199219 7.93327 0.199219 7.93327 0.199219 10.4934Z" fill="white" fill-opacity="0.03"/>
</g>
<g id="Vector_2" filter="url(#filter1_i_601_12832)">
<path d="M11.0004 17.6004C12.9886 17.6004 14.6004 15.9886 14.6004 14.0004C14.6004 12.0122 12.9886 10.4004 11.0004 10.4004C9.01217 10.4004 7.40039 12.0122 7.40039 14.0004C7.40039 15.9886 9.01217 17.6004 11.0004 17.6004Z" fill="white" fill-opacity="0.1"/>
</g>
</g>
</g>
</g>
<defs>
<filter id="filter0_bii_601_12832" x="-28.4448" y="-26.644" width="78.8876" height="81.288" filterUnits="userSpaceOnUse" color-interpolation-filters="sRGB">
<feFlood flood-opacity="0" result="BackgroundImageFix"/>
<feGaussianBlur in="BackgroundImageFix" stdDeviation="14.322"/>
<feComposite in2="SourceAlpha" operator="in" result="effect1_backgroundBlur_601_12832"/>
<feBlend mode="normal" in="SourceGraphic" in2="effect1_backgroundBlur_601_12832" result="shape"/>
<feColorMatrix in="SourceAlpha" type="matrix" values="0 0 0 0 0 0 0 0 0 0 0 0 0 0 0 0 0 0 127 0" result="hardAlpha"/>
<feOffset dy="1.4322"/>
<feGaussianBlur stdDeviation="0.7161"/>
<feComposite in2="hardAlpha" operator="arithmetic" k2="-1" k3="1"/>
<feColorMatrix type="matrix" values="0 0 0 0 1 0 0 0 0 1 0 0 0 0 1 0 0 0 0.15 0"/>
<feBlend mode="normal" in2="shape" result="effect2_innerShadow_601_12832"/>
<feColorMatrix in="SourceAlpha" type="matrix" values="0 0 0 0 0 0 0 0 0 0 0 0 0 0 0 0 0 0 127 0" result="hardAlpha"/>
<feOffset/>
<feGaussianBlur stdDeviation="10.7415"/>
<feComposite in2="hardAlpha" operator="arithmetic" k2="-1" k3="1"/>
<feColorMatrix type="matrix" values="0 0 0 0 1 0 0 0 0 1 0 0 0 0 1 0 0 0 0.05 0"/>
<feBlend mode="normal" in2="effect2_innerShadow_601_12832" result="effect3_innerShadow_601_12832"/>
</filter>
<filter id="filter1_i_601_12832" x="7.40039" y="10.4004" width="7.2002" height="8.6324" filterUnits="userSpaceOnUse" color-interpolation-filters="sRGB">
<feFlood flood-opacity="0" result="BackgroundImageFix"/>
<feBlend mode="normal" in="SourceGraphic" in2="BackgroundImageFix" result="shape"/>
<feColorMatrix in="SourceAlpha" type="matrix" values="0 0 0 0 0 0 0 0 0 0 0 0 0 0 0 0 0 0 127 0" result="hardAlpha"/>
<feOffset dy="1.4322"/>
<feGaussianBlur stdDeviation="0.7161"/>
<feComposite in2="hardAlpha" operator="arithmetic" k2="-1" k3="1"/>
<feColorMatrix type="matrix" values="0 0 0 0 1 0 0 0 0 1 0 0 0 0 1 0 0 0 0.15 0"/>
<feBlend mode="normal" in2="shape" result="effect1_innerShadow_601_12832"/>
</filter>
<linearGradient id="paint0_linear_601_12832" x1="3" y1="0" x2="16.8965" y2="10.7254" gradientUnits="userSpaceOnUse">
<stop stop-color="#3FD0FF"/>
<stop offset="1" stop-color="#2366F2"/>
</linearGradient>
</defs>
</svg>
