<svg width="22" height="26" viewBox="0 0 22 26" fill="none" xmlns="http://www.w3.org/2000/svg">
<g id="Frame 1000001330">
<g id="Group">
<path id="Vector" d="M11.0185 18.5116C11.0565 18.5116 11.0944 18.5116 11.1307 18.5099C11.1687 18.5099 11.205 18.5082 11.243 18.5049C11.2776 18.5032 11.3123 18.4999 11.3469 18.4965C11.3865 18.4915 11.4245 18.4882 11.4641 18.4832C11.4921 18.4798 11.5218 18.4765 11.5515 18.4715C11.5878 18.4665 11.6225 18.4615 11.6571 18.4548C11.6703 18.4531 11.6835 18.4498 11.6967 18.4465C11.7347 18.4381 11.771 18.4314 11.809 18.4231C11.837 18.4164 11.8651 18.4097 11.8931 18.403C11.9492 18.3897 12.0053 18.3747 12.0598 18.3563C12.0845 18.3479 12.1093 18.3413 12.1324 18.3329C12.1505 18.3279 12.167 18.3229 12.1835 18.3162C12.2083 18.3062 12.2347 18.2979 12.2594 18.2878C12.2776 18.2812 12.2958 18.2745 12.3123 18.2678C12.3222 18.2628 12.3321 18.2595 12.342 18.2561C12.3816 18.2394 12.4212 18.2227 12.4608 18.206C12.5185 18.181 12.5763 18.1526 12.6324 18.1242C12.6522 18.1142 12.6703 18.1042 12.6901 18.0942C12.7215 18.0775 12.7529 18.0608 12.7842 18.0424C12.8238 18.019 12.8651 17.9956 12.9047 17.9706C12.9344 17.9522 12.9624 17.9339 12.9921 17.9155C13.0235 17.8938 13.0565 17.8721 13.0878 17.8504C13.2149 17.7619 13.3354 17.6634 13.4492 17.5582C13.5103 17.4998 13.5713 17.4413 13.6307 17.3795C13.6307 17.3795 13.6324 17.3779 13.634 17.3745C13.6736 17.3328 13.7132 17.2877 13.7512 17.2443C13.771 17.2209 13.7892 17.2009 13.8073 17.1775C13.8403 17.1374 13.8717 17.0974 13.903 17.0556C13.908 17.0506 13.9113 17.0456 13.9146 17.0389C13.9327 17.0156 13.9492 16.9922 13.9657 16.9671C13.9839 16.9438 14.0004 16.9187 14.0152 16.8953C14.0647 16.8219 14.1109 16.7467 14.1538 16.6699C14.1687 16.6449 14.1819 16.6198 14.1967 16.5931C14.2248 16.5397 14.2528 16.4879 14.2759 16.4345C14.2892 16.4078 14.3007 16.3811 14.3139 16.3544C14.3271 16.3277 14.3387 16.3009 14.3486 16.2742C14.3717 16.2191 14.3948 16.164 14.4129 16.1073C14.4228 16.0789 14.4327 16.0505 14.4426 16.0238C14.4525 15.9954 14.4624 15.967 14.4707 15.9386C14.4806 15.9102 14.4888 15.8802 14.4954 15.8518C14.5037 15.8234 14.5119 15.7934 14.5185 15.765C14.5268 15.7366 14.5334 15.7065 14.54 15.6782C14.5482 15.6498 14.5532 15.6197 14.5598 15.5897C14.5664 15.5613 14.5713 15.5312 14.5763 15.5012C14.5812 15.4711 14.5862 15.4411 14.5911 15.411C14.5961 15.3793 14.601 15.3492 14.6043 15.3192C14.6043 15.3175 14.6043 15.3142 14.6043 15.3125C14.6076 15.2841 14.6109 15.2557 14.6126 15.2273C14.6159 15.199 14.6192 15.1706 14.6208 15.1405C14.6258 15.1088 14.6274 15.0754 14.6291 15.042H10.9113V11.1968C10.875 11.1968 10.8403 11.1984 10.8057 11.2018C10.7826 11.2018 10.7611 11.2035 10.738 11.2068C10.7083 11.2085 10.6802 11.2118 10.6505 11.2151C10.6208 11.2168 10.5928 11.2202 10.5631 11.2252C10.4987 11.2335 10.436 11.2419 10.3717 11.2552C10.3156 11.2652 10.2595 11.2769 10.205 11.2903C10.1769 11.297 10.1472 11.3036 10.1175 11.312L10.0944 11.3187C10.0482 11.3303 10.0037 11.3437 9.95912 11.3571C9.95582 11.3571 9.95087 11.3587 9.94922 11.3604C9.94922 11.3604 9.94757 11.3604 9.94592 11.3604C9.91787 11.3688 9.88981 11.3788 9.86176 11.3888C9.80565 11.4088 9.74955 11.4289 9.6951 11.4506C9.66704 11.4606 9.64064 11.4739 9.61259 11.4856C9.53668 11.5174 9.46077 11.5541 9.38652 11.5908C9.38156 11.5925 9.37826 11.5958 9.37496 11.5975C9.32876 11.6225 9.2809 11.6476 9.23635 11.6743C9.2314 11.676 9.22645 11.6793 9.2215 11.6826C9.19675 11.696 9.17199 11.711 9.14724 11.7277C9.12744 11.7377 9.10928 11.7511 9.08948 11.7628C9.08123 11.7678 9.07628 11.7711 9.06803 11.7762C9.04493 11.7895 9.02182 11.8045 9.00037 11.8212C8.95087 11.853 8.90301 11.888 8.85681 11.9248C8.83371 11.9414 8.8106 11.9598 8.78915 11.9782C8.76605 11.9949 8.7446 12.0132 8.7215 12.0333C8.6984 12.0533 8.67694 12.0717 8.65384 12.09C8.63239 12.1084 8.61093 12.1284 8.58948 12.1485C8.56803 12.1685 8.54658 12.1886 8.52513 12.2086C8.50533 12.2286 8.48387 12.2487 8.46407 12.2704C8.44262 12.2904 8.42282 12.3121 8.40301 12.3321C8.38321 12.3539 8.36341 12.3756 8.34361 12.3973C8.28585 12.4624 8.2281 12.5292 8.17529 12.5976C8.15714 12.621 8.14064 12.6444 8.12249 12.6678L8.07133 12.7395C8.05483 12.7613 8.03998 12.783 8.02513 12.8063C8.02513 12.808 8.02348 12.8097 8.02018 12.8113C7.99873 12.8431 7.97727 12.8765 7.95582 12.9099C7.93107 12.9516 7.90631 12.9933 7.88156 13.0351C7.86671 13.0601 7.85351 13.0852 7.83866 13.1119C7.81061 13.1636 7.7842 13.2154 7.75945 13.2705C7.74625 13.2972 7.7347 13.3239 7.72149 13.3506C7.71324 13.3673 7.70665 13.3824 7.70005 13.3991C7.6918 13.4191 7.68354 13.4375 7.67529 13.4558C7.65549 13.5026 7.63734 13.5493 7.62084 13.5978C7.61094 13.6261 7.60104 13.6545 7.59114 13.6812C7.58288 13.7046 7.57463 13.7297 7.56803 13.753C7.55813 13.7864 7.54823 13.8198 7.53833 13.8532C7.53008 13.8816 7.52182 13.9116 7.51522 13.94C7.50697 13.9751 7.49872 14.0085 7.49047 14.0436C7.48387 14.0719 7.47727 14.102 7.47232 14.1304C7.42612 14.3641 7.40137 14.6062 7.40137 14.8533C7.40137 16.8686 9.02183 18.5099 11.0152 18.5099L11.0185 18.5116Z" fill="#94D6FF"/>
<path id="Vector_2" d="M10.8939 15.0587V11.2285C10.8576 11.2285 10.8229 11.2302 10.7883 11.2335C10.7668 11.2335 10.7437 11.2352 10.7223 11.2385C10.6926 11.2402 10.6645 11.2435 10.6365 11.2469C10.6068 11.2486 10.5787 11.2519 10.549 11.2569C10.4847 11.2636 10.422 11.2736 10.3592 11.287C10.3031 11.297 10.2487 11.3087 10.1942 11.322C10.1662 11.3287 10.1365 11.3354 10.1084 11.3437L10.087 11.3504C10.0408 11.3621 9.99786 11.3754 9.95331 11.3888C9.95001 11.3888 9.94671 11.3905 9.94341 11.3921C9.94341 11.3921 9.94175 11.3921 9.9401 11.3921C9.91205 11.4005 9.884 11.4105 9.85595 11.4205C9.79984 11.4406 9.74539 11.4606 9.69093 11.4823C9.66288 11.4923 9.63647 11.504 9.61007 11.5174C9.53416 11.5491 9.45826 11.5842 9.38565 11.6226C9.3807 11.6242 9.37905 11.6276 9.3741 11.6292C9.32789 11.6543 9.28169 11.6793 9.23548 11.706C9.23053 11.7077 9.22558 11.711 9.22063 11.7144C9.19588 11.7277 9.17113 11.7428 9.14637 11.7595C9.12657 11.7695 9.10842 11.7812 9.08862 11.7945C9.08202 11.7995 9.07542 11.8029 9.06717 11.8079C9.04407 11.8212 9.02096 11.8363 8.99951 11.853C8.95166 11.8847 8.9038 11.9198 8.8576 11.9565C8.83449 11.9732 8.81139 11.9916 8.78994 12.0082C8.76849 12.0249 8.74538 12.0433 8.72393 12.0633C8.70248 12.0834 8.67938 12.1001 8.65793 12.1201C8.63647 12.1385 8.61502 12.1568 8.59357 12.1786C8.57212 12.2003 8.55067 12.2186 8.53087 12.2387C8.51106 12.2587 8.48961 12.2787 8.46981 12.3004C8.44836 12.3205 8.42855 12.3422 8.4104 12.3622C8.3906 12.3839 8.3708 12.4056 8.351 12.4273C8.29324 12.4924 8.23714 12.5592 8.18433 12.6277C8.16618 12.6494 8.14968 12.6744 8.13152 12.6978L8.08037 12.7679C8.06387 12.7897 8.04902 12.8114 8.03416 12.8347C8.03416 12.8364 8.03251 12.8381 8.02921 12.8397C8.00776 12.8715 7.98631 12.9049 7.96651 12.9382C7.94175 12.98 7.91701 13.0217 7.89225 13.0635C7.8774 13.0885 7.8642 13.1136 7.84935 13.1403C7.82129 13.192 7.79489 13.2438 7.77014 13.2972C7.75694 13.3239 7.74538 13.3507 7.73383 13.3774C7.72723 13.3941 7.71898 13.4091 7.71238 13.4258C7.70413 13.4458 7.69588 13.4625 7.68763 13.4826C7.66783 13.5293 7.65133 13.5761 7.63318 13.6245C7.62327 13.6529 7.61337 13.6796 7.60347 13.708C7.59522 13.7313 7.58697 13.7564 7.58037 13.7798C7.57047 13.8132 7.56057 13.8465 7.55067 13.8799C7.54242 13.9083 7.53416 13.9384 7.52756 13.9668C7.51931 14.0018 7.51106 14.0335 7.50281 14.0703C7.49621 14.0987 7.48961 14.1287 7.48466 14.1571C7.43846 14.3892 7.37905 14.7298 7.4137 15.0654" fill="url(#paint0_linear_601_12794)"/>
<path id="Vector_3" d="M11.0017 26C17.0033 26 21.8993 21.1079 21.9983 15.0587C22 14.9969 22 14.9335 22 14.87V0C20.2442 0 18.7739 1.23889 18.3977 2.9002C18.3366 3.17069 18.3036 3.45119 18.3036 3.74005V14.87C18.3036 18.944 15.0281 22.26 11 22.26C6.97195 22.26 3.69637 18.944 3.69637 14.87C3.69637 10.8311 6.91419 7.53853 10.8927 7.48009C10.8927 5.87888 11.8861 4.51477 13.2805 3.98048C12.5446 3.82186 11.7822 3.73838 11 3.73838C4.93399 3.73838 0 8.73067 0 14.8684C0 21.0044 4.93399 25.9967 11 25.9967L11.0017 26Z" fill="white"/>
<path id="Vector_4" d="M3.69734 14.8699C3.69734 10.831 6.91516 7.53843 10.8937 7.47999C10.8937 5.87879 11.8871 4.51467 13.2815 3.98038C12.5455 3.82176 11.7832 3.73828 11.001 3.73828C4.93497 3.73828 0.000976562 8.73057 0.000976562 14.8683" fill="url(#paint1_linear_601_12794)"/>
<path id="Vector_5" d="M11.0013 22.26C15.0293 22.26 18.3049 18.944 18.3049 14.87C18.3049 14.7431 18.3016 14.6162 18.295 14.491V0C17.2884 0 16.3725 0.409067 15.7059 1.07192C15.0227 1.74981 14.5986 2.69484 14.5986 3.74005V14.87C14.5986 16.8803 12.9881 18.5099 11.0013 18.5099C9.01447 18.5099 7.40226 16.8786 7.40226 14.87C7.40226 14.5862 7.43361 14.3124 7.49467 14.0469C7.50787 13.9951 7.51942 13.9417 7.53427 13.8899C7.54087 13.8615 7.55077 13.8332 7.55902 13.8048C7.58377 13.7196 7.61348 13.6378 7.64318 13.5577C7.65308 13.531 7.66463 13.5026 7.67618 13.4759C7.73063 13.3406 7.79334 13.2104 7.86265 13.0852C7.87585 13.0601 7.8907 13.0351 7.90555 13.01C7.91876 12.985 7.93361 12.9616 7.95011 12.9366C7.97156 12.9015 7.99302 12.8664 8.01612 12.833C8.04087 12.7963 8.06562 12.7596 8.09202 12.7228C8.15803 12.6293 8.23064 12.5408 8.3049 12.4557C8.32305 12.434 8.3412 12.4123 8.36265 12.3922C8.38245 12.3705 8.4039 12.3472 8.42536 12.3255C8.43361 12.3154 8.44186 12.3071 8.45176 12.2971C8.46001 12.2871 8.47156 12.277 8.47981 12.2687C8.49962 12.2487 8.51942 12.2286 8.54087 12.2102C8.56067 12.1902 8.58212 12.1702 8.60358 12.1518C8.79004 11.9848 8.99136 11.8362 9.20918 11.711C9.26034 11.681 9.30984 11.6526 9.36265 11.6259C9.3841 11.6142 9.40555 11.6042 9.42701 11.5941C9.45836 11.5774 9.48806 11.5624 9.51942 11.5491C9.54582 11.5357 9.57222 11.524 9.59863 11.514C9.60193 11.514 9.60523 11.5107 9.60853 11.509C9.68608 11.4756 9.76529 11.4455 9.84615 11.4188C10.0739 11.3404 10.3098 11.2869 10.5541 11.2552C10.6316 11.2452 10.7108 11.2368 10.79 11.2335C10.823 11.2318 10.8577 11.2285 10.8907 11.2285V7.48009C6.91215 7.53853 3.69434 10.8311 3.69434 14.87C3.69434 18.944 6.97156 22.26 10.998 22.26H11.0013Z" fill="#CFEFFF"/>
<path id="Vector_6" d="M11.0013 18.5117C9.01447 18.5117 7.40226 16.8805 7.40226 14.8719C7.40226 14.588 7.43361 14.3142 7.49467 14.0487C7.50787 13.997 7.51942 13.9435 7.53427 13.8918C7.54087 13.8634 7.55077 13.835 7.55902 13.8066C7.58377 13.7215 7.61348 13.6397 7.64318 13.5595C7.65308 13.5328 7.66463 13.5044 7.67618 13.4777C7.73064 13.3425 7.79334 13.2122 7.86265 13.087C7.87585 13.0619 7.8907 13.0369 7.90555 13.0119C7.91876 12.9868 7.93361 12.9634 7.95011 12.9384C7.97156 12.9033 7.99302 12.8683 8.01612 12.8349C8.04087 12.7981 8.06562 12.7614 8.09202 12.7247C8.15803 12.6312 8.23064 12.5427 8.3049 12.4575C8.32305 12.4358 8.3412 12.4141 8.36265 12.3941C8.38245 12.3724 8.4039 12.349 8.42536 12.3273C8.43361 12.3173 8.44186 12.3089 8.45176 12.2989C8.46001 12.2889 8.47156 12.2789 8.47981 12.2705C8.49962 12.2505 8.51942 12.2305 8.54087 12.2121C8.56067 12.1921 8.58212 12.172 8.60358 12.1537C8.79005 11.9867 8.99136 11.8381 9.20918 11.7129C9.26034 11.6828 9.30984 11.6544 9.36265 11.6277C9.3841 11.616 9.40555 11.606 9.42701 11.596C9.45836 11.5793 9.48806 11.5643 9.51942 11.5509C9.54582 11.5375 9.57222 11.5259 9.59863 11.5158C9.60193 11.5158 9.60523 11.5125 9.60853 11.5108C9.68608 11.4774 9.76529 11.4474 9.84615 11.4207C10.0739 11.3422 10.3098 11.2888 10.5541 11.257C10.6316 11.247 10.7108 11.2387 10.79 11.2353C10.823 11.2337 10.8577 11.2303 10.8907 11.2303V7.48193C6.91215 7.54037 3.69434 10.8329 3.69434 14.8719C3.69434 18.9458 6.97156 22.2618 10.998 22.2618" fill="url(#paint2_linear_601_12794)"/>
<path id="Vector_7" d="M10.8945 15.059H14.5876C14.5876 15.0273 14.5893 14.9955 14.5909 14.9655V0.00195312C14.1305 0.00195312 13.6883 0.0871054 13.2823 0.244054C11.8879 0.778346 10.8945 2.14246 10.8945 3.742V15.0606V15.059Z" fill="#94D6FF"/>
</g>
</g>
<defs>
<linearGradient id="paint0_linear_601_12794" x1="8.49126" y1="13.1436" x2="11.5061" y2="13.1436" gradientUnits="userSpaceOnUse">
<stop stop-color="#3FD0FF" stop-opacity="0"/>
<stop offset="1" stop-color="#45BFF1"/>
</linearGradient>
<linearGradient id="paint1_linear_601_12794" x1="4.765" y1="9.72903" x2="15.6632" y2="7.50074" gradientUnits="userSpaceOnUse">
<stop stop-color="white"/>
<stop offset="0.8" stop-color="#3FAEFF"/>
</linearGradient>
<linearGradient id="paint2_linear_601_12794" x1="9.77354" y1="15.0689" x2="16.1517" y2="12.1177" gradientUnits="userSpaceOnUse">
<stop stop-color="#CFEFFF"/>
<stop offset="1" stop-color="#1A8BE0"/>
</linearGradient>
</defs>
</svg>
