<svg width="114" height="48" viewBox="0 0 114 48" fill="none" xmlns="http://www.w3.org/2000/svg">
<g id="Group">
<g id="Group_2">
<g id="Group_3">
<path id="Vector" d="M0.685987 38.8036C1.14457 37.9148 1.76992 37.2307 2.56392 36.7513C3.35792 36.2719 4.23908 36.0331 5.21121 36.0331C5.95026 36.0331 6.65519 36.1942 7.32412 36.5144C7.99495 36.8366 8.52744 37.2629 8.92539 37.7973V32.4004H11.8399V47.5849H8.92539V45.9022C8.56913 46.4631 8.07075 46.9141 7.42835 47.2571C6.78594 47.5982 6.03932 47.7706 5.19226 47.7706C4.2353 47.7706 3.35981 47.5243 2.56581 47.0316C1.77181 46.5389 1.14647 45.8453 0.687881 44.949C0.229294 44.0527 0 43.0237 0 41.8602C0 40.6966 0.229294 39.6923 0.687881 38.8036H0.685987ZM8.53502 40.1073C8.26214 39.6089 7.89262 39.2242 7.42645 38.9589C6.96218 38.6917 6.4619 38.5591 5.92941 38.5591C5.39692 38.5591 4.90423 38.6899 4.45132 38.9495C4.00032 39.2091 3.63458 39.59 3.35413 40.0884C3.07367 40.5886 2.93344 41.1799 2.93344 41.864C2.93344 42.548 3.07367 43.1469 3.35413 43.6604C3.63458 44.1739 4.00411 44.5662 4.46269 44.841C4.92128 45.1139 5.41019 45.2522 5.92941 45.2522C6.44864 45.2522 6.96218 45.1195 7.42645 44.8524C7.89072 44.5852 8.26025 44.2024 8.53502 43.704C8.8079 43.2056 8.94623 42.6068 8.94623 41.9094C8.94623 41.2121 8.80979 40.6133 8.53502 40.113V40.1073Z" fill="white"/>
<path id="Vector_2" d="M14.598 38.8037C15.0566 37.9149 15.6781 37.2308 16.4645 36.7514C17.251 36.272 18.1302 36.0332 19.1005 36.0332C19.9494 36.0332 20.6904 36.2038 21.3271 36.5467C21.9638 36.8897 22.4735 37.3199 22.8563 37.8391V36.217H25.75V47.585H22.8563V45.9231C22.4868 46.4575 21.9771 46.8972 21.3271 47.2458C20.6771 47.5945 19.9286 47.7689 19.0796 47.7689C18.1227 47.7689 17.2491 47.5225 16.4626 47.0298C15.6762 46.5371 15.0528 45.8435 14.5961 44.9472C14.1375 44.0509 13.9082 43.0219 13.9082 41.8584C13.9082 40.6949 14.1375 39.6905 14.5961 38.8018L14.598 38.8037ZM22.447 40.1074C22.1741 39.609 21.8046 39.2244 21.3384 38.9591C20.8742 38.6919 20.3739 38.5592 19.8414 38.5592C19.3089 38.5592 18.8162 38.69 18.3633 38.9496C17.9123 39.2092 17.5466 39.5901 17.2661 40.0885C16.9857 40.5887 16.8454 41.18 16.8454 41.8641C16.8454 42.5482 16.9857 43.147 17.2661 43.6605C17.5466 44.1741 17.9161 44.5663 18.3747 44.8411C18.8333 45.114 19.3222 45.2523 19.8414 45.2523C20.3606 45.2523 20.8742 45.1197 21.3384 44.8525C21.8027 44.5853 22.1722 44.2025 22.447 43.7041C22.7199 43.2057 22.8582 42.6069 22.8582 41.9096C22.8582 41.2122 22.7218 40.6134 22.447 40.1131V40.1074Z" fill="white"/>
<path id="Vector_3" d="M31.9087 38.5782V44.0774C31.9087 44.4602 32.0016 44.7369 32.1854 44.9093C32.3692 45.0798 32.6819 45.1651 33.1196 45.1651H34.4537V47.5869H32.6478C30.226 47.5869 29.0151 46.4101 29.0151 44.0566V38.5782H27.6602V36.2189H29.0151V33.4067H31.9087V36.2189H34.4537V38.5782H31.9087Z" fill="white"/>
<path id="Vector_4" d="M36.473 38.8037C36.9316 37.9149 37.5531 37.2308 38.3395 36.7514C39.126 36.272 40.0052 36.0332 40.9755 36.0332C41.8244 36.0332 42.5654 36.2038 43.2021 36.5467C43.8388 36.8897 44.3485 37.3199 44.7313 37.8391V36.217H47.625V47.585H44.7313V45.9231C44.3618 46.4575 43.8521 46.8972 43.2021 47.2458C42.5521 47.5945 41.8036 47.7689 40.9546 47.7689C39.9977 47.7689 39.1241 47.5225 38.3376 47.0298C37.5512 46.5371 36.9278 45.8435 36.4711 44.9472C36.0125 44.0509 35.7832 43.0219 35.7832 41.8584C35.7832 40.6949 36.0125 39.6905 36.4711 38.8018L36.473 38.8037ZM44.322 40.1074C44.0491 39.609 43.6796 39.2244 43.2134 38.9591C42.7492 38.6919 42.2489 38.5592 41.7164 38.5592C41.1839 38.5592 40.6912 38.69 40.2383 38.9496C39.7873 39.2092 39.4216 39.5901 39.1411 40.0885C38.8607 40.5887 38.7204 41.18 38.7204 41.8641C38.7204 42.5482 38.8607 43.147 39.1411 43.6605C39.4216 44.1741 39.7911 44.5663 40.2497 44.8411C40.7083 45.114 41.1972 45.2523 41.7164 45.2523C42.2356 45.2523 42.7492 45.1197 43.2134 44.8525C43.6777 44.5853 44.0472 44.2025 44.322 43.7041C44.5949 43.2057 44.7332 42.6069 44.7332 41.9096C44.7332 41.2122 44.5968 40.6134 44.322 40.1131V40.1074Z" fill="white"/>
<path id="Vector_5" d="M74.803 38.8037C75.2616 37.9149 75.8832 37.2308 76.6696 36.7514C77.456 36.272 78.3353 36.0332 79.3055 36.0332C80.1545 36.0332 80.8954 36.2038 81.5321 36.5467C82.1689 36.8897 82.6786 37.3199 83.0614 37.8391V36.217H85.955V47.585H83.0614V45.9231C82.6919 46.4575 82.1821 46.8972 81.5321 47.2458C80.8822 47.5945 80.1336 47.7689 79.2847 47.7689C78.3277 47.7689 77.4541 47.5225 76.6677 47.0298C75.8813 46.5371 75.2579 45.8435 74.8012 44.9472C74.3426 44.0509 74.1133 43.0219 74.1133 41.8584C74.1133 40.6949 74.3426 39.6905 74.8012 38.8018L74.803 38.8037ZM82.6521 40.1074C82.3792 39.609 82.0097 39.2244 81.5435 38.9591C81.0792 38.6919 80.579 38.5592 80.0465 38.5592C79.514 38.5592 79.0213 38.69 78.5684 38.9496C78.1174 39.2092 77.7516 39.5901 77.4712 40.0885C77.1907 40.5887 77.0505 41.18 77.0505 41.8641C77.0505 42.5482 77.1907 43.147 77.4712 43.6605C77.7516 44.1741 78.1212 44.5663 78.5798 44.8411C79.0384 45.114 79.5273 45.2523 80.0465 45.2523C80.5657 45.2523 81.0792 45.1197 81.5435 44.8525C82.0078 44.5853 82.3773 44.2025 82.6521 43.7041C82.925 43.2057 83.0633 42.6069 83.0633 41.9096C83.0633 41.2122 82.9269 40.6134 82.6521 40.1131V40.1074Z" fill="white"/>
<path id="Vector_6" d="M113.904 42.7642H105.592C105.66 43.5848 105.949 44.2291 106.454 44.6933C106.96 45.1576 107.584 45.3907 108.321 45.3907C109.388 45.3907 110.148 44.9321 110.599 44.0149H113.697C113.369 45.1102 112.74 46.0085 111.81 46.7134C110.879 47.4183 109.737 47.7708 108.384 47.7708C107.288 47.7708 106.307 47.5282 105.439 47.0431C104.569 46.558 103.892 45.8701 103.407 44.9814C102.922 44.0926 102.68 43.0656 102.68 41.9039C102.68 40.7423 102.918 39.6944 103.398 38.8056C103.877 37.9169 104.546 37.2328 105.408 36.7534C106.271 36.2739 107.262 36.0352 108.384 36.0352C109.505 36.0352 110.432 36.2682 111.287 36.7325C112.141 37.1987 112.805 37.8581 113.276 38.7128C113.748 39.5674 113.985 40.549 113.985 41.6576C113.985 42.0688 113.957 42.4364 113.904 42.7661V42.7642ZM111.01 40.8352C110.997 40.0961 110.73 39.5049 110.21 39.0596C109.691 38.6142 109.054 38.3925 108.302 38.3925C107.591 38.3925 106.993 38.6085 106.506 39.0387C106.021 39.4689 105.723 40.0677 105.613 40.8352H111.01Z" fill="white"/>
</g>
<path id="Vector_7" d="M72.5381 36.1847C71.4277 36.2094 70.4934 36.92 69.7601 38.2977C69.2598 39.2376 68.8884 40.3992 68.5283 41.5229C67.8518 43.6396 67.38 44.7217 67.1279 44.7349C66.8759 44.7198 66.404 43.6396 65.7294 41.5286C65.3694 40.403 64.998 39.2376 64.4958 38.2977C64.0524 37.4639 63.5597 36.8973 62.9931 36.5637C62.1062 36.0426 60.7835 36.035 59.9365 36.2965C59.1254 36.5486 58.4224 37.2213 57.8482 38.2977C57.3479 39.2376 56.9765 40.3992 56.6164 41.5229C55.9399 43.6396 55.4681 44.7217 55.216 44.7349C54.964 44.7198 54.4922 43.6396 53.8175 41.5286C53.4575 40.403 53.0861 39.2376 52.5839 38.2977C51.8354 36.8954 50.8822 36.1828 49.7471 36.1828H48.7617V39.4024L48.9342 39.4403C49.0251 39.4612 49.118 39.4763 49.2108 39.4915C49.5292 39.5464 49.8059 39.5919 50.0048 39.8326C50.2019 40.0676 50.327 40.3916 50.4483 40.7024C50.4748 40.7687 50.4994 40.835 50.526 40.8995C50.7647 41.4888 50.9637 42.0914 51.1437 42.6523C51.5038 43.778 51.8752 44.9434 52.3774 45.8833C53.1259 47.2856 54.0791 47.9981 55.2142 47.9981C56.3492 47.9981 57.3043 47.2875 58.0509 45.8833C58.5512 44.9453 58.9226 43.7817 59.2846 42.6542C59.3263 42.5216 59.368 42.3889 59.4096 42.2563C59.5859 41.6916 59.7697 41.106 60.0123 40.5716C60.1923 40.1718 60.5902 39.5048 61.1966 39.5351C61.6685 39.5559 62.074 40.0031 62.4378 40.9014C62.6766 41.4926 62.8756 42.0933 63.0556 42.6542C63.4157 43.7798 63.7871 44.9453 64.2892 45.8852C65.0378 47.2875 65.9909 48 67.126 48C68.2611 48 69.2162 47.2894 69.9628 45.8852C70.4631 44.9453 70.8364 43.7817 71.1965 42.6561C71.24 42.5235 71.2817 42.3889 71.3234 42.2544C71.4997 41.6897 71.6816 41.1079 71.9241 40.5735C72.4074 39.5067 73.317 39.4403 73.3549 39.4384L73.5671 39.429V36.1847H72.5362H72.5381Z" fill="white"/>
<path id="Vector_8" d="M100.012 40.3725C99.6466 41.0528 99.3984 41.7881 99.1255 42.5063C98.6953 43.6395 98.25 44.8087 97.6588 45.7448C96.8079 47.0883 95.7411 47.7705 94.4847 47.7705C93.2283 47.7705 92.1614 47.0883 91.3106 45.7448C90.7174 44.8087 90.274 43.6376 89.842 42.5044C89.6127 41.8999 89.3739 41.2973 89.0915 40.7136C88.9058 40.3289 88.7391 39.895 88.4245 39.5766C88.0417 39.19 87.4979 39.1976 86.9824 39.101V36.2168H87.8977C89.1522 36.2168 90.221 36.899 91.0718 38.2425C91.6649 39.1787 92.1084 40.3498 92.5404 41.4849C93.3382 43.5845 93.9427 44.8864 94.4828 44.8864C95.0229 44.8864 95.6293 43.5845 96.4289 41.4792C96.8591 40.3479 97.3025 39.1787 97.8957 38.2425C98.7313 36.9217 99.7774 36.2414 101.005 36.2187H101.968V39.0915C101.968 39.0915 100.672 39.1446 100.01 40.3706L100.012 40.3725Z" fill="white"/>
</g>
<g id="Group_4">
<path id="Vector_9" d="M57.0112 21.0099C57.0548 21.0099 57.0984 21.0099 57.1401 21.008C57.1837 21.008 57.2254 21.0062 57.2689 21.0024C57.3087 21.0005 57.3485 20.9967 57.3883 20.9929C57.4338 20.9872 57.4774 20.9834 57.5229 20.9777C57.5551 20.9739 57.5892 20.9701 57.6233 20.9645C57.665 20.9588 57.7048 20.9531 57.7446 20.9455C57.7597 20.9436 57.7749 20.9398 57.7901 20.936C57.8337 20.9266 57.8753 20.919 57.9189 20.9095C57.9511 20.9019 57.9834 20.8943 58.0156 20.8868C58.08 20.8716 58.1444 20.8546 58.207 20.8337C58.2354 20.8242 58.2638 20.8167 58.2903 20.8072C58.3112 20.8015 58.3301 20.7958 58.3491 20.7882C58.3775 20.7769 58.4078 20.7674 58.4363 20.756C58.4571 20.7484 58.4779 20.7409 58.4969 20.7333C58.5083 20.7276 58.5196 20.7238 58.531 20.72C58.5765 20.7011 58.622 20.6821 58.6674 20.6632C58.7338 20.6347 58.8001 20.6025 58.8645 20.5703C58.8873 20.5589 58.9081 20.5476 58.9309 20.5362C58.9669 20.5172 59.0029 20.4983 59.0389 20.4775C59.0843 20.4509 59.1317 20.4244 59.1772 20.396C59.2113 20.3751 59.2435 20.3543 59.2776 20.3334C59.3136 20.3088 59.3515 20.2842 59.3875 20.2595C59.5335 20.1591 59.6718 20.0473 59.8025 19.9279C59.8727 19.8616 59.9428 19.7953 60.011 19.7251C60.011 19.7251 60.0129 19.7232 60.0148 19.7195C60.0603 19.6721 60.1057 19.6209 60.1493 19.5716C60.1721 19.5451 60.1929 19.5224 60.2138 19.4958C60.2517 19.4504 60.2877 19.4049 60.3237 19.3575C60.3294 19.3518 60.3331 19.3461 60.3369 19.3386C60.3578 19.312 60.3767 19.2855 60.3957 19.2571C60.4165 19.2305 60.4355 19.2021 60.4525 19.1756C60.5094 19.0922 60.5624 19.0069 60.6117 18.9198C60.6288 18.8913 60.6439 18.8629 60.661 18.8326C60.6932 18.772 60.7254 18.7132 60.7519 18.6526C60.7671 18.6223 60.7804 18.5919 60.7955 18.5616C60.8107 18.5313 60.8239 18.501 60.8353 18.4707C60.8618 18.4081 60.8884 18.3456 60.9092 18.2812C60.9206 18.2489 60.932 18.2167 60.9433 18.1864C60.9547 18.1542 60.9661 18.122 60.9755 18.0898C60.9869 18.0576 60.9964 18.0234 61.004 17.9912C61.0134 17.959 61.0229 17.9249 61.0305 17.8927C61.04 17.8605 61.0475 17.8264 61.0551 17.7941C61.0646 17.7619 61.0703 17.7278 61.0779 17.6937C61.0854 17.6615 61.0911 17.6274 61.0968 17.5933C61.1025 17.5592 61.1082 17.5251 61.1139 17.491C61.1196 17.4549 61.1252 17.4208 61.129 17.3867C61.129 17.3848 61.129 17.381 61.129 17.3791C61.1328 17.3469 61.1366 17.3147 61.1385 17.2825C61.1423 17.2503 61.1461 17.2181 61.148 17.184C61.1537 17.148 61.1556 17.1101 61.1575 17.0722H56.8881V12.708C56.8464 12.708 56.8066 12.7099 56.7668 12.7137C56.7402 12.7137 56.7156 12.7156 56.6891 12.7194C56.655 12.7213 56.6228 12.7251 56.5886 12.7289C56.5545 12.7307 56.5223 12.7345 56.4882 12.7402C56.4143 12.7497 56.3423 12.7592 56.2684 12.7743C56.204 12.7857 56.1395 12.799 56.077 12.8141C56.0448 12.8217 56.0107 12.8293 55.9766 12.8388L55.95 12.8463C55.897 12.8596 55.8458 12.8748 55.7947 12.8899C55.7909 12.8899 55.7852 12.8918 55.7833 12.8937C55.7833 12.8937 55.7814 12.8937 55.7795 12.8937C55.7473 12.9032 55.7151 12.9146 55.6828 12.9259C55.6184 12.9487 55.554 12.9714 55.4915 12.996C55.4592 13.0074 55.4289 13.0226 55.3967 13.0358C55.3095 13.0718 55.2224 13.1135 55.1371 13.1552C55.1314 13.1571 55.1276 13.1609 55.1238 13.1628C55.0708 13.1912 55.0158 13.2197 54.9646 13.25C54.959 13.2519 54.9533 13.2557 54.9476 13.2594C54.9192 13.2746 54.8907 13.2917 54.8623 13.3106C54.8396 13.322 54.8187 13.3371 54.796 13.3504C54.7865 13.3561 54.7808 13.3599 54.7714 13.3656C54.7448 13.3807 54.7183 13.3978 54.6937 13.4167C54.6368 13.4527 54.5819 13.4925 54.5288 13.5342C54.5023 13.5532 54.4757 13.574 54.4511 13.5949C54.4246 13.6138 54.3999 13.6347 54.3734 13.6574C54.3469 13.6801 54.3222 13.701 54.2957 13.7218C54.2711 13.7427 54.2464 13.7654 54.2218 13.7881C54.1972 13.8109 54.1725 13.8336 54.1479 13.8564C54.1252 13.8791 54.1005 13.9018 54.0778 13.9265C54.0532 13.9492 54.0304 13.9739 54.0077 13.9966C53.9849 14.0212 53.9622 14.0459 53.9395 14.0705C53.8731 14.1444 53.8068 14.2202 53.7462 14.2979C53.7253 14.3244 53.7064 14.351 53.6855 14.3775L53.6268 14.459C53.6078 14.4836 53.5908 14.5082 53.5737 14.5348C53.5737 14.5367 53.5718 14.5386 53.568 14.5405C53.5434 14.5765 53.5188 14.6144 53.4941 14.6523C53.4657 14.6996 53.4373 14.747 53.4089 14.7944C53.3918 14.8228 53.3766 14.8512 53.3596 14.8816C53.3274 14.9403 53.2971 14.999 53.2686 15.0616C53.2535 15.0919 53.2402 15.1222 53.225 15.1525C53.2156 15.1715 53.208 15.1885 53.2004 15.2075C53.1909 15.2302 53.1815 15.2511 53.172 15.2719C53.1492 15.325 53.1284 15.378 53.1095 15.433C53.0981 15.4652 53.0867 15.4974 53.0753 15.5277C53.0659 15.5543 53.0564 15.5827 53.0488 15.6092C53.0374 15.6471 53.0261 15.685 53.0147 15.7229C53.0052 15.7551 52.9958 15.7893 52.9882 15.8215C52.9787 15.8613 52.9692 15.8992 52.9597 15.939C52.9522 15.9712 52.9446 16.0053 52.9389 16.0375C52.8858 16.3028 52.8574 16.5776 52.8574 16.858C52.8574 19.1453 54.7183 21.008 57.0074 21.008L57.0112 21.0099Z" fill="#94D6FF"/>
<path id="Vector_10" d="M56.8678 17.0908V12.7437C56.8261 12.7437 56.7863 12.7455 56.7465 12.7493C56.7219 12.7493 56.6954 12.7512 56.6707 12.755C56.6366 12.7569 56.6044 12.7607 56.5722 12.7645C56.5381 12.7664 56.5059 12.7702 56.4718 12.7759C56.3979 12.7834 56.3259 12.7948 56.2538 12.81C56.1894 12.8213 56.1269 12.8346 56.0643 12.8498C56.0321 12.8574 55.998 12.8649 55.9658 12.8744L55.9412 12.882C55.8881 12.8953 55.8388 12.9104 55.7877 12.9256C55.7839 12.9256 55.7801 12.9275 55.7763 12.9294C55.7763 12.9294 55.7744 12.9294 55.7725 12.9294C55.7403 12.9388 55.7081 12.9502 55.6759 12.9616C55.6114 12.9843 55.5489 13.0071 55.4864 13.0317C55.4542 13.0431 55.4238 13.0563 55.3935 13.0715C55.3064 13.1075 55.2192 13.1473 55.1358 13.1909C55.1301 13.1928 55.1282 13.1966 55.1225 13.1984C55.0695 13.2269 55.0164 13.2553 54.9634 13.2856C54.9577 13.2875 54.952 13.2913 54.9463 13.2951C54.9179 13.3103 54.8895 13.3273 54.861 13.3463C54.8383 13.3576 54.8175 13.3709 54.7947 13.3861C54.7871 13.3917 54.7796 13.3955 54.7701 13.4012C54.7435 13.4164 54.717 13.4334 54.6924 13.4524C54.6374 13.4884 54.5825 13.5282 54.5294 13.5699C54.5029 13.5888 54.4763 13.6097 54.4517 13.6286C54.4271 13.6476 54.4006 13.6684 54.3759 13.6911C54.3513 13.7139 54.3248 13.7328 54.3001 13.7556C54.2755 13.7764 54.2509 13.7973 54.2262 13.8219C54.2016 13.8465 54.1769 13.8674 54.1542 13.8901C54.1315 13.9129 54.1068 13.9356 54.0841 13.9602C54.0595 13.983 54.0367 14.0076 54.0159 14.0303C53.9931 14.055 53.9704 14.0796 53.9477 14.1043C53.8813 14.1782 53.8169 14.254 53.7563 14.3316C53.7354 14.3563 53.7165 14.3847 53.6956 14.4112L53.6369 14.4908C53.6179 14.5155 53.6009 14.5401 53.5838 14.5666C53.5838 14.5685 53.5819 14.5704 53.5781 14.5723C53.5535 14.6083 53.5289 14.6462 53.5061 14.6841C53.4777 14.7315 53.4493 14.7789 53.4208 14.8262C53.4038 14.8547 53.3886 14.8831 53.3716 14.9134C53.3394 14.9722 53.309 15.0309 53.2806 15.0915C53.2655 15.1219 53.2522 15.1522 53.2389 15.1825C53.2313 15.2014 53.2219 15.2185 53.2143 15.2375C53.2048 15.2602 53.1953 15.2791 53.1859 15.3019C53.1631 15.3549 53.1442 15.408 53.1233 15.463C53.112 15.4952 53.1006 15.5255 53.0892 15.5577C53.0797 15.5842 53.0703 15.6127 53.0627 15.6392C53.0513 15.6771 53.04 15.715 53.0286 15.7529C53.0191 15.7851 53.0096 15.8192 53.0021 15.8514C52.9926 15.8912 52.9831 15.9272 52.9736 15.9689C52.966 16.0011 52.9585 16.0352 52.9528 16.0675C52.8997 16.3309 52.8315 16.7174 52.8713 17.0983" fill="url(#paint0_linear_461_23780)"/>
<path id="Vector_11" d="M56.9913 29.5087C63.8834 29.5087 69.5058 23.9564 69.6195 17.0909C69.6214 17.0208 69.6214 16.9488 69.6214 16.8767V0C67.6051 0 65.9167 1.40608 65.4846 3.29159C65.4145 3.59858 65.3766 3.91694 65.3766 4.24477V16.8767C65.3766 21.5005 61.6151 25.264 56.9894 25.264C52.3637 25.264 48.6022 21.5005 48.6022 16.8767C48.6022 12.2928 52.2974 8.55586 56.8662 8.48954C56.8662 6.67224 58.007 5.12404 59.6083 4.51765C58.7631 4.33762 57.8876 4.24287 56.9894 4.24287C50.0234 4.24287 44.3574 9.90888 44.3574 16.8749C44.3574 23.8389 50.0234 29.5049 56.9894 29.5049L56.9913 29.5087Z" fill="white"/>
<path id="Vector_12" d="M48.6041 16.8765C48.6041 12.2926 52.2994 8.55566 56.8682 8.48934C56.8682 6.67205 58.009 5.12384 59.6102 4.51745C58.7651 4.33742 57.8896 4.24268 56.9914 4.24268C50.0254 4.24268 44.3594 9.90868 44.3594 16.8747" fill="url(#paint1_linear_461_23780)"/>
<path id="Vector_13" d="M56.9906 25.264C61.6163 25.264 65.3778 21.5005 65.3778 16.8767C65.3778 16.7327 65.374 16.5887 65.3664 16.4466V0C64.2105 0 63.1588 0.464271 62.3932 1.21658C61.6087 1.98595 61.1217 3.05851 61.1217 4.24477V16.8767C61.1217 19.1583 59.2722 21.0078 56.9906 21.0078C54.709 21.0078 52.8576 19.1564 52.8576 16.8767C52.8576 16.5546 52.8936 16.2438 52.9638 15.9425C52.9789 15.8838 52.9922 15.8231 53.0092 15.7644C53.0168 15.7322 53.0282 15.7 53.0377 15.6677C53.0661 15.5711 53.1002 15.4782 53.1343 15.3873C53.1457 15.357 53.1589 15.3248 53.1722 15.2944C53.2347 15.1409 53.3068 14.9931 53.3863 14.851C53.4015 14.8226 53.4186 14.7942 53.4356 14.7657C53.4508 14.7373 53.4678 14.7108 53.4868 14.6824C53.5114 14.6426 53.536 14.6028 53.5626 14.5649C53.591 14.5232 53.6194 14.4815 53.6497 14.4398C53.7255 14.3337 53.8089 14.2332 53.8942 14.1366C53.915 14.112 53.9359 14.0873 53.9605 14.0646C53.9833 14.04 54.0079 14.0134 54.0325 13.9888C54.042 13.9774 54.0515 13.9679 54.0629 13.9566C54.0723 13.9452 54.0856 13.9338 54.0951 13.9244C54.1178 13.9016 54.1405 13.8789 54.1652 13.858C54.1879 13.8353 54.2126 13.8126 54.2372 13.7917C54.4513 13.6022 54.6825 13.4336 54.9327 13.2914C54.9914 13.2573 55.0482 13.2251 55.1089 13.1948C55.1335 13.1815 55.1582 13.1702 55.1828 13.1588C55.2188 13.1398 55.2529 13.1228 55.2889 13.1076C55.3192 13.0925 55.3495 13.0792 55.3799 13.0678C55.3837 13.0678 55.3874 13.064 55.3912 13.0621C55.4803 13.0242 55.5713 12.9901 55.6641 12.9598C55.9256 12.8707 56.1966 12.8101 56.4771 12.7741C56.5661 12.7627 56.6571 12.7533 56.748 12.7495C56.7859 12.7476 56.8257 12.7438 56.8636 12.7438V8.48954C52.2948 8.55586 48.5996 12.2928 48.5996 16.8767C48.5996 21.5005 52.363 25.264 56.9868 25.264H56.9906Z" fill="#CFEFFF"/>
<path id="Vector_14" d="M56.9906 21.0095C54.709 21.0095 52.8576 19.1581 52.8576 16.8784C52.8576 16.5563 52.8936 16.2455 52.9638 15.9442C52.9789 15.8854 52.9922 15.8248 53.0092 15.7661C53.0168 15.7338 53.0282 15.7016 53.0377 15.6694C53.0661 15.5728 53.1002 15.4799 53.1343 15.389C53.1457 15.3586 53.1589 15.3264 53.1722 15.2961C53.2347 15.1426 53.3068 14.9948 53.3863 14.8527C53.4015 14.8243 53.4186 14.7958 53.4356 14.7674C53.4508 14.739 53.4678 14.7124 53.4868 14.684C53.5114 14.6442 53.536 14.6044 53.5626 14.5665C53.591 14.5248 53.6194 14.4832 53.6497 14.4415C53.7255 14.3353 53.8089 14.2349 53.8942 14.1383C53.915 14.1136 53.9359 14.089 53.9605 14.0663C53.9833 14.0416 54.0079 14.0151 54.0325 13.9905C54.042 13.9791 54.0515 13.9696 54.0629 13.9582C54.0723 13.9469 54.0856 13.9355 54.0951 13.926C54.1178 13.9033 54.1405 13.8806 54.1652 13.8597C54.1879 13.837 54.2126 13.8142 54.2372 13.7934C54.4513 13.6039 54.6825 13.4352 54.9327 13.2931C54.9914 13.259 55.0482 13.2268 55.1089 13.1965C55.1335 13.1832 55.1582 13.1718 55.1828 13.1605C55.2188 13.1415 55.2529 13.1245 55.2889 13.1093C55.3192 13.0941 55.3496 13.0809 55.3799 13.0695C55.3837 13.0695 55.3875 13.0657 55.3912 13.0638C55.4803 13.0259 55.5713 12.9918 55.6641 12.9615C55.9256 12.8724 56.1966 12.8118 56.4771 12.7758C56.5661 12.7644 56.6571 12.7549 56.7481 12.7511C56.786 12.7492 56.8257 12.7455 56.8636 12.7455V8.49121C52.2948 8.55754 48.5996 12.2945 48.5996 16.8784C48.5996 21.5022 52.363 25.2656 56.9868 25.2656" fill="url(#paint2_linear_461_23780)"/>
<path id="Vector_15" d="M56.8672 17.0909H61.1082C61.1082 17.0549 61.1101 17.0189 61.112 16.9848V0.00195312C60.5833 0.00195312 60.0754 0.0985968 59.6092 0.276726C58.008 0.883121 56.8672 2.43132 56.8672 4.24672V17.0928V17.0909Z" fill="#94D6FF"/>
</g>
</g>
<defs>
<linearGradient id="paint0_linear_461_23780" x1="54.1087" y1="14.9172" x2="57.5709" y2="14.9172" gradientUnits="userSpaceOnUse">
<stop stop-color="#3FD0FF" stop-opacity="0"/>
<stop offset="1" stop-color="#45BFF1"/>
</linearGradient>
<linearGradient id="paint1_linear_461_23780" x1="49.8302" y1="11.0419" x2="62.3333" y2="8.45523" gradientUnits="userSpaceOnUse">
<stop stop-color="white"/>
<stop offset="0.8" stop-color="#3FAEFF"/>
</linearGradient>
<linearGradient id="paint2_linear_461_23780" x1="55.5807" y1="17.102" x2="62.8745" y2="13.6873" gradientUnits="userSpaceOnUse">
<stop stop-color="#CFEFFF"/>
<stop offset="1" stop-color="#1A8BE0"/>
</linearGradient>
</defs>
</svg>
