<svg width="114" height="48" viewBox="0 0 114 48" fill="none" xmlns="http://www.w3.org/2000/svg">
<g id="Group">
<g id="Group_2">
<g id="Group_3">
<path id="Vector" d="M0.685987 38.8036C1.14457 37.9148 1.76992 37.2307 2.56392 36.7513C3.35792 36.2719 4.23908 36.0331 5.21121 36.0331C5.95026 36.0331 6.65519 36.1942 7.32412 36.5144C7.99495 36.8366 8.52744 37.2629 8.92539 37.7973V32.4004H11.8399V47.5849H8.92539V45.9022C8.56913 46.4631 8.07075 46.9141 7.42835 47.2571C6.78594 47.5982 6.03932 47.7706 5.19226 47.7706C4.2353 47.7706 3.35981 47.5243 2.56581 47.0316C1.77181 46.5389 1.14647 45.8453 0.687881 44.949C0.229294 44.0527 0 43.0237 0 41.8602C0 40.6966 0.229294 39.6923 0.687881 38.8036H0.685987ZM8.53502 40.1073C8.26214 39.6089 7.89262 39.2242 7.42645 38.9589C6.96218 38.6917 6.4619 38.5591 5.92941 38.5591C5.39692 38.5591 4.90423 38.6899 4.45132 38.9495C4.00032 39.2091 3.63458 39.59 3.35413 40.0884C3.07367 40.5886 2.93344 41.1799 2.93344 41.864C2.93344 42.548 3.07367 43.1469 3.35413 43.6604C3.63458 44.1739 4.00411 44.5662 4.46269 44.841C4.92128 45.1139 5.41019 45.2522 5.92941 45.2522C6.44864 45.2522 6.96218 45.1195 7.42645 44.8524C7.89072 44.5852 8.26025 44.2024 8.53502 43.704C8.8079 43.2056 8.94623 42.6068 8.94623 41.9094C8.94623 41.2121 8.80979 40.6133 8.53502 40.113V40.1073Z" fill="white"/>
<path id="Vector_2" d="M14.598 38.8037C15.0566 37.9149 15.6781 37.2308 16.4645 36.7514C17.251 36.272 18.1302 36.0332 19.1005 36.0332C19.9494 36.0332 20.6904 36.2038 21.3271 36.5467C21.9638 36.8897 22.4735 37.3199 22.8563 37.8391V36.217H25.75V47.585H22.8563V45.9231C22.4868 46.4575 21.9771 46.8972 21.3271 47.2458C20.6771 47.5945 19.9286 47.7689 19.0796 47.7689C18.1227 47.7689 17.2491 47.5225 16.4626 47.0298C15.6762 46.5371 15.0528 45.8435 14.5961 44.9472C14.1375 44.0509 13.9082 43.0219 13.9082 41.8584C13.9082 40.6949 14.1375 39.6905 14.5961 38.8018L14.598 38.8037ZM22.447 40.1074C22.1741 39.609 21.8046 39.2244 21.3384 38.9591C20.8742 38.6919 20.3739 38.5592 19.8414 38.5592C19.3089 38.5592 18.8162 38.69 18.3633 38.9496C17.9123 39.2092 17.5466 39.5901 17.2661 40.0885C16.9857 40.5887 16.8454 41.18 16.8454 41.8641C16.8454 42.5482 16.9857 43.147 17.2661 43.6605C17.5466 44.1741 17.9161 44.5663 18.3747 44.8411C18.8333 45.114 19.3222 45.2523 19.8414 45.2523C20.3606 45.2523 20.8742 45.1197 21.3384 44.8525C21.8027 44.5853 22.1722 44.2025 22.447 43.7041C22.7199 43.2057 22.8582 42.6069 22.8582 41.9096C22.8582 41.2122 22.7218 40.6134 22.447 40.1131V40.1074Z" fill="white"/>
<path id="Vector_3" d="M31.9087 38.5782V44.0774C31.9087 44.4602 32.0016 44.7369 32.1854 44.9093C32.3692 45.0798 32.6819 45.1651 33.1196 45.1651H34.4537V47.5869H32.6478C30.226 47.5869 29.0151 46.4101 29.0151 44.0566V38.5782H27.6602V36.2189H29.0151V33.4067H31.9087V36.2189H34.4537V38.5782H31.9087Z" fill="white"/>
<path id="Vector_4" d="M36.473 38.8037C36.9316 37.9149 37.5531 37.2308 38.3395 36.7514C39.126 36.272 40.0052 36.0332 40.9755 36.0332C41.8244 36.0332 42.5654 36.2038 43.2021 36.5467C43.8388 36.8897 44.3485 37.3199 44.7313 37.8391V36.217H47.625V47.585H44.7313V45.9231C44.3618 46.4575 43.8521 46.8972 43.2021 47.2458C42.5521 47.5945 41.8036 47.7689 40.9546 47.7689C39.9977 47.7689 39.1241 47.5225 38.3376 47.0298C37.5512 46.5371 36.9278 45.8435 36.4711 44.9472C36.0125 44.0509 35.7832 43.0219 35.7832 41.8584C35.7832 40.6949 36.0125 39.6905 36.4711 38.8018L36.473 38.8037ZM44.322 40.1074C44.0491 39.609 43.6796 39.2244 43.2134 38.9591C42.7492 38.6919 42.2489 38.5592 41.7164 38.5592C41.1839 38.5592 40.6912 38.69 40.2383 38.9496C39.7873 39.2092 39.4216 39.5901 39.1411 40.0885C38.8607 40.5887 38.7204 41.18 38.7204 41.8641C38.7204 42.5482 38.8607 43.147 39.1411 43.6605C39.4216 44.1741 39.7911 44.5663 40.2497 44.8411C40.7083 45.114 41.1972 45.2523 41.7164 45.2523C42.2356 45.2523 42.7492 45.1197 43.2134 44.8525C43.6777 44.5853 44.0472 44.2025 44.322 43.7041C44.5949 43.2057 44.7332 42.6069 44.7332 41.9096C44.7332 41.2122 44.5968 40.6134 44.322 40.1131V40.1074Z" fill="white"/>
<path id="Vector_5" d="M74.803 38.8037C75.2616 37.9149 75.8832 37.2308 76.6696 36.7514C77.456 36.272 78.3353 36.0332 79.3055 36.0332C80.1545 36.0332 80.8954 36.2038 81.5321 36.5467C82.1689 36.8897 82.6786 37.3199 83.0614 37.8391V36.217H85.955V47.585H83.0614V45.9231C82.6919 46.4575 82.1821 46.8972 81.5321 47.2458C80.8822 47.5945 80.1336 47.7689 79.2847 47.7689C78.3277 47.7689 77.4541 47.5225 76.6677 47.0298C75.8813 46.5371 75.2579 45.8435 74.8012 44.9472C74.3426 44.0509 74.1133 43.0219 74.1133 41.8584C74.1133 40.6949 74.3426 39.6905 74.8012 38.8018L74.803 38.8037ZM82.6521 40.1074C82.3792 39.609 82.0097 39.2244 81.5435 38.9591C81.0792 38.6919 80.579 38.5592 80.0465 38.5592C79.514 38.5592 79.0213 38.69 78.5684 38.9496C78.1174 39.2092 77.7516 39.5901 77.4712 40.0885C77.1907 40.5887 77.0505 41.18 77.0505 41.8641C77.0505 42.5482 77.1907 43.147 77.4712 43.6605C77.7516 44.1741 78.1212 44.5663 78.5798 44.8411C79.0384 45.114 79.5273 45.2523 80.0465 45.2523C80.5657 45.2523 81.0792 45.1197 81.5435 44.8525C82.0078 44.5853 82.3773 44.2025 82.6521 43.7041C82.925 43.2057 83.0633 42.6069 83.0633 41.9096C83.0633 41.2122 82.9269 40.6134 82.6521 40.1131V40.1074Z" fill="white"/>
<path id="Vector_6" d="M113.904 42.7642H105.592C105.66 43.5848 105.949 44.2291 106.454 44.6933C106.96 45.1576 107.584 45.3907 108.321 45.3907C109.388 45.3907 110.148 44.9321 110.599 44.0149H113.697C113.369 45.1102 112.74 46.0085 111.81 46.7134C110.879 47.4183 109.737 47.7708 108.384 47.7708C107.288 47.7708 106.307 47.5282 105.439 47.0431C104.569 46.558 103.892 45.8701 103.407 44.9814C102.922 44.0926 102.68 43.0656 102.68 41.9039C102.68 40.7423 102.918 39.6944 103.398 38.8056C103.877 37.9169 104.546 37.2328 105.408 36.7534C106.271 36.2739 107.262 36.0352 108.384 36.0352C109.505 36.0352 110.432 36.2682 111.287 36.7325C112.141 37.1987 112.805 37.8581 113.276 38.7128C113.748 39.5674 113.985 40.549 113.985 41.6576C113.985 42.0688 113.957 42.4364 113.904 42.7661V42.7642ZM111.01 40.8352C110.997 40.0961 110.73 39.5049 110.21 39.0596C109.691 38.6142 109.054 38.3925 108.302 38.3925C107.591 38.3925 106.993 38.6085 106.506 39.0387C106.021 39.4689 105.723 40.0677 105.613 40.8352H111.01Z" fill="white"/>
</g>
<path id="Vector_7" d="M72.5381 36.1847C71.4277 36.2094 70.4934 36.92 69.7601 38.2977C69.2598 39.2376 68.8884 40.3992 68.5283 41.5229C67.8518 43.6396 67.38 44.7217 67.1279 44.7349C66.8759 44.7198 66.404 43.6396 65.7294 41.5286C65.3694 40.403 64.998 39.2376 64.4958 38.2977C64.0524 37.4639 63.5597 36.8973 62.9931 36.5637C62.1062 36.0426 60.7835 36.035 59.9365 36.2965C59.1254 36.5486 58.4224 37.2213 57.8482 38.2977C57.3479 39.2376 56.9765 40.3992 56.6164 41.5229C55.9399 43.6396 55.4681 44.7217 55.216 44.7349C54.964 44.7198 54.4922 43.6396 53.8175 41.5286C53.4575 40.403 53.0861 39.2376 52.5839 38.2977C51.8354 36.8954 50.8822 36.1828 49.7471 36.1828H48.7617V39.4024L48.9342 39.4403C49.0251 39.4612 49.118 39.4763 49.2108 39.4915C49.5292 39.5464 49.8059 39.5919 50.0048 39.8326C50.2019 40.0676 50.327 40.3916 50.4483 40.7024C50.4748 40.7687 50.4994 40.835 50.526 40.8995C50.7647 41.4888 50.9637 42.0914 51.1437 42.6523C51.5038 43.778 51.8752 44.9434 52.3774 45.8833C53.1259 47.2856 54.0791 47.9981 55.2142 47.9981C56.3492 47.9981 57.3043 47.2875 58.0509 45.8833C58.5512 44.9453 58.9226 43.7817 59.2846 42.6542C59.3263 42.5216 59.368 42.3889 59.4096 42.2563C59.5859 41.6916 59.7697 41.106 60.0123 40.5716C60.1923 40.1718 60.5902 39.5048 61.1966 39.5351C61.6685 39.5559 62.074 40.0031 62.4378 40.9014C62.6766 41.4926 62.8756 42.0933 63.0556 42.6542C63.4157 43.7798 63.7871 44.9453 64.2892 45.8852C65.0378 47.2875 65.9909 48 67.126 48C68.2611 48 69.2162 47.2894 69.9628 45.8852C70.4631 44.9453 70.8364 43.7817 71.1965 42.6561C71.24 42.5235 71.2817 42.3889 71.3234 42.2544C71.4997 41.6897 71.6816 41.1079 71.9241 40.5735C72.4074 39.5067 73.317 39.4403 73.3549 39.4384L73.5671 39.429V36.1847H72.5362H72.5381Z" fill="white"/>
<path id="Vector_8" d="M100.012 40.3727C99.6466 41.053 99.3984 41.7883 99.1255 42.5065C98.6953 43.6397 98.25 44.8089 97.6588 45.745C96.8079 47.0886 95.7411 47.7708 94.4847 47.7708C93.2283 47.7708 92.1614 47.0886 91.3106 45.745C90.7174 44.8089 90.274 43.6378 89.842 42.5046C89.6127 41.9001 89.3739 41.2975 89.0915 40.7138C88.9058 40.3292 88.7391 39.8952 88.4245 39.5769C88.0417 39.1903 87.4979 39.1979 86.9824 39.1012V36.217H87.8977C89.1522 36.217 90.221 36.8992 91.0718 38.2428C91.6649 39.1789 92.1084 40.35 92.5404 41.4851C93.3382 43.5847 93.9427 44.8866 94.4828 44.8866C95.0229 44.8866 95.6293 43.5847 96.4289 41.4794C96.8591 40.3481 97.3025 39.1789 97.8957 38.2428C98.7313 36.922 99.7774 36.2417 101.005 36.2189H101.968V39.0917C101.968 39.0917 100.672 39.1448 100.01 40.3709L100.012 40.3727Z" fill="white"/>
</g>
<g id="Group_4">
<path id="Vector_9" d="M57.0112 21.0097C57.0548 21.0097 57.0984 21.0097 57.1401 21.0078C57.1837 21.0078 57.2254 21.0059 57.2689 21.0021C57.3087 21.0002 57.3485 20.9964 57.3883 20.9926C57.4338 20.987 57.4774 20.9832 57.5229 20.9775C57.5551 20.9737 57.5892 20.9699 57.6233 20.9642C57.665 20.9585 57.7048 20.9528 57.7446 20.9453C57.7597 20.9434 57.7749 20.9396 57.7901 20.9358C57.8337 20.9263 57.8753 20.9187 57.9189 20.9093C57.9511 20.9017 57.9834 20.8941 58.0156 20.8865C58.08 20.8714 58.1444 20.8543 58.207 20.8335C58.2354 20.824 58.2638 20.8164 58.2903 20.8069C58.3112 20.8012 58.3301 20.7956 58.3491 20.788C58.3775 20.7766 58.4078 20.7671 58.4363 20.7558C58.4571 20.7482 58.4779 20.7406 58.4969 20.733C58.5083 20.7273 58.5196 20.7236 58.531 20.7198C58.5765 20.7008 58.622 20.6819 58.6674 20.6629C58.7338 20.6345 58.8001 20.6023 58.8645 20.5701C58.8873 20.5587 58.9081 20.5473 58.9309 20.536C58.9669 20.517 59.0029 20.4981 59.0389 20.4772C59.0843 20.4507 59.1317 20.4241 59.1772 20.3957C59.2113 20.3749 59.2435 20.354 59.2776 20.3332C59.3136 20.3086 59.3515 20.2839 59.3875 20.2593C59.5335 20.1589 59.6718 20.047 59.8025 19.9277C59.8727 19.8613 59.9428 19.795 60.011 19.7249C60.011 19.7249 60.0129 19.723 60.0148 19.7192C60.0603 19.6718 60.1057 19.6207 60.1493 19.5714C60.1721 19.5449 60.1929 19.5221 60.2138 19.4956C60.2517 19.4501 60.2877 19.4046 60.3237 19.3573C60.3294 19.3516 60.3331 19.3459 60.3369 19.3383C60.3578 19.3118 60.3767 19.2853 60.3957 19.2568C60.4165 19.2303 60.4355 19.2019 60.4525 19.1754C60.5094 19.092 60.5624 19.0067 60.6117 18.9195C60.6288 18.8911 60.6439 18.8627 60.661 18.8324C60.6932 18.7717 60.7254 18.713 60.7519 18.6523C60.7671 18.622 60.7804 18.5917 60.7955 18.5614C60.8107 18.5311 60.8239 18.5007 60.8353 18.4704C60.8618 18.4079 60.8884 18.3453 60.9092 18.2809C60.9206 18.2487 60.932 18.2165 60.9433 18.1862C60.9547 18.154 60.9661 18.1217 60.9755 18.0895C60.9869 18.0573 60.9964 18.0232 61.004 17.991C61.0134 17.9588 61.0229 17.9247 61.0305 17.8924C61.04 17.8602 61.0475 17.8261 61.0551 17.7939C61.0646 17.7617 61.0703 17.7276 61.0779 17.6935C61.0854 17.6613 61.0911 17.6271 61.0968 17.593C61.1025 17.5589 61.1082 17.5248 61.1139 17.4907C61.1196 17.4547 61.1252 17.4206 61.129 17.3865C61.129 17.3846 61.129 17.3808 61.129 17.3789C61.1328 17.3467 61.1366 17.3145 61.1385 17.2823C61.1423 17.25 61.1461 17.2178 61.148 17.1837C61.1537 17.1477 61.1556 17.1098 61.1575 17.0719H56.8881V12.7078C56.8464 12.7078 56.8066 12.7097 56.7668 12.7134C56.7402 12.7134 56.7156 12.7153 56.6891 12.7191C56.655 12.721 56.6228 12.7248 56.5886 12.7286C56.5545 12.7305 56.5223 12.7343 56.4882 12.74C56.4143 12.7495 56.3423 12.7589 56.2684 12.7741C56.204 12.7855 56.1395 12.7987 56.077 12.8139C56.0448 12.8215 56.0107 12.829 55.9766 12.8385L55.95 12.8461C55.897 12.8594 55.8458 12.8745 55.7947 12.8897C55.7909 12.8897 55.7852 12.8916 55.7833 12.8935C55.7833 12.8935 55.7814 12.8935 55.7795 12.8935C55.7473 12.9029 55.7151 12.9143 55.6828 12.9257C55.6184 12.9484 55.554 12.9712 55.4915 12.9958C55.4592 13.0072 55.4289 13.0223 55.3967 13.0356C55.3095 13.0716 55.2224 13.1133 55.1371 13.155C55.1314 13.1569 55.1276 13.1607 55.1238 13.1626C55.0708 13.191 55.0158 13.2194 54.9646 13.2497C54.959 13.2516 54.9533 13.2554 54.9476 13.2592C54.9192 13.2744 54.8907 13.2914 54.8623 13.3104C54.8396 13.3217 54.8187 13.3369 54.796 13.3502C54.7865 13.3558 54.7808 13.3596 54.7714 13.3653C54.7448 13.3805 54.7183 13.3975 54.6937 13.4165C54.6368 13.4525 54.5819 13.4923 54.5288 13.534C54.5023 13.5529 54.4757 13.5738 54.4511 13.5946C54.4246 13.6136 54.3999 13.6344 54.3734 13.6572C54.3469 13.6799 54.3222 13.7007 54.2957 13.7216C54.2711 13.7424 54.2464 13.7652 54.2218 13.7879C54.1972 13.8106 54.1725 13.8334 54.1479 13.8561C54.1252 13.8789 54.1005 13.9016 54.0778 13.9262C54.0532 13.949 54.0304 13.9736 54.0077 13.9964C53.9849 14.021 53.9622 14.0456 53.9395 14.0703C53.8731 14.1442 53.8068 14.22 53.7462 14.2977C53.7253 14.3242 53.7064 14.3507 53.6855 14.3772L53.6268 14.4587C53.6078 14.4834 53.5908 14.508 53.5737 14.5345C53.5737 14.5364 53.5718 14.5383 53.568 14.5402C53.5434 14.5762 53.5188 14.6141 53.4941 14.652C53.4657 14.6994 53.4373 14.7468 53.4089 14.7941C53.3918 14.8226 53.3766 14.851 53.3596 14.8813C53.3274 14.9401 53.2971 14.9988 53.2686 15.0613C53.2535 15.0917 53.2402 15.122 53.225 15.1523C53.2156 15.1712 53.208 15.1883 53.2004 15.2073C53.1909 15.23 53.1815 15.2508 53.172 15.2717C53.1492 15.3247 53.1284 15.3778 53.1095 15.4328C53.0981 15.465 53.0867 15.4972 53.0753 15.5275C53.0659 15.554 53.0564 15.5825 53.0488 15.609C53.0374 15.6469 53.0261 15.6848 53.0147 15.7227C53.0052 15.7549 52.9958 15.789 52.9882 15.8212C52.9787 15.861 52.9692 15.8989 52.9597 15.9387C52.9522 15.9709 52.9446 16.005 52.9389 16.0373C52.8858 16.3026 52.8574 16.5773 52.8574 16.8578C52.8574 19.145 54.7183 21.0078 57.0074 21.0078L57.0112 21.0097Z" fill="#94D6FF"/>
<path id="Vector_10" d="M56.8678 17.091V12.7439C56.8261 12.7439 56.7863 12.7458 56.7465 12.7496C56.7219 12.7496 56.6954 12.7515 56.6707 12.7553C56.6366 12.7572 56.6044 12.761 56.5722 12.7647C56.5381 12.7666 56.5059 12.7704 56.4718 12.7761C56.3979 12.7837 56.3259 12.7951 56.2538 12.8102C56.1894 12.8216 56.1269 12.8349 56.0643 12.85C56.0321 12.8576 55.998 12.8652 55.9658 12.8747L55.9412 12.8822C55.8881 12.8955 55.8388 12.9107 55.7877 12.9258C55.7839 12.9258 55.7801 12.9277 55.7763 12.9296C55.7763 12.9296 55.7744 12.9296 55.7725 12.9296C55.7403 12.9391 55.7081 12.9504 55.6759 12.9618C55.6114 12.9846 55.5489 13.0073 55.4864 13.0319C55.4542 13.0433 55.4238 13.0566 55.3935 13.0717C55.3064 13.1077 55.2192 13.1475 55.1358 13.1911C55.1301 13.193 55.1282 13.1968 55.1225 13.1987C55.0695 13.2271 55.0164 13.2555 54.9634 13.2859C54.9577 13.2878 54.952 13.2915 54.9463 13.2953C54.9179 13.3105 54.8895 13.3276 54.861 13.3465C54.8383 13.3579 54.8175 13.3711 54.7947 13.3863C54.7871 13.392 54.7796 13.3958 54.7701 13.4015C54.7435 13.4166 54.717 13.4337 54.6924 13.4526C54.6374 13.4886 54.5825 13.5284 54.5294 13.5701C54.5029 13.5891 54.4763 13.6099 54.4517 13.6289C54.4271 13.6478 54.4006 13.6686 54.3759 13.6914C54.3513 13.7141 54.3248 13.7331 54.3001 13.7558C54.2755 13.7767 54.2509 13.7975 54.2262 13.8221C54.2016 13.8468 54.1769 13.8676 54.1542 13.8904C54.1315 13.9131 54.1068 13.9358 54.0841 13.9605C54.0595 13.9832 54.0367 14.0079 54.0159 14.0306C53.9931 14.0552 53.9704 14.0799 53.9477 14.1045C53.8813 14.1784 53.8169 14.2542 53.7563 14.3319C53.7354 14.3565 53.7165 14.385 53.6956 14.4115L53.6369 14.4911C53.6179 14.5157 53.6009 14.5403 53.5838 14.5669C53.5838 14.5688 53.5819 14.5707 53.5781 14.5726C53.5535 14.6086 53.5289 14.6465 53.5061 14.6844C53.4777 14.7317 53.4493 14.7791 53.4208 14.8265C53.4038 14.8549 53.3886 14.8833 53.3716 14.9137C53.3394 14.9724 53.309 15.0311 53.2806 15.0918C53.2655 15.1221 53.2522 15.1524 53.2389 15.1827C53.2313 15.2017 53.2219 15.2187 53.2143 15.2377C53.2048 15.2604 53.1953 15.2794 53.1859 15.3021C53.1631 15.3552 53.1442 15.4082 53.1233 15.4632C53.112 15.4954 53.1006 15.5257 53.0892 15.5579C53.0797 15.5845 53.0703 15.6129 53.0627 15.6394C53.0513 15.6773 53.04 15.7152 53.0286 15.7531C53.0191 15.7853 53.0096 15.8195 53.0021 15.8517C52.9926 15.8915 52.9831 15.9275 52.9736 15.9692C52.966 16.0014 52.9585 16.0355 52.9528 16.0677C52.8997 16.3311 52.8315 16.7177 52.8713 17.0986" fill="url(#paint0_linear_461_23462)"/>
<path id="Vector_11" d="M56.9913 29.5087C63.8834 29.5087 69.5058 23.9564 69.6195 17.0909C69.6214 17.0208 69.6214 16.9488 69.6214 16.8767V0C67.6051 0 65.9167 1.40608 65.4846 3.29159C65.4145 3.59858 65.3766 3.91694 65.3766 4.24477V16.8767C65.3766 21.5005 61.6151 25.264 56.9894 25.264C52.3637 25.264 48.6022 21.5005 48.6022 16.8767C48.6022 12.2928 52.2974 8.55586 56.8662 8.48954C56.8662 6.67224 58.007 5.12404 59.6083 4.51765C58.7631 4.33762 57.8876 4.24287 56.9894 4.24287C50.0234 4.24287 44.3574 9.90888 44.3574 16.8749C44.3574 23.8389 50.0234 29.5049 56.9894 29.5049L56.9913 29.5087Z" fill="white"/>
<path id="Vector_12" d="M48.6041 16.8765C48.6041 12.2926 52.2994 8.55566 56.8682 8.48934C56.8682 6.67205 58.009 5.12384 59.6102 4.51745C58.7651 4.33742 57.8896 4.24268 56.9914 4.24268C50.0254 4.24268 44.3594 9.90868 44.3594 16.8747" fill="url(#paint1_linear_461_23462)"/>
<path id="Vector_13" d="M56.9906 25.264C61.6163 25.264 65.3778 21.5005 65.3778 16.8767C65.3778 16.7327 65.374 16.5887 65.3664 16.4466V0C64.2105 0 63.1588 0.464271 62.3932 1.21658C61.6087 1.98595 61.1217 3.05851 61.1217 4.24477V16.8767C61.1217 19.1583 59.2722 21.0078 56.9906 21.0078C54.709 21.0078 52.8576 19.1564 52.8576 16.8767C52.8576 16.5546 52.8936 16.2438 52.9638 15.9425C52.9789 15.8838 52.9922 15.8231 53.0092 15.7644C53.0168 15.7322 53.0282 15.7 53.0377 15.6677C53.0661 15.5711 53.1002 15.4782 53.1343 15.3873C53.1457 15.357 53.1589 15.3248 53.1722 15.2944C53.2347 15.1409 53.3068 14.9931 53.3863 14.851C53.4015 14.8226 53.4186 14.7942 53.4356 14.7657C53.4508 14.7373 53.4678 14.7108 53.4868 14.6824C53.5114 14.6426 53.536 14.6028 53.5626 14.5649C53.591 14.5232 53.6194 14.4815 53.6497 14.4398C53.7255 14.3337 53.8089 14.2332 53.8942 14.1366C53.915 14.112 53.9359 14.0873 53.9605 14.0646C53.9833 14.04 54.0079 14.0134 54.0325 13.9888C54.042 13.9774 54.0515 13.9679 54.0629 13.9566C54.0723 13.9452 54.0856 13.9338 54.0951 13.9244C54.1178 13.9016 54.1405 13.8789 54.1652 13.858C54.1879 13.8353 54.2126 13.8126 54.2372 13.7917C54.4513 13.6022 54.6825 13.4336 54.9327 13.2914C54.9914 13.2573 55.0482 13.2251 55.1089 13.1948C55.1335 13.1815 55.1582 13.1702 55.1828 13.1588C55.2188 13.1398 55.2529 13.1228 55.2889 13.1076C55.3192 13.0925 55.3495 13.0792 55.3799 13.0678C55.3837 13.0678 55.3874 13.064 55.3912 13.0621C55.4803 13.0242 55.5713 12.9901 55.6641 12.9598C55.9256 12.8707 56.1966 12.8101 56.4771 12.7741C56.5661 12.7627 56.6571 12.7533 56.748 12.7495C56.7859 12.7476 56.8257 12.7438 56.8636 12.7438V8.48954C52.2948 8.55586 48.5996 12.2928 48.5996 16.8767C48.5996 21.5005 52.363 25.264 56.9868 25.264H56.9906Z" fill="#CFEFFF"/>
<path id="Vector_14" d="M56.9906 21.0097C54.709 21.0097 52.8576 19.1583 52.8576 16.8787C52.8576 16.5565 52.8936 16.2457 52.9638 15.9444C52.9789 15.8857 52.9922 15.8251 53.0092 15.7663C53.0168 15.7341 53.0282 15.7019 53.0377 15.6697C53.0661 15.573 53.1002 15.4802 53.1343 15.3892C53.1457 15.3589 53.1589 15.3267 53.1722 15.2964C53.2347 15.1429 53.3068 14.995 53.3863 14.8529C53.4015 14.8245 53.4186 14.7961 53.4356 14.7676C53.4508 14.7392 53.4678 14.7127 53.4868 14.6843C53.5114 14.6445 53.536 14.6047 53.5626 14.5668C53.591 14.5251 53.6194 14.4834 53.6497 14.4417C53.7255 14.3356 53.8089 14.2352 53.8942 14.1385C53.915 14.1139 53.9359 14.0892 53.9605 14.0665C53.9833 14.0419 54.0079 14.0153 54.0325 13.9907C54.042 13.9793 54.0515 13.9699 54.0629 13.9585C54.0723 13.9471 54.0856 13.9357 54.0951 13.9263C54.1178 13.9035 54.1405 13.8808 54.1652 13.86C54.1879 13.8372 54.2126 13.8145 54.2372 13.7936C54.4513 13.6041 54.6825 13.4355 54.9327 13.2933C54.9914 13.2592 55.0482 13.227 55.1089 13.1967C55.1335 13.1834 55.1582 13.1721 55.1828 13.1607C55.2188 13.1418 55.2529 13.1247 55.2889 13.1095C55.3192 13.0944 55.3496 13.0811 55.3799 13.0697C55.3837 13.0697 55.3875 13.066 55.3912 13.0641C55.4803 13.0262 55.5713 12.992 55.6641 12.9617C55.9256 12.8727 56.1966 12.812 56.4771 12.776C56.5661 12.7646 56.6571 12.7552 56.7481 12.7514C56.786 12.7495 56.8257 12.7457 56.8636 12.7457V8.49146C52.2948 8.55778 48.5996 12.2947 48.5996 16.8787C48.5996 21.5024 52.363 25.2659 56.9868 25.2659" fill="url(#paint2_linear_461_23462)"/>
<path id="Vector_15" d="M56.8672 17.0909H61.1082C61.1082 17.0549 61.1101 17.0189 61.112 16.9848V0.00195312C60.5833 0.00195312 60.0754 0.0985968 59.6092 0.276726C58.008 0.883121 56.8672 2.43132 56.8672 4.24672V17.0928V17.0909Z" fill="#94D6FF"/>
</g>
</g>
<defs>
<linearGradient id="paint0_linear_461_23462" x1="54.1087" y1="14.9174" x2="57.5709" y2="14.9174" gradientUnits="userSpaceOnUse">
<stop stop-color="#3FD0FF" stop-opacity="0"/>
<stop offset="1" stop-color="#45BFF1"/>
</linearGradient>
<linearGradient id="paint1_linear_461_23462" x1="49.8302" y1="11.0419" x2="62.3333" y2="8.45523" gradientUnits="userSpaceOnUse">
<stop stop-color="white"/>
<stop offset="0.8" stop-color="#3FAEFF"/>
</linearGradient>
<linearGradient id="paint2_linear_461_23462" x1="55.5807" y1="17.1023" x2="62.8745" y2="13.6875" gradientUnits="userSpaceOnUse">
<stop stop-color="#CFEFFF"/>
<stop offset="1" stop-color="#1A8BE0"/>
</linearGradient>
</defs>
</svg>
