<svg width="123" height="25" viewBox="0 0 123 25" fill="none" xmlns="http://www.w3.org/2000/svg">
<path d="M10.5455 17.5081C10.5818 17.5081 10.6181 17.5081 10.6529 17.5065C10.6892 17.5065 10.7239 17.505 10.7603 17.5018C10.7934 17.5002 10.8266 17.4971 10.8597 17.4939C10.8976 17.4892 10.934 17.486 10.9719 17.4813C10.9987 17.4781 11.0271 17.475 11.0556 17.4702C11.0903 17.4655 11.1235 17.4607 11.1566 17.4544C11.1693 17.4529 11.1819 17.4497 11.1945 17.4465C11.2308 17.4386 11.2656 17.4323 11.3019 17.4244C11.3288 17.4181 11.3556 17.4118 11.3824 17.4055C11.4361 17.3928 11.4898 17.3786 11.5419 17.3613C11.5656 17.3534 11.5893 17.347 11.6114 17.3392C11.6288 17.3344 11.6446 17.3297 11.6604 17.3234C11.6841 17.3139 11.7093 17.306 11.733 17.2965C11.7504 17.2902 11.7678 17.2839 11.7835 17.2776C11.793 17.2728 11.8025 17.2697 11.812 17.2665C11.8499 17.2507 11.8878 17.2349 11.9257 17.2191C11.9809 17.1955 12.0362 17.1686 12.0899 17.1418C12.1089 17.1323 12.1262 17.1228 12.1452 17.1133C12.1752 17.0975 12.2052 17.0818 12.2352 17.0644C12.2731 17.0423 12.3126 17.0202 12.3505 16.9965C12.3789 16.9791 12.4057 16.9617 12.4342 16.9444C12.4642 16.9238 12.4957 16.9033 12.5258 16.8828C12.6473 16.7991 12.7626 16.7059 12.8716 16.6064C12.93 16.5512 12.9884 16.4959 13.0453 16.4375C13.0453 16.4375 13.0469 16.4359 13.0485 16.4327C13.0864 16.3932 13.1243 16.3506 13.1606 16.3095C13.1795 16.2874 13.1969 16.2685 13.2143 16.2464C13.2458 16.2085 13.2759 16.1706 13.3059 16.1311C13.3106 16.1264 13.3138 16.1216 13.3169 16.1153C13.3343 16.0932 13.3501 16.0711 13.3659 16.0474C13.3832 16.0253 13.399 16.0016 13.4132 15.9795C13.4606 15.91 13.5048 15.839 13.5459 15.7663C13.5601 15.7426 13.5727 15.7189 13.5869 15.6937C13.6138 15.6431 13.6406 15.5942 13.6627 15.5437C13.6754 15.5184 13.6864 15.4931 13.6991 15.4679C13.7117 15.4426 13.7228 15.4173 13.7322 15.3921C13.7543 15.3399 13.7764 15.2878 13.7938 15.2341C13.8033 15.2073 13.8128 15.1804 13.8222 15.1552C13.8317 15.1283 13.8412 15.1015 13.8491 15.0746C13.8586 15.0478 13.8665 15.0194 13.8728 14.9925C13.8807 14.9657 13.8886 14.9373 13.8949 14.9104C13.9028 14.8836 13.9091 14.8551 13.9154 14.8283C13.9233 14.8015 13.928 14.773 13.9344 14.7446C13.9407 14.7178 13.9454 14.6893 13.9501 14.6609C13.9549 14.6325 13.9596 14.6041 13.9644 14.5756C13.9691 14.5456 13.9738 14.5172 13.977 14.4888C13.977 14.4872 13.977 14.484 13.977 14.4825C13.9802 14.4556 13.9833 14.4288 13.9849 14.4019C13.988 14.3751 13.9912 14.3482 13.9928 14.3198C13.9975 14.2898 13.9991 14.2582 14.0007 14.2266H10.4428V10.5898C10.4081 10.5898 10.3749 10.5914 10.3418 10.5946C10.3197 10.5946 10.2991 10.5962 10.277 10.5993C10.2486 10.6009 10.2218 10.6041 10.1933 10.6072C10.1649 10.6088 10.1381 10.612 10.1096 10.6167C10.0481 10.6246 9.98805 10.6325 9.92646 10.6451C9.87277 10.6546 9.81908 10.6656 9.76697 10.6783C9.74012 10.6846 9.7117 10.6909 9.68327 10.6988L9.66116 10.7051C9.61695 10.7162 9.57431 10.7288 9.53168 10.7414C9.52852 10.7414 9.52378 10.743 9.5222 10.7446C9.5222 10.7446 9.52062 10.7446 9.51904 10.7446C9.49219 10.7525 9.46535 10.762 9.4385 10.7714C9.38481 10.7904 9.33112 10.8093 9.27901 10.8299C9.25216 10.8394 9.2269 10.852 9.20005 10.863C9.12741 10.893 9.05477 10.9278 8.98371 10.9625C8.97897 10.9641 8.97581 10.9673 8.97265 10.9688C8.92844 10.9925 8.88264 11.0162 8.84 11.0415C8.83527 11.0431 8.83053 11.0462 8.82579 11.0494C8.80211 11.062 8.77842 11.0762 8.75473 11.092C8.73578 11.1015 8.71841 11.1141 8.69946 11.1252C8.69156 11.1299 8.68682 11.1331 8.67893 11.1378C8.65682 11.1504 8.63471 11.1647 8.61418 11.1804C8.56681 11.2105 8.52101 11.2436 8.4768 11.2784C8.45469 11.2941 8.43258 11.3115 8.41205 11.3289C8.38994 11.3447 8.36942 11.362 8.34731 11.381C8.3252 11.3999 8.30467 11.4173 8.28256 11.4347C8.26203 11.4521 8.2415 11.471 8.22097 11.49C8.20044 11.5089 8.17992 11.5279 8.15939 11.5468C8.14044 11.5658 8.11991 11.5847 8.10096 11.6052C8.08043 11.6242 8.06148 11.6447 8.04253 11.6637C8.02358 11.6842 8.00463 11.7047 7.98568 11.7253C7.93041 11.7868 7.87514 11.85 7.8246 11.9148C7.80723 11.9369 7.79145 11.959 7.77407 11.9811L7.72512 12.049C7.70933 12.0695 7.69512 12.09 7.68091 12.1121C7.68091 12.1137 7.67933 12.1153 7.67617 12.1169C7.65564 12.1469 7.63511 12.1785 7.61458 12.2101C7.59089 12.2495 7.5672 12.289 7.54351 12.3285C7.5293 12.3522 7.51667 12.3759 7.50246 12.4011C7.47561 12.4501 7.45035 12.499 7.42666 12.5512C7.41403 12.5764 7.40297 12.6017 7.39034 12.627C7.38244 12.6427 7.37613 12.657 7.36981 12.6727C7.36192 12.6917 7.35402 12.7091 7.34612 12.7264C7.32717 12.7707 7.3098 12.8149 7.29401 12.8607C7.28454 12.8875 7.27506 12.9144 7.26559 12.9396C7.25769 12.9617 7.24979 12.9854 7.24348 13.0075C7.234 13.0391 7.22453 13.0707 7.21505 13.1023C7.20716 13.1291 7.19926 13.1575 7.19294 13.1844C7.18505 13.2176 7.17715 13.2491 7.16926 13.2823C7.16294 13.3091 7.15662 13.3376 7.15189 13.3644C7.10767 13.5855 7.08398 13.8145 7.08398 14.0482C7.08398 15.9542 8.63471 17.5065 10.5423 17.5065L10.5455 17.5081Z" fill="#94D6FF"/>
<path d="M10.4263 14.2425V10.6199C10.3916 10.6199 10.3584 10.6215 10.3252 10.6246C10.3047 10.6246 10.2826 10.6262 10.2621 10.6293C10.2337 10.6309 10.2068 10.6341 10.18 10.6372C10.1515 10.6388 10.1247 10.642 10.0963 10.6467C10.0347 10.653 9.97467 10.6625 9.91466 10.6751C9.86097 10.6846 9.80886 10.6957 9.75675 10.7083C9.7299 10.7146 9.70148 10.7209 9.67463 10.7288L9.65411 10.7352C9.60989 10.7462 9.56883 10.7588 9.52619 10.7715C9.52304 10.7715 9.51988 10.7731 9.51672 10.7746C9.51672 10.7746 9.51514 10.7746 9.51356 10.7746C9.48671 10.7825 9.45987 10.792 9.43302 10.8015C9.37933 10.8204 9.32722 10.8394 9.27511 10.8599C9.24826 10.8694 9.22299 10.8804 9.19773 10.8931C9.12509 10.9231 9.05245 10.9562 8.98296 10.9926C8.97823 10.9941 8.97665 10.9973 8.97191 10.9989C8.92769 11.0226 8.88348 11.0462 8.83926 11.0715C8.83452 11.0731 8.82979 11.0762 8.82505 11.0794C8.80136 11.092 8.77767 11.1063 8.75398 11.122C8.73503 11.1315 8.71767 11.1426 8.69872 11.1552C8.6924 11.1599 8.68608 11.1631 8.67819 11.1678C8.65608 11.1805 8.63397 11.1947 8.61344 11.2105C8.56765 11.2405 8.52185 11.2736 8.47763 11.3084C8.45552 11.3242 8.43342 11.3415 8.41289 11.3573C8.39236 11.3731 8.37025 11.3905 8.34972 11.4095C8.32919 11.4284 8.30709 11.4442 8.28656 11.4631C8.26603 11.4805 8.2455 11.4979 8.22497 11.5184C8.20444 11.5389 8.18391 11.5563 8.16496 11.5753C8.14601 11.5942 8.12548 11.6132 8.10653 11.6337C8.08601 11.6526 8.06705 11.6732 8.04968 11.6921C8.03073 11.7126 8.01179 11.7332 7.99284 11.7537C7.93756 11.8153 7.88387 11.8785 7.83334 11.9432C7.81597 11.9637 7.80018 11.9874 7.78281 12.0095L7.73385 12.0759C7.71806 12.0964 7.70385 12.1169 7.68964 12.139C7.68964 12.1406 7.68806 12.1422 7.6849 12.1438C7.66437 12.1738 7.64384 12.2053 7.62489 12.2369C7.6012 12.2764 7.57752 12.3159 7.55383 12.3554C7.53962 12.3791 7.52698 12.4027 7.51277 12.428C7.48593 12.477 7.46066 12.5259 7.43697 12.5764C7.42434 12.6017 7.41328 12.627 7.40223 12.6522C7.39591 12.668 7.38801 12.6822 7.3817 12.698C7.3738 12.717 7.36591 12.7328 7.35801 12.7517C7.33906 12.7959 7.32327 12.8402 7.3059 12.886C7.29643 12.9128 7.28695 12.9381 7.27748 12.9649C7.26958 12.987 7.26168 13.0107 7.25537 13.0328C7.24589 13.0644 7.23642 13.096 7.22694 13.1276C7.21905 13.1544 7.21115 13.1828 7.20483 13.2097C7.19694 13.2428 7.18904 13.2729 7.18115 13.3076C7.17483 13.3344 7.16852 13.3629 7.16378 13.3897C7.11956 13.6092 7.06271 13.9314 7.09587 14.2488" fill="url(#paint0_linear_903_6347)"/>
<path d="M10.5282 24.5906C16.2716 24.5906 20.957 19.9637 21.0517 14.2424C21.0533 14.184 21.0533 14.124 21.0533 14.064V0C19.3731 0 17.9661 1.17173 17.606 2.74299C17.5476 2.99882 17.516 3.26411 17.516 3.53731V14.064C17.516 17.9171 14.3814 21.0533 10.5267 21.0533C6.67193 21.0533 3.53731 17.9171 3.53731 14.064C3.53731 10.244 6.61666 7.12988 10.424 7.07461C10.424 5.5602 11.3747 4.27004 12.709 3.76471C12.0047 3.61469 11.2752 3.53573 10.5267 3.53573C4.72168 3.53573 0 8.2574 0 14.0624C0 19.8658 4.72168 24.5874 10.5267 24.5874L10.5282 24.5906Z" fill="white"/>
<path d="M3.53926 14.0639C3.53926 10.2439 6.61861 7.1298 10.426 7.07453C10.426 5.56012 11.3766 4.26995 12.711 3.76462C12.0067 3.6146 11.2771 3.53564 10.5286 3.53564C4.72363 3.53564 0.00195312 8.25732 0.00195312 14.0623" fill="url(#paint1_linear_903_6347)"/>
<path d="M10.5277 21.0533C14.3824 21.0533 17.517 17.9171 17.517 14.064C17.517 13.9439 17.5138 13.8239 17.5075 13.7055V0C16.5442 0 15.6678 0.386893 15.0298 1.01382C14.3761 1.65495 13.9702 2.54876 13.9702 3.53731V14.064C13.9702 15.9653 12.429 17.5065 10.5277 17.5065C8.62635 17.5065 7.08352 15.9637 7.08352 14.064C7.08352 13.7955 7.11352 13.5365 7.17195 13.2854C7.18458 13.2365 7.19564 13.1859 7.20985 13.137C7.21617 13.1101 7.22564 13.0833 7.23354 13.0565C7.25722 12.9759 7.28565 12.8985 7.31407 12.8227C7.32355 12.7975 7.3346 12.7706 7.34565 12.7454C7.39777 12.6174 7.45778 12.4943 7.5241 12.3758C7.53673 12.3522 7.55095 12.3285 7.56516 12.3048C7.57779 12.2811 7.592 12.259 7.6078 12.2353C7.62832 12.2021 7.64886 12.169 7.67097 12.1374C7.69465 12.1026 7.71834 12.0679 7.74361 12.0332C7.80677 11.9447 7.87626 11.861 7.94732 11.7805C7.96469 11.76 7.98206 11.7394 8.00258 11.7205C8.02153 11.7 8.04206 11.6779 8.06259 11.6573C8.07049 11.6478 8.07838 11.64 8.08786 11.6305C8.09576 11.621 8.10681 11.6115 8.11471 11.6036C8.13366 11.5847 8.15261 11.5657 8.17314 11.5484C8.19209 11.5294 8.21262 11.5105 8.23314 11.4931C8.41159 11.3352 8.60424 11.1946 8.81269 11.0762C8.86165 11.0478 8.90902 11.0209 8.95955 10.9957C8.98008 10.9846 9.00061 10.9751 9.02114 10.9657C9.05115 10.9499 9.07957 10.9356 9.10957 10.923C9.13484 10.9104 9.16011 10.8993 9.18537 10.8899C9.18853 10.8899 9.19169 10.8867 9.19485 10.8851C9.26907 10.8535 9.34487 10.8251 9.42225 10.7998C9.64017 10.7256 9.86599 10.6751 10.0997 10.6451C10.1739 10.6356 10.2497 10.6277 10.3255 10.6246C10.3571 10.623 10.3903 10.6198 10.4219 10.6198V7.07461C6.61451 7.12988 3.53516 10.244 3.53516 14.064C3.53516 17.9171 6.67136 21.0533 10.5245 21.0533H10.5277Z" fill="#CFEFFF"/>
<path d="M10.5277 17.5081C8.62635 17.5081 7.08352 15.9652 7.08352 14.0655C7.08352 13.7971 7.11352 13.5381 7.17195 13.287C7.18459 13.238 7.19564 13.1875 7.20985 13.1385C7.21617 13.1117 7.22564 13.0849 7.23354 13.058C7.25722 12.9775 7.28565 12.9001 7.31407 12.8243C7.32355 12.799 7.3346 12.7722 7.34566 12.7469C7.39777 12.619 7.45778 12.4958 7.5241 12.3774C7.53673 12.3537 7.55095 12.33 7.56516 12.3063C7.57779 12.2826 7.592 12.2605 7.6078 12.2368C7.62832 12.2037 7.64886 12.1705 7.67097 12.1389C7.69465 12.1042 7.71834 12.0695 7.74361 12.0347C7.80677 11.9463 7.87626 11.8626 7.94732 11.7821C7.96469 11.7615 7.98206 11.741 8.00258 11.722C8.02153 11.7015 8.04206 11.6794 8.06259 11.6589C8.07049 11.6494 8.07839 11.6415 8.08786 11.632C8.09576 11.6226 8.10681 11.6131 8.11471 11.6052C8.13366 11.5862 8.15261 11.5673 8.17314 11.5499C8.19209 11.531 8.21262 11.512 8.23314 11.4946C8.41159 11.3367 8.60424 11.1962 8.81269 11.0778C8.86165 11.0493 8.90902 11.0225 8.95955 10.9972C8.98008 10.9862 9.00061 10.9767 9.02114 10.9672C9.05115 10.9514 9.07957 10.9372 9.10957 10.9246C9.13484 10.9119 9.16011 10.9009 9.18538 10.8914C9.18853 10.8914 9.19169 10.8883 9.19485 10.8867C9.26907 10.8551 9.34487 10.8267 9.42225 10.8014C9.64017 10.7272 9.86599 10.6766 10.0997 10.6466C10.1739 10.6372 10.2497 10.6293 10.3255 10.6261C10.3571 10.6245 10.3903 10.6214 10.4219 10.6214V7.07617C6.61451 7.13144 3.53516 10.2455 3.53516 14.0655C3.53516 17.9187 6.67136 21.0549 10.5245 21.0549" fill="url(#paint2_linear_903_6347)"/>
<path d="M10.4258 14.2425H13.9599C13.9599 14.2125 13.9615 14.1825 13.9631 14.1541V0.00170898C13.5225 0.00170898 13.0993 0.0822454 12.7108 0.230686C11.3764 0.736016 10.4258 2.02619 10.4258 3.53902V14.2441V14.2425Z" fill="#94D6FF"/>
<path d="M27.6244 11.1314C28.0065 10.3908 28.5277 9.82068 29.1893 9.42115C29.851 9.02163 30.5853 8.82265 31.3954 8.82265C32.0113 8.82265 32.5987 8.95688 33.1562 9.22376C33.7152 9.49222 34.1589 9.84752 34.4906 10.2928V5.79541H36.9193V18.4492H34.4906V17.0469C34.1937 17.5143 33.7784 17.8902 33.243 18.176C32.7077 18.4602 32.0855 18.6039 31.3796 18.6039C30.5821 18.6039 29.8526 18.3987 29.1909 17.9881C28.5292 17.5775 28.0081 16.9995 27.626 16.2526C27.2438 15.5056 27.0527 14.6482 27.0527 13.6786C27.0527 12.709 27.2438 11.872 27.626 11.1314H27.6244ZM34.1653 12.2178C33.9379 11.8025 33.6299 11.482 33.2414 11.2609C32.8546 11.0382 32.4377 10.9277 31.9939 10.9277C31.5502 10.9277 31.1396 11.0366 30.7622 11.253C30.3863 11.4693 30.0816 11.7867 29.8478 12.202C29.6141 12.6189 29.4973 13.1116 29.4973 13.6817C29.4973 14.2518 29.6141 14.7508 29.8478 15.1788C30.0816 15.6067 30.3895 15.9336 30.7716 16.1626C31.1538 16.39 31.5612 16.5052 31.9939 16.5052C32.4266 16.5052 32.8546 16.3947 33.2414 16.172C33.6283 15.9494 33.9363 15.6304 34.1653 15.2151C34.3927 14.7998 34.5079 14.3007 34.5079 13.7196C34.5079 13.1385 34.3942 12.6395 34.1653 12.2226V12.2178Z" fill="white"/>
<path d="M39.2193 11.1315C39.6015 10.3909 40.1195 9.82078 40.7748 9.42126C41.4302 9.02173 42.1629 8.82275 42.9714 8.82275C43.6789 8.82275 44.2963 8.96488 44.8269 9.2507C45.3575 9.53653 45.7823 9.895 46.1013 10.3277V8.97593H48.5127V18.4493H46.1013V17.0644C45.7934 17.5097 45.3686 17.8761 44.8269 18.1666C44.2853 18.4572 43.6615 18.6025 42.954 18.6025C42.1566 18.6025 41.4286 18.3972 40.7732 17.9866C40.1179 17.576 39.5983 16.998 39.2178 16.2511C38.8356 15.5042 38.6445 14.6467 38.6445 13.6771C38.6445 12.7075 38.8356 11.8705 39.2178 11.1299L39.2193 11.1315ZM45.7602 12.2179C45.5328 11.8026 45.2249 11.4821 44.8364 11.261C44.4495 11.0383 44.0326 10.9278 43.5889 10.9278C43.1451 10.9278 42.7345 11.0367 42.3571 11.2531C41.9813 11.4694 41.6765 11.7868 41.4428 12.2021C41.2091 12.619 41.0922 13.1117 41.0922 13.6818C41.0922 14.2519 41.2091 14.7509 41.4428 15.1789C41.6765 15.6068 41.9844 15.9337 42.3666 16.1627C42.7488 16.3901 43.1562 16.5053 43.5889 16.5053C44.0216 16.5053 44.4495 16.3948 44.8364 16.1721C45.2233 15.9495 45.5312 15.6305 45.7602 15.2152C45.9876 14.7999 46.1029 14.3008 46.1029 13.7197C46.1029 13.1386 45.9892 12.6396 45.7602 12.2227V12.2179Z" fill="white"/>
<path d="M53.642 10.9435V15.5263C53.642 15.8452 53.7194 16.0758 53.8726 16.2195C54.0258 16.3616 54.2863 16.4327 54.6511 16.4327H55.7628V18.4508H54.2579C52.2397 18.4508 51.2307 17.4702 51.2307 15.5089V10.9435H50.1016V8.9775H51.2307V6.63403H53.642V8.9775H55.7628V10.9435H53.642Z" fill="white"/>
<path d="M57.4459 11.1315C57.8281 10.3909 58.346 9.82078 59.0014 9.42126C59.6567 9.02173 60.3895 8.82275 61.198 8.82275C61.9054 8.82275 62.5229 8.96488 63.0535 9.2507C63.5841 9.53653 64.0089 9.895 64.3279 10.3277V8.97593H66.7392V18.4493H64.3279V17.0644C64.0199 17.5097 63.5951 17.8761 63.0535 18.1666C62.5118 18.4572 61.8881 18.6025 61.1806 18.6025C60.3831 18.6025 59.6551 18.3972 58.9998 17.9866C58.3444 17.576 57.8249 16.998 57.4443 16.2511C57.0622 15.5042 56.8711 14.6467 56.8711 13.6771C56.8711 12.7075 57.0622 11.8705 57.4443 11.1299L57.4459 11.1315ZM63.9868 12.2179C63.7594 11.8026 63.4514 11.4821 63.063 11.261C62.6761 11.0383 62.2592 10.9278 61.8154 10.9278C61.3717 10.9278 60.9611 11.0367 60.5837 11.2531C60.2079 11.4694 59.9031 11.7868 59.6694 12.2021C59.4356 12.619 59.3188 13.1117 59.3188 13.6818C59.3188 14.2519 59.4356 14.7509 59.6694 15.1789C59.9031 15.6068 60.211 15.9337 60.5932 16.1627C60.9753 16.3901 61.3827 16.5053 61.8154 16.5053C62.2481 16.5053 62.6761 16.3948 63.063 16.1721C63.4499 15.9495 63.7578 15.6305 63.9868 15.2152C64.2142 14.7999 64.3294 14.3008 64.3294 13.7197C64.3294 13.1386 64.2157 12.6396 63.9868 12.2227V12.2179Z" fill="white"/>
<path d="M89.3893 11.1315C89.7714 10.3909 90.2894 9.82078 90.9447 9.42126C91.6001 9.02173 92.3328 8.82275 93.1413 8.82275C93.8488 8.82275 94.4662 8.96488 94.9968 9.2507C95.5274 9.53653 95.9522 9.895 96.2712 10.3277V8.97593H98.6826V18.4493H96.2712V17.0644C95.9633 17.5097 95.5385 17.8761 94.9968 18.1666C94.4552 18.4572 93.8314 18.6025 93.124 18.6025C92.3265 18.6025 91.5985 18.3972 90.9432 17.9866C90.2878 17.576 89.7683 16.998 89.3877 16.2511C89.0055 15.5042 88.8145 14.6467 88.8145 13.6771C88.8145 12.7075 89.0055 11.8705 89.3877 11.1299L89.3893 11.1315ZM95.9301 12.2179C95.7027 11.8026 95.3948 11.4821 95.0063 11.261C94.6194 11.0383 94.2025 10.9278 93.7588 10.9278C93.315 10.9278 92.9045 11.0367 92.527 11.2531C92.1512 11.4694 91.8464 11.7868 91.6127 12.2021C91.379 12.619 91.2621 13.1117 91.2621 13.6818C91.2621 14.2519 91.379 14.7509 91.6127 15.1789C91.8464 15.6068 92.1544 15.9337 92.5365 16.1627C92.9187 16.3901 93.3261 16.5053 93.7588 16.5053C94.1915 16.5053 94.6194 16.3948 95.0063 16.1721C95.3932 15.9495 95.7012 15.6305 95.9301 15.2152C96.1575 14.7999 96.2728 14.3008 96.2728 13.7197C96.2728 13.1386 96.1591 12.6396 95.9301 12.2227V12.2179Z" fill="white"/>
<path d="M121.972 14.4318H115.046C115.103 15.1156 115.343 15.6525 115.765 16.0394C116.186 16.4263 116.706 16.6205 117.32 16.6205C118.209 16.6205 118.843 16.2384 119.218 15.474H121.8C121.527 16.3868 121.003 17.1353 120.228 17.7228C119.452 18.3102 118.5 18.6039 117.372 18.6039C116.46 18.6039 115.642 18.4018 114.918 17.9975C114.194 17.5933 113.63 17.02 113.226 16.2794C112.821 15.5388 112.619 14.6829 112.619 13.7149C112.619 12.7468 112.818 11.8736 113.218 11.1329C113.617 10.3923 114.175 9.82224 114.893 9.42272C115.612 9.02319 116.438 8.82422 117.372 8.82422C118.307 8.82422 119.079 9.01845 119.792 9.40535C120.504 9.79382 121.057 10.3434 121.45 11.0556C121.843 11.7678 122.04 12.5858 122.04 13.5096C122.04 13.8522 122.017 14.1586 121.972 14.4334V14.4318ZM119.561 12.8242C119.55 12.2083 119.327 11.7157 118.895 11.3445C118.462 10.9734 117.931 10.7887 117.304 10.7887C116.712 10.7887 116.213 10.9687 115.807 11.3272C115.403 11.6856 115.155 12.1847 115.064 12.8242H119.561Z" fill="white"/>
<path d="M87.5012 8.94912C86.5758 8.96965 85.7973 9.56183 85.1861 10.7099C84.7692 11.4931 84.4597 12.4612 84.1597 13.3976C83.5959 15.1615 83.2027 16.0632 82.9927 16.0743C82.7826 16.0616 82.3894 15.1615 81.8273 13.4023C81.5272 12.4643 81.2177 11.4931 80.7992 10.7099C80.4297 10.015 80.0191 9.54288 79.547 9.26495C78.8079 8.83068 77.7057 8.82437 76.9998 9.04229C76.3239 9.25232 75.738 9.81292 75.2596 10.7099C74.8427 11.4931 74.5331 12.4612 74.2331 13.3976C73.6693 15.1615 73.2761 16.0632 73.0661 16.0743C72.8561 16.0616 72.4629 15.1615 71.9007 13.4023C71.6007 12.4643 71.2911 11.4931 70.8727 10.7099C70.2489 9.5413 69.4546 8.94754 68.5087 8.94754H67.6875V11.6305L67.8312 11.6621C67.907 11.6795 67.9844 11.6921 68.0618 11.7047C68.3271 11.7505 68.5576 11.7884 68.7234 11.989C68.8877 12.1848 68.9919 12.4548 69.093 12.7138C69.1151 12.7691 69.1356 12.8244 69.1577 12.8781C69.3567 13.3692 69.5225 13.8713 69.6725 14.3388C69.9725 15.2768 70.2821 16.248 70.7005 17.0312C71.3243 18.1998 72.1186 18.7936 73.0645 18.7936C74.0104 18.7936 74.8063 18.2014 75.4285 17.0312C75.8454 16.2496 76.1549 15.28 76.4566 14.3404C76.4913 14.2298 76.526 14.1193 76.5608 14.0087C76.7076 13.5381 76.8608 13.0502 77.063 12.6049C77.213 12.2717 77.5446 11.7158 78.0499 11.7411C78.4431 11.7584 78.7811 12.1311 79.0843 12.8796C79.2832 13.3723 79.4491 13.8729 79.5991 14.3404C79.8991 15.2784 80.2086 16.2496 80.6271 17.0328C81.2509 18.2014 82.0452 18.7952 82.9911 18.7952C83.937 18.7952 84.7329 18.203 85.3551 17.0328C85.772 16.2496 86.0831 15.28 86.3831 14.3419C86.4194 14.2314 86.4542 14.1193 86.4889 14.0072C86.6358 13.5366 86.7874 13.0518 86.9895 12.6064C87.3922 11.7174 88.1502 11.6621 88.1818 11.6605L88.3587 11.6526V8.94912H87.4996H87.5012Z" fill="white"/>
<path d="M110.395 12.4389C110.091 13.0058 109.884 13.6185 109.656 14.217C109.298 15.1614 108.927 16.1357 108.434 16.9158C107.725 18.0354 106.836 18.6039 105.789 18.6039C104.742 18.6039 103.853 18.0354 103.144 16.9158C102.65 16.1357 102.28 15.1598 101.92 14.2155C101.729 13.7117 101.53 13.2095 101.295 12.7232C101.14 12.4026 101.001 12.041 100.739 11.7757C100.42 11.4535 99.9666 11.4598 99.5371 11.3793V8.97583H100.3C101.345 8.97583 102.236 9.54433 102.945 10.6639C103.439 11.4441 103.809 12.42 104.169 13.3659C104.834 15.1156 105.337 16.2005 105.787 16.2005C106.237 16.2005 106.743 15.1156 107.409 13.3611C107.768 12.4184 108.137 11.4441 108.631 10.6639C109.328 9.56328 110.2 8.99636 111.223 8.97741H112.025V11.3714C112.025 11.3714 110.945 11.4156 110.394 12.4373L110.395 12.4389Z" fill="white"/>
<defs>
<linearGradient id="paint0_linear_903_6347" x1="8.12706" y1="12.4312" x2="11.0122" y2="12.4312" gradientUnits="userSpaceOnUse">
<stop stop-color="#3FD0FF" stop-opacity="0"/>
<stop offset="1" stop-color="#45BFF1"/>
</linearGradient>
<linearGradient id="paint1_linear_903_6347" x1="4.56097" y1="9.20165" x2="14.9802" y2="7.04611" gradientUnits="userSpaceOnUse">
<stop stop-color="white"/>
<stop offset="0.8" stop-color="#3FAEFF"/>
</linearGradient>
<linearGradient id="paint2_linear_903_6347" x1="9.35277" y1="14.2519" x2="15.4309" y2="11.4062" gradientUnits="userSpaceOnUse">
<stop stop-color="#CFEFFF"/>
<stop offset="1" stop-color="#1A8BE0"/>
</linearGradient>
</defs>
</svg>
