<svg width="41" height="41" viewBox="0 0 41 41" fill="none" xmlns="http://www.w3.org/2000/svg">
<g id="Frame 427322145">
<g id="Group">
<path id="Vector" d="M21.3936 26.8971C21.4432 26.8971 21.4928 26.8971 21.5402 26.895C21.5898 26.895 21.6372 26.8928 21.6868 26.8885C21.732 26.8863 21.7773 26.882 21.8225 26.8777C21.8743 26.8712 21.9239 26.8669 21.9756 26.8605C22.0122 26.8562 22.051 26.8518 22.0898 26.8454C22.1372 26.8389 22.1825 26.8324 22.2278 26.8238C22.245 26.8217 22.2623 26.8174 22.2795 26.813C22.3291 26.8023 22.3765 26.7937 22.4261 26.7829C22.4627 26.7743 22.4994 26.7656 22.536 26.757C22.6093 26.7398 22.6826 26.7204 22.7537 26.6967C22.786 26.6859 22.8183 26.6773 22.8485 26.6665C22.8722 26.66 22.8938 26.6535 22.9153 26.6449C22.9477 26.632 22.9822 26.6212 23.0145 26.6083C23.0382 26.5997 23.0619 26.591 23.0835 26.5824C23.0964 26.576 23.1093 26.5716 23.1223 26.5673C23.174 26.5458 23.2257 26.5242 23.2775 26.5027C23.3529 26.4703 23.4283 26.4337 23.5016 26.3971C23.5275 26.3841 23.5512 26.3712 23.5771 26.3583C23.618 26.3367 23.659 26.3151 23.6999 26.2914C23.7516 26.2613 23.8055 26.2311 23.8573 26.1988C23.8961 26.175 23.9327 26.1513 23.9715 26.1276C24.0124 26.0996 24.0556 26.0716 24.0965 26.0436C24.2625 25.9293 24.4198 25.8022 24.5686 25.6664C24.6483 25.5909 24.7281 25.5155 24.8056 25.4357C24.8056 25.4357 24.8078 25.4336 24.81 25.4293C24.8617 25.3754 24.9134 25.3172 24.963 25.2611C24.9889 25.231 25.0126 25.2051 25.0363 25.1749C25.0794 25.1232 25.1203 25.0715 25.1613 25.0176C25.1678 25.0111 25.1721 25.0047 25.1764 24.996C25.2001 24.9659 25.2216 24.9357 25.2432 24.9033C25.2669 24.8732 25.2885 24.8408 25.3079 24.8107C25.3725 24.7158 25.4329 24.6188 25.4889 24.5197C25.5083 24.4874 25.5256 24.455 25.545 24.4205C25.5816 24.3516 25.6182 24.2847 25.6484 24.2158C25.6657 24.1813 25.6807 24.1468 25.698 24.1123C25.7152 24.0778 25.7303 24.0433 25.7433 24.0089C25.7734 23.9377 25.8036 23.8666 25.8273 23.7933C25.8402 23.7567 25.8532 23.72 25.8661 23.6855C25.879 23.6489 25.892 23.6123 25.9028 23.5756C25.9157 23.539 25.9265 23.5002 25.9351 23.4635C25.9459 23.4269 25.9566 23.3881 25.9653 23.3514C25.976 23.3148 25.9847 23.276 25.9933 23.2394C26.0041 23.2027 26.0105 23.1639 26.0191 23.1251C26.0278 23.0885 26.0342 23.0497 26.0407 23.0109C26.0472 22.9721 26.0536 22.9333 26.0601 22.8945C26.0666 22.8535 26.073 22.8147 26.0773 22.776C26.0773 22.7738 26.0773 22.7695 26.0773 22.7673C26.0817 22.7307 26.086 22.694 26.0881 22.6574C26.0924 22.6208 26.0967 22.5841 26.0989 22.5453C26.1054 22.5044 26.1075 22.4613 26.1097 22.4182H21.2535V17.4542C21.2061 17.4542 21.1608 17.4564 21.1156 17.4607C21.0854 17.4607 21.0574 17.4628 21.0272 17.4672C20.9884 17.4693 20.9518 17.4736 20.913 17.4779C20.8742 17.4801 20.8375 17.4844 20.7987 17.4909C20.7147 17.5016 20.6328 17.5124 20.5487 17.5297C20.4754 17.5426 20.4021 17.5577 20.331 17.5749C20.2944 17.5835 20.2556 17.5922 20.2168 17.6029L20.1866 17.6116C20.1262 17.6267 20.068 17.6439 20.0098 17.6611C20.0055 17.6611 19.9991 17.6633 19.9969 17.6655C19.9969 17.6655 19.9948 17.6655 19.9926 17.6655C19.956 17.6762 19.9193 17.6892 19.8827 17.7021C19.8094 17.728 19.7361 17.7538 19.665 17.7818C19.6283 17.7948 19.5938 17.812 19.5572 17.8271C19.4581 17.8681 19.3589 17.9155 19.2619 17.9629C19.2554 17.9651 19.2511 17.9694 19.2468 17.9715C19.1865 18.0039 19.124 18.0362 19.0658 18.0707C19.0593 18.0728 19.0528 18.0771 19.0464 18.0815C19.014 18.0987 18.9817 18.1181 18.9494 18.1396C18.9235 18.1526 18.8998 18.1698 18.8739 18.1849C18.8632 18.1914 18.8567 18.1957 18.8459 18.2022C18.8157 18.2194 18.7856 18.2388 18.7575 18.2603C18.6929 18.3013 18.6304 18.3466 18.57 18.394C18.5398 18.4155 18.5097 18.4392 18.4816 18.463C18.4515 18.4845 18.4235 18.5082 18.3933 18.5341C18.3631 18.56 18.3351 18.5837 18.3049 18.6074C18.2769 18.6311 18.2489 18.6569 18.2208 18.6828C18.1928 18.7087 18.1648 18.7345 18.1368 18.7604C18.1109 18.7863 18.0829 18.8121 18.057 18.8402C18.029 18.866 18.0031 18.894 17.9773 18.9199C17.9514 18.9479 17.9256 18.9759 17.8997 19.004C17.8242 19.088 17.7488 19.1742 17.6798 19.2626C17.6561 19.2928 17.6346 19.323 17.6109 19.3531L17.544 19.4458C17.5225 19.4738 17.5031 19.5019 17.4837 19.532C17.4837 19.5342 17.4815 19.5364 17.4772 19.5385C17.4492 19.5795 17.4212 19.6226 17.3932 19.6657C17.3608 19.7196 17.3285 19.7735 17.2962 19.8273C17.2768 19.8597 17.2595 19.892 17.2401 19.9265C17.2035 19.9933 17.169 20.0601 17.1367 20.1313C17.1194 20.1657 17.1043 20.2002 17.0871 20.2347C17.0763 20.2563 17.0677 20.2757 17.0591 20.2972C17.0483 20.3231 17.0375 20.3468 17.0267 20.3705C17.0009 20.4309 16.9772 20.4912 16.9556 20.5537C16.9427 20.5904 16.9297 20.627 16.9168 20.6615C16.906 20.6917 16.8953 20.724 16.8866 20.7542C16.8737 20.7973 16.8608 20.8404 16.8478 20.8835C16.8371 20.9201 16.8263 20.9589 16.8177 20.9956C16.8069 21.0408 16.7961 21.0839 16.7853 21.1292C16.7767 21.1659 16.7681 21.2046 16.7616 21.2413C16.7013 21.5431 16.6689 21.8556 16.6689 22.1746C16.6689 24.7762 18.7856 26.895 21.3893 26.895L21.3936 26.8971Z" fill="#94D6FF"/>
<path id="Vector_2" d="M21.2293 22.4399V17.4954C21.1818 17.4954 21.1366 17.4975 21.0913 17.5018C21.0633 17.5018 21.0331 17.504 21.0051 17.5083C20.9663 17.5104 20.9297 17.5148 20.893 17.5191C20.8542 17.5212 20.8176 17.5255 20.7788 17.532C20.6947 17.5406 20.6128 17.5536 20.5309 17.5708C20.4576 17.5837 20.3865 17.5988 20.3154 17.6161C20.2787 17.6247 20.2399 17.6333 20.2033 17.6441L20.1753 17.6527C20.1149 17.6678 20.0589 17.685 20.0007 17.7023C19.9964 17.7023 19.9921 17.7044 19.9877 17.7066C19.9877 17.7066 19.9856 17.7066 19.9834 17.7066C19.9468 17.7174 19.9101 17.7303 19.8735 17.7432C19.8002 17.7691 19.7291 17.795 19.658 17.823C19.6213 17.8359 19.5868 17.851 19.5523 17.8682C19.4532 17.9092 19.354 17.9545 19.2592 18.004C19.2527 18.0062 19.2506 18.0105 19.2441 18.0127C19.1838 18.045 19.1234 18.0773 19.0631 18.1118C19.0566 18.114 19.0501 18.1183 19.0437 18.1226C19.0113 18.1398 18.979 18.1592 18.9467 18.1808C18.9208 18.1937 18.8971 18.2088 18.8712 18.226C18.8626 18.2325 18.854 18.2368 18.8432 18.2433C18.813 18.2605 18.7829 18.2799 18.7548 18.3015C18.6923 18.3424 18.6298 18.3877 18.5695 18.4351C18.5393 18.4567 18.5091 18.4804 18.4811 18.5019C18.4531 18.5235 18.4229 18.5472 18.3949 18.5731C18.3669 18.5989 18.3367 18.6205 18.3087 18.6464C18.2806 18.6701 18.2526 18.6938 18.2246 18.7218C18.1966 18.7498 18.1686 18.7735 18.1427 18.7994C18.1168 18.8253 18.0888 18.8511 18.063 18.8791C18.0349 18.905 18.0091 18.933 17.9854 18.9589C17.9595 18.9869 17.9336 19.0149 17.9078 19.043C17.8323 19.127 17.759 19.2132 17.6901 19.3016C17.6664 19.3296 17.6448 19.362 17.6211 19.3921L17.5543 19.4827C17.5327 19.5107 17.5133 19.5387 17.4939 19.5689C17.4939 19.571 17.4918 19.5732 17.4875 19.5753C17.4594 19.6163 17.4314 19.6594 17.4055 19.7025C17.3732 19.7564 17.3409 19.8103 17.3086 19.8642C17.2892 19.8965 17.2719 19.9288 17.2525 19.9633C17.2159 20.0301 17.1814 20.097 17.1491 20.1659C17.1318 20.2004 17.1167 20.2349 17.1016 20.2694C17.093 20.2909 17.0822 20.3103 17.0736 20.3319C17.0628 20.3578 17.0521 20.3793 17.0413 20.4052C17.0154 20.4655 16.9939 20.5259 16.9702 20.5884C16.9572 20.625 16.9443 20.6595 16.9314 20.6962C16.9206 20.7263 16.9098 20.7587 16.9012 20.7888C16.8882 20.8319 16.8753 20.8751 16.8624 20.9182C16.8516 20.9548 16.8408 20.9936 16.8322 21.0302C16.8214 21.0755 16.8107 21.1165 16.7999 21.1639C16.7913 21.2005 16.7826 21.2393 16.7762 21.276C16.7158 21.5756 16.6382 22.0153 16.6835 22.4485" fill="url(#paint0_linear_589_11353)"/>
<path id="Vector_3" d="M21.3702 36.5642C29.2094 36.5642 35.6046 30.2488 35.7339 22.4397C35.736 22.36 35.736 22.2781 35.736 22.1962V3C33.4427 3 31.5222 4.59932 31.0308 6.74396C30.951 7.09314 30.9079 7.45525 30.9079 7.82814V22.1962C30.9079 27.4554 26.6294 31.736 21.368 31.736C16.1066 31.736 11.8281 27.4554 11.8281 22.1962C11.8281 16.9822 16.0312 12.7317 21.2279 12.6563C21.2279 10.5892 22.5255 8.82825 24.3468 8.13852C23.3855 7.93375 22.3897 7.82598 21.368 7.82598C13.4447 7.82598 7 14.2707 7 22.194C7 30.1152 13.4447 36.5599 21.368 36.5599L21.3702 36.5642Z" fill="white"/>
<path id="Vector_4" d="M11.8301 22.1959C11.8301 16.9819 16.0332 12.7314 21.2299 12.656C21.2299 10.5889 22.5274 8.82795 24.3488 8.13822C23.3874 7.93345 22.3916 7.82568 21.37 7.82568C13.4467 7.82568 7.00195 14.2704 7.00195 22.1937" fill="url(#paint1_linear_589_11353)"/>
<path id="Vector_5" d="M21.3704 31.736C26.6317 31.736 30.9102 27.4554 30.9102 22.1962C30.9102 22.0323 30.9059 21.8685 30.8973 21.7069V3C29.5825 3 28.3862 3.52808 27.5155 4.38378C26.6231 5.25888 26.0692 6.47884 26.0692 7.82814V22.1962C26.0692 24.7913 23.9655 26.895 21.3704 26.895C18.7752 26.895 16.6694 24.7891 16.6694 22.1962C16.6694 21.8297 16.7103 21.4762 16.7901 21.1335C16.8073 21.0667 16.8224 20.9977 16.8418 20.9309C16.8504 20.8943 16.8634 20.8576 16.8742 20.821C16.9065 20.7111 16.9453 20.6055 16.9841 20.502C16.997 20.4675 17.0121 20.4309 17.0272 20.3964C17.0983 20.2218 17.1802 20.0537 17.2708 19.892C17.288 19.8597 17.3074 19.8274 17.3268 19.795C17.344 19.7627 17.3634 19.7325 17.385 19.7002C17.413 19.6549 17.441 19.6097 17.4712 19.5665C17.5035 19.5191 17.5359 19.4717 17.5704 19.4243C17.6566 19.3036 17.7514 19.1893 17.8484 19.0794C17.8721 19.0514 17.8958 19.0234 17.9238 18.9975C17.9497 18.9695 17.9777 18.9393 18.0058 18.9113C18.0165 18.8984 18.0273 18.8876 18.0402 18.8747C18.051 18.8617 18.0661 18.8488 18.0769 18.838C18.1027 18.8121 18.1286 18.7863 18.1566 18.7626C18.1825 18.7367 18.2105 18.7108 18.2385 18.6871C18.4821 18.4716 18.7451 18.2798 19.0296 18.1181C19.0964 18.0793 19.1611 18.0427 19.23 18.0082C19.258 17.9931 19.2861 17.9802 19.3141 17.9672C19.355 17.9457 19.3938 17.9263 19.4348 17.909C19.4693 17.8918 19.5038 17.8767 19.5383 17.8638C19.5426 17.8638 19.5469 17.8595 19.5512 17.8573C19.6525 17.8142 19.756 17.7754 19.8616 17.7409C20.159 17.6396 20.4672 17.5706 20.7862 17.5297C20.8875 17.5167 20.991 17.506 21.0945 17.5017C21.1376 17.4995 21.1828 17.4952 21.2259 17.4952V12.6563C16.0292 12.7317 11.8262 16.9822 11.8262 22.1962C11.8262 27.4554 16.1068 31.736 21.366 31.736H21.3704Z" fill="#CFEFFF"/>
<path id="Vector_6" d="M21.3704 26.8971C18.7752 26.8971 16.6694 24.7913 16.6694 22.1983C16.6694 21.8319 16.7104 21.4784 16.7901 21.1357C16.8073 21.0689 16.8224 20.9999 16.8418 20.9331C16.8505 20.8965 16.8634 20.8598 16.8742 20.8232C16.9065 20.7132 16.9453 20.6076 16.9841 20.5042C16.997 20.4697 17.0121 20.433 17.0272 20.3986C17.0983 20.224 17.1802 20.0558 17.2708 19.8942C17.288 19.8619 17.3074 19.8295 17.3268 19.7972C17.344 19.7649 17.3634 19.7347 17.385 19.7024C17.413 19.6571 17.441 19.6118 17.4712 19.5687C17.5035 19.5213 17.5359 19.4739 17.5704 19.4265C17.6566 19.3058 17.7514 19.1915 17.8484 19.0816C17.8721 19.0536 17.8958 19.0256 17.9238 18.9997C17.9497 18.9717 17.9777 18.9415 18.0058 18.9135C18.0165 18.9005 18.0273 18.8898 18.0402 18.8768C18.051 18.8639 18.0661 18.851 18.0769 18.8402C18.1028 18.8143 18.1286 18.7885 18.1566 18.7647C18.1825 18.7389 18.2105 18.713 18.2385 18.6893C18.4821 18.4738 18.7451 18.2819 19.0296 18.1203C19.0964 18.0815 19.1611 18.0448 19.23 18.0104C19.258 17.9953 19.2861 17.9823 19.3141 17.9694C19.355 17.9478 19.3938 17.9284 19.4348 17.9112C19.4693 17.894 19.5038 17.8789 19.5383 17.8659C19.5426 17.8659 19.5469 17.8616 19.5512 17.8595C19.6525 17.8164 19.756 17.7776 19.8616 17.7431C20.159 17.6418 20.4672 17.5728 20.7862 17.5318C20.8875 17.5189 20.991 17.5081 21.0945 17.5038C21.1376 17.5017 21.1828 17.4974 21.2259 17.4974V12.6584C16.0292 12.7339 11.8262 16.9844 11.8262 22.1983C11.8262 27.4576 16.1068 31.7382 21.366 31.7382" fill="url(#paint2_linear_589_11353)"/>
<path id="Vector_7" d="M21.2305 22.4398H26.0543C26.0543 22.3988 26.0565 22.3579 26.0586 22.3191V3.0022C25.4572 3.0022 24.8796 3.11212 24.3494 3.31473C22.528 4.00447 21.2305 5.76544 21.2305 7.83033V22.4419V22.4398Z" fill="#94D6FF"/>
</g>
<circle id="Ellipse 31" cx="20.5" cy="20.5" r="20.5" fill="white" fill-opacity="0.1"/>
</g>
<defs>
<linearGradient id="paint0_linear_589_11353" x1="18.091" y1="19.9676" x2="22.0289" y2="19.9676" gradientUnits="userSpaceOnUse">
<stop stop-color="#3FD0FF" stop-opacity="0"/>
<stop offset="1" stop-color="#45BFF1"/>
</linearGradient>
<linearGradient id="paint1_linear_589_11353" x1="13.2246" y1="15.5593" x2="27.4461" y2="12.6172" gradientUnits="userSpaceOnUse">
<stop stop-color="white"/>
<stop offset="0.8" stop-color="#3FAEFF"/>
</linearGradient>
<linearGradient id="paint2_linear_589_11353" x1="19.7667" y1="22.4527" x2="28.0629" y2="18.5686" gradientUnits="userSpaceOnUse">
<stop stop-color="#CFEFFF"/>
<stop offset="1" stop-color="#1A8BE0"/>
</linearGradient>
</defs>
</svg>
