<svg width="66" height="69" viewBox="0 0 66 69" fill="none" xmlns="http://www.w3.org/2000/svg">
<g id="Button" filter="url(#filter0_d_631_199591)">
<rect x="2" width="60" height="60" rx="30" fill="#080719"/>
<g id="Group">
<path id="Vector" d="M32.028 37.4519C32.0797 37.4519 32.1315 37.4519 32.1832 37.4496C32.2349 37.4496 32.2844 37.4474 32.3361 37.4429C32.3834 37.4406 32.4306 37.4361 32.4778 37.4316C32.5318 37.4249 32.5835 37.4204 32.6375 37.4136C32.6758 37.4091 32.7185 37.4024 32.7567 37.3979C32.8062 37.3912 32.8534 37.3844 32.9029 37.3754C32.9209 37.3732 32.9389 37.3687 32.9569 37.3642C33.0086 37.3529 33.0581 37.3439 33.1099 37.3327C33.1481 37.3237 33.1863 37.3147 33.2246 37.3057C33.301 37.2877 33.3798 37.2674 33.454 37.2427C33.4877 37.2315 33.5215 37.2225 33.5552 37.2112C33.5799 37.2045 33.6024 37.1977 33.6249 37.1887C33.6609 37.1752 33.6946 37.164 33.7284 37.1505C33.7531 37.1415 33.7779 37.1325 33.8004 37.1235C33.8138 37.1168 33.8273 37.1123 33.8408 37.1078C33.8971 37.0853 33.9511 37.0628 34.0028 37.0403C34.0838 37.0043 34.1602 36.9683 34.2389 36.9301C34.2659 36.9166 34.2907 36.9031 34.3177 36.8896C34.3604 36.8671 34.4031 36.8446 34.4459 36.8199C34.5021 36.7884 34.5561 36.7569 34.6101 36.7231C34.6505 36.6984 34.691 36.6737 34.7293 36.6467C34.772 36.6174 34.817 36.5882 34.8597 36.559C35.0329 36.4375 35.1993 36.3048 35.3545 36.1653C35.44 36.0866 35.521 36.0079 35.602 35.9247C35.602 35.9247 35.6042 35.9224 35.6065 35.9179C35.6627 35.8617 35.7167 35.801 35.7661 35.7425C35.7931 35.711 35.8179 35.6818 35.8426 35.6525C35.8876 35.5985 35.9303 35.5423 35.9731 35.4861C35.9798 35.4793 35.9843 35.4726 35.9888 35.4636C36.0136 35.4321 36.036 35.4006 36.0585 35.3669C36.0833 35.3354 36.1058 35.3017 36.126 35.2702C36.1935 35.1712 36.2565 35.07 36.3149 34.9665C36.3352 34.9305 36.3532 34.8991 36.3734 34.8631C36.4117 34.7911 36.4499 34.7214 36.4836 34.6494C36.5016 34.6134 36.5196 34.5774 36.5354 34.5392C36.5534 34.5032 36.5691 34.4672 36.5826 34.429C36.6141 34.3547 36.6456 34.2783 36.6703 34.2041C36.6838 34.1658 36.6973 34.1276 36.7108 34.0916C36.7243 34.0534 36.7378 34.0151 36.749 33.9769C36.7625 33.9386 36.7738 33.8982 36.785 33.8599C36.7963 33.8217 36.8075 33.7812 36.8165 33.743C36.8278 33.7047 36.8368 33.6642 36.8458 33.626C36.857 33.5878 36.8637 33.545 36.8727 33.5046C36.8817 33.4663 36.8885 33.4236 36.8952 33.3831C36.902 33.3426 36.9087 33.3021 36.9155 33.2616C36.9222 33.2189 36.929 33.1784 36.9335 33.1379C36.9335 33.1357 36.9335 33.1312 36.9335 33.1289C36.938 33.0907 36.9425 33.0525 36.9447 33.0142C36.9492 32.976 36.9537 32.9378 36.956 32.8973C36.9627 32.8545 36.965 32.8096 36.9672 32.7646H31.8818V27.5645C31.8323 27.5645 31.7851 27.5667 31.7356 27.5712C31.7041 27.5712 31.6749 27.5734 31.6434 27.5779C31.6029 27.5802 31.5624 27.5847 31.5242 27.5892C31.4837 27.5914 31.4432 27.5959 31.4027 27.6027C31.315 27.6139 31.2273 27.6252 31.1418 27.6432C31.0653 27.6567 30.9889 27.6724 30.9124 27.6904C30.8742 27.6994 30.8314 27.7084 30.7932 27.7196L30.7617 27.7286C30.6987 27.7444 30.638 27.7624 30.5773 27.7804C30.5728 27.7804 30.566 27.7826 30.5638 27.7849C30.5638 27.7849 30.5615 27.7849 30.5593 27.7849C30.521 27.7961 30.4828 27.8096 30.4446 27.8231C30.3681 27.8501 30.2916 27.8771 30.2174 27.9063C30.1792 27.9198 30.1432 27.9378 30.1049 27.9536C29.9992 27.9963 29.898 28.0458 29.7946 28.0953C29.7878 28.0975 29.7833 28.102 29.7788 28.1043C29.7158 28.138 29.6506 28.1717 29.5876 28.2077C29.5809 28.21 29.5741 28.2145 29.5674 28.219C29.5336 28.237 29.4999 28.2572 29.4662 28.2797C29.4392 28.2932 29.4144 28.3112 29.3874 28.3269C29.3762 28.3337 29.3695 28.3382 29.3582 28.3449C29.3267 28.3629 29.2952 28.3832 29.266 28.4056C29.1985 28.4484 29.1333 28.4956 29.0703 28.5451C29.0388 28.5676 29.0073 28.5923 28.9781 28.6171C28.9466 28.6396 28.9174 28.6643 28.8859 28.6913C28.8544 28.7183 28.8252 28.743 28.7937 28.7678C28.7644 28.7925 28.7329 28.8195 28.7059 28.8465C28.679 28.8735 28.6475 28.9005 28.6182 28.9275C28.5912 28.9545 28.562 28.9837 28.5328 29.0107C28.5035 29.0377 28.4765 29.0669 28.4495 29.0961C28.4226 29.1254 28.3956 29.1546 28.3686 29.1839C28.2876 29.2716 28.2111 29.3638 28.1392 29.456C28.1144 29.4875 28.0919 29.519 28.0672 29.5505L27.9975 29.6472C27.975 29.6764 27.9547 29.7079 27.9345 29.7372C27.9345 29.7394 27.9322 29.7417 27.9277 29.7439C27.8985 29.7867 27.8692 29.8316 27.84 29.8789C27.804 29.9351 27.7725 29.9913 27.7388 30.0498C27.7186 30.0835 27.7006 30.1173 27.6803 30.1533C27.6421 30.223 27.6061 30.295 27.5701 30.3669C27.5521 30.4029 27.5341 30.4389 27.5184 30.4771C27.5071 30.4996 27.4981 30.5199 27.4891 30.5424C27.4779 30.5694 27.4666 30.5941 27.4554 30.6188C27.4284 30.6818 27.4037 30.7448 27.3812 30.81C27.3677 30.8483 27.3542 30.8865 27.3407 30.9225C27.3294 30.954 27.3182 30.9877 27.3092 31.0192C27.2957 31.0642 27.2822 31.1092 27.2687 31.1542C27.2575 31.1924 27.2462 31.2329 27.2372 31.2711C27.226 31.3183 27.2147 31.3633 27.2035 31.4106C27.1945 31.4488 27.1855 31.4893 27.1787 31.5275C27.1158 31.8424 27.082 32.1708 27.082 32.5059C27.082 35.2319 29.2997 37.4496 32.028 37.4496V37.4519Z" fill="url(#paint0_linear_631_199591)"/>
<path id="Vector_2" d="M31.8553 32.7844V27.6045C31.8058 27.6045 31.7586 27.6067 31.7113 27.6112C31.6821 27.6112 31.6506 27.6135 31.6214 27.618C31.5809 27.6202 31.5426 27.6247 31.5022 27.6292C31.4617 27.6315 31.4234 27.636 31.383 27.6427C31.2952 27.654 31.2098 27.6652 31.122 27.6832C31.0456 27.6967 30.9714 27.7125 30.8949 27.7304C30.8566 27.7394 30.8162 27.7484 30.7757 27.7597L30.7464 27.7687C30.6835 27.7844 30.6227 27.8024 30.562 27.8204C30.5575 27.8204 30.553 27.8227 30.5485 27.8249C30.5485 27.8249 30.5463 27.8249 30.544 27.8249C30.5058 27.8362 30.4675 27.8497 30.4293 27.8631C30.3528 27.8901 30.2786 27.9171 30.2044 27.9464C30.1661 27.9599 30.1302 27.9779 30.0942 27.9936C29.9907 28.0363 29.8872 28.0858 29.786 28.1353C29.7793 28.1375 29.777 28.142 29.7703 28.1443C29.7073 28.178 29.6421 28.2118 29.5814 28.2478C29.5746 28.25 29.5679 28.2545 29.5611 28.259C29.5274 28.277 29.4936 28.2972 29.4599 28.3197C29.4329 28.3332 29.4082 28.3512 29.3812 28.367C29.3722 28.3737 29.3632 28.3782 29.3519 28.385C29.3204 28.403 29.289 28.4232 29.2597 28.4457C29.1922 28.4884 29.1293 28.5357 29.064 28.5851C29.0326 28.6076 29.0011 28.6324 28.9718 28.6571C28.9426 28.6796 28.9111 28.7043 28.8819 28.7313C28.8526 28.7583 28.8211 28.7831 28.7919 28.8078C28.7627 28.8325 28.7334 28.8595 28.7042 28.8865C28.6749 28.9135 28.6457 28.9405 28.6165 28.9675C28.5895 28.9945 28.5602 29.0215 28.5332 29.0507C28.504 29.0777 28.477 29.1069 28.45 29.1339C28.423 29.1632 28.396 29.1924 28.369 29.2217C28.2903 29.3094 28.2138 29.3993 28.1419 29.4916C28.1171 29.523 28.0946 29.5545 28.0699 29.586L28.0002 29.6827C27.9777 29.712 27.9574 29.7412 27.9372 29.7727C27.9372 29.775 27.9349 29.7772 27.9304 29.7795C27.9012 29.8222 27.872 29.8672 27.8427 29.9122C27.809 29.9684 27.7753 30.0246 27.7415 30.0808C27.7213 30.1146 27.7033 30.1483 27.683 30.1843C27.6448 30.254 27.6088 30.3238 27.5751 30.398C27.5571 30.434 27.5413 30.47 27.5256 30.5059C27.5166 30.5284 27.5054 30.5487 27.4964 30.5712C27.4851 30.5982 27.4739 30.6229 27.4626 30.6476C27.4356 30.7106 27.4131 30.7736 27.3884 30.8388C27.3749 30.8771 27.3614 30.9153 27.3479 30.9513C27.3367 30.9828 27.3254 31.0165 27.3164 31.048C27.3029 31.093 27.2894 31.138 27.2759 31.1829C27.2647 31.2212 27.2534 31.2617 27.2444 31.2999C27.2332 31.3471 27.222 31.3921 27.2107 31.4394C27.2017 31.4776 27.1927 31.5181 27.186 31.5563C27.123 31.8712 27.0398 32.3323 27.0893 32.7844" fill="url(#paint1_linear_631_199591)"/>
<path id="Vector_3" d="M32.0027 47.5776C40.2145 47.5776 46.9126 40.9628 47.0475 32.7825C47.0498 32.6993 47.0498 32.6138 47.0498 32.5283V12.4229C44.6477 12.4229 42.6369 14.0985 42.1218 16.3432C42.0386 16.7098 41.9936 17.0877 41.9936 17.479V32.5306C41.9936 38.0388 37.511 42.5237 32.0005 42.5237C26.49 42.5237 22.0073 38.0411 22.0073 32.5306C22.0073 27.0696 26.4113 22.6184 31.8543 22.5374C31.8543 20.3737 33.2128 18.5271 35.1201 17.8052C34.1125 17.5915 33.0688 17.479 32.0005 17.479C23.701 17.479 16.9512 24.2311 16.9512 32.5283C16.9512 40.8256 23.7032 47.5776 32.0005 47.5776H32.0027Z" fill="#2266F1"/>
<path id="Vector_4" d="M22.0093 32.5306C22.0093 27.0695 26.4132 22.6184 31.8562 22.5374C31.8562 20.3737 33.2147 18.5271 35.1221 17.8051C34.1144 17.5915 33.0708 17.479 32.0024 17.479C23.7029 17.479 16.9531 24.2311 16.9531 32.5283" fill="url(#paint2_linear_631_199591)"/>
<path id="Vector_5" d="M32.0026 42.5215C37.5131 42.5215 41.9957 38.0388 41.9957 32.5283C41.9957 32.3574 41.9912 32.1842 41.9822 32.0155V12.4229C40.6035 12.4229 39.3507 12.9762 38.4398 13.8713C37.5041 14.789 36.9261 16.0665 36.9261 17.479V32.5306C36.9261 35.2476 34.7219 37.4541 32.0049 37.4541C29.2856 37.4541 27.0814 35.2499 27.0814 32.5306C27.0814 32.1482 27.1241 31.7771 27.2073 31.4172C27.2253 31.3475 27.2411 31.2755 27.2613 31.2058C27.2703 31.1676 27.2838 31.1293 27.2951 31.0911C27.3288 30.9764 27.3693 30.8662 27.4098 30.756C27.4233 30.72 27.439 30.6818 27.4547 30.6458C27.529 30.4636 27.6144 30.2881 27.7112 30.1195C27.7292 30.0857 27.7494 30.052 27.7696 30.0182C27.7876 29.9845 27.8079 29.9508 27.8304 29.9193C27.8596 29.872 27.8888 29.8248 27.9203 29.7798C27.9541 29.7303 27.9878 29.6809 28.0238 29.6314C28.1138 29.5054 28.2127 29.3862 28.3162 29.2693C28.3409 29.24 28.3657 29.2108 28.3949 29.1815C28.4219 29.1523 28.4511 29.1208 28.4826 29.0916C28.4939 29.0781 28.5051 29.0668 28.5186 29.0533C28.5299 29.0398 28.5456 29.0264 28.5568 29.0151C28.5838 28.9881 28.6108 28.9611 28.6401 28.9364C28.6671 28.9094 28.6963 28.8824 28.7255 28.8577C28.9797 28.6305 29.2564 28.4326 29.5532 28.2616C29.623 28.2211 29.6927 28.1829 29.7624 28.1469C29.7917 28.1312 29.8209 28.1177 29.8501 28.1042C29.8929 28.0817 29.9334 28.0615 29.9783 28.0435C30.0143 28.0255 30.0503 28.0097 30.0863 27.9962C30.0908 27.9962 30.0953 27.9917 30.0998 27.9895C30.2078 27.9445 30.3157 27.904 30.4259 27.8658C30.7363 27.7601 31.0602 27.6858 31.3953 27.6454C31.5033 27.6319 31.6112 27.6206 31.7192 27.6161C31.7664 27.6139 31.8114 27.6094 31.8587 27.6094V22.5397C26.4156 22.6184 22.0117 27.0696 22.0117 32.5328C22.0117 38.0411 26.4943 42.526 32.0049 42.526L32.0026 42.5215Z" fill="#229FFF"/>
<path id="Vector_6" d="M32.0029 37.4518C29.2836 37.4518 27.0794 35.2476 27.0794 32.5284C27.0794 32.146 27.1222 31.7749 27.2054 31.415C27.2234 31.3453 27.2391 31.2733 27.2594 31.2036C27.2684 31.1654 27.2819 31.1271 27.2931 31.0889C27.3268 30.9742 27.3673 30.864 27.4078 30.7538C27.4213 30.7178 27.4371 30.6795 27.4528 30.6435C27.527 30.4614 27.6125 30.2859 27.7092 30.1172C27.7272 30.0835 27.7474 30.0498 27.7677 30.016C27.7857 29.9823 27.8059 29.9485 27.8284 29.9171C27.8577 29.8698 27.8869 29.8226 27.9184 29.7776C27.9521 29.7281 27.9859 29.6786 28.0218 29.6292C28.1118 29.5032 28.2108 29.384 28.3142 29.267C28.339 29.2378 28.3637 29.2086 28.393 29.1793C28.42 29.1501 28.4492 29.1186 28.4807 29.0894C28.4919 29.0759 28.5032 29.0646 28.5167 29.0511C28.5279 29.0376 28.5437 29.0241 28.5549 29.0129C28.5819 28.9859 28.6089 28.9589 28.6381 28.9342C28.6651 28.9072 28.6944 28.8802 28.7236 28.8554C28.9777 28.6283 29.2544 28.4303 29.5513 28.2594C29.621 28.2189 29.6907 28.1807 29.7605 28.1447C29.7897 28.129 29.8189 28.1155 29.8482 28.102C29.8909 28.0795 29.9314 28.0592 29.9764 28.0412C30.0124 28.0232 30.0484 28.0075 30.0843 27.994C30.0888 27.994 30.0933 27.9895 30.0978 27.9873C30.2058 27.9423 30.3138 27.9018 30.424 27.8636C30.7344 27.7578 31.0582 27.6836 31.3934 27.6431C31.5013 27.6296 31.6093 27.6184 31.7173 27.6139C31.7645 27.6116 31.8095 27.6071 31.8567 27.6071V22.5375C26.4137 22.6162 22.0098 27.0673 22.0098 32.5306C22.0098 38.0389 26.4924 42.5238 32.0029 42.5238" fill="url(#paint3_linear_631_199591)"/>
<path id="Vector_7" d="M31.8574 32.7847H36.9091C36.9091 32.742 36.9113 32.6993 36.9136 32.6565V12.4229C36.2838 12.4229 35.6788 12.5376 35.1232 12.749C33.2137 13.471 31.8574 15.3153 31.8574 17.479V32.7847Z" fill="#3FD0FF"/>
</g>
</g>
<defs>
<filter id="filter0_d_631_199591" x="0" y="0" width="66" height="69" filterUnits="userSpaceOnUse" color-interpolation-filters="sRGB">
<feFlood flood-opacity="0" result="BackgroundImageFix"/>
<feColorMatrix in="SourceAlpha" type="matrix" values="0 0 0 0 0 0 0 0 0 0 0 0 0 0 0 0 0 0 127 0" result="hardAlpha"/>
<feMorphology radius="2" operator="erode" in="SourceAlpha" result="effect1_dropShadow_631_199591"/>
<feOffset dx="1" dy="6"/>
<feGaussianBlur stdDeviation="2.5"/>
<feComposite in2="hardAlpha" operator="out"/>
<feColorMatrix type="matrix" values="0 0 0 0 0 0 0 0 0 0 0 0 0 0 0 0 0 0 0.37 0"/>
<feBlend mode="normal" in2="BackgroundImageFix" result="effect1_dropShadow_631_199591"/>
<feBlend mode="normal" in="SourceGraphic" in2="effect1_dropShadow_631_199591" result="shape"/>
</filter>
<linearGradient id="paint0_linear_631_199591" x1="27.0843" y1="32.5082" x2="36.9672" y2="32.5082" gradientUnits="userSpaceOnUse">
<stop stop-color="#3FD0FF"/>
<stop offset="0.97" stop-color="#3FD0FF"/>
</linearGradient>
<linearGradient id="paint1_linear_631_199591" x1="28.567" y1="30.1933" x2="32.6942" y2="30.1933" gradientUnits="userSpaceOnUse">
<stop stop-color="#3FD0FF" stop-opacity="0"/>
<stop offset="1" stop-color="#2266F1"/>
</linearGradient>
<linearGradient id="paint2_linear_631_199591" x1="23.4713" y1="25.5761" x2="38.3676" y2="22.4924" gradientUnits="userSpaceOnUse">
<stop stop-color="#2266F1"/>
<stop offset="0.8" stop-color="#262262"/>
</linearGradient>
<linearGradient id="paint3_linear_631_199591" x1="30.3475" y1="32.7848" x2="39.0384" y2="28.7182" gradientUnits="userSpaceOnUse">
<stop stop-color="#229FFF"/>
<stop offset="0.78" stop-color="#262262"/>
</linearGradient>
</defs>
</svg>
