<svg width="73" height="85" viewBox="0 0 73 85" fill="none" xmlns="http://www.w3.org/2000/svg">
<g opacity="0.2">
<path d="M36.9743 60.0222C37.0983 60.0222 37.2224 60.0222 37.3464 60.0168C37.4705 60.0168 37.5892 60.0114 37.7132 60.0006C37.8265 59.9952 37.9398 59.9844 38.053 59.9736C38.1825 59.9575 38.3065 59.9467 38.436 59.9305C38.5277 59.9197 38.6302 59.9035 38.7218 59.8927C38.8405 59.8766 38.9538 59.8604 39.0724 59.8388C39.1156 59.8334 39.1587 59.8226 39.2019 59.8118C39.3259 59.7849 39.4446 59.7633 39.5687 59.7363C39.6604 59.7147 39.7521 59.6932 39.8438 59.6716C40.0271 59.6284 40.2159 59.5799 40.3939 59.5206C40.4748 59.4936 40.5557 59.472 40.6366 59.4451C40.696 59.4289 40.7499 59.4127 40.8038 59.3911C40.8901 59.3588 40.9711 59.3318 41.052 59.2994C41.1113 59.2778 41.1706 59.2563 41.2246 59.2347C41.2569 59.2185 41.2893 59.2077 41.3217 59.1969C41.4565 59.143 41.586 59.0891 41.71 59.0351C41.9042 58.9488 42.0876 58.8625 42.2764 58.7708C42.3411 58.7385 42.4004 58.7061 42.4651 58.6737C42.5676 58.6198 42.6701 58.5659 42.7726 58.5065C42.9074 58.431 43.0369 58.3555 43.1663 58.2746C43.2634 58.2153 43.3605 58.1559 43.4522 58.0912C43.5547 58.0211 43.6626 57.951 43.7651 57.8809C44.1804 57.5896 44.5795 57.2714 44.9517 56.9369C45.1566 56.7482 45.3508 56.5594 45.545 56.3598C45.545 56.3598 45.5504 56.3544 45.5558 56.3436C45.6906 56.2088 45.8201 56.0631 45.9388 55.9229C46.0035 55.8474 46.0628 55.7773 46.1221 55.7071C46.23 55.5777 46.3325 55.4429 46.435 55.308C46.4512 55.2918 46.462 55.2756 46.4727 55.2541C46.5321 55.1786 46.586 55.103 46.6399 55.0221C46.6993 54.9466 46.7532 54.8657 46.8018 54.7902C46.9636 54.5529 47.1146 54.3102 47.2548 54.062C47.3034 53.9757 47.3465 53.9002 47.3951 53.8139C47.4868 53.6413 47.5785 53.4741 47.6594 53.3015C47.7025 53.2152 47.7457 53.1289 47.7834 53.0372C47.8266 52.9509 47.8643 52.8646 47.8967 52.7729C47.9722 52.5949 48.0477 52.4115 48.1071 52.2335C48.1394 52.1418 48.1718 52.0501 48.2041 51.9638C48.2365 51.8722 48.2689 51.7805 48.2958 51.6888C48.3282 51.5971 48.3552 51.5 48.3822 51.4083C48.4091 51.3166 48.4361 51.2195 48.4577 51.1278C48.4846 51.0361 48.5062 50.939 48.5278 50.8473C48.5547 50.7556 48.5709 50.6532 48.5925 50.5561C48.6141 50.4644 48.6303 50.3619 48.6464 50.2648C48.6626 50.1677 48.6788 50.0706 48.695 49.9735C48.7112 49.8711 48.7274 49.774 48.7381 49.6769C48.7381 49.6715 48.7381 49.6607 48.7381 49.6553C48.7489 49.5636 48.7597 49.4719 48.7651 49.3802C48.7759 49.2885 48.7867 49.1968 48.7921 49.0997C48.8082 48.9973 48.8137 48.8894 48.819 48.7815H36.6237V36.311C36.505 36.311 36.3917 36.3164 36.2731 36.3272C36.1975 36.3272 36.1274 36.3326 36.0519 36.3434C35.9548 36.3488 35.8577 36.3596 35.766 36.3704C35.669 36.3758 35.5719 36.3865 35.4748 36.4027C35.2644 36.4297 35.0541 36.4567 34.8491 36.4998C34.6657 36.5322 34.4823 36.5699 34.2989 36.6131C34.2072 36.6347 34.1047 36.6562 34.0131 36.6832L33.9375 36.7048C33.7865 36.7425 33.6409 36.7857 33.4953 36.8288C33.4845 36.8288 33.4683 36.8342 33.4629 36.8396C33.4629 36.8396 33.4575 36.8396 33.4521 36.8396C33.3604 36.8666 33.2687 36.899 33.177 36.9313C32.9936 36.996 32.8102 37.0608 32.6322 37.1309C32.5405 37.1633 32.4542 37.2064 32.3626 37.2442C32.109 37.3466 31.8663 37.4653 31.6182 37.584C31.602 37.5894 31.5912 37.6002 31.5805 37.6055C31.4294 37.6865 31.273 37.7674 31.122 37.8537C31.1058 37.8591 31.0896 37.8698 31.0734 37.8806C30.9925 37.9238 30.9116 37.9723 30.8307 38.0263C30.766 38.0586 30.7067 38.1018 30.6419 38.1395C30.615 38.1557 30.5988 38.1665 30.5718 38.1827C30.4963 38.2258 30.4208 38.2744 30.3507 38.3283C30.1889 38.4308 30.0324 38.5441 29.8814 38.6627C29.8059 38.7167 29.7304 38.776 29.6603 38.8353C29.5847 38.8893 29.5146 38.9486 29.4391 39.0133C29.3636 39.0781 29.2935 39.1374 29.218 39.1967C29.1479 39.2561 29.0723 39.3208 29.0076 39.3855C28.9429 39.4502 28.8674 39.515 28.7973 39.5797C28.7325 39.6444 28.6624 39.7145 28.5923 39.7793C28.5222 39.844 28.4574 39.9141 28.3927 39.9842C28.328 40.0543 28.2633 40.1245 28.1985 40.1946C28.0044 40.4049 27.821 40.6261 27.6484 40.8472C27.589 40.9227 27.5351 40.9983 27.4758 41.0738L27.3086 41.3057C27.2546 41.3758 27.2061 41.4513 27.1575 41.5215C27.1575 41.5268 27.1521 41.5322 27.1414 41.5376C27.0712 41.6401 27.0011 41.748 26.931 41.8613C26.8447 41.9961 26.7692 42.1309 26.6883 42.2712C26.6397 42.3521 26.5966 42.433 26.548 42.5193C26.4563 42.6865 26.37 42.8591 26.2837 43.0317C26.2406 43.118 26.1974 43.2043 26.1597 43.296C26.1327 43.3499 26.1111 43.3985 26.0896 43.4524C26.0626 43.5172 26.0356 43.5765 26.0087 43.6358C25.9439 43.7868 25.8846 43.9379 25.8307 44.0943C25.7983 44.186 25.7659 44.2777 25.7336 44.364C25.7066 44.4395 25.6796 44.5204 25.6581 44.5959C25.6257 44.7038 25.5933 44.8117 25.561 44.9195C25.534 45.0112 25.507 45.1083 25.4855 45.2C25.4585 45.3133 25.4315 45.4212 25.4046 45.5344C25.383 45.6261 25.3614 45.7232 25.3452 45.8149C25.1942 46.57 25.1133 47.3575 25.1133 48.1612C25.1133 54.6985 30.4316 60.0168 36.9743 60.0168V60.0222Z" fill="url(#paint0_linear_461_23342)"/>
<path d="M36.5651 48.8301V36.4081C36.4465 36.4081 36.3332 36.4135 36.2199 36.4243C36.1498 36.4243 36.0743 36.4297 36.0042 36.4405C35.9071 36.4459 35.8154 36.4567 35.7183 36.4675C35.6212 36.4729 35.5295 36.4837 35.4324 36.4998C35.2221 36.5268 35.0171 36.5538 34.8067 36.5969C34.6234 36.6293 34.4454 36.667 34.262 36.7102C34.1703 36.7318 34.0732 36.7533 33.9761 36.7803L33.906 36.8019C33.755 36.8396 33.6093 36.8828 33.4637 36.9259C33.4529 36.9259 33.4421 36.9313 33.4313 36.9367C33.4313 36.9367 33.4259 36.9367 33.4205 36.9367C33.3288 36.9637 33.2372 36.9961 33.1455 37.0284C32.9621 37.0932 32.7841 37.1579 32.6061 37.228C32.5144 37.2604 32.4281 37.3035 32.3418 37.3413C32.0937 37.4438 31.8456 37.5624 31.6028 37.6811C31.5866 37.6865 31.5813 37.6973 31.5651 37.7027C31.4141 37.7836 31.2576 37.8645 31.112 37.9508C31.0958 37.9562 31.0796 37.967 31.0634 37.9777C30.9825 38.0209 30.9016 38.0694 30.8207 38.1234C30.756 38.1557 30.6967 38.1989 30.632 38.2366C30.6104 38.2528 30.5888 38.2636 30.5618 38.2798C30.4863 38.3229 30.4108 38.3715 30.3407 38.4254C30.1789 38.5279 30.0278 38.6412 29.8714 38.7598C29.7959 38.8138 29.7204 38.8731 29.6503 38.9324C29.5802 38.9864 29.5046 39.0457 29.4345 39.1104C29.3644 39.1752 29.2889 39.2345 29.2188 39.2938C29.1487 39.3532 29.0785 39.4179 29.0084 39.4826C28.9383 39.5473 28.8682 39.6121 28.7981 39.6768C28.7333 39.7415 28.6632 39.8062 28.5985 39.8764C28.5284 39.9411 28.4636 40.0112 28.3989 40.0759C28.3342 40.146 28.2695 40.2162 28.2047 40.2863C28.016 40.4966 27.8326 40.7124 27.66 40.9335C27.6006 41.0091 27.5467 41.0846 27.4874 41.1601L27.3201 41.392C27.2662 41.4621 27.2177 41.5323 27.1691 41.6078C27.1691 41.6132 27.1637 41.6186 27.1529 41.6239C27.0828 41.7264 27.0127 41.8343 26.9426 41.9422C26.8617 42.077 26.7808 42.2119 26.6999 42.3467C26.6513 42.4276 26.6082 42.5085 26.5596 42.5948C26.4679 42.762 26.3816 42.9292 26.3007 43.1072C26.2576 43.1935 26.2198 43.2798 26.1821 43.3661C26.1605 43.4201 26.1335 43.4686 26.1119 43.5226C26.085 43.5873 26.058 43.6466 26.031 43.706C25.9663 43.857 25.9124 44.008 25.853 44.1644C25.8207 44.2561 25.7883 44.3478 25.756 44.4341C25.729 44.5096 25.702 44.5905 25.6804 44.6661C25.6481 44.7739 25.6157 44.8818 25.5833 44.9897C25.5564 45.0814 25.5294 45.1785 25.5078 45.2702C25.4809 45.3834 25.4539 45.4913 25.4269 45.6046C25.4054 45.6963 25.3838 45.7934 25.3676 45.8851C25.2166 46.6402 25.017 47.7459 25.1357 48.8301" fill="url(#paint1_linear_461_23342)"/>
<path d="M36.9156 84.3051C56.6084 84.3051 72.6712 68.442 72.9948 48.8247C73.0002 48.6251 73.0002 48.4202 73.0002 48.2152V0C67.2396 0 62.4175 4.01838 61.1823 9.4014C60.9828 10.2806 60.8749 11.1867 60.8749 12.1253V48.2206C60.8749 61.43 50.125 72.1853 36.9102 72.1853C23.6954 72.1853 12.9456 61.4354 12.9456 48.2206C12.9456 35.1244 23.5066 24.4501 36.5596 24.2559C36.5596 19.0671 39.8175 14.6388 44.3915 12.9074C41.975 12.395 39.4723 12.1253 36.9102 12.1253C17.0071 12.1253 0.820312 28.3175 0.820312 48.2152C0.820312 68.1129 17.0125 84.3051 36.9102 84.3051H36.9156Z" fill="#2266F1"/>
<path d="M12.9514 48.2206C12.9514 35.1245 23.5125 24.4501 36.5655 24.256C36.5655 19.0671 39.8234 14.6388 44.3973 12.9074C41.9809 12.395 39.4782 12.1253 36.9161 12.1253C17.013 12.1253 0.826172 28.3175 0.826172 48.2152" fill="url(#paint2_linear_461_23342)"/>
<path d="M36.9163 72.1799C50.1311 72.1799 60.8809 61.43 60.8809 48.2152C60.8809 47.8053 60.8702 47.3899 60.8486 46.9854V0C57.5422 0 54.5378 1.32688 52.3533 3.47361C50.1095 5.67428 48.7233 8.73796 48.7233 12.1253V48.2206C48.7233 54.7363 43.4374 60.0276 36.9217 60.0276C30.4006 60.0276 25.1146 54.7417 25.1146 48.2206C25.1146 47.3036 25.2171 46.4137 25.4167 45.5507C25.4599 45.3834 25.4976 45.2108 25.5462 45.0436C25.5677 44.9519 25.6001 44.8603 25.6271 44.7686C25.708 44.4935 25.8051 44.2292 25.9022 43.9649C25.9345 43.8786 25.9723 43.7869 26.01 43.7006C26.188 43.2637 26.393 42.843 26.6249 42.4384C26.6681 42.3575 26.7166 42.2766 26.7652 42.1957C26.8083 42.1148 26.8569 42.0339 26.9108 41.9584C26.9809 41.8451 27.051 41.7318 27.1265 41.624C27.2075 41.5053 27.2884 41.3866 27.3747 41.268C27.5904 40.9659 27.8277 40.6801 28.0759 40.3996C28.1352 40.3295 28.1945 40.2593 28.2646 40.1892C28.3294 40.1191 28.3995 40.0436 28.475 39.9735C28.502 39.9411 28.5289 39.9141 28.5613 39.8818C28.5883 39.8494 28.626 39.817 28.653 39.7901C28.7177 39.7253 28.7824 39.6606 28.8525 39.6013C28.9173 39.5366 28.9874 39.4718 29.0575 39.4125C29.667 38.8677 30.3305 38.3931 31.0424 37.9832C31.2097 37.8861 31.3769 37.7944 31.5441 37.7081C31.6142 37.6703 31.6843 37.638 31.7544 37.6056C31.8569 37.5516 31.954 37.5031 32.0619 37.46C32.1482 37.4168 32.2345 37.379 32.3208 37.3467C32.3316 37.3467 32.3424 37.3359 32.3531 37.3305C32.612 37.2226 32.8709 37.1255 33.1352 37.0338C33.8796 36.7803 34.6563 36.6023 35.46 36.5053C35.7189 36.4729 35.9778 36.4459 36.2367 36.4351C36.3499 36.4297 36.4578 36.4189 36.5711 36.4189V24.2613C23.5181 24.4501 12.957 35.1244 12.957 48.226C12.957 61.4354 23.7069 72.1906 36.9217 72.1906L36.9163 72.1799Z" fill="#229FFF"/>
<path d="M36.9158 60.0222C30.3947 60.0222 25.1088 54.7362 25.1088 48.2151C25.1088 47.2982 25.2113 46.4082 25.4109 45.5452C25.454 45.378 25.4918 45.2054 25.5403 45.0382C25.5619 44.9465 25.5942 44.8548 25.6212 44.7631C25.7021 44.488 25.7992 44.2237 25.8963 43.9594C25.9287 43.8731 25.9664 43.7814 26.0042 43.6951C26.1822 43.2582 26.3871 42.8375 26.6191 42.433C26.6622 42.3521 26.7108 42.2712 26.7593 42.1903C26.8025 42.1093 26.851 42.0284 26.9049 41.9529C26.9751 41.8397 27.0452 41.7264 27.1207 41.6185C27.2016 41.4998 27.2825 41.3812 27.3688 41.2625C27.5845 40.9605 27.8219 40.6746 28.07 40.3941C28.1293 40.324 28.1887 40.2539 28.2588 40.1838C28.3235 40.1136 28.3936 40.0381 28.4691 39.968C28.4961 39.9356 28.5231 39.9087 28.5554 39.8763C28.5824 39.8439 28.6202 39.8116 28.6471 39.7846C28.7119 39.7199 28.7766 39.6552 28.8467 39.5958C28.9114 39.5311 28.9816 39.4664 29.0517 39.407C29.6612 38.8623 30.3246 38.3876 31.0366 37.9777C31.2038 37.8806 31.371 37.7889 31.5382 37.7026C31.6083 37.6649 31.6785 37.6325 31.7486 37.6001C31.8511 37.5462 31.9481 37.4976 32.056 37.4545C32.1423 37.4113 32.2286 37.3736 32.3149 37.3412C32.3257 37.3412 32.3365 37.3304 32.3473 37.325C32.6062 37.2172 32.8651 37.1201 33.1294 37.0284C33.8737 36.7749 34.6504 36.5969 35.4541 36.4998C35.713 36.4674 35.9719 36.4405 36.2308 36.4297C36.3441 36.4243 36.452 36.4135 36.5652 36.4135V24.2559C23.5122 24.4446 12.9512 35.119 12.9512 48.2205C12.9512 61.4299 23.701 72.1852 36.9158 72.1852" fill="url(#paint3_linear_461_23342)"/>
<path d="M36.5645 48.8301H48.6789C48.6789 48.7276 48.6843 48.6251 48.6897 48.5226V0C47.1795 0 45.7285 0.275084 44.3962 0.782101C39.8169 2.51351 36.5645 6.93643 36.5645 12.1253V48.8301Z" fill="#3FD0FF"/>
</g>
<defs>
<linearGradient id="paint0_linear_461_23342" x1="25.1187" y1="48.1666" x2="48.819" y2="48.1666" gradientUnits="userSpaceOnUse">
<stop stop-color="#3FD0FF"/>
<stop offset="0.97" stop-color="#3FD0FF"/>
</linearGradient>
<linearGradient id="paint1_linear_461_23342" x1="28.6794" y1="42.6164" x2="38.577" y2="42.6164" gradientUnits="userSpaceOnUse">
<stop stop-color="#3FD0FF" stop-opacity="0"/>
<stop offset="1" stop-color="#2266F1"/>
</linearGradient>
<linearGradient id="paint2_linear_461_23342" x1="16.4574" y1="31.543" x2="52.1806" y2="24.1481" gradientUnits="userSpaceOnUse">
<stop stop-color="#2266F1"/>
<stop offset="0.8" stop-color="#262262"/>
</linearGradient>
<linearGradient id="paint3_linear_461_23342" x1="32.946" y1="48.83" x2="53.7876" y2="39.078" gradientUnits="userSpaceOnUse">
<stop stop-color="#229FFF"/>
<stop offset="0.78" stop-color="#262262"/>
</linearGradient>
</defs>
</svg>
