<svg width="20" height="20" viewBox="0 0 20 20" fill="none" xmlns="http://www.w3.org/2000/svg">
<g id="mail-01-filled">
<g id="Icon">
<path d="M17.3131 4.93701C17.7641 4.68645 17.5862 3.99994 17.0703 3.99994H2.9294C2.41347 3.99994 2.23557 4.68646 2.68659 4.93702L9.75718 8.86504C9.90819 8.94893 10.0918 8.94893 10.2428 8.86504L17.3131 4.93701Z" fill="#3FD0FF"/>
<path d="M2.7496 6.43178C2.41626 6.23975 2 6.48034 2 6.86503V14C2 15.1046 2.89543 16 4 16H16C17.1046 16 18 15.1046 18 14V6.73882C18 6.35165 17.5789 6.11138 17.2456 6.30838L10.9998 9.99994C10.4002 10.433 9.59321 10.4423 8.98377 10.0233L2.7496 6.43178Z" fill="#3FD0FF"/>
</g>
</g>
</svg>
