<svg width="60" height="60" viewBox="0 0 60 60" fill="none" xmlns="http://www.w3.org/2000/svg">
<g id="decentralize">
<path id="accent" d="M30.0019 28.6942C35.0447 28.6942 39.1327 24.6062 39.1327 19.5634C39.1327 14.5206 35.0447 10.4326 30.0019 10.4326C24.9591 10.4326 20.8711 14.5206 20.8711 19.5634C20.8711 24.6062 24.9591 28.6942 30.0019 28.6942Z" fill="url(#paint0_linear_658_12319)"/>
<path id="accent_2" d="M29.9989 41.7379C32.8805 41.7379 35.2165 39.4019 35.2165 36.5203C35.2165 33.6387 32.8805 31.3027 29.9989 31.3027C27.1172 31.3027 24.7812 33.6387 24.7812 36.5203C24.7812 39.4019 27.1172 41.7379 29.9989 41.7379Z" fill="url(#paint1_linear_658_12319)"/>
<path id="accent_3" d="M29.9989 59.9997C32.8805 59.9997 35.2165 57.6637 35.2165 54.7821C35.2165 51.9005 32.8805 49.5645 29.9989 49.5645C27.1172 49.5645 24.7812 51.9005 24.7812 54.7821C24.7812 57.6637 27.1172 59.9997 29.9989 59.9997Z" fill="url(#paint2_linear_658_12319)"/>
<path id="accent_4" d="M15.6512 56.0866C18.5328 56.0866 20.8688 53.7506 20.8688 50.869C20.8688 47.9874 18.5328 45.6514 15.6512 45.6514C12.7696 45.6514 10.4336 47.9874 10.4336 50.869C10.4336 53.7506 12.7696 56.0866 15.6512 56.0866Z" fill="url(#paint3_linear_658_12319)"/>
<path id="accent_5" d="M44.3504 56.0866C47.232 56.0866 49.568 53.7506 49.568 50.869C49.568 47.9874 47.232 45.6514 44.3504 45.6514C41.4688 45.6514 39.1328 47.9874 39.1328 50.869C39.1328 53.7506 41.4688 56.0866 44.3504 56.0866Z" fill="url(#paint4_linear_658_12319)"/>
<g id="glass" filter="url(#filter0_bi_658_12319)">
<path d="M42.7827 33.912C42.5237 33.9119 42.2705 33.8348 42.0555 33.6903C41.8404 33.5458 41.6733 33.3406 41.5753 33.1008C41.4774 32.8609 41.4531 32.5974 41.5055 32.3437C41.5579 32.09 41.6847 31.8576 41.8697 31.6762C44.2751 29.3185 45.9238 26.2977 46.6057 22.9992C47.2876 19.7007 46.9717 16.2738 45.6983 13.1556C44.4249 10.0373 42.2517 7.36888 39.4557 5.49058C36.6598 3.61227 33.3679 2.60917 29.9996 2.60917C26.6313 2.60917 23.3394 3.61227 20.5435 5.49058C17.7475 7.36888 15.5743 10.0373 14.3009 13.1556C13.0275 16.2738 12.7116 19.7007 13.3935 22.9992C14.0754 26.2977 15.7241 29.3185 18.1296 31.6762C18.2547 31.7955 18.3549 31.9384 18.4244 32.0967C18.4938 32.255 18.5311 32.4256 18.534 32.5984C18.5369 32.7712 18.5055 32.9429 18.4415 33.1035C18.3775 33.2641 18.2822 33.4104 18.1612 33.5338C18.0402 33.6572 17.8959 33.7554 17.7366 33.8226C17.5773 33.8897 17.4063 33.9245 17.2334 33.925C17.0605 33.9255 16.8893 33.8916 16.7296 33.8253C16.57 33.7591 16.4251 33.6617 16.3034 33.5389C13.5279 30.8184 11.6255 27.333 10.8387 23.527C10.0519 19.721 10.4165 15.7669 11.8858 12.1689C13.3551 8.57089 15.8626 5.49197 19.0887 3.3247C22.3147 1.15742 26.1132 0 29.9996 0C33.8861 0 37.6845 1.15742 40.9105 3.3247C44.1366 5.49197 46.6441 8.57089 48.1135 12.1689C49.5828 15.7669 49.9473 19.721 49.1605 23.527C48.3737 27.333 46.4713 30.8184 43.6958 33.5389C43.452 33.778 43.1242 33.9119 42.7827 33.912Z" fill="#1D1D1D" fill-opacity="0.05"/>
<path d="M42.7827 33.912C42.5237 33.9119 42.2705 33.8348 42.0555 33.6903C41.8404 33.5458 41.6733 33.3406 41.5753 33.1008C41.4774 32.8609 41.4531 32.5974 41.5055 32.3437C41.5579 32.09 41.6847 31.8576 41.8697 31.6762C44.2751 29.3185 45.9238 26.2977 46.6057 22.9992C47.2876 19.7007 46.9717 16.2738 45.6983 13.1556C44.4249 10.0373 42.2517 7.36888 39.4557 5.49058C36.6598 3.61227 33.3679 2.60917 29.9996 2.60917C26.6313 2.60917 23.3394 3.61227 20.5435 5.49058C17.7475 7.36888 15.5743 10.0373 14.3009 13.1556C13.0275 16.2738 12.7116 19.7007 13.3935 22.9992C14.0754 26.2977 15.7241 29.3185 18.1296 31.6762C18.2547 31.7955 18.3549 31.9384 18.4244 32.0967C18.4938 32.255 18.5311 32.4256 18.534 32.5984C18.5369 32.7712 18.5055 32.9429 18.4415 33.1035C18.3775 33.2641 18.2822 33.4104 18.1612 33.5338C18.0402 33.6572 17.8959 33.7554 17.7366 33.8226C17.5773 33.8897 17.4063 33.9245 17.2334 33.925C17.0605 33.9255 16.8893 33.8916 16.7296 33.8253C16.57 33.7591 16.4251 33.6617 16.3034 33.5389C13.5279 30.8184 11.6255 27.333 10.8387 23.527C10.0519 19.721 10.4165 15.7669 11.8858 12.1689C13.3551 8.57089 15.8626 5.49197 19.0887 3.3247C22.3147 1.15742 26.1132 0 29.9996 0C33.8861 0 37.6845 1.15742 40.9105 3.3247C44.1366 5.49197 46.6441 8.57089 48.1135 12.1689C49.5828 15.7669 49.9473 19.721 49.1605 23.527C48.3737 27.333 46.4713 30.8184 43.6958 33.5389C43.452 33.778 43.1242 33.9119 42.7827 33.912Z" fill="url(#paint5_linear_658_12319)" fill-opacity="0.2"/>
<path d="M17.7795 32.0334L17.7796 32.0333C15.3032 29.606 13.6058 26.4962 12.9039 23.1004C12.2019 19.7047 12.5271 16.1767 13.8381 12.9665C15.149 9.7563 17.3863 7.00922 20.2646 5.07554C23.143 3.14185 26.532 2.10917 29.9996 2.10917C33.4672 2.10917 36.8562 3.14185 39.7346 5.07554C42.6129 7.00922 44.8502 9.7563 46.1612 12.9665C47.4721 16.1767 47.7973 19.7047 47.0954 23.1004C46.3934 26.4962 44.696 29.606 42.2197 32.0333M17.7795 32.0334L42.7827 33.412C42.623 33.4119 42.4669 33.3643 42.3343 33.2753C42.2017 33.1862 42.0986 33.0596 42.0382 32.9117C41.9778 32.7638 41.9628 32.6013 41.9952 32.4448C42.0275 32.2884 42.1056 32.1452 42.2197 32.0333M17.7795 32.0334L17.7847 32.0382C17.8618 32.1118 17.9236 32.1999 17.9665 32.2976C18.0093 32.3952 18.0323 32.5003 18.0341 32.6069C18.0359 32.7135 18.0165 32.8194 17.977 32.9184C17.9376 33.0175 17.8788 33.1076 17.8042 33.1838C17.7296 33.2599 17.6405 33.3204 17.5423 33.3618C17.4441 33.4033 17.3386 33.4247 17.232 33.425C17.1254 33.4253 17.0198 33.4044 16.9214 33.3636L16.7296 33.8253L16.9214 33.3635C16.8229 33.3227 16.7336 33.2626 16.6585 33.1869L16.6585 33.1869L16.6534 33.1819C13.9488 30.5309 12.095 27.1345 11.3284 23.4258C10.5617 19.717 10.9169 15.864 12.3487 12.3579C13.7804 8.85187 16.2239 5.85162 19.3675 3.73973C22.5111 1.62785 26.2125 0.5 29.9996 0.5C33.7868 0.5 37.4881 1.62785 40.6317 3.73973C43.7753 5.85162 46.2188 8.85187 47.6506 12.3579C49.0823 15.864 49.4375 19.717 48.6708 23.4258C47.9042 27.1345 46.0504 30.5309 43.3458 33.1819L43.3457 33.1819C43.1954 33.3293 42.9933 33.4119 42.7828 33.412L17.7795 32.0334ZM42.2197 32.0333L41.8697 31.6762L42.2197 32.0332C42.2197 32.0333 42.2197 32.0333 42.2197 32.0333Z" stroke="url(#paint6_linear_658_12319)" stroke-opacity="0.1"/>
</g>
<g id="glass_2" filter="url(#filter1_bi_658_12319)">
<path d="M29.9997 52.1729C29.6538 52.1729 29.322 52.0355 29.0774 51.7909C28.8327 51.5462 28.6953 51.2145 28.6953 50.8685V40.4333C28.6953 40.0874 28.8327 39.7556 29.0774 39.511C29.322 39.2663 29.6538 39.1289 29.9997 39.1289C30.3457 39.1289 30.6774 39.2663 30.9221 39.511C31.1667 39.7556 31.3041 40.0874 31.3041 40.4333V50.8685C31.3041 51.2145 31.1667 51.5462 30.9221 51.7909C30.6774 52.0355 30.3457 52.1729 29.9997 52.1729Z" fill="#1D1D1D" fill-opacity="0.05"/>
<path d="M29.9997 52.1729C29.6538 52.1729 29.322 52.0355 29.0774 51.7909C28.8327 51.5462 28.6953 51.2145 28.6953 50.8685V40.4333C28.6953 40.0874 28.8327 39.7556 29.0774 39.511C29.322 39.2663 29.6538 39.1289 29.9997 39.1289C30.3457 39.1289 30.6774 39.2663 30.9221 39.511C31.1667 39.7556 31.3041 40.0874 31.3041 40.4333V50.8685C31.3041 51.2145 31.1667 51.5462 30.9221 51.7909C30.6774 52.0355 30.3457 52.1729 29.9997 52.1729Z" fill="url(#paint7_linear_658_12319)" fill-opacity="0.2"/>
<path d="M29.9997 51.6729C29.7864 51.6729 29.5818 51.5882 29.4309 51.4373C29.2801 51.2865 29.1953 51.0819 29.1953 50.8685V40.4333C29.1953 40.22 29.2801 40.0154 29.4309 39.8645C29.5818 39.7137 29.7864 39.6289 29.9997 39.6289C30.2131 39.6289 30.4177 39.7137 30.5685 39.8645C30.7194 40.0154 30.8041 40.22 30.8041 40.4333V50.8685C30.8041 51.0819 30.7194 51.2865 30.5685 51.4373C30.4177 51.5882 30.2131 51.6729 29.9997 51.6729Z" stroke="url(#paint8_linear_658_12319)" stroke-opacity="0.1"/>
</g>
<g id="glass_3" filter="url(#filter2_bi_658_12319)">
<path d="M15.6521 48.261C15.3061 48.261 14.9743 48.1236 14.7297 47.879C14.4851 47.6344 14.3477 47.3026 14.3477 46.9566V41.739C14.3463 41.4955 14.4132 41.2565 14.5407 41.049C14.6682 40.8416 14.8512 40.6739 15.069 40.5651L25.5042 35.3475C25.8138 35.1928 26.1722 35.1675 26.5005 35.2771C26.8288 35.3867 27.1001 35.6222 27.2547 35.9318C27.4094 36.2415 27.4347 36.5998 27.3251 36.9281C27.2155 37.2564 26.98 37.5277 26.6703 37.6823L16.9565 42.5451V46.9566C16.9565 47.3026 16.819 47.6344 16.5744 47.879C16.3298 48.1236 15.998 48.261 15.6521 48.261Z" fill="#1D1D1D" fill-opacity="0.05"/>
<path d="M15.6521 48.261C15.3061 48.261 14.9743 48.1236 14.7297 47.879C14.4851 47.6344 14.3477 47.3026 14.3477 46.9566V41.739C14.3463 41.4955 14.4132 41.2565 14.5407 41.049C14.6682 40.8416 14.8512 40.6739 15.069 40.5651L25.5042 35.3475C25.8138 35.1928 26.1722 35.1675 26.5005 35.2771C26.8288 35.3867 27.1001 35.6222 27.2547 35.9318C27.4094 36.2415 27.4347 36.5998 27.3251 36.9281C27.2155 37.2564 26.98 37.5277 26.6703 37.6823L16.9565 42.5451V46.9566C16.9565 47.3026 16.819 47.6344 16.5744 47.879C16.3298 48.1236 15.998 48.261 15.6521 48.261Z" fill="url(#paint9_linear_658_12319)" fill-opacity="0.2"/>
<path d="M14.8477 41.739H14.8477L14.8477 41.7363C14.8468 41.5861 14.8881 41.4387 14.9667 41.3108C15.0453 41.1828 15.1582 41.0795 15.2925 41.0123L15.2926 41.0123L25.7276 35.7948C25.7277 35.7947 25.7278 35.7947 25.7278 35.7947C25.9188 35.6994 26.1397 35.6838 26.3422 35.7514L26.4997 35.2795L26.3422 35.7514C26.5447 35.819 26.712 35.9643 26.8074 36.1552C26.9028 36.3462 26.9184 36.5673 26.8508 36.7698C26.7832 36.9723 26.6379 37.1396 26.4469 37.235L26.4465 37.2352L16.7327 42.098L16.4565 42.2363V42.5451V46.9566C16.4565 47.17 16.3717 47.3746 16.2209 47.5254C16.07 47.6763 15.8654 47.761 15.6521 47.761C15.4387 47.761 15.2341 47.6763 15.0833 47.5254C14.9324 47.3746 14.8477 47.17 14.8477 46.9566V41.739Z" stroke="url(#paint10_linear_658_12319)" stroke-opacity="0.1"/>
</g>
<g id="glass_4" filter="url(#filter3_bi_658_12319)">
<path d="M44.3495 48.2607C44.0036 48.2607 43.6718 48.1233 43.4272 47.8786C43.1826 47.634 43.0451 47.3022 43.0451 46.9563V42.5448L33.3313 37.695C33.0216 37.5404 32.7861 37.2691 32.6765 36.9408C32.5669 36.6125 32.5922 36.2542 32.7469 35.9445C32.9015 35.6349 33.1728 35.3994 33.5011 35.2898C33.8294 35.1802 34.1878 35.2055 34.4974 35.3602L44.9326 40.5778C45.1484 40.6856 45.3301 40.8512 45.4575 41.0562C45.5848 41.2611 45.6528 41.4974 45.6539 41.7387V46.9563C45.6539 47.3022 45.5165 47.634 45.2719 47.8786C45.0273 48.1233 44.6955 48.2607 44.3495 48.2607Z" fill="#1D1D1D" fill-opacity="0.05"/>
<path d="M44.3495 48.2607C44.0036 48.2607 43.6718 48.1233 43.4272 47.8786C43.1826 47.634 43.0451 47.3022 43.0451 46.9563V42.5448L33.3313 37.695C33.0216 37.5404 32.7861 37.2691 32.6765 36.9408C32.5669 36.6125 32.5922 36.2542 32.7469 35.9445C32.9015 35.6349 33.1728 35.3994 33.5011 35.2898C33.8294 35.1802 34.1878 35.2055 34.4974 35.3602L44.9326 40.5778C45.1484 40.6856 45.3301 40.8512 45.4575 41.0562C45.5848 41.2611 45.6528 41.4974 45.6539 41.7387V46.9563C45.6539 47.3022 45.5165 47.634 45.2719 47.8786C45.0273 48.1233 44.6955 48.2607 44.3495 48.2607Z" fill="url(#paint11_linear_658_12319)" fill-opacity="0.2"/>
<path d="M43.5451 42.5448V42.2356L43.2685 42.0975L33.5547 37.2477C33.5546 37.2477 33.5546 37.2477 33.5546 37.2477C33.3636 37.1523 33.2184 36.985 33.1508 36.7825C33.0832 36.58 33.0988 36.3589 33.1942 36.1679C33.2896 35.977 33.4569 35.8317 33.6594 35.7641C33.8619 35.6965 34.0828 35.7121 34.2738 35.8074C34.2738 35.8074 34.2739 35.8074 34.2739 35.8074C34.2739 35.8074 34.274 35.8075 34.274 35.8075L44.709 41.025L44.7091 41.025C44.8422 41.0915 44.9543 41.1937 45.0328 41.3201C45.1112 41.4462 45.1531 41.5915 45.1539 41.74V46.9563C45.1539 47.1696 45.0692 47.3742 44.9183 47.5251C44.7675 47.6759 44.5629 47.7607 44.3495 47.7607C44.1362 47.7607 43.9316 47.6759 43.7807 47.5251C43.6299 47.3742 43.5451 47.1696 43.5451 46.9563V42.5448Z" stroke="url(#paint12_linear_658_12319)" stroke-opacity="0.1"/>
</g>
</g>
<defs>
<filter id="filter0_bi_658_12319" x="7.43359" y="-3" width="45.1318" height="39.925" filterUnits="userSpaceOnUse" color-interpolation-filters="sRGB">
<feFlood flood-opacity="0" result="BackgroundImageFix"/>
<feGaussianBlur in="BackgroundImageFix" stdDeviation="1.5"/>
<feComposite in2="SourceAlpha" operator="in" result="effect1_backgroundBlur_658_12319"/>
<feBlend mode="normal" in="SourceGraphic" in2="effect1_backgroundBlur_658_12319" result="shape"/>
<feColorMatrix in="SourceAlpha" type="matrix" values="0 0 0 0 0 0 0 0 0 0 0 0 0 0 0 0 0 0 127 0" result="hardAlpha"/>
<feOffset dy="0.5"/>
<feGaussianBlur stdDeviation="1"/>
<feComposite in2="hardAlpha" operator="arithmetic" k2="-1" k3="1"/>
<feColorMatrix type="matrix" values="0 0 0 0 1 0 0 0 0 1 0 0 0 0 1 0 0 0 0.15 0"/>
<feBlend mode="normal" in2="shape" result="effect2_innerShadow_658_12319"/>
</filter>
<filter id="filter1_bi_658_12319" x="25.6953" y="36.1289" width="8.6084" height="19.0439" filterUnits="userSpaceOnUse" color-interpolation-filters="sRGB">
<feFlood flood-opacity="0" result="BackgroundImageFix"/>
<feGaussianBlur in="BackgroundImageFix" stdDeviation="1.5"/>
<feComposite in2="SourceAlpha" operator="in" result="effect1_backgroundBlur_658_12319"/>
<feBlend mode="normal" in="SourceGraphic" in2="effect1_backgroundBlur_658_12319" result="shape"/>
<feColorMatrix in="SourceAlpha" type="matrix" values="0 0 0 0 0 0 0 0 0 0 0 0 0 0 0 0 0 0 127 0" result="hardAlpha"/>
<feOffset dy="0.5"/>
<feGaussianBlur stdDeviation="1"/>
<feComposite in2="hardAlpha" operator="arithmetic" k2="-1" k3="1"/>
<feColorMatrix type="matrix" values="0 0 0 0 1 0 0 0 0 1 0 0 0 0 1 0 0 0 0.15 0"/>
<feBlend mode="normal" in2="shape" result="effect2_innerShadow_658_12319"/>
</filter>
<filter id="filter2_bi_658_12319" x="11.3477" y="32.21" width="19.0449" height="19.051" filterUnits="userSpaceOnUse" color-interpolation-filters="sRGB">
<feFlood flood-opacity="0" result="BackgroundImageFix"/>
<feGaussianBlur in="BackgroundImageFix" stdDeviation="1.5"/>
<feComposite in2="SourceAlpha" operator="in" result="effect1_backgroundBlur_658_12319"/>
<feBlend mode="normal" in="SourceGraphic" in2="effect1_backgroundBlur_658_12319" result="shape"/>
<feColorMatrix in="SourceAlpha" type="matrix" values="0 0 0 0 0 0 0 0 0 0 0 0 0 0 0 0 0 0 127 0" result="hardAlpha"/>
<feOffset dy="0.5"/>
<feGaussianBlur stdDeviation="1"/>
<feComposite in2="hardAlpha" operator="arithmetic" k2="-1" k3="1"/>
<feColorMatrix type="matrix" values="0 0 0 0 1 0 0 0 0 1 0 0 0 0 1 0 0 0 0.15 0"/>
<feBlend mode="normal" in2="shape" result="effect2_innerShadow_658_12319"/>
</filter>
<filter id="filter3_bi_658_12319" x="29.6094" y="32.2227" width="19.0449" height="19.0381" filterUnits="userSpaceOnUse" color-interpolation-filters="sRGB">
<feFlood flood-opacity="0" result="BackgroundImageFix"/>
<feGaussianBlur in="BackgroundImageFix" stdDeviation="1.5"/>
<feComposite in2="SourceAlpha" operator="in" result="effect1_backgroundBlur_658_12319"/>
<feBlend mode="normal" in="SourceGraphic" in2="effect1_backgroundBlur_658_12319" result="shape"/>
<feColorMatrix in="SourceAlpha" type="matrix" values="0 0 0 0 0 0 0 0 0 0 0 0 0 0 0 0 0 0 127 0" result="hardAlpha"/>
<feOffset dy="0.5"/>
<feGaussianBlur stdDeviation="1"/>
<feComposite in2="hardAlpha" operator="arithmetic" k2="-1" k3="1"/>
<feColorMatrix type="matrix" values="0 0 0 0 1 0 0 0 0 1 0 0 0 0 1 0 0 0 0.15 0"/>
<feBlend mode="normal" in2="shape" result="effect2_innerShadow_658_12319"/>
</filter>
<linearGradient id="paint0_linear_658_12319" x1="20.8711" y1="10.4326" x2="42.8994" y2="18.9334" gradientUnits="userSpaceOnUse">
<stop stop-color="#3FD0FF"/>
<stop offset="1" stop-color="#2366F2"/>
</linearGradient>
<linearGradient id="paint1_linear_658_12319" x1="24.7812" y1="31.3027" x2="37.3689" y2="36.1604" gradientUnits="userSpaceOnUse">
<stop stop-color="#3FD0FF"/>
<stop offset="1" stop-color="#2366F2"/>
</linearGradient>
<linearGradient id="paint2_linear_658_12319" x1="24.7812" y1="49.5645" x2="37.3689" y2="54.4221" gradientUnits="userSpaceOnUse">
<stop stop-color="#3FD0FF"/>
<stop offset="1" stop-color="#2366F2"/>
</linearGradient>
<linearGradient id="paint3_linear_658_12319" x1="10.4336" y1="45.6514" x2="23.0212" y2="50.509" gradientUnits="userSpaceOnUse">
<stop stop-color="#3FD0FF"/>
<stop offset="1" stop-color="#2366F2"/>
</linearGradient>
<linearGradient id="paint4_linear_658_12319" x1="39.1328" y1="45.6514" x2="51.7204" y2="50.509" gradientUnits="userSpaceOnUse">
<stop stop-color="#3FD0FF"/>
<stop offset="1" stop-color="#2366F2"/>
</linearGradient>
<linearGradient id="paint5_linear_658_12319" x1="10.4336" y1="0" x2="55.6252" y2="13.2362" gradientUnits="userSpaceOnUse">
<stop stop-color="#87FFE1"/>
<stop offset="0.776042" stop-color="#5C6DFF"/>
</linearGradient>
<linearGradient id="paint6_linear_658_12319" x1="11.6565" y1="1.54205" x2="49.5656" y2="1.54205" gradientUnits="userSpaceOnUse">
<stop stop-color="#3CDEB6"/>
<stop offset="0.65625" stop-color="#364AFF"/>
</linearGradient>
<linearGradient id="paint7_linear_658_12319" x1="28.6953" y1="39.1289" x2="31.9581" y2="39.2946" gradientUnits="userSpaceOnUse">
<stop stop-color="#87FFE1"/>
<stop offset="0.776042" stop-color="#5C6DFF"/>
</linearGradient>
<linearGradient id="paint8_linear_658_12319" x1="28.7768" y1="39.7218" x2="31.3041" y2="39.7218" gradientUnits="userSpaceOnUse">
<stop stop-color="#3CDEB6"/>
<stop offset="0.65625" stop-color="#364AFF"/>
</linearGradient>
<linearGradient id="paint9_linear_658_12319" x1="14.3477" y1="35.21" x2="29.7147" y2="39.11" gradientUnits="userSpaceOnUse">
<stop stop-color="#87FFE1"/>
<stop offset="0.776042" stop-color="#5C6DFF"/>
</linearGradient>
<linearGradient id="paint10_linear_658_12319" x1="14.7553" y1="35.8032" x2="27.3922" y2="35.8032" gradientUnits="userSpaceOnUse">
<stop stop-color="#3CDEB6"/>
<stop offset="0.65625" stop-color="#364AFF"/>
</linearGradient>
<linearGradient id="paint11_linear_658_12319" x1="32.6094" y1="35.2227" x2="47.9745" y2="39.1261" gradientUnits="userSpaceOnUse">
<stop stop-color="#87FFE1"/>
<stop offset="0.776042" stop-color="#5C6DFF"/>
</linearGradient>
<linearGradient id="paint12_linear_658_12319" x1="33.017" y1="35.8153" x2="45.6539" y2="35.8153" gradientUnits="userSpaceOnUse">
<stop stop-color="#3CDEB6"/>
<stop offset="0.65625" stop-color="#364AFF"/>
</linearGradient>
</defs>
</svg>
