<svg width="60" height="60" viewBox="0 0 60 60" fill="none" xmlns="http://www.w3.org/2000/svg">
<g id="Group">
<path id="accent" d="M44.4624 38.2156C44.1932 38.215 43.9302 38.1347 43.7065 37.9848C43.4828 37.835 43.3085 37.6222 43.2055 37.3735C43.1026 37.1247 43.0756 36.851 43.1279 36.5869C43.1803 36.3228 43.3097 36.0801 43.4998 35.8894C45.2726 34.1167 46.6789 32.0122 47.6384 29.696C48.5979 27.3798 49.0917 24.8972 49.0917 22.3902C49.0917 19.8831 48.5979 17.4006 47.6384 15.0844C46.6789 12.7682 45.2726 10.6637 43.4998 8.89098C43.3695 8.76519 43.2657 8.61473 43.1942 8.44837C43.1227 8.28201 43.0851 8.10309 43.0835 7.92204C43.082 7.74098 43.1165 7.56143 43.185 7.39385C43.2536 7.22628 43.3548 7.07403 43.4829 6.94601C43.6109 6.81798 43.7631 6.71673 43.9307 6.64817C44.0983 6.57961 44.2778 6.54511 44.4589 6.54668C44.64 6.54826 44.8189 6.58587 44.9852 6.65733C45.1516 6.7288 45.3021 6.83267 45.4278 6.96291C49.5187 11.0543 51.8169 16.6031 51.8169 22.3888C51.8169 28.1745 49.5187 33.7233 45.4278 37.8147C45.3015 37.9422 45.1511 38.0433 44.9854 38.1121C44.8197 38.1809 44.6419 38.2161 44.4624 38.2156Z" fill="url(#paint0_linear_901_5562)"/>
<path id="accent_2" d="M15.5367 38.2161C15.3576 38.2166 15.1801 38.1816 15.0146 38.113C14.8491 38.0444 14.6989 37.9437 14.5726 37.8166C10.4818 33.7252 8.18359 28.1764 8.18359 22.3907C8.18359 16.605 10.4818 11.0562 14.5726 6.9648C14.6971 6.82954 14.8477 6.72086 15.0152 6.64527C15.1828 6.56969 15.3639 6.52876 15.5477 6.52495C15.7315 6.52114 15.9141 6.55453 16.0847 6.62312C16.2552 6.6917 16.4101 6.79405 16.5401 6.92403C16.6701 7.05401 16.7725 7.20893 16.841 7.37948C16.9096 7.55003 16.943 7.73268 16.9392 7.91646C16.9354 8.10024 16.8945 8.28135 16.8189 8.44891C16.7433 8.61647 16.6346 8.76702 16.4994 8.8915C14.7265 10.6642 13.3202 12.7687 12.3607 15.0849C11.4012 17.4011 10.9074 19.8836 10.9074 22.3907C10.9074 24.8978 11.4012 27.3803 12.3607 29.6965C13.3202 32.0127 14.7265 34.1172 16.4994 35.8899C16.69 36.0806 16.8198 36.3235 16.8724 36.588C16.925 36.8525 16.898 37.1266 16.7948 37.3757C16.6916 37.6248 16.5169 37.8378 16.2927 37.9876C16.0685 38.1374 15.805 38.2174 15.5353 38.2175L15.5367 38.2161Z" fill="url(#paint1_linear_901_5562)"/>
<g id="glass" filter="url(#filter0_bi_901_5562)">
<path d="M50.249 44.0026C49.9794 44.0026 49.7158 43.9226 49.4916 43.7727C49.2674 43.6229 49.0927 43.41 48.9895 43.1609C48.8863 42.9117 48.8593 42.6376 48.9119 42.3731C48.9645 42.1087 49.0943 41.8657 49.285 41.6751C51.8177 39.1427 53.8268 36.1362 55.1975 32.8273C56.5682 29.5184 57.2737 25.9719 57.2737 22.3903C57.2737 18.8087 56.5682 15.2622 55.1975 11.9533C53.8268 8.64441 51.8177 5.63791 49.285 3.10551C49.0366 2.84834 48.8992 2.50391 48.9023 2.14639C48.9054 1.78887 49.0488 1.44687 49.3016 1.19405C49.5544 0.94124 49.8964 0.797836 50.2539 0.794729C50.6114 0.791623 50.9559 0.929062 51.213 1.17744C53.9989 3.96307 56.2088 7.27016 57.7165 10.9099C59.2242 14.5496 60.0002 18.4506 60.0002 22.3903C60.0002 26.3299 59.2242 30.231 57.7165 33.8707C56.2088 37.5104 53.9989 40.8175 51.213 43.6031C50.9574 43.8589 50.6106 44.0026 50.249 44.0026Z" fill="#1D1D1D" fill-opacity="0.05"/>
<path d="M50.249 44.0026C49.9794 44.0026 49.7158 43.9226 49.4916 43.7727C49.2674 43.6229 49.0927 43.41 48.9895 43.1609C48.8863 42.9117 48.8593 42.6376 48.9119 42.3731C48.9645 42.1087 49.0943 41.8657 49.285 41.6751C51.8177 39.1427 53.8268 36.1362 55.1975 32.8273C56.5682 29.5184 57.2737 25.9719 57.2737 22.3903C57.2737 18.8087 56.5682 15.2622 55.1975 11.9533C53.8268 8.64441 51.8177 5.63791 49.285 3.10551C49.0366 2.84834 48.8992 2.50391 48.9023 2.14639C48.9054 1.78887 49.0488 1.44687 49.3016 1.19405C49.5544 0.94124 49.8964 0.797836 50.2539 0.794729C50.6114 0.791623 50.9559 0.929062 51.213 1.17744C53.9989 3.96307 56.2088 7.27016 57.7165 10.9099C59.2242 14.5496 60.0002 18.4506 60.0002 22.3903C60.0002 26.3299 59.2242 30.231 57.7165 33.8707C56.2088 37.5104 53.9989 40.8175 51.213 43.6031C50.9574 43.8589 50.6106 44.0026 50.249 44.0026Z" fill="url(#paint2_linear_901_5562)" fill-opacity="0.2"/>
<path d="M51.107 43.4971L51.107 43.497C53.8789 40.7253 56.0777 37.4348 57.5779 33.8133C59.0781 30.1918 59.8502 26.3102 59.8502 22.3903C59.8502 18.4703 59.0781 14.5888 57.5779 10.9673C56.0779 7.34618 53.8794 4.05596 51.1079 1.28446C50.8791 1.06396 50.573 0.941962 50.2552 0.944724C49.937 0.947489 49.6327 1.07512 49.4077 1.30012C49.1826 1.52512 49.055 1.8295 49.0523 2.14769C49.0495 2.46546 49.1715 2.77161 49.392 3.0004C51.9382 5.54653 53.958 8.56922 55.336 11.8959C56.7143 15.223 57.4237 18.789 57.4237 22.3903C57.4237 25.9916 56.7143 29.5576 55.336 32.8847C53.9578 36.2118 51.9377 39.2348 49.391 41.7811C49.2214 41.9508 49.1058 42.167 49.059 42.4024C49.0122 42.6378 49.0363 42.8817 49.1281 43.1035C49.2199 43.3252 49.3754 43.5147 49.575 43.648C49.7745 43.7814 50.009 43.8526 50.249 43.8526L51.107 43.4971ZM51.107 43.4971C50.8794 43.7247 50.5708 43.8526 50.249 43.8526L51.107 43.4971Z" stroke="url(#paint3_linear_901_5562)" stroke-opacity="0.1" stroke-width="0.3"/>
</g>
<g id="glass_2" filter="url(#filter1_bi_901_5562)">
<path d="M9.7512 44.0026C9.38959 44.0026 9.04282 43.8589 8.78716 43.6031C6.00131 40.8175 3.79143 37.5104 2.28372 33.8707C0.77601 30.231 0 26.3299 0 22.3903C0 18.4506 0.77601 14.5496 2.28372 10.9099C3.79143 7.27016 6.00131 3.96307 8.78716 1.17744C9.04433 0.929062 9.38877 0.791623 9.74629 0.794729C10.1038 0.797836 10.4458 0.94124 10.6986 1.19405C10.9514 1.44687 11.0948 1.78887 11.0979 2.14639C11.1011 2.50391 10.9636 2.84834 10.7152 3.10551C8.18252 5.63791 6.17345 8.64441 4.80274 11.9533C3.43203 15.2622 2.72653 18.8087 2.72653 22.3903C2.72653 25.9719 3.43203 29.5184 4.80274 32.8273C6.17345 36.1362 8.18252 39.1427 10.7152 41.6751C10.9059 41.8657 11.0357 42.1087 11.0883 42.3731C11.1409 42.6376 11.1139 42.9117 11.0107 43.1609C10.9075 43.41 10.7328 43.6229 10.5086 43.7727C10.2844 43.9226 10.0208 44.0026 9.7512 44.0026Z" fill="#1D1D1D" fill-opacity="0.05"/>
<path d="M9.7512 44.0026C9.38959 44.0026 9.04282 43.8589 8.78716 43.6031C6.00131 40.8175 3.79143 37.5104 2.28372 33.8707C0.77601 30.231 0 26.3299 0 22.3903C0 18.4506 0.77601 14.5496 2.28372 10.9099C3.79143 7.27016 6.00131 3.96307 8.78716 1.17744C9.04433 0.929062 9.38877 0.791623 9.74629 0.794729C10.1038 0.797836 10.4458 0.94124 10.6986 1.19405C10.9514 1.44687 11.0948 1.78887 11.0979 2.14639C11.1011 2.50391 10.9636 2.84834 10.7152 3.10551C8.18252 5.63791 6.17345 8.64441 4.80274 11.9533C3.43203 15.2622 2.72653 18.8087 2.72653 22.3903C2.72653 25.9719 3.43203 29.5184 4.80274 32.8273C6.17345 36.1362 8.18252 39.1427 10.7152 41.6751C10.9059 41.8657 11.0357 42.1087 11.0883 42.3731C11.1409 42.6376 11.1139 42.9117 11.0107 43.1609C10.9075 43.41 10.7328 43.6229 10.5086 43.7727C10.2844 43.9226 10.0208 44.0026 9.7512 44.0026Z" fill="url(#paint4_linear_901_5562)" fill-opacity="0.2"/>
<path d="M8.89323 43.497L8.89325 43.4971C9.12076 43.7247 9.42936 43.8526 9.75116 43.8526L8.89323 43.497ZM8.89323 43.497C6.1213 40.7253 3.92247 37.4348 2.4223 33.8133M8.89323 43.497L2.4223 33.8133M2.4223 33.8133C0.92213 30.1918 0.15 26.3102 0.15 22.3903M2.4223 33.8133L0.15 22.3903M0.15 22.3903C0.15 18.4703 0.92213 14.5888 2.4223 10.9673M0.15 22.3903L2.4223 10.9673M2.4223 10.9673C3.9223 7.34618 6.1208 4.05596 8.89228 1.28446M2.4223 10.9673L8.89228 1.28446M8.89228 1.28446C9.12106 1.06395 9.42722 0.941962 9.74499 0.944724C10.0632 0.947489 10.3676 1.07512 10.5926 1.30012C10.8176 1.52512 10.9452 1.8295 10.948 2.14769C10.9507 2.46546 10.8287 2.77162 10.6082 3.0004C8.06202 5.54653 6.04223 8.56922 4.66416 11.8959C3.28591 15.223 2.57653 18.789 2.57653 22.3903C2.57653 25.9916 3.28591 29.5576 4.66416 32.8847C6.0424 36.2118 8.06252 39.2348 10.6092 41.7811C10.7788 41.9508 10.8944 42.167 10.9412 42.4024C10.988 42.6378 10.9639 42.8817 10.8721 43.1035C10.7803 43.3252 10.6248 43.5147 10.4252 43.648C10.2257 43.7814 9.99119 43.8526 9.75123 43.8526L8.89228 1.28446Z" stroke="url(#paint5_linear_901_5562)" stroke-opacity="0.1" stroke-width="0.3"/>
</g>
<g id="glass_3" filter="url(#filter2_bi_901_5562)">
<path d="M44.4615 38.2161C44.1922 38.2155 43.9292 38.1352 43.7055 37.9853C43.4818 37.8355 43.3075 37.6227 43.2045 37.3739C43.1016 37.1252 43.0746 36.8515 43.127 36.5874C43.1793 36.3232 43.3087 36.0806 43.4988 35.8899C45.2717 34.1172 46.678 32.0127 47.6374 29.6965C48.5969 27.3803 49.0908 24.8977 49.0908 22.3907C49.0908 19.8836 48.5969 17.4011 47.6374 15.0849C46.678 12.7687 45.2717 10.6641 43.4988 8.89146C43.3686 8.76568 43.2647 8.61522 43.1932 8.44886C43.1218 8.2825 43.0841 8.10358 43.0826 7.92252C43.081 7.74147 43.1155 7.56192 43.1841 7.39434C43.2526 7.22677 43.3539 7.07452 43.4819 6.9465C43.6099 6.81847 43.7622 6.71722 43.9297 6.64866C44.0973 6.5801 44.2769 6.5456 44.4579 6.54717C44.639 6.54874 44.8179 6.58636 44.9843 6.65782C45.1506 6.72928 45.3011 6.83316 45.4269 6.9634C49.5177 11.0548 51.8159 16.6036 51.8159 22.3893C51.8159 28.175 49.5177 33.7238 45.4269 37.8152C45.3005 37.9427 45.1501 38.0438 44.9844 38.1126C44.8187 38.1814 44.6409 38.2166 44.4615 38.2161Z" fill="#1D1D1D" fill-opacity="0.05"/>
<path d="M44.4615 38.2161C44.1922 38.2155 43.9292 38.1352 43.7055 37.9853C43.4818 37.8355 43.3075 37.6227 43.2045 37.3739C43.1016 37.1252 43.0746 36.8515 43.127 36.5874C43.1793 36.3232 43.3087 36.0806 43.4988 35.8899C45.2717 34.1172 46.678 32.0127 47.6374 29.6965C48.5969 27.3803 49.0908 24.8977 49.0908 22.3907C49.0908 19.8836 48.5969 17.4011 47.6374 15.0849C46.678 12.7687 45.2717 10.6641 43.4988 8.89146C43.3686 8.76568 43.2647 8.61522 43.1932 8.44886C43.1218 8.2825 43.0841 8.10358 43.0826 7.92252C43.081 7.74147 43.1155 7.56192 43.1841 7.39434C43.2526 7.22677 43.3539 7.07452 43.4819 6.9465C43.6099 6.81847 43.7622 6.71722 43.9297 6.64866C44.0973 6.5801 44.2769 6.5456 44.4579 6.54717C44.639 6.54874 44.8179 6.58636 44.9843 6.65782C45.1506 6.72928 45.3011 6.83316 45.4269 6.9634C49.5177 11.0548 51.8159 16.6036 51.8159 22.3893C51.8159 28.175 49.5177 33.7238 45.4269 37.8152C45.3005 37.9427 45.1501 38.0438 44.9844 38.1126C44.8187 38.1814 44.6409 38.2166 44.4615 38.2161Z" fill="url(#paint6_linear_901_5562)" fill-opacity="0.2"/>
<path d="M43.6049 35.9959C45.3916 34.2093 46.809 32.0883 47.776 29.7539C48.743 27.4195 49.2408 24.9174 49.2408 22.3907C49.2408 19.8639 48.743 17.3619 47.776 15.0275C46.809 12.6931 45.3916 10.572 43.6049 8.78539L43.6049 8.78538L43.603 8.78357C43.4871 8.67162 43.3946 8.53772 43.331 8.38966C43.2674 8.2416 43.234 8.08235 43.2326 7.92122C43.2312 7.76008 43.2619 7.60028 43.3229 7.45114C43.3839 7.302 43.474 7.1665 43.588 7.05256C43.7019 6.93862 43.8374 6.84851 43.9865 6.78749C44.1357 6.72647 44.2955 6.69576 44.4566 6.69716C44.6178 6.69857 44.777 6.73204 44.9251 6.79564C45.0731 6.85925 45.207 6.9517 45.319 7.0676L45.319 7.06762L45.3208 7.06946C49.3835 11.1327 51.6659 16.6434 51.6659 22.3893C51.6659 28.1353 49.3835 33.6459 45.3208 37.7091L45.3203 37.7096C45.208 37.823 45.0743 37.9128 44.9269 37.974C44.7795 38.0352 44.6214 38.0665 44.4619 38.0661H44.4618C44.2222 38.0656 43.9881 37.9941 43.789 37.8607C43.5899 37.7273 43.4348 37.538 43.3431 37.3166C43.2515 37.0952 43.2275 36.8516 43.2741 36.6165C43.3207 36.3816 43.4358 36.1656 43.6049 35.9959ZM43.6049 35.9959L43.4988 35.8899L43.605 35.9958C43.605 35.9958 43.6049 35.9959 43.6049 35.9959Z" stroke="url(#paint7_linear_901_5562)" stroke-opacity="0.1" stroke-width="0.3"/>
</g>
<g id="glass_4" filter="url(#filter3_bi_901_5562)">
<path d="M15.5372 38.2161C15.358 38.2166 15.1806 38.1816 15.0151 38.113C14.8496 38.0444 14.6994 37.9437 14.5731 37.8166C10.4823 33.7252 8.18408 28.1764 8.18408 22.3907C8.18408 16.605 10.4823 11.0562 14.5731 6.9648C14.6976 6.82954 14.8482 6.72086 15.0157 6.64527C15.1833 6.56969 15.3644 6.52876 15.5482 6.52495C15.732 6.52114 15.9146 6.55453 16.0852 6.62312C16.2557 6.6917 16.4106 6.79405 16.5406 6.92403C16.6706 7.05401 16.7729 7.20893 16.8415 7.37948C16.9101 7.55003 16.9435 7.73268 16.9397 7.91646C16.9359 8.10024 16.8949 8.28135 16.8194 8.44891C16.7438 8.61647 16.6351 8.76702 16.4998 8.8915C14.727 10.6642 13.3207 12.7687 12.3612 15.0849C11.4017 17.4011 10.9079 19.8836 10.9079 22.3907C10.9079 24.8978 11.4017 27.3803 12.3612 29.6965C13.3207 32.0127 14.727 34.1172 16.4998 35.8899C16.6905 36.0806 16.8203 36.3235 16.8729 36.588C16.9255 36.8525 16.8985 37.1266 16.7953 37.3757C16.6921 37.6248 16.5174 37.8378 16.2932 37.9876C16.069 38.1374 15.8054 38.2174 15.5358 38.2175L15.5372 38.2161Z" fill="#1D1D1D" fill-opacity="0.05"/>
<path d="M15.5372 38.2161C15.358 38.2166 15.1806 38.1816 15.0151 38.113C14.8496 38.0444 14.6994 37.9437 14.5731 37.8166C10.4823 33.7252 8.18408 28.1764 8.18408 22.3907C8.18408 16.605 10.4823 11.0562 14.5731 6.9648C14.6976 6.82954 14.8482 6.72086 15.0157 6.64527C15.1833 6.56969 15.3644 6.52876 15.5482 6.52495C15.732 6.52114 15.9146 6.55453 16.0852 6.62312C16.2557 6.6917 16.4106 6.79405 16.5406 6.92403C16.6706 7.05401 16.7729 7.20893 16.8415 7.37948C16.9101 7.55003 16.9435 7.73268 16.9397 7.91646C16.9359 8.10024 16.8949 8.28135 16.8194 8.44891C16.7438 8.61647 16.6351 8.76702 16.4998 8.8915C14.727 10.6642 13.3207 12.7687 12.3612 15.0849C11.4017 17.4011 10.9079 19.8836 10.9079 22.3907C10.9079 24.8978 11.4017 27.3803 12.3612 29.6965C13.3207 32.0127 14.727 34.1172 16.4998 35.8899C16.6905 36.0806 16.8203 36.3235 16.8729 36.588C16.9255 36.8525 16.8985 37.1266 16.7953 37.3757C16.6921 37.6248 16.5174 37.8378 16.2932 37.9876C16.069 38.1374 15.8054 38.2174 15.5358 38.2175L15.5372 38.2161Z" fill="url(#paint8_linear_901_5562)" fill-opacity="0.2"/>
<path d="M16.2099 37.8629C16.0272 37.985 15.8151 38.055 15.5964 38.066L15.5368 38.0661C15.3775 38.0666 15.2197 38.0354 15.0725 37.9744C14.9254 37.9134 14.7918 37.8238 14.6795 37.7109L14.6792 37.7106C10.6165 33.6473 8.33408 28.1367 8.33408 22.3907C8.33408 16.6448 10.6165 11.1341 14.6792 7.07086L14.6793 7.07095L14.6835 7.06638C14.7943 6.94601 14.9283 6.84928 15.0774 6.782C15.2265 6.71473 15.3877 6.67831 15.5513 6.67492C15.7148 6.67153 15.8774 6.70125 16.0292 6.76228C16.181 6.82332 16.3189 6.91442 16.4345 7.0301C16.5502 7.14578 16.6413 7.28366 16.7024 7.43544C16.7634 7.58723 16.7931 7.74979 16.7897 7.91335C16.7863 8.07691 16.7499 8.2381 16.6826 8.38723C16.6154 8.53636 16.5186 8.67034 16.3983 8.78113L16.3982 8.78104L16.3938 8.78543C14.607 10.572 13.1896 12.6931 12.2226 15.0275C11.2556 17.3619 10.7579 19.8639 10.7579 22.3907C10.7579 24.9175 11.2556 27.4195 12.2226 29.7539C13.1896 32.0883 14.607 34.2094 16.3938 35.996C16.5634 36.1657 16.679 36.3819 16.7258 36.6173C16.7726 36.8526 16.7485 37.0966 16.6567 37.3183C16.5649 37.54 16.4094 37.7295 16.2099 37.8629Z" stroke="url(#paint9_linear_901_5562)" stroke-opacity="0.1" stroke-width="0.3"/>
</g>
<path id="accent_3" d="M40.9095 56.4786H31.3646V27.6503C32.6499 27.3184 33.7701 26.5291 34.5152 25.4304C35.2603 24.3317 35.579 22.9989 35.4118 21.682C35.2445 20.3651 34.6026 19.1543 33.6066 18.2768C32.6105 17.3992 31.3285 16.915 30.001 16.915C28.6735 16.915 27.3915 17.3992 26.3954 18.2768C25.3994 19.1543 24.7575 20.3651 24.5903 21.682C24.423 22.9989 24.7418 24.3317 25.4868 25.4304C26.2319 26.5291 27.3521 27.3184 28.6375 27.6503V56.4786H19.0926C18.7309 56.4786 18.3841 56.6222 18.1284 56.878C17.8727 57.1337 17.729 57.4805 17.729 57.8421C17.729 58.2038 17.8727 58.5506 18.1284 58.8063C18.3841 59.062 18.7309 59.2057 19.0926 59.2057H40.9095C41.2711 59.2057 41.6179 59.062 41.8736 58.8063C42.1293 58.5506 42.273 58.2038 42.273 57.8421C42.273 57.4805 42.1293 57.1337 41.8736 56.878C41.6179 56.6222 41.2711 56.4786 40.9095 56.4786Z" fill="url(#paint10_linear_901_5562)"/>
<path id="accent_4" d="M21.3229 32.4307C21.1438 32.4312 20.9664 32.3962 20.8009 32.3276C20.6354 32.259 20.4852 32.1583 20.3589 32.0312C17.8018 29.4741 16.3652 26.0059 16.3652 22.3895C16.3652 18.7732 17.8018 15.305 20.3589 12.7478C20.4847 12.6176 20.6351 12.5137 20.8015 12.4422C20.9679 12.3708 21.1468 12.3332 21.3278 12.3316C21.5089 12.33 21.6884 12.3645 21.856 12.4331C22.0236 12.5016 22.1758 12.6029 22.3039 12.7309C22.4319 12.8589 22.5331 13.0112 22.6017 13.1788C22.6703 13.3463 22.7048 13.5259 22.7032 13.7069C22.7016 13.888 22.664 14.0669 22.5925 14.2333C22.5211 14.3996 22.4172 14.5501 22.287 14.6759C21.274 15.6888 20.4704 16.8914 19.9222 18.2149C19.3739 19.5384 19.0918 20.957 19.0918 22.3895C19.0918 23.8221 19.3739 25.2406 19.9222 26.5641C20.4704 27.8876 21.274 29.0902 22.287 30.1032C22.4776 30.2939 22.6074 30.5368 22.66 30.8013C22.7126 31.0657 22.6856 31.3398 22.5824 31.589C22.4792 31.8381 22.3045 32.051 22.0803 32.2009C21.8562 32.3507 21.5926 32.4307 21.3229 32.4307Z" fill="url(#paint11_linear_901_5562)"/>
<path id="accent_5" d="M38.6782 32.4307C38.4085 32.4307 38.1449 32.3507 37.9208 32.2009C37.6966 32.051 37.5219 31.8381 37.4187 31.589C37.3155 31.3398 37.2885 31.0657 37.3411 30.8013C37.3937 30.5368 37.5235 30.2939 37.7141 30.1032C38.7271 29.0902 39.5307 27.8876 40.0789 26.5641C40.6272 25.2406 40.9093 23.8221 40.9093 22.3895C40.9093 20.957 40.6272 19.5384 40.0789 18.2149C39.5307 16.8914 38.7271 15.6888 37.7141 14.6759C37.5839 14.5501 37.48 14.3996 37.4086 14.2333C37.3371 14.0669 37.2995 13.888 37.2979 13.7069C37.2963 13.5259 37.3308 13.3463 37.3994 13.1788C37.468 13.0112 37.5692 12.8589 37.6972 12.7309C37.8253 12.6029 37.9775 12.5016 38.1451 12.4331C38.3127 12.3645 38.4922 12.33 38.6733 12.3316C38.8543 12.3332 39.0332 12.3708 39.1996 12.4422C39.366 12.5137 39.5164 12.6176 39.6422 12.7478C42.1993 15.305 43.6359 18.7732 43.6359 22.3895C43.6359 26.0059 42.1993 29.4741 39.6422 32.0312C39.5159 32.1583 39.3657 32.259 39.2002 32.3276C39.0347 32.3962 38.8573 32.4312 38.6782 32.4307Z" fill="url(#paint12_linear_901_5562)"/>
</g>
<defs>
<filter id="filter0_bi_901_5562" x="42.8857" y="-5.20532" width="23.1143" height="55.208" filterUnits="userSpaceOnUse" color-interpolation-filters="sRGB">
<feFlood flood-opacity="0" result="BackgroundImageFix"/>
<feGaussianBlur in="BackgroundImageFix" stdDeviation="3"/>
<feComposite in2="SourceAlpha" operator="in" result="effect1_backgroundBlur_901_5562"/>
<feBlend mode="normal" in="SourceGraphic" in2="effect1_backgroundBlur_901_5562" result="shape"/>
<feColorMatrix in="SourceAlpha" type="matrix" values="0 0 0 0 0 0 0 0 0 0 0 0 0 0 0 0 0 0 127 0" result="hardAlpha"/>
<feOffset dy="1"/>
<feGaussianBlur stdDeviation="1.5"/>
<feComposite in2="hardAlpha" operator="arithmetic" k2="-1" k3="1"/>
<feColorMatrix type="matrix" values="0 0 0 0 1 0 0 0 0 1 0 0 0 0 1 0 0 0 0.15 0"/>
<feBlend mode="normal" in2="shape" result="effect2_innerShadow_901_5562"/>
</filter>
<filter id="filter1_bi_901_5562" x="-6" y="-5.20532" width="23.1143" height="55.208" filterUnits="userSpaceOnUse" color-interpolation-filters="sRGB">
<feFlood flood-opacity="0" result="BackgroundImageFix"/>
<feGaussianBlur in="BackgroundImageFix" stdDeviation="3"/>
<feComposite in2="SourceAlpha" operator="in" result="effect1_backgroundBlur_901_5562"/>
<feBlend mode="normal" in="SourceGraphic" in2="effect1_backgroundBlur_901_5562" result="shape"/>
<feColorMatrix in="SourceAlpha" type="matrix" values="0 0 0 0 0 0 0 0 0 0 0 0 0 0 0 0 0 0 127 0" result="hardAlpha"/>
<feOffset dy="1"/>
<feGaussianBlur stdDeviation="1.5"/>
<feComposite in2="hardAlpha" operator="arithmetic" k2="-1" k3="1"/>
<feColorMatrix type="matrix" values="0 0 0 0 1 0 0 0 0 1 0 0 0 0 1 0 0 0 0.15 0"/>
<feBlend mode="normal" in2="shape" result="effect2_innerShadow_901_5562"/>
</filter>
<filter id="filter2_bi_901_5562" x="37.0825" y="0.547119" width="20.7334" height="43.6689" filterUnits="userSpaceOnUse" color-interpolation-filters="sRGB">
<feFlood flood-opacity="0" result="BackgroundImageFix"/>
<feGaussianBlur in="BackgroundImageFix" stdDeviation="3"/>
<feComposite in2="SourceAlpha" operator="in" result="effect1_backgroundBlur_901_5562"/>
<feBlend mode="normal" in="SourceGraphic" in2="effect1_backgroundBlur_901_5562" result="shape"/>
<feColorMatrix in="SourceAlpha" type="matrix" values="0 0 0 0 0 0 0 0 0 0 0 0 0 0 0 0 0 0 127 0" result="hardAlpha"/>
<feOffset dy="1"/>
<feGaussianBlur stdDeviation="1.5"/>
<feComposite in2="hardAlpha" operator="arithmetic" k2="-1" k3="1"/>
<feColorMatrix type="matrix" values="0 0 0 0 1 0 0 0 0 1 0 0 0 0 1 0 0 0 0.15 0"/>
<feBlend mode="normal" in2="shape" result="effect2_innerShadow_901_5562"/>
</filter>
<filter id="filter3_bi_901_5562" x="2.18408" y="0.524658" width="20.7559" height="43.6929" filterUnits="userSpaceOnUse" color-interpolation-filters="sRGB">
<feFlood flood-opacity="0" result="BackgroundImageFix"/>
<feGaussianBlur in="BackgroundImageFix" stdDeviation="3"/>
<feComposite in2="SourceAlpha" operator="in" result="effect1_backgroundBlur_901_5562"/>
<feBlend mode="normal" in="SourceGraphic" in2="effect1_backgroundBlur_901_5562" result="shape"/>
<feColorMatrix in="SourceAlpha" type="matrix" values="0 0 0 0 0 0 0 0 0 0 0 0 0 0 0 0 0 0 127 0" result="hardAlpha"/>
<feOffset dy="1"/>
<feGaussianBlur stdDeviation="1.5"/>
<feComposite in2="hardAlpha" operator="arithmetic" k2="-1" k3="1"/>
<feColorMatrix type="matrix" values="0 0 0 0 1 0 0 0 0 1 0 0 0 0 1 0 0 0 0.15 0"/>
<feBlend mode="normal" in2="shape" result="effect2_innerShadow_901_5562"/>
</filter>
<linearGradient id="paint0_linear_901_5562" x1="43.0835" y1="6.54663" x2="55.0516" y2="7.8203" gradientUnits="userSpaceOnUse">
<stop stop-color="#3FD0FF"/>
<stop offset="1" stop-color="#2366F2"/>
</linearGradient>
<linearGradient id="paint1_linear_901_5562" x1="8.18359" y1="6.52466" x2="20.182" y2="7.80388" gradientUnits="userSpaceOnUse">
<stop stop-color="#3FD0FF"/>
<stop offset="1" stop-color="#2366F2"/>
</linearGradient>
<linearGradient id="paint2_linear_901_5562" x1="48.8857" y1="0.794678" x2="62.7632" y2="1.70109" gradientUnits="userSpaceOnUse">
<stop stop-color="#87FFE1"/>
<stop offset="0.776042" stop-color="#5C6DFF"/>
</linearGradient>
<linearGradient id="paint3_linear_901_5562" x1="49.2331" y1="2.75868" x2="60.0002" y2="2.75868" gradientUnits="userSpaceOnUse">
<stop stop-color="#3CDEB6"/>
<stop offset="0.65625" stop-color="#364AFF"/>
</linearGradient>
<linearGradient id="paint4_linear_901_5562" x1="0" y1="0.794678" x2="13.8774" y2="1.70109" gradientUnits="userSpaceOnUse">
<stop stop-color="#87FFE1"/>
<stop offset="0.776042" stop-color="#5C6DFF"/>
</linearGradient>
<linearGradient id="paint5_linear_901_5562" x1="0.347327" y1="2.75868" x2="11.1145" y2="2.75868" gradientUnits="userSpaceOnUse">
<stop stop-color="#3CDEB6"/>
<stop offset="0.65625" stop-color="#364AFF"/>
</linearGradient>
<linearGradient id="paint6_linear_901_5562" x1="43.0825" y1="6.54712" x2="53.9801" y2="7.3102" gradientUnits="userSpaceOnUse">
<stop stop-color="#87FFE1"/>
<stop offset="0.776042" stop-color="#5C6DFF"/>
</linearGradient>
<linearGradient id="paint7_linear_901_5562" x1="43.3554" y1="7.98662" x2="51.8159" y2="7.98662" gradientUnits="userSpaceOnUse">
<stop stop-color="#3CDEB6"/>
<stop offset="0.65625" stop-color="#364AFF"/>
</linearGradient>
<linearGradient id="paint8_linear_901_5562" x1="8.18408" y1="6.52466" x2="19.1095" y2="7.29109" gradientUnits="userSpaceOnUse">
<stop stop-color="#87FFE1"/>
<stop offset="0.776042" stop-color="#5C6DFF"/>
</linearGradient>
<linearGradient id="paint9_linear_901_5562" x1="8.4577" y1="7.96524" x2="16.94" y2="7.96524" gradientUnits="userSpaceOnUse">
<stop stop-color="#3CDEB6"/>
<stop offset="0.65625" stop-color="#364AFF"/>
</linearGradient>
<linearGradient id="paint10_linear_901_5562" x1="17.729" y1="16.915" x2="50.1199" y2="24.1695" gradientUnits="userSpaceOnUse">
<stop stop-color="#3FD0FF"/>
<stop offset="1" stop-color="#2366F2"/>
</linearGradient>
<linearGradient id="paint11_linear_901_5562" x1="16.3652" y1="12.3315" x2="25.0209" y2="13.3849" gradientUnits="userSpaceOnUse">
<stop stop-color="#3FD0FF"/>
<stop offset="1" stop-color="#2366F2"/>
</linearGradient>
<linearGradient id="paint12_linear_901_5562" x1="37.2979" y1="12.3315" x2="45.9536" y2="13.3849" gradientUnits="userSpaceOnUse">
<stop stop-color="#3FD0FF"/>
<stop offset="1" stop-color="#2366F2"/>
</linearGradient>
</defs>
</svg>
