<svg width="58" height="50" viewBox="0 0 58 50" fill="none" xmlns="http://www.w3.org/2000/svg">
<g id="Group">
<path id="accent" d="M56.5 1.25H1.5V36.25H56.5V1.25Z" fill="url(#paint0_linear_901_4384)"/>
<path id="accent_2" d="M36.5 37.2998H21.5V50H36.5V37.2998Z" fill="url(#paint1_linear_901_4384)"/>
<g id="Vector">
<path d="M44 46.25H14C13.3096 46.25 12.75 46.8096 12.75 47.5V48.75C12.75 49.4404 13.3096 50 14 50H44C44.6904 50 45.25 49.4404 45.25 48.75V47.5C45.25 46.8096 44.6904 46.25 44 46.25Z" fill="#1D1D1D" fill-opacity="0.05"/>
<path d="M44 46.25H14C13.3096 46.25 12.75 46.8096 12.75 47.5V48.75C12.75 49.4404 13.3096 50 14 50H44C44.6904 50 45.25 49.4404 45.25 48.75V47.5C45.25 46.8096 44.6904 46.25 44 46.25Z" fill="#1F2C6C"/>
<path d="M14 46.4H44C44.6075 46.4 45.1 46.8925 45.1 47.5V48.75C45.1 49.3575 44.6075 49.85 44 49.85H14C13.3925 49.85 12.9 49.3575 12.9 48.75V47.5C12.9 46.8925 13.3925 46.4 14 46.4Z" stroke="url(#paint2_linear_901_4384)" stroke-opacity="0.1" stroke-width="0.3"/>
</g>
<g id="glass" filter="url(#filter0_bi_901_4384)">
<path d="M55.2012 2.24854H2.79883V35.2515H55.2012V2.24854Z" fill="#1D1D1D" fill-opacity="0.05"/>
<path d="M55.2012 2.24854H2.79883V35.2515H55.2012V2.24854Z" fill="url(#paint3_linear_901_4384)" fill-opacity="0.2"/>
</g>
<g id="glass_2">
<path d="M55.25 42.5H2.75C1.36875 42.5 0.25 41.3812 0.25 40V2.5C0.25 1.11875 1.36875 0 2.75 0H55.25C56.6312 0 57.75 1.11875 57.75 2.5V40C57.75 41.3812 56.6312 42.5 55.25 42.5ZM2.75 3.75V33.75C2.75 34.44 3.31 35 4 35H54C54.69 35 55.25 34.44 55.25 33.75V3.75C55.25 3.06 54.69 2.5 54 2.5H4C3.31 2.5 2.75 3.06 2.75 3.75Z" fill="#1D1D1D" fill-opacity="0.05"/>
<path d="M55.25 42.5H2.75C1.36875 42.5 0.25 41.3812 0.25 40V2.5C0.25 1.11875 1.36875 0 2.75 0H55.25C56.6312 0 57.75 1.11875 57.75 2.5V40C57.75 41.3812 56.6312 42.5 55.25 42.5ZM2.75 3.75V33.75C2.75 34.44 3.31 35 4 35H54C54.69 35 55.25 34.44 55.25 33.75V3.75C55.25 3.06 54.69 2.5 54 2.5H4C3.31 2.5 2.75 3.06 2.75 3.75Z" fill="#1F2C6C"/>
<path d="M55.25 42.35H2.75C1.45159 42.35 0.4 41.2984 0.4 40V2.5C0.4 1.20159 1.45159 0.15 2.75 0.15H55.25C56.5484 0.15 57.6 1.20159 57.6 2.5V40C57.6 41.2984 56.5484 42.35 55.25 42.35ZM2.6 3.75V33.75C2.6 34.5228 3.22716 35.15 4 35.15H54C54.7728 35.15 55.4 34.5228 55.4 33.75V3.75C55.4 2.97716 54.7728 2.35 54 2.35H4C3.22716 2.35 2.6 2.97716 2.6 3.75Z" stroke="url(#paint4_linear_901_4384)" stroke-opacity="0.1" stroke-width="0.3"/>
</g>
<g id="detail" filter="url(#filter1_i_901_4384)">
<path d="M24.5175 20.7324L18.5263 14.7412L23.6338 9.63369C24.12 9.14369 24.1163 8.35119 23.625 7.86619C23.4175 7.66119 23.145 7.53369 22.8538 7.50869L7.85377 6.2587C7.16627 6.1987 6.56002 6.7087 6.50127 7.3962C6.49502 7.46495 6.49502 7.53494 6.50127 7.60369L7.75127 22.6037C7.81127 23.2912 8.41627 23.8012 9.10502 23.7412C9.39627 23.7162 9.66877 23.5899 9.87627 23.3837L14.9838 18.2762L20.975 24.2674C21.9688 25.2262 23.5513 25.1987 24.51 24.2062C25.4463 23.2374 25.4463 21.7012 24.51 20.7324H24.5188H24.5175Z" fill="white" fill-opacity="0.16"/>
</g>
</g>
<defs>
<filter id="filter0_bi_901_4384" x="-3.20117" y="-3.75146" width="64.4023" height="45.0029" filterUnits="userSpaceOnUse" color-interpolation-filters="sRGB">
<feFlood flood-opacity="0" result="BackgroundImageFix"/>
<feGaussianBlur in="BackgroundImageFix" stdDeviation="3"/>
<feComposite in2="SourceAlpha" operator="in" result="effect1_backgroundBlur_901_4384"/>
<feBlend mode="normal" in="SourceGraphic" in2="effect1_backgroundBlur_901_4384" result="shape"/>
<feColorMatrix in="SourceAlpha" type="matrix" values="0 0 0 0 0 0 0 0 0 0 0 0 0 0 0 0 0 0 127 0" result="hardAlpha"/>
<feOffset dy="1"/>
<feGaussianBlur stdDeviation="1.5"/>
<feComposite in2="hardAlpha" operator="arithmetic" k2="-1" k3="1"/>
<feColorMatrix type="matrix" values="0 0 0 0 1 0 0 0 0 1 0 0 0 0 1 0 0 0 0.15 0"/>
<feBlend mode="normal" in2="shape" result="effect2_innerShadow_901_4384"/>
</filter>
<filter id="filter1_i_901_4384" x="6.49658" y="6.25391" width="18.7156" height="20.7151" filterUnits="userSpaceOnUse" color-interpolation-filters="sRGB">
<feFlood flood-opacity="0" result="BackgroundImageFix"/>
<feBlend mode="normal" in="SourceGraphic" in2="BackgroundImageFix" result="shape"/>
<feColorMatrix in="SourceAlpha" type="matrix" values="0 0 0 0 0 0 0 0 0 0 0 0 0 0 0 0 0 0 127 0" result="hardAlpha"/>
<feOffset dy="2"/>
<feGaussianBlur stdDeviation="1"/>
<feComposite in2="hardAlpha" operator="arithmetic" k2="-1" k3="1"/>
<feColorMatrix type="matrix" values="0 0 0 0 1 0 0 0 0 1 0 0 0 0 1 0 0 0 0.4 0"/>
<feBlend mode="normal" in2="shape" result="effect1_innerShadow_901_4384"/>
</filter>
<linearGradient id="paint0_linear_901_4384" x1="1.5" y1="1.25" x2="57.2302" y2="35.046" gradientUnits="userSpaceOnUse">
<stop stop-color="#3FD0FF"/>
<stop offset="1" stop-color="#2366F2"/>
</linearGradient>
<linearGradient id="paint1_linear_901_4384" x1="21.5" y1="37.2998" x2="38.7128" y2="45.1451" gradientUnits="userSpaceOnUse">
<stop stop-color="#3FD0FF"/>
<stop offset="1" stop-color="#2366F2"/>
</linearGradient>
<linearGradient id="paint2_linear_901_4384" x1="13.7656" y1="46.4205" x2="45.25" y2="46.4205" gradientUnits="userSpaceOnUse">
<stop stop-color="#3CDEB6"/>
<stop offset="0.65625" stop-color="#364AFF"/>
</linearGradient>
<linearGradient id="paint3_linear_901_4384" x1="2.79883" y1="2.24854" x2="59.3197" y2="25.0363" gradientUnits="userSpaceOnUse">
<stop stop-color="#87FFE1"/>
<stop offset="0.776042" stop-color="#5C6DFF"/>
</linearGradient>
<linearGradient id="paint4_linear_901_4384" x1="2.04688" y1="1.93182" x2="57.75" y2="1.93182" gradientUnits="userSpaceOnUse">
<stop stop-color="#3CDEB6"/>
<stop offset="0.65625" stop-color="#364AFF"/>
</linearGradient>
</defs>
</svg>
