<svg width="61" height="60" viewBox="0 0 61 60" fill="none" xmlns="http://www.w3.org/2000/svg">
<path d="M28.4004 38.6438C28.4004 31.361 34.1886 25.457 41.3286 25.457H47.4049C54.545 25.457 60.3332 31.361 60.3332 38.6438C60.3332 40.8287 58.5967 42.5999 56.4547 42.5999H32.2789C30.1368 42.5999 28.4004 40.8287 28.4004 38.6438Z" fill="url(#paint0_linear_658_11928)"/>
<path d="M51.0899 15.8571C51.0899 19.6442 48.0801 22.7143 44.3672 22.7143C40.6544 22.7143 37.6445 19.6442 37.6445 15.8571C37.6445 12.07 40.6544 9 44.3672 9C48.0801 9 51.0899 12.07 51.0899 15.8571Z" fill="url(#paint1_linear_658_11928)"/>
<g filter="url(#filter0_b_658_11928)">
<path d="M42.3503 24.0644C42.3503 20.0051 39.1241 16.7144 35.1444 16.7144H7.53938C3.55968 16.7144 0.333496 20.0051 0.333496 24.0644V38.0687C0.333496 42.128 3.55968 45.4187 7.53938 45.4187H12.9424C14.8751 45.4187 16.7268 46.2106 18.0816 47.6166L19.8736 49.4762C20.6804 50.3135 22.0034 50.3135 22.8102 49.4762L24.6022 47.6166C25.957 46.2106 27.8087 45.4187 29.7414 45.4187H35.1444C39.1241 45.4187 42.3503 42.128 42.3503 38.0687V24.0644Z" fill="url(#paint2_linear_658_11928)" fill-opacity="0.3"/>
</g>
<g filter="url(#filter1_b_658_11928)">
<path fill-rule="evenodd" clip-rule="evenodd" d="M35.1444 16.9244H7.53938C3.67339 16.9244 0.539378 20.121 0.539378 24.0644V38.0687C0.539378 42.012 3.67338 45.2087 7.53938 45.2087H12.9424C14.9304 45.2087 16.835 46.0232 18.2284 47.4694L20.0204 49.329C20.7465 50.0826 21.9373 50.0826 22.6634 49.329L24.4554 47.4694C25.8488 46.0232 27.7534 45.2087 29.7414 45.2087H35.1444C39.0104 45.2087 42.1444 42.012 42.1444 38.0687V24.0644C42.1444 20.121 39.0104 16.9244 35.1444 16.9244ZM35.1444 16.7144C39.1241 16.7144 42.3503 20.0051 42.3503 24.0644V38.0687C42.3503 42.128 39.1241 45.4187 35.1444 45.4187H29.7414C27.8087 45.4187 25.957 46.2106 24.6022 47.6166L22.8102 49.4762C22.0034 50.3135 20.6804 50.3135 19.8736 49.4762L18.0816 47.6166C16.7268 46.2106 14.8751 45.4187 12.9424 45.4187H7.53938C3.55968 45.4187 0.333496 42.128 0.333496 38.0687V24.0644C0.333496 20.0051 3.55968 16.7144 7.53938 16.7144H35.1444Z" fill="url(#paint3_linear_658_11928)"/>
<path fill-rule="evenodd" clip-rule="evenodd" d="M35.1444 16.9244H7.53938C3.67339 16.9244 0.539378 20.121 0.539378 24.0644V38.0687C0.539378 42.012 3.67338 45.2087 7.53938 45.2087H12.9424C14.9304 45.2087 16.835 46.0232 18.2284 47.4694L20.0204 49.329C20.7465 50.0826 21.9373 50.0826 22.6634 49.329L24.4554 47.4694C25.8488 46.0232 27.7534 45.2087 29.7414 45.2087H35.1444C39.0104 45.2087 42.1444 42.012 42.1444 38.0687V24.0644C42.1444 20.121 39.0104 16.9244 35.1444 16.9244ZM35.1444 16.7144C39.1241 16.7144 42.3503 20.0051 42.3503 24.0644V38.0687C42.3503 42.128 39.1241 45.4187 35.1444 45.4187H29.7414C27.8087 45.4187 25.957 46.2106 24.6022 47.6166L22.8102 49.4762C22.0034 50.3135 20.6804 50.3135 19.8736 49.4762L18.0816 47.6166C16.7268 46.2106 14.8751 45.4187 12.9424 45.4187H7.53938C3.55968 45.4187 0.333496 42.128 0.333496 38.0687V24.0644C0.333496 20.0051 3.55968 16.7144 7.53938 16.7144H35.1444Z" fill="url(#paint4_radial_658_11928)"/>
</g>
<path d="M18.0286 28.6713C18.0286 30.4465 16.6257 31.8856 14.8952 31.8856C13.1646 31.8856 11.7617 30.4465 11.7617 28.6713C11.7617 26.8961 13.1646 25.457 14.8952 25.457C16.6257 25.457 18.0286 26.8961 18.0286 28.6713Z" fill="white"/>
<path d="M23.0422 28.6713C23.0422 30.4465 21.6393 31.8856 19.9087 31.8856C18.1781 31.8856 16.7752 30.4465 16.7752 28.6713C16.7752 26.8961 18.1781 25.457 19.9087 25.457C21.6393 25.457 23.0422 26.8961 23.0422 28.6713Z" fill="white"/>
<path d="M17.4019 35.7427L12.5174 30.7606L22.2865 30.7606L17.4019 35.7427Z" fill="white"/>
<path d="M19.282 30.4392C19.282 31.0605 18.5806 31.5642 17.7153 31.5642C16.85 31.5642 16.1486 31.0605 16.1486 30.4392C16.1486 29.8179 16.85 29.3142 17.7153 29.3142C18.5806 29.3142 19.282 29.8179 19.282 30.4392Z" fill="white"/>
<path d="M30.7541 25.457V35.7427H29.5476V26.7628H29.4892L27.0566 28.4302V27.1646L29.5476 25.457H30.7541Z" fill="white"/>
<defs>
<filter id="filter0_b_658_11928" x="-29.6665" y="-13.2856" width="102.017" height="93.3899" filterUnits="userSpaceOnUse" color-interpolation-filters="sRGB">
<feFlood flood-opacity="0" result="BackgroundImageFix"/>
<feGaussianBlur in="BackgroundImageFix" stdDeviation="15"/>
<feComposite in2="SourceAlpha" operator="in" result="effect1_backgroundBlur_658_11928"/>
<feBlend mode="normal" in="SourceGraphic" in2="effect1_backgroundBlur_658_11928" result="shape"/>
</filter>
<filter id="filter1_b_658_11928" x="-29.6665" y="-13.2856" width="102.017" height="93.3899" filterUnits="userSpaceOnUse" color-interpolation-filters="sRGB">
<feFlood flood-opacity="0" result="BackgroundImageFix"/>
<feGaussianBlur in="BackgroundImageFix" stdDeviation="15"/>
<feComposite in2="SourceAlpha" operator="in" result="effect1_backgroundBlur_658_11928"/>
<feBlend mode="normal" in="SourceGraphic" in2="effect1_backgroundBlur_658_11928" result="shape"/>
</filter>
<linearGradient id="paint0_linear_658_11928" x1="28.4004" y1="25.457" x2="57.5787" y2="46.4316" gradientUnits="userSpaceOnUse">
<stop stop-color="#3FD0FF"/>
<stop offset="1" stop-color="#2366F2"/>
</linearGradient>
<linearGradient id="paint1_linear_658_11928" x1="37.6445" y1="9" x2="53.9453" y2="15.1672" gradientUnits="userSpaceOnUse">
<stop stop-color="#3FD0FF"/>
<stop offset="1" stop-color="#2366F2"/>
</linearGradient>
<linearGradient id="paint2_linear_658_11928" x1="4.82976" y1="19.795" x2="45.201" y2="46.0996" gradientUnits="userSpaceOnUse">
<stop stop-color="#5A81FF" stop-opacity="0.9"/>
<stop offset="0.447036" stop-color="#567DFF" stop-opacity="0.955296"/>
<stop offset="1" stop-color="#4E78FF" stop-opacity="0.9"/>
</linearGradient>
<linearGradient id="paint3_linear_658_11928" x1="6.3802" y1="15.5219" x2="40.6763" y2="40.7198" gradientUnits="userSpaceOnUse">
<stop offset="0.188941" stop-color="#E7F0FF" stop-opacity="0.523483"/>
<stop offset="0.526042" stop-color="#88A4FF"/>
<stop offset="1" stop-color="#B4D2FF" stop-opacity="0.1"/>
</linearGradient>
<radialGradient id="paint4_radial_658_11928" cx="0" cy="0" r="1" gradientUnits="userSpaceOnUse" gradientTransform="translate(6.61276 49.0111) rotate(-44.4374) scale(29.0972 48.6225)">
<stop stop-color="white"/>
<stop offset="1" stop-color="white" stop-opacity="0"/>
</radialGradient>
</defs>
</svg>
