<svg width="60" height="60" viewBox="0 0 60 60" fill="none" xmlns="http://www.w3.org/2000/svg">
<g id="Icons">
<path id="Ellipse 31" d="M40.1606 40.1101C38.1592 42.1115 35.6091 43.4746 32.833 44.0268C30.0569 44.579 27.1794 44.2956 24.5643 43.2124C21.9493 42.1292 19.7142 40.2949 18.1416 37.9414C16.5691 35.5879 15.7297 32.821 15.7297 29.9905C15.7297 27.16 16.5691 24.393 18.1416 22.0395C19.7142 19.686 21.9493 17.8517 24.5643 16.7685C27.1794 15.6854 30.0569 15.4019 32.833 15.9541C35.6091 16.5064 38.1592 17.8694 40.1606 19.8708L30.041 29.9905L40.1606 40.1101Z" fill="url(#paint0_linear_658_12358)"/>
<g id="Ellipse 30" filter="url(#filter0_b_658_12358)">
<path d="M15 15C17.9667 12.0333 21.7465 10.0129 25.8615 9.1944C29.9765 8.37588 34.2417 8.79597 38.1179 10.4016C41.9941 12.0071 45.3072 14.7261 47.6381 18.2146C49.9691 21.7031 51.2132 25.8044 51.2132 30C51.2132 34.1956 49.9691 38.2969 47.6381 41.7854C45.3072 45.2739 41.9941 47.9929 38.1179 49.5984C34.2417 51.204 29.9765 51.6241 25.8615 50.8056C21.7465 49.9871 17.9667 47.9667 15 45L30 30L15 15Z" fill="url(#paint1_linear_658_12358)" fill-opacity="0.3"/>
</g>
<g id="Ellipse 30 (Stroke)" filter="url(#filter1_b_658_12358)">
<path fill-rule="evenodd" clip-rule="evenodd" d="M30 30L15 45C15.0239 45.0239 15.0479 45.0478 15.0719 45.0716C18.0277 47.9992 21.7797 49.9937 25.8615 50.8056C29.9765 51.6241 34.2417 51.204 38.1179 49.5984C41.9941 47.9929 45.3072 45.2739 47.6381 41.7854C49.9691 38.2969 51.2132 34.1956 51.2132 30C51.2132 25.8044 49.9691 21.7031 47.6381 18.2146C45.3072 14.7261 41.9941 12.0071 38.1179 10.4016C34.2417 8.79597 29.9765 8.37588 25.8615 9.1944C21.7797 10.0063 18.0277 12.0008 15.0719 14.9284C15.0479 14.9522 15.0239 14.9761 15 15L30 30ZM15.1437 15.0002L30.1435 30L15.1437 44.9998C18.0853 47.9133 21.8192 49.898 25.8813 50.706C29.9766 51.5206 34.2214 51.1026 38.0791 49.5047C41.9368 47.9068 45.2339 45.2008 47.5537 41.729C49.8735 38.2572 51.1117 34.1755 51.1117 30C51.1117 25.8245 49.8735 21.7428 47.5537 18.271C45.2339 14.7992 41.9368 12.0932 38.0791 10.4953C34.2214 8.89743 29.9766 8.47935 25.8813 9.29395C21.8192 10.1019 18.0853 12.0867 15.1437 15.0002Z" fill="url(#paint2_linear_658_12358)"/>
<path fill-rule="evenodd" clip-rule="evenodd" d="M30 30L15 45C15.0239 45.0239 15.0479 45.0478 15.0719 45.0716C18.0277 47.9992 21.7797 49.9937 25.8615 50.8056C29.9765 51.6241 34.2417 51.204 38.1179 49.5984C41.9941 47.9929 45.3072 45.2739 47.6381 41.7854C49.9691 38.2969 51.2132 34.1956 51.2132 30C51.2132 25.8044 49.9691 21.7031 47.6381 18.2146C45.3072 14.7261 41.9941 12.0071 38.1179 10.4016C34.2417 8.79597 29.9765 8.37588 25.8615 9.1944C21.7797 10.0063 18.0277 12.0008 15.0719 14.9284C15.0479 14.9522 15.0239 14.9761 15 15L30 30ZM15.1437 15.0002L30.1435 30L15.1437 44.9998C18.0853 47.9133 21.8192 49.898 25.8813 50.706C29.9766 51.5206 34.2214 51.1026 38.0791 49.5047C41.9368 47.9068 45.2339 45.2008 47.5537 41.729C49.8735 38.2572 51.1117 34.1755 51.1117 30C51.1117 25.8245 49.8735 21.7428 47.5537 18.271C45.2339 14.7992 41.9368 12.0932 38.0791 10.4953C34.2214 8.89743 29.9766 8.47935 25.8813 9.29395C21.8192 10.1019 18.0853 12.0867 15.1437 15.0002Z" fill="url(#paint3_radial_658_12358)"/>
</g>
</g>
<defs>
<filter id="filter0_b_658_12358" x="-15" y="-21.2131" width="96.2129" height="102.426" filterUnits="userSpaceOnUse" color-interpolation-filters="sRGB">
<feFlood flood-opacity="0" result="BackgroundImageFix"/>
<feGaussianBlur in="BackgroundImageFix" stdDeviation="15"/>
<feComposite in2="SourceAlpha" operator="in" result="effect1_backgroundBlur_658_12358"/>
<feBlend mode="normal" in="SourceGraphic" in2="effect1_backgroundBlur_658_12358" result="shape"/>
</filter>
<filter id="filter1_b_658_12358" x="-15" y="-21.2131" width="96.2129" height="102.426" filterUnits="userSpaceOnUse" color-interpolation-filters="sRGB">
<feFlood flood-opacity="0" result="BackgroundImageFix"/>
<feGaussianBlur in="BackgroundImageFix" stdDeviation="15"/>
<feComposite in2="SourceAlpha" operator="in" result="effect1_backgroundBlur_658_12358"/>
<feBlend mode="normal" in="SourceGraphic" in2="effect1_backgroundBlur_658_12358" result="shape"/>
</filter>
<linearGradient id="paint0_linear_658_12358" x1="30.041" y1="9.75122" x2="45.0335" y2="43.5865" gradientUnits="userSpaceOnUse">
<stop stop-color="#3FD0FF"/>
<stop offset="1" stop-color="#2366F2"/>
</linearGradient>
<linearGradient id="paint1_linear_658_12358" x1="29.5575" y1="54.0218" x2="13.943" y2="4.87427" gradientUnits="userSpaceOnUse">
<stop stop-color="#5A81FF" stop-opacity="0.9"/>
<stop offset="0.447036" stop-color="#567DFF" stop-opacity="0.955296"/>
<stop offset="1" stop-color="#4E78FF" stop-opacity="0.9"/>
</linearGradient>
<linearGradient id="paint2_linear_658_12358" x1="24.6112" y1="56.7541" x2="12.9095" y2="12.2159" gradientUnits="userSpaceOnUse">
<stop offset="0.188941" stop-color="#E7F0FF" stop-opacity="0.523483"/>
<stop offset="0.526042" stop-color="#88A4FF"/>
<stop offset="1" stop-color="#B4D2FF" stop-opacity="0.1"/>
</linearGradient>
<radialGradient id="paint3_radial_658_12358" cx="0" cy="0" r="1" gradientUnits="userSpaceOnUse" gradientTransform="translate(54.5345 26.4987) rotate(174.023) scale(33.3187 54.4798)">
<stop stop-color="white"/>
<stop offset="1" stop-color="white" stop-opacity="0"/>
</radialGradient>
</defs>
</svg>
