<svg width="60" height="60" viewBox="0 0 60 60" fill="none" xmlns="http://www.w3.org/2000/svg">
<g id="vr-headset" clip-path="url(#clip0_658_12419)">
<path id="Vector" d="M56.463 57.449L45.0313 53.9276C43.6964 53.5221 42.5277 52.6971 41.6987 51.5751C40.8696 50.453 40.4242 49.0937 40.4286 47.6985V40.4365H19.5608V47.6985C19.566 49.0943 19.1211 50.4546 18.2919 51.5774C17.4628 52.7003 16.2937 53.5258 14.9581 53.9315L3.52645 57.453C3.23074 57.5469 2.97822 57.7432 2.81423 58.0066C2.65024 58.27 2.58553 58.5833 2.63172 58.8901C2.67791 59.1969 2.83197 59.4772 3.06624 59.6807C3.3005 59.8841 3.59963 59.9974 3.90989 60.0001H56.0795C56.392 60.0003 56.6941 59.8884 56.931 59.6846C57.1678 59.4808 57.3237 59.1987 57.3701 58.8897C57.4165 58.5808 57.3505 58.2654 57.184 58.001C57.0175 57.7366 56.7617 57.5407 56.463 57.449Z" fill="url(#paint0_linear_658_12419)"/>
<path id="Vector_2" d="M46.7724 9.54545C45.1014 6.58505 42.658 4.13391 39.7029 2.45364C36.7477 0.773362 33.3918 -0.0729814 29.9933 0.00493288C24.8047 0.00493288 19.8286 2.06609 16.1597 5.73498C12.4908 9.40387 10.4297 14.3799 10.4297 19.5685V22.177C10.4297 35.2194 19.5594 46.9576 29.9933 46.9576C40.1077 46.9576 48.97 35.9198 49.5047 22.177H49.5569V19.5685C49.5564 16.0366 48.5937 12.5715 46.7724 9.54545Z" fill="url(#paint1_linear_658_12419)"/>
<g id="Vector_3" filter="url(#filter0_bi_658_12419)">
<path d="M53.4683 31.3072V16.9606C53.4683 15.9229 53.0561 14.9276 52.3223 14.1939C51.5885 13.4601 50.5933 13.0479 49.5556 13.0479H10.4283C9.39063 13.0479 8.39541 13.4601 7.66163 14.1939C6.92786 14.9276 6.51562 15.9229 6.51562 16.9606V31.3072C6.51562 32.3449 6.92786 33.3402 7.66163 34.0739C8.39541 34.8077 9.39063 35.2199 10.4283 35.2199H22.7482C22.9694 35.2199 23.187 35.1637 23.3805 35.0564C23.5739 34.9492 23.737 34.7945 23.8542 34.607L26.2344 30.7973C26.6333 30.1607 27.1874 29.636 27.8447 29.2722C28.5019 28.9085 29.2408 28.7177 29.992 28.7177C30.7431 28.7177 31.482 28.9085 32.1393 29.2722C32.7965 29.636 33.3506 30.1607 33.7495 30.7973L36.1297 34.607C36.247 34.7945 36.41 34.9492 36.6035 35.0564C36.7969 35.1637 37.0145 35.2199 37.2357 35.2199H49.5556C50.5933 35.2199 51.5885 34.8077 52.3223 34.0739C53.0561 33.3402 53.4683 32.3449 53.4683 31.3072Z" fill="#1D1D1D" fill-opacity="0.05"/>
<path d="M53.4683 31.3072V16.9606C53.4683 15.9229 53.0561 14.9276 52.3223 14.1939C51.5885 13.4601 50.5933 13.0479 49.5556 13.0479H10.4283C9.39063 13.0479 8.39541 13.4601 7.66163 14.1939C6.92786 14.9276 6.51562 15.9229 6.51562 16.9606V31.3072C6.51562 32.3449 6.92786 33.3402 7.66163 34.0739C8.39541 34.8077 9.39063 35.2199 10.4283 35.2199H22.7482C22.9694 35.2199 23.187 35.1637 23.3805 35.0564C23.5739 34.9492 23.737 34.7945 23.8542 34.607L26.2344 30.7973C26.6333 30.1607 27.1874 29.636 27.8447 29.2722C28.5019 28.9085 29.2408 28.7177 29.992 28.7177C30.7431 28.7177 31.482 28.9085 32.1393 29.2722C32.7965 29.636 33.3506 30.1607 33.7495 30.7973L36.1297 34.607C36.247 34.7945 36.41 34.9492 36.6035 35.0564C36.7969 35.1637 37.0145 35.2199 37.2357 35.2199H49.5556C50.5933 35.2199 51.5885 34.8077 52.3223 34.0739C53.0561 33.3402 53.4683 32.3449 53.4683 31.3072Z" fill="url(#paint2_linear_658_12419)" fill-opacity="0.2"/>
<path d="M25.8108 30.5317L25.8104 30.5323L23.4302 34.3419C23.4302 34.342 23.4302 34.342 23.4302 34.342C23.3579 34.4577 23.2574 34.553 23.1381 34.6191C23.0188 34.6852 22.8846 34.7199 22.7482 34.7199H10.4283C9.52324 34.7199 8.6552 34.3604 8.01519 33.7204C7.37518 33.0804 7.01562 32.2123 7.01562 31.3072V16.9606C7.01562 16.0555 7.37518 15.1874 8.01519 14.5474C8.6552 13.9074 9.52324 13.5479 10.4283 13.5479H49.5556C50.4607 13.5479 51.3287 13.9074 51.9687 14.5474C52.6087 15.1874 52.9683 16.0555 52.9683 16.9606V31.3072C52.9683 32.2123 52.6087 33.0804 51.9687 33.7204C51.3287 34.3604 50.4607 34.7199 49.5556 34.7199H37.2357C37.0993 34.7199 36.9651 34.6852 36.8458 34.6191C36.7266 34.553 36.626 34.4577 36.5538 34.342C36.5537 34.342 36.5537 34.342 36.5537 34.3419L34.1735 30.5323L34.1732 30.5317C33.7293 29.8235 33.1127 29.2395 32.3814 28.8348C31.65 28.43 30.8278 28.2177 29.992 28.2177C29.1561 28.2177 28.3339 28.43 27.6025 28.8348C26.8712 29.2395 26.2546 29.8235 25.8108 30.5317Z" stroke="url(#paint3_linear_658_12419)" stroke-opacity="0.1"/>
</g>
<g id="Vector_4" filter="url(#filter1_i_658_12419)">
<path d="M45.6451 22.1768H14.3433C13.9974 22.1768 13.6657 22.0394 13.4211 21.7948C13.1765 21.5502 13.0391 21.2185 13.0391 20.8726C13.0391 20.5267 13.1765 20.195 13.4211 19.9504C13.6657 19.7058 13.9974 19.5684 14.3433 19.5684H45.6451C45.991 19.5684 46.3227 19.7058 46.5673 19.9504C46.8119 20.195 46.9493 20.5267 46.9493 20.8726C46.9493 21.2185 46.8119 21.5502 46.5673 21.7948C46.3227 22.0394 45.991 22.1768 45.6451 22.1768Z" fill="white" fill-opacity="0.1"/>
</g>
</g>
<defs>
<filter id="filter0_bi_658_12419" x="3.51562" y="10.0479" width="52.9531" height="28.1721" filterUnits="userSpaceOnUse" color-interpolation-filters="sRGB">
<feFlood flood-opacity="0" result="BackgroundImageFix"/>
<feGaussianBlur in="BackgroundImageFix" stdDeviation="1.5"/>
<feComposite in2="SourceAlpha" operator="in" result="effect1_backgroundBlur_658_12419"/>
<feBlend mode="normal" in="SourceGraphic" in2="effect1_backgroundBlur_658_12419" result="shape"/>
<feColorMatrix in="SourceAlpha" type="matrix" values="0 0 0 0 0 0 0 0 0 0 0 0 0 0 0 0 0 0 127 0" result="hardAlpha"/>
<feOffset dy="0.5"/>
<feGaussianBlur stdDeviation="1"/>
<feComposite in2="hardAlpha" operator="arithmetic" k2="-1" k3="1"/>
<feColorMatrix type="matrix" values="0 0 0 0 1 0 0 0 0 1 0 0 0 0 1 0 0 0 0.15 0"/>
<feBlend mode="normal" in2="shape" result="effect2_innerShadow_658_12419"/>
</filter>
<filter id="filter1_i_658_12419" x="13.0391" y="19.5684" width="33.9102" height="3.1084" filterUnits="userSpaceOnUse" color-interpolation-filters="sRGB">
<feFlood flood-opacity="0" result="BackgroundImageFix"/>
<feBlend mode="normal" in="SourceGraphic" in2="BackgroundImageFix" result="shape"/>
<feColorMatrix in="SourceAlpha" type="matrix" values="0 0 0 0 0 0 0 0 0 0 0 0 0 0 0 0 0 0 127 0" result="hardAlpha"/>
<feOffset dy="0.5"/>
<feGaussianBlur stdDeviation="0.25"/>
<feComposite in2="hardAlpha" operator="arithmetic" k2="-1" k3="1"/>
<feColorMatrix type="matrix" values="0 0 0 0 1 0 0 0 0 1 0 0 0 0 1 0 0 0 0.1 0"/>
<feBlend mode="normal" in2="shape" result="effect1_innerShadow_658_12419"/>
</filter>
<linearGradient id="paint0_linear_658_12419" x1="2.61719" y1="40.4365" x2="37.6421" y2="78.2747" gradientUnits="userSpaceOnUse">
<stop stop-color="#3FD0FF"/>
<stop offset="1" stop-color="#2366F2"/>
</linearGradient>
<linearGradient id="paint1_linear_658_12419" x1="10.4297" y1="0" x2="59.5748" y2="15.8028" gradientUnits="userSpaceOnUse">
<stop stop-color="#3FD0FF"/>
<stop offset="1" stop-color="#2366F2"/>
</linearGradient>
<linearGradient id="paint2_linear_658_12419" x1="6.51563" y1="13.0479" x2="52.1858" y2="37.6051" gradientUnits="userSpaceOnUse">
<stop stop-color="#87FFE1"/>
<stop offset="0.776042" stop-color="#5C6DFF"/>
</linearGradient>
<linearGradient id="paint3_linear_658_12419" x1="7.9829" y1="14.0557" x2="53.4683" y2="14.0557" gradientUnits="userSpaceOnUse">
<stop stop-color="#3CDEB6"/>
<stop offset="0.65625" stop-color="#364AFF"/>
</linearGradient>
<clipPath id="clip0_658_12419">
<rect width="60" height="60" fill="white"/>
</clipPath>
</defs>
</svg>
