<svg width="60" height="57" viewBox="0 0 60 57" fill="none" xmlns="http://www.w3.org/2000/svg">
<g id="Icons">
<path id="Rectangle 11" d="M10.8821 5.51294C11.5664 2.46823 14.5893 0.554734 17.634 1.23903L49.2504 8.34481C52.2951 9.02911 54.2086 12.0521 53.5243 15.0968L50.1607 30.0625C49.4764 33.1073 46.4534 35.0207 43.4087 34.3364L11.7924 27.2307C8.74769 26.5464 6.8342 23.5234 7.5185 20.4787L10.8821 5.51294Z" fill="url(#paint0_linear_658_12535)"/>
<g id="Subtract" filter="url(#filter0_b_658_12535)">
<path fill-rule="evenodd" clip-rule="evenodd" d="M22.2585 13.3047H8.47569C3.79469 13.3047 0 17.0994 0 21.7804V48.029C0 52.71 3.7947 56.5047 8.47569 56.5047H51.5243C56.2053 56.5047 60 52.71 60 48.029V21.7804C60 17.0994 56.2053 13.3047 51.5243 13.3047L37.7415 13.3047C36.971 16.8718 33.7976 19.5447 30 19.5447C26.2024 19.5447 23.029 16.8718 22.2585 13.3047Z" fill="url(#paint1_linear_658_12535)" fill-opacity="0.3"/>
</g>
<g id="Subtract (Stroke)" filter="url(#filter1_b_658_12535)">
<path fill-rule="evenodd" clip-rule="evenodd" d="M22.1454 13.4459H8.47569C3.87271 13.4459 0.141261 17.1774 0.141261 21.7804V48.029C0.141261 52.632 3.87271 56.3634 8.47569 56.3634H51.5243C56.1273 56.3634 59.8587 52.632 59.8587 48.029V21.7804C59.8587 17.1774 56.1273 13.4459 51.5243 13.4459H37.8546C37.029 17.0208 33.8259 19.6859 30 19.6859C26.1741 19.6859 22.971 17.0208 22.1454 13.4459ZM22.2585 13.3047H8.47569C3.79469 13.3047 0 17.0994 0 21.7804V48.029C0 52.71 3.7947 56.5047 8.47569 56.5047H51.5243C56.2053 56.5047 60 52.71 60 48.029V21.7804C60 17.0994 56.2053 13.3047 51.5243 13.3047H37.7415C36.971 16.8718 33.7976 19.5447 30 19.5447C26.2024 19.5447 23.029 16.8718 22.2585 13.3047Z" fill="url(#paint2_linear_658_12535)"/>
<path fill-rule="evenodd" clip-rule="evenodd" d="M22.1454 13.4459H8.47569C3.87271 13.4459 0.141261 17.1774 0.141261 21.7804V48.029C0.141261 52.632 3.87271 56.3634 8.47569 56.3634H51.5243C56.1273 56.3634 59.8587 52.632 59.8587 48.029V21.7804C59.8587 17.1774 56.1273 13.4459 51.5243 13.4459H37.8546C37.029 17.0208 33.8259 19.6859 30 19.6859C26.1741 19.6859 22.971 17.0208 22.1454 13.4459ZM22.2585 13.3047H8.47569C3.79469 13.3047 0 17.0994 0 21.7804V48.029C0 52.71 3.7947 56.5047 8.47569 56.5047H51.5243C56.2053 56.5047 60 52.71 60 48.029V21.7804C60 17.0994 56.2053 13.3047 51.5243 13.3047H37.7415C36.971 16.8718 33.7976 19.5447 30 19.5447C26.2024 19.5447 23.029 16.8718 22.2585 13.3047Z" fill="url(#paint3_radial_658_12535)"/>
</g>
<ellipse id="Ellipse 35" cx="26.2749" cy="34.9477" rx="5.08541" ry="5.08541" fill="white"/>
<circle id="Ellipse 36" cx="36.1638" cy="37.4905" r="2.54271" fill="white"/>
</g>
<defs>
<filter id="filter0_b_658_12535" x="-30" y="-16.6953" width="120" height="103.2" filterUnits="userSpaceOnUse" color-interpolation-filters="sRGB">
<feFlood flood-opacity="0" result="BackgroundImageFix"/>
<feGaussianBlur in="BackgroundImageFix" stdDeviation="15"/>
<feComposite in2="SourceAlpha" operator="in" result="effect1_backgroundBlur_658_12535"/>
<feBlend mode="normal" in="SourceGraphic" in2="effect1_backgroundBlur_658_12535" result="shape"/>
</filter>
<filter id="filter1_b_658_12535" x="-30" y="-16.6953" width="120" height="103.2" filterUnits="userSpaceOnUse" color-interpolation-filters="sRGB">
<feFlood flood-opacity="0" result="BackgroundImageFix"/>
<feGaussianBlur in="BackgroundImageFix" stdDeviation="15"/>
<feComposite in2="SourceAlpha" operator="in" result="effect1_backgroundBlur_658_12535"/>
<feBlend mode="normal" in="SourceGraphic" in2="effect1_backgroundBlur_658_12535" result="shape"/>
</filter>
<linearGradient id="paint0_linear_658_12535" x1="12.1211" y1="0" x2="48.3056" y2="36.1914" gradientUnits="userSpaceOnUse">
<stop stop-color="#3FD0FF"/>
<stop offset="1" stop-color="#2366F2"/>
</linearGradient>
<linearGradient id="paint1_linear_658_12535" x1="6.42066" y1="17.2904" x2="60.5509" y2="56.2181" gradientUnits="userSpaceOnUse">
<stop stop-color="#5A81FF" stop-opacity="0.9"/>
<stop offset="0.447036" stop-color="#567DFF" stop-opacity="0.955296"/>
<stop offset="1" stop-color="#4E78FF" stop-opacity="0.9"/>
</linearGradient>
<linearGradient id="paint2_linear_658_12535" x1="8.63469" y1="11.7618" x2="54.1295" y2="48.6546" gradientUnits="userSpaceOnUse">
<stop offset="0.188941" stop-color="#E7F0FF" stop-opacity="0.523483"/>
<stop offset="0.526042" stop-color="#88A4FF"/>
<stop offset="1" stop-color="#B4D2FF" stop-opacity="0.1"/>
</linearGradient>
<radialGradient id="paint3_radial_658_12535" cx="0" cy="0" r="1" gradientUnits="userSpaceOnUse" gradientTransform="translate(8.96679 55.0904) rotate(-41.6181) scale(39.6848 65.866)">
<stop stop-color="white"/>
<stop offset="1" stop-color="white" stop-opacity="0"/>
</radialGradient>
</defs>
</svg>
