<svg width="20" height="20" viewBox="0 0 20 20" fill="none" xmlns="http://www.w3.org/2000/svg">
<g id="Phone 1 Filled">
<g id="Icon">
<path d="M7.49275 8.79161C7.4374 8.49056 7.56838 8.20068 7.73503 7.9435C8.40066 6.91625 8.62051 5.91053 7.18405 4.48053C5.32713 2.63196 3.98364 3.16568 2.82432 4.31978C1.97511 5.16518 1.78674 6.43395 2.23745 7.54073C2.96132 9.97022 9.43041 16.6642 12.5439 17.7785C13.6468 18.208 14.9023 18.0153 15.742 17.1794C16.9013 16.0253 17.3567 14.6075 15.5806 12.8393C13.9911 11.257 13.1003 11.6013 12.0898 12.2922C11.8493 12.4566 11.5735 12.5791 11.2853 12.5344C10.6396 12.4343 9.64272 12.0035 8.71791 10.9908C7.97086 10.1728 7.59825 9.36544 7.49275 8.79161Z" fill="#3FD0FF"/>
<path fill-rule="evenodd" clip-rule="evenodd" d="M11.1725 2.82042C11.262 2.28548 11.7693 1.92424 12.3055 2.01356C13.5673 2.22376 14.8849 2.93969 15.9715 4.02374C17.0581 5.10779 17.7757 6.42232 17.9864 7.68112C18.0759 8.21606 17.7138 8.72213 17.1776 8.81146C16.6414 8.90079 16.1342 8.53954 16.0446 8.0046C15.9128 7.21697 15.4288 6.25983 14.5794 5.41251C13.7301 4.5652 12.7707 4.08228 11.9813 3.95076C11.4451 3.86144 11.083 3.35537 11.1725 2.82042ZM10.8723 5.89567C10.9619 5.36073 11.4691 4.99948 12.0054 5.08881C12.681 5.20137 13.3481 5.57478 13.8816 6.10701C14.4151 6.63924 14.7893 7.30472 14.9022 7.97882C14.9917 8.51377 14.6296 9.01984 14.0934 9.10916C13.5572 9.19849 13.05 8.83724 12.9604 8.3023C12.9264 8.09936 12.7857 7.79127 12.4895 7.49578C12.1933 7.20028 11.8845 7.05989 11.6811 7.02601C11.1449 6.93668 10.7828 6.43061 10.8723 5.89567Z" fill="#3FD0FF"/>
</g>
</g>
</svg>
