<svg width="100" height="100" viewBox="0 0 100 100" fill="none" xmlns="http://www.w3.org/2000/svg">
<rect x="14" y="14" width="72" height="72" rx="36" fill="white"/>
<path d="M45.5 53.8031V47.1969C45.5 43.4436 45.5 41.5669 46.6643 41.0314C47.8286 40.4959 49.2534 41.7172 52.1032 44.1599L55.9568 47.463C57.6035 48.8744 58.4268 49.5801 58.4268 50.5C58.4268 51.4199 57.6035 52.1256 55.9568 53.537L52.1032 56.8401C49.2534 59.2828 47.8286 60.5041 46.6643 59.9686C45.5 59.4331 45.5 57.5564 45.5 53.8031Z" fill="url(#paint0_linear_720_9859)"/>
<rect x="14" y="14" width="72" height="72" rx="36" stroke="white"/>
<circle cx="50" cy="50" r="49.5" fill="url(#paint1_radial_720_9859)" fill-opacity="0.2" stroke="url(#paint2_linear_720_9859)"/>
<defs>
<linearGradient id="paint0_linear_720_9859" x1="45.5" y1="38.5" x2="63.9669" y2="42.6571" gradientUnits="userSpaceOnUse">
<stop stop-color="#3FD0FF"/>
<stop offset="1" stop-color="#2366F2"/>
</linearGradient>
<radialGradient id="paint1_radial_720_9859" cx="0" cy="0" r="1" gradientUnits="userSpaceOnUse" gradientTransform="translate(50 50) rotate(90) scale(50)">
<stop stop-color="#3FD0FF"/>
<stop offset="0.927083" stop-color="#B8FF20" stop-opacity="0"/>
</radialGradient>
<linearGradient id="paint2_linear_720_9859" x1="0" y1="0" x2="120.626" y2="46.5503" gradientUnits="userSpaceOnUse">
<stop stop-color="#3FD0FF"/>
<stop offset="1" stop-color="#2366F2"/>
</linearGradient>
</defs>
</svg>
