<svg width="24" height="24" viewBox="0 0 24 24" fill="none" xmlns="http://www.w3.org/2000/svg">
<g id="Icon">
<path id="Vector" d="M18.5796 20L12.9608 14.3948C12.557 14.7155 12.0801 14.9664 11.53 15.1477C10.98 15.329 10.3847 15.4196 9.74412 15.4196C8.14273 15.4196 6.78503 14.8619 5.67102 13.7464C4.55701 12.6309 4 11.2854 4 9.7098C4 8.1342 4.55701 6.78867 5.67102 5.6732C6.78503 4.55773 8.13577 4 9.72324 4C11.2968 4 12.6371 4.55773 13.7441 5.6732C14.8512 6.78867 15.4047 8.1342 15.4047 9.7098C15.4047 10.3373 15.3177 10.9194 15.1436 11.4562C14.9695 11.993 14.7084 12.4985 14.3603 12.9725L20 18.5778L18.5796 20ZM9.72324 13.4536C10.7676 13.4536 11.6484 13.0876 12.3655 12.3556C13.0827 11.6235 13.4413 10.7416 13.4413 9.7098C13.4413 8.66405 13.0827 7.77865 12.3655 7.05359C11.6484 6.32854 10.7676 5.96601 9.72324 5.96601C8.67885 5.96601 7.79112 6.32854 7.06005 7.05359C6.32898 7.77865 5.96345 8.66405 5.96345 9.7098C5.96345 10.7416 6.32898 11.6235 7.06005 12.3556C7.79112 13.0876 8.67885 13.4536 9.72324 13.4536Z" fill="white" fill-opacity="0.7"/>
</g>
</svg>
