<svg width="24" height="24" viewBox="0 0 24 24" fill="none" xmlns="http://www.w3.org/2000/svg">
<g id="Twitter">
<path id="Symbol" d="M21.543 6.99458C21.5576 7.21156 21.5576 7.42855 21.5576 7.64754C21.5576 14.3201 16.6045 22.0156 7.54759 22.0156V22.0116C4.87215 22.0156 2.25229 21.2297 0 19.7478C0.389031 19.7958 0.780012 19.8198 1.17197 19.8208C3.38915 19.8228 5.54296 19.0598 7.28726 17.6549C5.18026 17.6139 3.3326 16.205 2.68714 14.1481C3.42523 14.2941 4.18574 14.2641 4.91018 14.0611C2.61304 13.5852 0.96039 11.5153 0.96039 9.11144C0.96039 9.08945 0.96039 9.06845 0.96039 9.04745C1.64485 9.43842 2.41121 9.65541 3.19512 9.67941C1.03157 8.1965 0.364656 5.24469 1.67118 2.93683C4.17111 6.09163 7.8596 8.00951 11.8191 8.2125C11.4223 6.45861 11.9644 4.62073 13.2436 3.3878C15.2268 1.47592 18.3459 1.57391 20.2101 3.60679C21.3129 3.3838 22.3698 2.96883 23.337 2.38086C22.9694 3.54979 22.2001 4.54273 21.1725 5.17369C22.1484 5.0557 23.102 4.78771 24 4.37874C23.3389 5.39468 22.5063 6.27962 21.543 6.99458Z" fill="white"/>
</g>
</svg>
