<svg width="60" height="60" viewBox="0 0 60 60" fill="none" xmlns="http://www.w3.org/2000/svg">
<g id="style-icon/workspace">
<path id="Line 1 (Stroke)" fill-rule="evenodd" clip-rule="evenodd" d="M13.879 53.6706C13.7196 50.0863 16.1833 39.7896 19.5775 39.7896L40.4196 39.7896C43.8138 39.7896 46.5617 50.0863 46.7211 53.6706C46.8804 57.2548 44.0801 59.9801 40.6858 59.9801H20.4753C17.0811 59.9801 14.0383 57.2548 13.879 53.6706Z" fill="url(#paint0_linear_461_23654)" fill-opacity="0.7"/>
<g id="Group 302">
<rect id="Rectangle 30" x="1.89453" width="55.5789" height="55.5789" rx="14.322" fill="#1F2C6C"/>
</g>
<g id="Rectangle 31" filter="url(#filter0_i_461_23654)">
<path d="M10.7383 13.1386C10.7383 10.7657 12.6619 8.84204 15.0349 8.84204H23.4943C25.8673 8.84204 27.7909 10.7657 27.7909 13.1386V21.5981C27.7909 23.971 25.8673 25.8947 23.4943 25.8947H15.0349C12.6619 25.8947 10.7383 23.971 10.7383 21.5981V13.1386Z" fill="white" fill-opacity="0.1"/>
</g>
<g id="Rectangle 34" filter="url(#filter1_i_461_23654)">
<path d="M31.5781 34.6123C31.5781 32.2393 33.5018 30.3157 35.8747 30.3157H44.3342C46.7071 30.3157 48.6308 32.2393 48.6308 34.6123V43.0717C48.6308 45.4447 46.7071 47.3683 44.3342 47.3683H35.8747C33.5018 47.3683 31.5781 45.4446 31.5781 43.0717V34.6123Z" fill="white" fill-opacity="0.1"/>
</g>
<g id="Rectangle 32" filter="url(#filter2_i_461_23654)">
<path d="M31.5781 13.1386C31.5781 10.7657 33.5018 8.84204 35.8747 8.84204H44.3342C46.7071 8.84204 48.6308 10.7657 48.6308 13.1386V21.5981C48.6308 23.971 46.7071 25.8947 44.3342 25.8947H35.8747C33.5018 25.8947 31.5781 23.971 31.5781 21.5981V13.1386Z" fill="white" fill-opacity="0.1"/>
</g>
<g id="Rectangle 33" filter="url(#filter3_i_461_23654)">
<path d="M10.7383 34.6123C10.7383 32.2393 12.6619 30.3157 15.0349 30.3157H23.4943C25.8673 30.3157 27.7909 32.2393 27.7909 34.6123V43.0717C27.7909 45.4447 25.8673 47.3683 23.4943 47.3683H15.0349C12.6619 47.3683 10.7383 45.4446 10.7383 43.0717V34.6123Z" fill="white" fill-opacity="0.1"/>
</g>
</g>
<defs>
<filter id="filter0_i_461_23654" x="10.7383" y="8.84204" width="17.0527" height="18.4848" filterUnits="userSpaceOnUse" color-interpolation-filters="sRGB">
<feFlood flood-opacity="0" result="BackgroundImageFix"/>
<feBlend mode="normal" in="SourceGraphic" in2="BackgroundImageFix" result="shape"/>
<feColorMatrix in="SourceAlpha" type="matrix" values="0 0 0 0 0 0 0 0 0 0 0 0 0 0 0 0 0 0 127 0" result="hardAlpha"/>
<feOffset dy="1.4322"/>
<feGaussianBlur stdDeviation="0.7161"/>
<feComposite in2="hardAlpha" operator="arithmetic" k2="-1" k3="1"/>
<feColorMatrix type="matrix" values="0 0 0 0 1 0 0 0 0 1 0 0 0 0 1 0 0 0 0.15 0"/>
<feBlend mode="normal" in2="shape" result="effect1_innerShadow_461_23654"/>
</filter>
<filter id="filter1_i_461_23654" x="31.5781" y="30.3157" width="17.0527" height="18.4848" filterUnits="userSpaceOnUse" color-interpolation-filters="sRGB">
<feFlood flood-opacity="0" result="BackgroundImageFix"/>
<feBlend mode="normal" in="SourceGraphic" in2="BackgroundImageFix" result="shape"/>
<feColorMatrix in="SourceAlpha" type="matrix" values="0 0 0 0 0 0 0 0 0 0 0 0 0 0 0 0 0 0 127 0" result="hardAlpha"/>
<feOffset dy="1.4322"/>
<feGaussianBlur stdDeviation="0.7161"/>
<feComposite in2="hardAlpha" operator="arithmetic" k2="-1" k3="1"/>
<feColorMatrix type="matrix" values="0 0 0 0 1 0 0 0 0 1 0 0 0 0 1 0 0 0 0.15 0"/>
<feBlend mode="normal" in2="shape" result="effect1_innerShadow_461_23654"/>
</filter>
<filter id="filter2_i_461_23654" x="31.5781" y="8.84204" width="17.0527" height="18.4848" filterUnits="userSpaceOnUse" color-interpolation-filters="sRGB">
<feFlood flood-opacity="0" result="BackgroundImageFix"/>
<feBlend mode="normal" in="SourceGraphic" in2="BackgroundImageFix" result="shape"/>
<feColorMatrix in="SourceAlpha" type="matrix" values="0 0 0 0 0 0 0 0 0 0 0 0 0 0 0 0 0 0 127 0" result="hardAlpha"/>
<feOffset dy="1.4322"/>
<feGaussianBlur stdDeviation="0.7161"/>
<feComposite in2="hardAlpha" operator="arithmetic" k2="-1" k3="1"/>
<feColorMatrix type="matrix" values="0 0 0 0 1 0 0 0 0 1 0 0 0 0 1 0 0 0 0.15 0"/>
<feBlend mode="normal" in2="shape" result="effect1_innerShadow_461_23654"/>
</filter>
<filter id="filter3_i_461_23654" x="10.7383" y="30.3157" width="17.0527" height="18.4848" filterUnits="userSpaceOnUse" color-interpolation-filters="sRGB">
<feFlood flood-opacity="0" result="BackgroundImageFix"/>
<feBlend mode="normal" in="SourceGraphic" in2="BackgroundImageFix" result="shape"/>
<feColorMatrix in="SourceAlpha" type="matrix" values="0 0 0 0 0 0 0 0 0 0 0 0 0 0 0 0 0 0 127 0" result="hardAlpha"/>
<feOffset dy="1.4322"/>
<feGaussianBlur stdDeviation="0.7161"/>
<feComposite in2="hardAlpha" operator="arithmetic" k2="-1" k3="1"/>
<feColorMatrix type="matrix" values="0 0 0 0 1 0 0 0 0 1 0 0 0 0 1 0 0 0 0.15 0"/>
<feBlend mode="normal" in2="shape" result="effect1_innerShadow_461_23654"/>
</filter>
<linearGradient id="paint0_linear_461_23654" x1="13.2617" y1="39.7896" x2="47.2244" y2="59.5982" gradientUnits="userSpaceOnUse">
<stop stop-color="#3FD0FF"/>
<stop offset="1" stop-color="#2366F2"/>
</linearGradient>
</defs>
</svg>
